<svg xmlns="http://www.w3.org/2000/svg" xmlns:xlink="http://www.w3.org/1999/xlink" width="371" height="120.461" viewBox="0 0 371 120.461">
  <defs>
    <clipPath id="clip-path">
      <path id="Trazado_180361" data-name="Trazado 180361" d="M60.23,0a60.23,60.23,0,1,0,60.23,60.23l-60.23-.1Z" transform="translate(0)" fill="#2d54fe"/>
    </clipPath>
    <clipPath id="clip-path-2">
      <rect id="Rectángulo_36920" data-name="Rectángulo 36920" width="371" height="120.461" fill="none"/>
    </clipPath>
    <clipPath id="clip-path-3">
      <rect id="Rectángulo_36922" data-name="Rectángulo 36922" width="70.002" height="70" fill="none"/>
    </clipPath>
  </defs>
  <g id="Grupo_118342" data-name="Grupo 118342" transform="translate(-790 -8862.77)">
    <g id="Grupo_118305" data-name="Grupo 118305" transform="translate(790 8862.77)">
      <g id="Grupo_118302" data-name="Grupo 118302" transform="translate(0)">
        <g id="Grupo_118301" data-name="Grupo 118301" clip-path="url(#clip-path)">
          <rect id="Rectángulo_36919" data-name="Rectángulo 36919" width="120.461" height="120.461" transform="translate(0 0)" fill="#2d54fe"/>
        </g>
      </g>
      <g id="Grupo_118304" data-name="Grupo 118304" transform="translate(0 0)">
        <g id="Grupo_118303" data-name="Grupo 118303" clip-path="url(#clip-path-2)">
          <path id="Trazado_180362" data-name="Trazado 180362" d="M103.611,54.883A48.728,48.728,0,1,1,54.881,6.154a48.729,48.729,0,0,1,48.729,48.729" transform="translate(5.347 5.347)" fill="#fff"/>
        </g>
      </g>
    </g>
    <g id="Grupo_118312" data-name="Grupo 118312" transform="translate(814.5 8886.77)">
      <g id="Grupo_118311" data-name="Grupo 118311" clip-path="url(#clip-path-3)">
        <path id="Trazado_180387" data-name="Trazado 180387" d="M103.655,86.679a2.534,2.534,0,0,1-2.694,1.26c-.7-.067-1.412.022-2.114-.024-.513-.034-.646.121-.643.637.023,4.028-.047,8.057.035,12.083.049,2.408-.645,3.11-3.025,3.007-1.749-.075-3.5-.011-5.256-.016a1.926,1.926,0,0,1-2.155-2.138c-.008-1.138-.009-2.275-.016-3.413,0-.015-.025-.031-.054-.063-.258,0-.429.2-.629.324A34.384,34.384,0,0,1,71.416,103.5c-.9.07-1.108-.087-1.4-.934.192-.826.447-1.046,1.3-1.114A33.47,33.47,0,0,0,86.25,96.489c1.19-.724,1.794-1.5,1.572-2.91A15.38,15.38,0,0,1,87.8,91.3c-.27.211-.412.325-.557.435C77.667,99,67.3,100.379,56.293,95.552,43.329,89.865,36.355,75.084,39.924,61.3A29.66,29.66,0,0,1,73.55,39.391a28.466,28.466,0,0,1,18.181,10.66,28.98,28.98,0,0,1,5.818,25.355.8.8,0,0,0,.028.658c.714,1.1,1.422,2.209,2.181,3.389a31.756,31.756,0,0,0,1.717-8.082c.071-.929.265-1.184,1.1-1.386.6.063.864.492,1.08.977v.41c-.1.029-.125.11-.133.205a34.032,34.032,0,0,1-2.24,9.66.785.785,0,0,0,.142.806c.748,1.178,1.488,2.361,2.231,3.542Zm-19.295-4.3L84.609,82l6.6-10.194c1.082-1.673,2.548-1.663,3.642.024l.995,1.534c.068-.287.115-.439.139-.594A27.63,27.63,0,1,0,83.6,91.854a29.214,29.214,0,0,0,3.922-3.067.643.643,0,0,0,.259-.712c-.1-.3-.393-.137-.592-.14-.933-.018-1.868-.023-2.8,0a1.893,1.893,0,0,1-1.636-3.015c.544-.839,1.072-1.688,1.607-2.532m.236,3.491c1.331,0,2.532,0,3.733,0,1.229,0,1.535.3,1.535,1.527,0,4.508.008,9.016-.01,13.524,0,.48.071.666.615.653q2.526-.058,5.053.01c.566.015.655-.181.653-.686-.018-4.508-.011-9.016-.01-13.524,0-1.183.319-1.5,1.494-1.5,1.218,0,2.436,0,3.8,0L93.022,72.8,84.6,85.875" transform="translate(-33.653 -33.651)" fill="#030303"/>
        <path id="Trazado_180388" data-name="Trazado 180388" d="M33.666,69a1.167,1.167,0,0,1-1.415.859,34.032,34.032,0,0,1-16.883-5.983A34.092,34.092,0,0,1,1.11,43.432a33.761,33.761,0,0,1,6.2-29.7A34.135,34.135,0,0,1,28.5.619C29.571.407,30.66.3,31.74.144c.142-.021.331.069.407-.144h5.467c.035.152.159.126.268.134A32.167,32.167,0,0,1,42.394.8,35.162,35.162,0,0,1,69.627,29.885,9.638,9.638,0,0,0,70,32.254V32.8c-.3.358-.526.812-1.082.84-.747-.083-1.033-.552-1.094-1.251-.068-.77-.149-1.54-.267-2.3A31.921,31.921,0,0,0,56.138,9.8,32.174,32.174,0,0,0,28.366,2.738,24.043,24.043,0,0,0,22.038,4.8a.228.228,0,0,0-.285.115l0,0c-.116,0-.227.007-.284.132l.006,0a.3.3,0,0,0-.3.136.11.11,0,0,0-.089.036,1.2,1.2,0,0,0-.625.241A32.153,32.153,0,0,0,9.255,14.516,32.159,32.159,0,0,0,2.7,41.2,32.072,32.072,0,0,0,13.341,59.715a28.938,28.938,0,0,0,7.31,4.833l.263.109a.279.279,0,0,0,.294.139l-.006,0c.056.126.166.136.283.132l0,0a.258.258,0,0,0,.283.132.074.074,0,0,0,.074.035l.2.1a30.394,30.394,0,0,0,10.222,2.6c1,.087,1.282.313,1.406,1.211" transform="translate(0)" fill="#030303"/>
        <path id="Trazado_180389" data-name="Trazado 180389" d="M92.275,46.62l0,2.693c-.834.2-1.028.458-1.1,1.387a31.758,31.758,0,0,1-1.717,8.082C88.7,57.6,87.993,56.5,87.28,55.393a.8.8,0,0,1-.028-.658,28.981,28.981,0,0,0-5.818-25.355A28.465,28.465,0,0,0,63.253,18.72,29.658,29.658,0,0,0,29.628,40.628C26.059,54.413,33.033,69.194,46,74.88,57,79.708,67.369,78.327,76.947,71.061c.145-.11.287-.224.557-.435a15.378,15.378,0,0,0,.019,2.281c.222,1.413-.381,2.186-1.572,2.911a33.469,33.469,0,0,1-14.935,4.965c-.855.068-1.109.287-1.3,1.114a14.937,14.937,0,0,1-2.694.085c-.124-.9-.407-1.124-1.406-1.211a30.392,30.392,0,0,1-10.222-2.6l-.2-.1a.075.075,0,0,1-.074-.035.257.257,0,0,0-.283-.132l0,0a.23.23,0,0,0-.283-.132l.006,0c-.053-.142-.165-.159-.294-.139l-.263-.109c.039-.315-.235-.351-.419-.461a33.586,33.586,0,0,1-5.94-4.534A34.137,34.137,0,0,1,27.093,49.18a31.3,31.3,0,0,1,.376-6.1A33.266,33.266,0,0,1,32.719,29.33,32.29,32.29,0,0,1,38.442,22.7a36.889,36.889,0,0,1,4.835-3.636c.409-.251.921-.4,1.168-.876a.112.112,0,0,1,.089-.036c.132.023.247.01.3-.136l-.006,0a.228.228,0,0,0,.284-.132l0,0a.27.27,0,0,0,.285-.115,24.029,24.029,0,0,1,6.328-2.061,32.172,32.172,0,0,1,27.771,7.066A31.921,31.921,0,0,1,90.913,43.066c.118.763.2,1.534.267,2.3.061.7.347,1.168,1.094,1.251" transform="translate(-23.357 -12.98)" fill="#ffca00"/>
        <path id="Trazado_180390" data-name="Trazado 180390" d="M97.282,95.139c-.535.845-1.063,1.693-1.607,2.532a1.893,1.893,0,0,0,1.636,3.015c.933-.019,1.868-.014,2.8,0,.2,0,.489-.16.592.141a.643.643,0,0,1-.259.711,29.213,29.213,0,0,1-3.922,3.067A27.589,27.589,0,1,1,108.9,85.528c-.023.156-.071.308-.139.594l-.995-1.534c-1.093-1.687-2.559-1.7-3.642-.024l-6.6,10.193L97.4,94.61a6.638,6.638,0,0,0,.754-2.249,56.265,56.265,0,0,0,.036-8.392,5.218,5.218,0,0,0-3.236-4.706,9.527,9.527,0,0,0-8.124.157c-.185.088-.348.332-.617.12.046-.1.09-.205.139-.306q2.659-5.45,5.318-10.9a3.62,3.62,0,0,0,.46-1.415,3.294,3.294,0,0,0-2.522-3.3,2.962,2.962,0,0,0-3.677,1.668q-3.129,6.4-6.243,12.8c-.1.214-.214.425-.387.767.033-2.772.149-5.388-.04-7.993a5.553,5.553,0,0,0-3.967-5.189,10.492,10.492,0,0,0-4.72-.394c-3.157.36-5.258,2.257-5.574,5.4a46.373,46.373,0,0,0-.011,8.053,5.21,5.21,0,0,0,3.236,4.7,9.179,9.179,0,0,0,8.693-.505c.121-.073.227-.25.45-.1-.1.217-.2.438-.3.656q-2.7,5.544-5.4,11.086a3.151,3.151,0,0,0-.392,2.035A3.315,3.315,0,0,0,74.1,99.272a3.115,3.115,0,0,0,3.345-1.815q3.011-6.15,6.013-12.3c.106-.217.147-.483.389-.607.021,2.437-.107,4.875.064,7.306a5.563,5.563,0,0,0,2.739,4.62,8.844,8.844,0,0,0,10.474-1.448l.153.115" transform="translate(-46.574 -46.406)" fill="#e2e1df"/>
        <path id="Trazado_180391" data-name="Trazado 180391" d="M371.891,298.856l8.426-13.077,8.433,13.077c-1.36,0-2.578,0-3.8,0-1.175,0-1.493.322-1.494,1.5,0,4.508-.008,9.016.01,13.524,0,.505-.087.7-.653.686q-2.525-.068-5.053-.01c-.544.012-.617-.174-.615-.653.018-4.508.011-9.016.01-13.524,0-1.224-.306-1.526-1.535-1.527-1.2,0-2.4,0-3.733,0" transform="translate(-320.948 -246.632)" fill="#2d54fe"/>
        <path id="Trazado_180392" data-name="Trazado 180392" d="M369.451,352.038l-.249.381-.153-.115.269-.414.132.148" transform="translate(-318.495 -303.686)" fill="#e2e1df"/>
        <path id="Trazado_180393" data-name="Trazado 180393" d="M34.166,38.037c-.247.479-.759.625-1.168.876a36.891,36.891,0,0,0-4.835,3.636,32.291,32.291,0,0,0-5.724,6.627,33.268,33.268,0,0,0-5.25,13.748,31.305,31.305,0,0,0-.376,6.1A34.136,34.136,0,0,0,27.369,92.378a33.588,33.588,0,0,0,5.941,4.534c.184.11.458.146.419.461a28.937,28.937,0,0,1-7.31-4.833,32.846,32.846,0,0,1-4.086-45.2,32.151,32.151,0,0,1,11.209-9.063,1.2,1.2,0,0,1,.625-.241" transform="translate(-13.078 -32.826)" fill="#ffca00"/>
        <path id="Trazado_180394" data-name="Trazado 180394" d="M154.9,36.79c-.055.147-.17.16-.3.136a.3.3,0,0,1,.3-.136" transform="translate(-133.424 -31.75)" fill="#2470af"/>
        <path id="Trazado_180395" data-name="Trazado 180395" d="M157.042,35.856a.228.228,0,0,1-.284.132c.057-.124.168-.134.284-.132" transform="translate(-135.285 -30.944)" fill="#2470af"/>
        <path id="Trazado_180396" data-name="Trazado 180396" d="M159.084,34.969a.27.27,0,0,1-.285.115.228.228,0,0,1,.285-.115" transform="translate(-137.046 -30.17)" fill="#2470af"/>
        <path id="Trazado_180397" data-name="Trazado 180397" d="M152.673,471.954c.129-.02.241,0,.294.139a.279.279,0,0,1-.294-.139" transform="translate(-131.759 -407.297)" fill="#2470af"/>
        <path id="Trazado_180398" data-name="Trazado 180398" d="M154.78,472.946a.23.23,0,0,1,.283.132c-.117,0-.227-.006-.283-.132" transform="translate(-133.577 -408.154)" fill="#2470af"/>
        <path id="Trazado_180399" data-name="Trazado 180399" d="M156.819,473.911a.257.257,0,0,1,.283.132.257.257,0,0,1-.283-.132" transform="translate(-135.337 -408.99)" fill="#2470af"/>
        <path id="Trazado_180400" data-name="Trazado 180400" d="M159.422,475.15l.2.1-.2-.1" transform="translate(-137.584 -410.062)" fill="#2470af"/>
        <path id="Trazado_180401" data-name="Trazado 180401" d="M165.76,155.766l-.269.414a8.845,8.845,0,0,1-10.474,1.448,5.563,5.563,0,0,1-2.739-4.62c-.171-2.431-.043-4.87-.064-7.306-.242.123-.283.39-.389.607q-3.009,6.151-6.013,12.3a3.115,3.115,0,0,1-3.345,1.815,3.316,3.316,0,0,1-2.835-2.668,3.151,3.151,0,0,1,.392-2.035q2.7-5.542,5.4-11.086c.106-.217.2-.439.3-.656-.222-.154-.329.023-.45.1a9.179,9.179,0,0,1-8.693.505,5.21,5.21,0,0,1-3.236-4.7,46.361,46.361,0,0,1,.011-8.053c.315-3.143,2.417-5.04,5.574-5.4a10.49,10.49,0,0,1,4.72.394,5.554,5.554,0,0,1,3.967,5.189c.189,2.605.073,5.221.04,7.993.172-.342.282-.553.387-.767q3.121-6.4,6.243-12.8a2.962,2.962,0,0,1,3.677-1.668,3.294,3.294,0,0,1,2.522,3.3,3.618,3.618,0,0,1-.46,1.415q-2.656,5.452-5.318,10.9c-.049.1-.093.2-.139.306.269.212.431-.032.617-.12a9.527,9.527,0,0,1,8.124-.157,5.218,5.218,0,0,1,3.236,4.706,56.286,56.286,0,0,1-.036,8.392,6.636,6.636,0,0,1-.754,2.249m-8.441-13.778v0a3.489,3.489,0,0,0-2.981,3.324c-.126,2.545-.128,5.1,0,7.642a3.545,3.545,0,0,0,3.132,3.416l.033.026h.042l.2.076a8.475,8.475,0,0,0,3.518-.011,3.752,3.752,0,0,0,3.3-3.691q.084-3.611,0-7.224a3.5,3.5,0,0,0-2.264-3.355,7.792,7.792,0,0,0-4.682-.3c-.115-.018-.226-.024-.293.1m.436-15.057c-.847-.437-1.277-.307-1.686.533q-3.244,6.656-6.482,13.315-3.867,7.947-7.737,15.892a1.038,1.038,0,0,0,.01,1.207,1.248,1.248,0,0,0,1.263.5.775.775,0,0,0,.544-.245c.176-.094.225-.276.3-.437q7.147-14.631,14.291-29.263c.339-.7.2-1.089-.505-1.5m-19.139,1.687a3.662,3.662,0,0,0-3.269,3.734q-.086,3.5,0,7.012a3.651,3.651,0,0,0,3.265,3.737,7.209,7.209,0,0,0,4.988-.4,3.284,3.284,0,0,0,1.968-2.911,75.9,75.9,0,0,0,0-7.85,3.272,3.272,0,0,0-1.9-2.888,7.264,7.264,0,0,0-5.054-.432" transform="translate(-114.936 -107.562)" fill="#030303"/>
        <path id="Trazado_180402" data-name="Trazado 180402" d="M162.39,152.084a7.264,7.264,0,0,1,5.054.432,3.272,3.272,0,0,1,1.9,2.888,75.891,75.891,0,0,1,0,7.85,3.285,3.285,0,0,1-1.968,2.911,7.208,7.208,0,0,1-4.988.4,6.167,6.167,0,0,1-1.652-4.852c.04-1.633.05-3.268,0-4.9a6.374,6.374,0,0,1,1.657-4.73m4.935,7.283h0c0-1.069.025-2.139-.006-3.207a2.71,2.71,0,0,0-2.79-2.748c-1.9-.089-3.106.739-3.25,2.431a43.28,43.28,0,0,0-.011,6.881c.13,1.755,1.357,2.623,3.245,2.518a2.732,2.732,0,0,0,2.812-2.873c.022-1,0-2,0-3" transform="translate(-138.711 -131.028)" fill="#fe502d"/>
        <path id="Trazado_180403" data-name="Trazado 180403" d="M301.134,249.191a7.794,7.794,0,0,1,4.682.3,3.5,3.5,0,0,1,2.264,3.355q.089,3.61,0,7.224a3.752,3.752,0,0,1-3.3,3.691,8.476,8.476,0,0,1-3.518.011l-.2-.076h-.042l-.033-.026a.483.483,0,0,0-.158-.364,4.771,4.771,0,0,1-1.35-3.652q.008-3.205,0-6.411a5.255,5.255,0,0,1,1.074-3.363c.13-.167.34-.325.284-.592v0a.246.246,0,0,0,.293-.1m-1.234,7.276c0,1-.016,2,0,3a2.8,2.8,0,0,0,3.048,2.935,2.833,2.833,0,0,0,3.083-2.921q.043-3.037,0-6.075a2.8,2.8,0,0,0-3.1-2.881,2.748,2.748,0,0,0-3.025,2.867c-.024,1.023,0,2.048-.006,3.071" transform="translate(-258.458 -214.864)" fill="#fe502d"/>
        <path id="Trazado_180404" data-name="Trazado 180404" d="M197.089,171.054a.775.775,0,0,1-.544.245,1.248,1.248,0,0,1-1.263-.5,1.038,1.038,0,0,1-.01-1.207q3.879-7.941,7.737-15.892,3.24-6.658,6.483-13.314c.41-.84.839-.97,1.686-.533a1.649,1.649,0,0,1-.274.831q-2.279,4.694-4.559,9.389-2.656,5.46-5.319,10.916c-1.328,2.718-2.674,5.427-3.992,8.15-.3.629-.624,1.3.056,1.918" transform="translate(-168.36 -120.482)" fill="#fe502d"/>
        <path id="Trazado_180405" data-name="Trazado 180405" d="M207.187,172.6c-.68-.619-.36-1.288-.056-1.918,1.319-2.722,2.664-5.432,3.992-8.15q2.666-5.455,5.319-10.916,2.283-4.693,4.559-9.389a1.649,1.649,0,0,0,.274-.831c.7.414.845.808.505,1.5q-7.143,14.633-14.291,29.263c-.079.161-.127.343-.3.437" transform="translate(-178.458 -122.027)" fill="#fe502d"/>
        <path id="Trazado_180406" data-name="Trazado 180406" d="M151.995,153.713a6.374,6.374,0,0,0-1.657,4.73c.052,1.632.043,3.268,0,4.9a6.167,6.167,0,0,0,1.651,4.852,3.651,3.651,0,0,1-3.265-3.737q-.087-3.5,0-7.012a3.662,3.662,0,0,1,3.269-3.734" transform="translate(-128.316 -132.657)" fill="#fe502d"/>
        <path id="Trazado_180407" data-name="Trazado 180407" d="M290.019,251.285c.056.268-.154.426-.284.593a5.256,5.256,0,0,0-1.074,3.363q.007,3.206,0,6.411a4.77,4.77,0,0,0,1.35,3.651.483.483,0,0,1,.158.364,3.545,3.545,0,0,1-3.132-3.416c-.127-2.545-.126-5.1,0-7.642a3.489,3.489,0,0,1,2.981-3.324" transform="translate(-247.636 -216.863)" fill="#fe502d"/>
        <path id="Trazado_180408" data-name="Trazado 180408" d="M309.691,250.523a.246.246,0,0,1-.293.1c.067-.123.178-.118.293-.1" transform="translate(-267.015 -216.196)" fill="#2470af"/>
        <path id="Trazado_180409" data-name="Trazado 180409" d="M311.038,356.458l.2.077-.2-.077" transform="translate(-268.431 -307.629)" fill="#2470af"/>
        <path id="Trazado_180410" data-name="Trazado 180410" d="M169.875,169.328c0,1,.018,2,0,3a2.732,2.732,0,0,1-2.812,2.873c-1.888.106-3.115-.762-3.245-2.517a43.3,43.3,0,0,1,.011-6.881c.145-1.693,1.351-2.52,3.25-2.431a2.71,2.71,0,0,1,2.79,2.748c.032,1.068.006,2.138.006,3.207h0m-2.049-.042c0-1-.01-2,0-3,.009-.661-.357-.861-.947-.875s-1.07.1-1.074.81c-.01,2.045-.021,4.09.007,6.134.009.652.319.838,1.07.812.578-.02.956-.217.945-.883-.017-1,0-2,0-3" transform="translate(-141.261 -140.988)" fill="#030303"/>
        <path id="Trazado_180411" data-name="Trazado 180411" d="M302.488,266.285c0-1.024-.019-2.048,0-3.071a2.748,2.748,0,0,1,3.025-2.867,2.8,2.8,0,0,1,3.1,2.881q.048,3.037,0,6.075a2.833,2.833,0,0,1-3.083,2.92,2.8,2.8,0,0,1-3.048-2.935c-.019-1,0-2,0-3m2.05-.055c0,1-.011,2,0,3,.01.707.254.928.962.938.751.011,1.063-.23,1.068-.914q.023-2.968,0-5.936c0-.706-.278-.924-1.047-.923-.732,0-.971.2-.983.9-.017.978,0,1.956,0,2.934" transform="translate(-261.046 -224.683)" fill="#030303"/>
        <path id="Trazado_180412" data-name="Trazado 180412" d="M181.155,182.164c0,1-.013,2,0,3,.011.666-.367.863-.945.883-.751.026-1.061-.16-1.07-.812-.028-2.044-.017-4.089-.007-6.134,0-.715.485-.824,1.073-.81s.956.214.947.875c-.013,1,0,2,0,3" transform="translate(-154.589 -153.866)" fill="#e2e1df"/>
        <path id="Trazado_180413" data-name="Trazado 180413" d="M317.476,279.151c0-.978-.012-1.956,0-2.934.012-.7.251-.9.983-.9.769,0,1.042.216,1.047.923q.02,2.968,0,5.936c-.005.684-.317.925-1.068.914-.708-.01-.951-.231-.962-.938-.015-1,0-2,0-3" transform="translate(-273.983 -237.604)" fill="#e2e1df"/>
      </g>
    </g>
  </g>
</svg>
