<svg xmlns="http://www.w3.org/2000/svg" xmlns:xlink="http://www.w3.org/1999/xlink" width="190" height="116.5" viewBox="0 0 190 116.5">
  <defs>
    <clipPath id="clip-path">
      <rect id="Rectángulo_36872" data-name="Rectángulo 36872" width="89.843" height="90" fill="none"/>
    </clipPath>
  </defs>
  <g id="Grupo_118329" data-name="Grupo 118329" transform="translate(-475 -873)">
    <g id="Grupo_117243" data-name="Grupo 117243" transform="translate(295 4.5)">
      <path id="Trazado_178448" data-name="Trazado 178448" d="M791.013-1163H941.987c-.282-39.809-33.964-72-75.487-72S791.295-1202.809,791.013-1163Z" transform="translate(1141.5 -278) rotate(180)" fill="#ffca00" opacity="0.15"/>
      <g id="Grupo_117240" data-name="Grupo 117240" transform="translate(370 985) rotate(180)">
        <path id="Trazado_100600" data-name="Trazado 100600" d="M713.6-210.305l2.423-2.423,8.456,8.456,2.423,2.423-2.423,2.423-8.456,8.456-2.423-2.423,8.456-8.456Z" transform="translate(-702.564 212.728)" fill="#2d54fe"/>
        <path id="Trazado_100601" data-name="Trazado 100601" d="M776.91-201.849l-8.456-8.456,2.423-2.423,8.456,8.456,2.423,2.423-2.423,2.423-8.456,8.456-2.423-2.423Z" transform="translate(-768.453 212.728)" fill="#2d54fe"/>
      </g>
      <g id="Grupo_117241" data-name="Grupo 117241" transform="translate(195.667 949.479) rotate(90)">
        <path id="Trazado_100600-2" data-name="Trazado 100600" d="M0,13.922l1.744,1.744L7.833,9.578,9.578,7.833,7.833,6.089,1.744,0,0,1.744,6.089,7.833Z" transform="translate(7.944)" fill="#fe502d"/>
        <path id="Trazado_100601-2" data-name="Trazado 100601" d="M6.089,7.833,0,13.922l1.744,1.744L7.833,9.578,9.578,7.833,7.833,6.089,1.744,0,0,1.744Z" fill="#fe502d"/>
      </g>
      <rect id="Rectángulo_36648" data-name="Rectángulo 36648" width="39" height="10" transform="translate(370 905) rotate(180)" fill="#ffca00"/>
      <rect id="Rectángulo_36650" data-name="Rectángulo 36650" width="39" height="10" transform="translate(219 925.12) rotate(180)" fill="#2d54fe"/>
    </g>
    <g id="Grupo_118216" data-name="Grupo 118216" transform="translate(525.078 873)">
      <g id="Grupo_118215" data-name="Grupo 118215" clip-path="url(#clip-path)">
        <path id="Trazado_180057" data-name="Trazado 180057" d="M1.345,238.117a2.034,2.034,0,0,1-1.222-1.85A1.8,1.8,0,0,1,2.108,234.6c1.518-.027,1.518-.027,1.518-1.556q0-7.074,0-14.149c0-1.539.637-2.175,2.193-2.179q4.473-.011,8.946,0c1.555,0,2.191.64,2.192,2.181,0,4.98.012,9.96-.013,14.94,0,.593.105.827.747.778a16.957,16.957,0,0,1,2.454,0c.661.046.869-.124.867-.837-.028-8.5-.018-16.99-.018-25.485,0-1.846-.005-3.691,0-5.537.006-1.44.648-2.077,2.1-2.079q4.561-.008,9.122,0c1.488,0,2.108.638,2.109,2.16q0,15.423-.02,30.846c0,.783.189,1.005.95.934a13.98,13.98,0,0,1,2.366,0c.632.049.757-.167.755-.77-.023-7.148-.015-14.3-.014-21.443,0-1.875.53-2.41,2.386-2.411q4.429,0,8.859,0c1.442,0,2.086.647,2.087,2.093,0,7.206.012,14.412-.015,21.618,0,.7.116.989.881.913a13.944,13.944,0,0,1,2.366,0c.631.045.838-.1.825-.792-.048-2.606-.02-5.214-.02-7.821q0-11.512,0-23.025c0-1.737.569-2.3,2.319-2.3q4.342,0,8.683,0c1.784,0,2.33.558,2.33,2.38q0,15.335-.019,30.67c0,.738.176.95.9.892a22.35,22.35,0,0,1,2.63-.007c.432.016.579-.131.525-.545a4.11,4.11,0,0,1,0-.527q0-25.705,0-51.41c0-1.889.514-2.414,2.369-2.415q4.3,0,8.6,0c1.853,0,2.368.528,2.368,2.417q0,25.749-.018,51.5c0,.785.173,1.1.981.979a2.237,2.237,0,0,1,2.547,1.224v.879a2.106,2.106,0,0,1-1.4,1.406Zm81.579-29.126c0-8.29-.011-16.58.018-24.871,0-.738-.185-.937-.914-.907-1.489.06-2.983.06-4.472,0-.747-.03-.971.141-.969.942q.046,17.532.021,35.065c0,4.863.015,9.726-.017,14.588,0,.673.181.83.825.809,1.519-.05,3.042-.056,4.56,0,.736.028.974-.122.97-.933-.037-8.232-.022-16.463-.022-24.695M24.5,219.3c0,4.859.009,9.718-.012,14.576,0,.554.115.752.71.737,1.664-.043,3.33-.034,4.995,0,.5.009.634-.134.633-.634q-.021-14.577,0-29.153c0-.6-.227-.651-.713-.644-1.606.024-3.215.044-4.82-.008-.658-.021-.819.157-.815.815.031,4.771.017,9.542.017,14.313m34.737.1c0,4.831.01,9.661-.013,14.492,0,.571.143.738.72.724,1.665-.04,3.331-.034,5,0,.506.009.624-.153.623-.639q-.02-14.58,0-29.16c0-.494-.131-.643-.629-.633-1.636.03-3.274.049-4.908-.007-.672-.023-.809.177-.8.821.029,4.8.016,9.6.016,14.4m-11.052,4.745c0-3.307-.013-6.614.013-9.92,0-.564-.133-.745-.717-.731-1.664.041-3.33.033-4.994,0-.5-.009-.63.146-.629.637q.023,9.92,0,19.841c0,.488.123.649.626.64,1.664-.03,3.33-.037,4.994,0,.579.014.725-.159.72-.728-.027-3.248-.013-6.5-.013-9.745m-34.746,3.269c0-2.166-.018-4.333.013-6.5.008-.539-.133-.7-.679-.684-1.664.037-3.33.029-5,0-.477-.007-.651.105-.649.622q.03,6.586,0,13.172c0,.473.144.581.59.575,1.665-.024,3.331-.044,5,.008.65.02.749-.206.739-.787-.035-2.136-.014-4.273-.014-6.41" transform="translate(-0.099 -148.117)"/>
        <path id="Trazado_180058" data-name="Trazado 180058" d="M64.05,32.712c.756,1.229.69,1.82-.344,2.858q-4.275,4.292-8.557,8.577c-1.267,1.268-2.083,1.273-3.334.019q-7.536-7.549-15.058-15.112c-.49-.5-.733-.471-1.21.009Q22.855,41.823,10.13,54.55c-1.424,1.426-2.108,1.43-3.516.02Q3.728,51.681.846,48.789C-.272,47.665-.283,46.812.819,45.707q16.9-16.936,33.8-33.866c1.11-1.112,1.961-1.106,3.083.017Q45.3,19.466,52.885,27.1c.5.509.74.434,1.2-.025q8.752-8.816,17.552-17.584c.465-.463.525-.731-.006-1.132a7.645,7.645,0,0,1-.873-.863,1.759,1.759,0,0,1,.829-3.109c3.262-.894,6.537-1.735,9.795-2.642,2.062-.574,4.167-1,6.183-1.739h.877a2.071,2.071,0,0,1,1.4,1.406V2.461a6.382,6.382,0,0,0-.686,2.116c-1.239,4.556-2.443,9.12-3.678,13.677a1.761,1.761,0,0,1-3.142.844,4.214,4.214,0,0,1-.491-.5c-.4-.54-.707-.534-1.2-.025-2.093,2.16-4.235,4.272-6.362,6.4-1.029,1.028-1.628,1.1-2.846.338-.714-1.215-.648-1.8.343-2.793q3.841-3.857,7.689-7.707c1.327-1.33,1.819-1.383,3.31-.346a.772.772,0,0,0,.149-.212c.837-3.1,1.665-6.21,2.506-9.312.158-.584-.072-.646-.562-.512-2.025.557-4.054,1.1-6.082,1.648l-3.454.938C76.78,8.8,76.763,9.3,75.315,10.747L55.22,30.881c-1.365,1.368-2.117,1.374-3.46.028q-7.5-7.519-15-15.05c-.48-.485-.725-.5-1.211,0-3.824,3.875-7.679,7.718-11.524,11.57Q14.413,37.058,4.79,46.68c-.422.421-.489.655-.025,1.088,1.026.958,2.034,1.942,2.972,2.985.507.564.763.477,1.257-.021q12.689-12.765,25.416-25.49c1.374-1.377,2.1-1.382,3.46-.021q7.536,7.55,15.061,15.11c.427.431.648.45,1.082.007,2.4-2.447,4.824-4.861,7.245-7.282.989-.99,1.575-1.056,2.791-.344" transform="translate(0)"/>
        <path id="Trazado_180059" data-name="Trazado 180059" d="M84.884,53.191c-1.216-.713-1.8-.646-2.791.344-2.421,2.421-4.849,4.835-7.245,7.282-.434.443-.655.424-1.082-.007Q66.254,53.236,58.7,45.7c-1.359-1.361-2.086-1.356-3.46.021Q42.53,58.46,29.828,71.211c-.495.5-.751.584-1.257.021-.938-1.043-1.947-2.027-2.972-2.985-.465-.434-.4-.668.025-1.088q9.635-9.61,19.237-19.254c3.845-3.853,7.7-7.7,11.524-11.57.487-.493.732-.48,1.212,0q7.477,7.547,15,15.05c1.343,1.345,2.095,1.339,3.46-.028L96.148,31.226c1.448-1.451,1.465-1.951.022-3.733l3.454-.938c2.027-.549,4.057-1.091,6.082-1.648.49-.135.72-.073.562.512-.841,3.1-1.669,6.209-2.506,9.312a.773.773,0,0,1-.149.212c-1.491-1.037-1.983-.985-3.31.346Q96.459,39.142,92.614,43c-.991.995-1.057,1.579-.343,2.794l-2.388,2.485c-1.045-.7-1.826-.7-2.522,0s-.694,1.474,0,2.528l-2.48,2.391" transform="translate(-20.833 -20.479)" fill="#fe502d"/>
        <path id="Trazado_180060" data-name="Trazado 180060" d="M375.96,158.165c-.7-1.054-.7-1.832,0-2.528s1.477-.7,2.522,0c.607,1.043.589,1.816-.059,2.465s-1.417.668-2.461.062" transform="translate(-309.43 -127.844)"/>
        <path id="Trazado_180061" data-name="Trazado 180061" d="M441.393,225.385c0,8.232-.014,16.463.022,24.695,0,.811-.234.961-.97.933-1.518-.057-3.041-.051-4.56,0-.644.021-.83-.136-.825-.809.032-4.862.017-9.725.017-14.588q0-17.532-.021-35.065c0-.8.222-.972.969-.942,1.489.06,2.983.06,4.472,0,.729-.03.916.169.914.907-.029,8.29-.018,16.58-.018,24.871" transform="translate(-358.568 -164.511)" fill="#2d54fe"/>
        <path id="Trazado_180062" data-name="Trazado 180062" d="M138.731,333.966c0-4.771.014-9.542-.017-14.313,0-.658.157-.836.815-.815,1.6.052,3.213.032,4.819.008.486-.008.714.049.713.643q-.031,14.577,0,29.153c0,.5-.135.643-.633.634-1.665-.03-3.331-.039-4.995,0-.595.015-.712-.184-.71-.737.02-4.859.012-9.718.012-14.577" transform="translate(-114.327 -262.781)" fill="#d3d3d3"/>
        <path id="Trazado_180063" data-name="Trazado 180063" d="M336.312,334.057c0-4.8.013-9.6-.016-14.4,0-.644.133-.844.8-.821,1.634.055,3.272.037,4.908.007.5-.009.629.139.629.633q-.021,14.58,0,29.16c0,.486-.117.649-.623.639-1.665-.031-3.331-.037-5,0-.576.014-.722-.153-.72-.724.023-4.831.013-9.661.013-14.492" transform="translate(-277.171 -262.775)" fill="#fe502d"/>
        <path id="Trazado_180064" data-name="Trazado 180064" d="M243.863,382.493c0,3.248-.014,6.5.013,9.745,0,.569-.141.742-.72.728-1.664-.04-3.33-.033-4.994,0-.5.009-.628-.152-.626-.64q.022-9.92,0-19.841c0-.491.129-.646.629-.637,1.664.03,3.33.038,4.994,0,.584-.014.722.167.717.731-.026,3.306-.013,6.613-.013,9.92" transform="translate(-195.774 -306.467)" fill="#ffca00"/>
        <path id="Trazado_180065" data-name="Trazado 180065" d="M46.312,417.348c0,2.137-.021,4.274.014,6.41.009.582-.089.808-.739.788-1.664-.052-3.33-.032-5-.008-.446.007-.592-.1-.59-.575q.028-6.586,0-13.172c0-.517.172-.629.649-.622,1.665.026,3.331.034,5,0,.546-.012.687.146.679.684-.031,2.166-.013,4.332-.013,6.5" transform="translate(-32.968 -338.052)" fill="#2d54fe"/>
      </g>
    </g>
  </g>
</svg>
