<svg id="Grupo_118291" data-name="Grupo 118291" xmlns="http://www.w3.org/2000/svg" xmlns:xlink="http://www.w3.org/1999/xlink" width="70.047" height="70" viewBox="0 0 70.047 70">
  <defs>
    <clipPath id="clip-path">
      <rect id="Rectángulo_36910" data-name="Rectángulo 36910" width="70.047" height="70" fill="none"/>
    </clipPath>
  </defs>
  <g id="Grupo_118290" data-name="Grupo 118290" clip-path="url(#clip-path)">
    <path id="Trazado_180280" data-name="Trazado 180280" d="M18.187,185.357a15.463,15.463,0,0,1-8.936.7,11.226,11.226,0,0,1-6.78-17.947c1.3-1.749,2.61-3.5,3.937-5.229a1.082,1.082,0,0,0,.195-1.085c-.65-2.224-1.323-4.445-1.874-6.7a4.016,4.016,0,0,1,3.709-4.873c1.2-.057,2.4-.057,3.592,0a3.857,3.857,0,0,1,3.155,1.842.727.727,0,0,0,.724.4,15.16,15.16,0,0,1,1.76,0c.427.028.488-.146.486-.52-.015-2.607,0-5.214-.018-7.821,0-.508.068-.713.661-.707q5,.052,10,0c.553-.005.634.164.634.664q-.021,20.785,0,41.57c0,.524-.118.654-.647.65q-4.861-.042-9.723,0c-.645.005-1.138,0-.882-.953m-5.661-21.615c-1.151,0-2.3.01-3.452-.006a.832.832,0,0,0-.778.345c-1.435,1.946-2.941,3.841-4.321,5.825a8.964,8.964,0,0,0,3.051,13,12.008,12.008,0,0,0,8.576.866,8.93,8.93,0,0,0,5.346-14.018c-1.353-1.917-2.807-3.762-4.2-5.649a.831.831,0,0,0-.765-.372c-1.151.02-2.3.008-3.453.008m7.888,20.3c2.161,0,4.172-.014,6.183.011.458.006.584-.116.583-.58q-.019-18.6,0-37.194c0-.446-.1-.6-.573-.591q-2.817.043-5.635,0c-.468-.007-.583.133-.577.586.024,2.066.018,4.133,0,6.2a.858.858,0,0,0,.4.807,4.243,4.243,0,0,1,.591,6.56c-.8.831-1.6,1.657-2.447,2.433-.394.361-.352.585-.053.972,1.234,1.6,2.43,3.223,3.646,4.834a11.18,11.18,0,0,1,2.362,6.433,11.3,11.3,0,0,1-4.48,9.528m-7.688-22.554c1.127,0,2.254,0,3.381,0a.853.853,0,0,0,.693-.244c1-1.026,2.034-2.017,3.024-3.052a1.917,1.917,0,0,0,.405-2.214,1.987,1.987,0,0,0-1.879-1.252c-.633-.02-1.27.029-1.9-.017-.5-.036-.565.171-.565.6,0,1.827-.013,1.816-1.867,1.675-.32-.024-.389-.136-.384-.422.014-.728.018-1.456,0-2.184a1.831,1.831,0,0,0-1.908-1.91c-.986-.019-1.973-.023-2.958,0a1.815,1.815,0,0,0-1.792,2.4c.565,2.056,1.168,4.1,1.733,6.157a.538.538,0,0,0,.636.463c1.127-.022,2.254-.008,3.381-.008" transform="translate(-0.09 -116.406)" fill="#010101"/>
    <path id="Trazado_180281" data-name="Trazado 180281" d="M67.209,27.813c-.206-1.289-.368-2.424-.577-3.551-.063-.339-.015-.467.342-.488a3.485,3.485,0,0,0,.969-.165c.685-.246.908,0,1.009.686.314,2.158.677,4.309,1.067,6.454.091.5-.019.63-.507.7-2.294.352-4.584.738-6.87,1.139-.35.061-.463,0-.484-.348a8.978,8.978,0,0,0-.142-.9c-.153-.927-.151-.917.816-1.069,1.013-.16,2.023-.341,3.178-.537-.959-.722-1.8-1.355-2.636-1.985q-4.674-3.506-9.345-7.016a.652.652,0,0,0-.9-.059,4.384,4.384,0,0,1-6.226-1.494.641.641,0,0,0-.813-.381c-1.264.253-2.541.441-3.817.629a.68.68,0,0,0-.678.63,4.443,4.443,0,0,1-4.635,3.586,4.506,4.506,0,0,1-4.211-4.021c-.047-.412-.146-.592-.566-.7q-3.841-1-7.661-2.083c-.435-.124-.548,0-.706.357a12.362,12.362,0,1,1,.8-7.073,9.894,9.894,0,0,1,.086,3.781c-.092.491.048.686.542.814,2.516.654,5.022,1.343,7.526,2.042a.647.647,0,0,0,.86-.266,4.431,4.431,0,0,1,7.489.4.6.6,0,0,0,.771.328c1.267-.239,2.542-.437,3.818-.626a.679.679,0,0,0,.686-.621,4.475,4.475,0,1,1,8.717,2.012.8.8,0,0,0,.359,1.027C59.338,21.9,63.2,24.8,67.209,27.813M12.445,2.227A10.149,10.149,0,1,0,22.569,12.437,10.167,10.167,0,0,0,12.445,2.227M50.793,19.142a2.254,2.254,0,1,0-2.284-2.206,2.276,2.276,0,0,0,2.284,2.206M37.251,21.4a2.254,2.254,0,1,0-2.275-2.215A2.275,2.275,0,0,0,37.251,21.4" transform="translate(0 0)" fill="#010101"/>
    <path id="Trazado_180282" data-name="Trazado 180282" d="M250.744,170.3c0,6.719-.008,13.438.015,20.157,0,.583-.131.729-.719.723q-4.968-.049-9.937,0c-.526,0-.65-.122-.649-.649q.025-20.228,0-40.455c0-.524.117-.655.647-.651q5,.042,10.008,0c.526,0,.651.121.649.649q-.03,10.113-.013,20.227m-2.256-.006c0-5.987-.008-11.973.013-17.96,0-.529-.13-.664-.656-.654-1.854.035-3.709.031-5.564,0-.483-.008-.568.156-.567.6q.016,18.031,0,36.061c0,.462.124.587.583.58,1.831-.026,3.663-.04,5.493.006.61.015.715-.175.713-.741-.021-5.963-.013-11.926-.013-17.89" transform="translate(-194.342 -121.276)" fill="#010101"/>
    <path id="Trazado_180283" data-name="Trazado 180283" d="M178.911,197.416c0,5.779-.01,11.559.015,17.338,0,.585-.134.727-.721.722q-4.968-.048-9.937,0c-.528,0-.649-.125-.648-.65q.025-17.408,0-34.816c0-.526.121-.654.648-.649q5,.041,10.008,0c.528,0,.65.124.648.65-.021,5.8-.013,11.605-.013,17.408m-9.021.009c0,5.047.009,10.094-.013,15.141,0,.534.137.66.658.651q2.781-.051,5.563,0c.486.008.566-.161.566-.6q-.017-15.212,0-30.423c0-.466-.131-.584-.585-.578-1.854.025-3.709.035-5.563,0-.555-.012-.641.17-.639.67.018,5.047.011,10.094.011,15.141" transform="translate(-136.042 -145.569)" fill="#010101"/>
    <path id="Trazado_180284" data-name="Trazado 180284" d="M322.577,219.1c0,5.051-.009,10.1.013,15.153,0,.525-.12.654-.648.65q-5-.041-10.008,0c-.527,0-.649-.123-.648-.649q.027-15.153,0-30.306c0-.525.12-.654.648-.65q5,.041,10.008,0c.527,0,.651.123.649.649-.023,5.051-.014,10.1-.014,15.153m-2.256,0c0-4.3-.01-8.591.013-12.886,0-.521-.118-.669-.651-.658-1.854.036-3.709.031-5.562,0-.473-.007-.575.14-.574.589q.019,12.957,0,25.914c0,.455.112.592.578.585,1.854-.027,3.709-.034,5.562,0,.54.011.65-.148.647-.662-.022-4.3-.012-8.591-.012-12.886" transform="translate(-252.643 -165.002)" fill="#010101"/>
    <path id="Trazado_180285" data-name="Trazado 180285" d="M22.192,251.233c1.151,0,2.3.012,3.452-.008a.832.832,0,0,1,.765.372c1.4,1.887,2.85,3.732,4.2,5.649a8.93,8.93,0,0,1-5.346,14.018,12.008,12.008,0,0,1-8.576-.867,8.964,8.964,0,0,1-3.051-13c1.38-1.984,2.886-3.879,4.321-5.825a.832.832,0,0,1,.778-.345c1.151.016,2.3.006,3.453.006m-.059,18.044c1.171,0,1.171,0,1.171-1.169a6.269,6.269,0,0,0,0-.7.647.647,0,0,1,.446-.748,3.016,3.016,0,0,0,1.8-2.8,3.064,3.064,0,0,0-1.692-2.879c-.7-.385-1.42-.724-2.133-1.08a.976.976,0,0,1-.645-1.122A.927.927,0,0,1,21.97,258c.524-.048,1.1.021,1.215.585.13.615.486.551.9.54a5.84,5.84,0,0,1,.915.005c.566.075.623-.209.53-.654a2.585,2.585,0,0,0-1.208-1.981c-1.065-.486-1.1-1.276-1.021-2.2.012-.14-.012-.284,0-.422.039-.321-.117-.375-.407-.392-1.85-.11-1.85-.118-1.851,1.694a2.065,2.065,0,0,0,0,.282c.045.33-.1.475-.406.625a3.057,3.057,0,0,0-1.841,2.854,3.116,3.116,0,0,0,1.836,2.936c.646.333,1.3.652,1.95.976.514.256.85.636.658,1.235a1.052,1.052,0,0,1-1.313.671.964.964,0,0,1-.887-1.007c-.076-1.237-.081-1.236-1.313-1.236-.211,0-.423.006-.634,0-.194-.006-.273.058-.313.27a3.511,3.511,0,0,0,1.747,3.832.791.791,0,0,1,.519.917,5.688,5.688,0,0,0,0,.634c0,1.114,0,1.114,1.085,1.114" transform="translate(-9.757 -203.897)" fill="#d3d3d3"/>
    <path id="Trazado_180286" data-name="Trazado 180286" d="M100.3,193.782a11.3,11.3,0,0,0,4.48-9.528,11.182,11.182,0,0,0-2.362-6.434c-1.216-1.611-2.412-3.237-3.646-4.834-.3-.387-.341-.611.053-.972.848-.776,1.652-1.6,2.447-2.433a4.243,4.243,0,0,0-.591-6.56.858.858,0,0,1-.4-.807c.015-2.066.021-4.133,0-6.2-.005-.454.109-.593.577-.586q2.817.041,5.635,0c.475-.007.573.144.573.59q-.017,18.6,0,37.194c0,.463-.125.585-.583.58-2.011-.025-4.022-.011-6.183-.011" transform="translate(-79.973 -126.147)" fill="#fe502d"/>
    <path id="Trazado_180287" data-name="Trazado 180287" d="M41.937,200.383c-1.127,0-2.255-.014-3.381.008a.538.538,0,0,1-.636-.463c-.565-2.056-1.169-4.1-1.733-6.157a1.815,1.815,0,0,1,1.792-2.4c.986-.023,1.972-.02,2.958,0a1.831,1.831,0,0,1,1.908,1.91c.018.728.013,1.456,0,2.184-.005.286.064.4.384.422,1.854.142,1.866.152,1.867-1.675,0-.43.07-.638.565-.6.631.046,1.268,0,1.9.017a1.986,1.986,0,0,1,1.879,1.252,1.917,1.917,0,0,1-.405,2.214c-.99,1.035-2.024,2.027-3.024,3.052a.853.853,0,0,1-.693.244c-1.127-.007-2.254,0-3.381,0" transform="translate(-29.301 -155.302)" fill="#d3d3d3"/>
    <path id="Trazado_180288" data-name="Trazado 180288" d="M22.228,11.825A10.149,10.149,0,1,1,12.054,21.912,10.167,10.167,0,0,1,22.228,11.825M21.075,28.48c0,1.388,0,1.388,1.285,1.388a3.062,3.062,0,0,1,.422,0c.41.057.6-.059.558-.523s.011-.94-.017-1.408a.619.619,0,0,1,.433-.682,3.028,3.028,0,0,0,1.817-2.794,3.07,3.07,0,0,0-1.735-2.921c-.66-.355-1.335-.682-2.008-1.011-.481-.236-.84-.564-.732-1.144a.939.939,0,0,1,.941-.8,1.077,1.077,0,0,1,1.267.754c.044.136-.052.374.209.367.676-.018,1.609.3,1.962-.111.405-.471-.1-1.273-.47-1.848-.152-.232-.335-.534-.566-.609-1.287-.412-1.162-1.428-1.113-2.428.006-.117-.006-.235,0-.352.013-.21-.082-.292-.289-.286-.63.019-1.365-.161-1.854.108-.349.192-.073,1-.112,1.529a1.393,1.393,0,0,0,0,.282c.046.346-.084.52-.419.686a3.039,3.039,0,0,0-1.827,2.859,3.092,3.092,0,0,0,1.787,2.891c.643.337,1.3.656,1.948.977.534.263.914.634.7,1.273s-.742.746-1.319.659a.984.984,0,0,1-.877-1.154c.008-.235-.018-.472.006-.7.033-.323-.116-.444-.4-.379-.612.139-1.568-.4-1.8.283a3.138,3.138,0,0,0,1.386,3.621c.729.4.947.858.813,1.47" transform="translate(-9.783 -9.597)" fill="#ffca00"/>
    <path id="Trazado_180289" data-name="Trazado 180289" d="M259.772,82.183A2.254,2.254,0,1,1,262,79.916a2.275,2.275,0,0,1-2.223,2.268" transform="translate(-208.979 -63.042)" fill="#ffca00"/>
    <path id="Trazado_180290" data-name="Trazado 180290" d="M187.93,94.155a2.254,2.254,0,1,1,2.232-2.259,2.274,2.274,0,0,1-2.232,2.259" transform="translate(-150.679 -72.758)" fill="#ffca00"/>
    <path id="Trazado_180291" data-name="Trazado 180291" d="M258.22,180.018c0,5.963-.008,11.926.013,17.89,0,.565-.1.756-.713.741-1.83-.046-3.662-.032-5.493-.006-.459.007-.583-.118-.582-.58q.019-18.03,0-36.061c0-.439.085-.6.567-.6,1.854.03,3.71.033,5.564,0,.526-.01.658.125.656.654-.021,5.987-.013,11.973-.013,17.96" transform="translate(-204.075 -130.996)" fill="#fe502d"/>
    <path id="Trazado_180292" data-name="Trazado 180292" d="M179.607,207.137c0-5.047.007-10.094-.011-15.141,0-.5.084-.682.639-.67,1.854.04,3.709.03,5.563,0,.454-.006.586.111.585.578q-.021,15.212,0,30.423c0,.436-.08.605-.566.6q-2.781-.046-5.563,0c-.521.009-.661-.117-.658-.651.023-5.047.013-10.094.013-15.141" transform="translate(-145.76 -155.281)" fill="#fe502d"/>
    <path id="Trazado_180293" data-name="Trazado 180293" d="M330.055,228.821c0,4.3-.009,8.591.012,12.886,0,.515-.107.673-.647.662-1.854-.038-3.709-.031-5.562,0-.466.007-.579-.13-.578-.585q.02-12.957,0-25.914c0-.448.1-.6.574-.589,1.854.028,3.709.034,5.562,0,.534-.011.654.137.651.658-.023,4.3-.013,8.591-.013,12.886" transform="translate(-262.377 -174.72)" fill="#fe502d"/>
    <path id="Trazado_180294" data-name="Trazado 180294" d="M50.991,278.821c-1.085,0-1.085,0-1.085-1.114a5.689,5.689,0,0,1,0-.634.791.791,0,0,0-.519-.917,3.511,3.511,0,0,1-1.747-3.832c.04-.212.119-.276.313-.27.211.007.423,0,.634,0,1.233,0,1.238,0,1.313,1.236a.964.964,0,0,0,.887,1.007,1.052,1.052,0,0,0,1.313-.671c.192-.6-.144-.979-.658-1.235-.651-.324-1.3-.643-1.95-.976a3.116,3.116,0,0,1-1.836-2.935,3.057,3.057,0,0,1,1.841-2.854c.3-.15.451-.3.406-.625a2.064,2.064,0,0,1,0-.282c0-1.812,0-1.8,1.851-1.694.29.017.446.071.407.392-.017.139.008.282,0,.422-.081.928-.045,1.718,1.021,2.2a2.585,2.585,0,0,1,1.208,1.981c.092.444.035.729-.53.654a5.837,5.837,0,0,0-.915-.005c-.415.011-.771.075-.9-.54-.12-.563-.69-.633-1.215-.585a.927.927,0,0,0-.892.768.976.976,0,0,0,.645,1.122c.713.356,1.436.695,2.133,1.08a3.064,3.064,0,0,1,1.692,2.879,3.016,3.016,0,0,1-1.8,2.8.647.647,0,0,0-.446.748,6.268,6.268,0,0,1,0,.7c0,1.169,0,1.169-1.171,1.169" transform="translate(-38.614 -213.441)" fill="#010101"/>
    <path id="Trazado_180295" data-name="Trazado 180295" d="M49.836,38.012c.134-.612-.084-1.074-.813-1.47a3.138,3.138,0,0,1-1.386-3.621c.231-.686,1.187-.144,1.8-.283.288-.065.437.056.4.379-.024.232,0,.469-.006.7a.984.984,0,0,0,.877,1.154c.577.087,1.114-.03,1.319-.659s-.171-1.01-.7-1.273c-.651-.321-1.3-.64-1.948-.977a3.092,3.092,0,0,1-1.787-2.891,3.039,3.039,0,0,1,1.827-2.859c.335-.166.465-.34.419-.686a1.393,1.393,0,0,1,0-.282c.039-.531-.237-1.337.112-1.529.489-.269,1.224-.089,1.854-.108.207-.006.3.075.289.286-.007.117,0,.235,0,.352-.049,1-.174,2.015,1.113,2.428.232.074.414.377.566.609.375.574.875,1.376.47,1.848-.353.411-1.286.092-1.962.111-.261.007-.165-.231-.209-.367a1.077,1.077,0,0,0-1.267-.754.939.939,0,0,0-.941.8c-.109.58.251.908.732,1.144.673.33,1.348.657,2.008,1.011A3.07,3.07,0,0,1,54.335,34a3.028,3.028,0,0,1-1.817,2.794.619.619,0,0,0-.433.682c.028.468-.028.942.017,1.408s-.148.58-.558.523a3.062,3.062,0,0,0-.422,0c-1.285,0-1.285,0-1.285-1.388" transform="translate(-38.544 -19.129)" fill="#010101"/>
  </g>
</svg>
