<svg xmlns="http://www.w3.org/2000/svg" xmlns:xlink="http://www.w3.org/1999/xlink" width="400" height="370" viewBox="0 0 400 370">
  <defs>
    <clipPath id="clip-path">
      <rect id="Rect치ngulo_36931" data-name="Rect치ngulo 36931" width="120.974" height="120" fill="none"/>
    </clipPath>
  </defs>
  <g id="Grupo_118344" data-name="Grupo 118344" transform="translate(-810 -2152)">
    <rect id="Rect치ngulo_36863" data-name="Rect치ngulo 36863" width="400" height="370" transform="translate(810 2152)" fill="#ffca00"/>
    <path id="Trazado_180476" data-name="Trazado 180476" d="M44.8,23V5.938h5.5a8.085,8.085,0,0,1,4.066,1.025,7.208,7.208,0,0,1,2.818,2.895A8.739,8.739,0,0,1,58.2,14.047v.785a8.79,8.79,0,0,1-.99,4.2,7.239,7.239,0,0,1-2.789,2.906A7.907,7.907,0,0,1,50.41,23ZM48.91,9.113V19.836h1.43a3.2,3.2,0,0,0,2.719-1.26,6.173,6.173,0,0,0,.949-3.744v-.738a6.123,6.123,0,0,0-.949-3.727,3.256,3.256,0,0,0-2.766-1.254ZM66.266,23.234a6.518,6.518,0,0,1-4.723-1.74,6.009,6.009,0,0,1-1.8-4.529v-.328a7.787,7.787,0,0,1,.721-3.434,5.274,5.274,0,0,1,2.1-2.3,6.35,6.35,0,0,1,3.281-.814,5.489,5.489,0,0,1,4.219,1.658,6.516,6.516,0,0,1,1.547,4.623V17.9H63.758a2.846,2.846,0,0,0,.926,1.676,2.755,2.755,0,0,0,1.852.609,3.549,3.549,0,0,0,2.93-1.312l1.8,2.133a5.045,5.045,0,0,1-2.092,1.623A7.069,7.069,0,0,1,66.266,23.234Zm-.445-10.1q-1.734,0-2.062,2.3h3.984v-.3a1.956,1.956,0,0,0-.48-1.471A1.912,1.912,0,0,0,65.82,13.133Zm19.148,3.633a7.728,7.728,0,0,1-1.289,4.793,4.318,4.318,0,0,1-3.633,1.676A3.747,3.747,0,0,1,76.93,21.7L76.766,23H73.227V5h3.949v6.34a3.615,3.615,0,0,1,2.848-1.254,4.319,4.319,0,0,1,3.656,1.7,7.768,7.768,0,0,1,1.289,4.781Zm-3.961-.252a5.155,5.155,0,0,0-.486-2.6,1.639,1.639,0,0,0-1.494-.778,1.891,1.891,0,0,0-1.852,1.018v5.031a1.9,1.9,0,0,0,1.875,1.006,1.677,1.677,0,0,0,1.77-1.357A9.745,9.745,0,0,0,81.008,16.514ZM90.875,23H86.914V10.32h3.961ZM86.68,7.039a1.778,1.778,0,0,1,.609-1.391,2.579,2.579,0,0,1,3.164,0,1.778,1.778,0,0,1,.609,1.391,1.778,1.778,0,0,1-.609,1.391,2.579,2.579,0,0,1-3.164,0A1.778,1.778,0,0,1,86.68,7.039ZM97.473,23H93.512V5h3.961Zm6.6,0h-3.961V10.32h3.961Zm-4.2-15.961a1.778,1.778,0,0,1,.609-1.391,2.579,2.579,0,0,1,3.164,0,1.778,1.778,0,0,1,.609,1.391,1.778,1.778,0,0,1-.609,1.391,2.579,2.579,0,0,1-3.164,0A1.778,1.778,0,0,1,99.875,7.039ZM106,16.566a7.746,7.746,0,0,1,1.3-4.746,4.282,4.282,0,0,1,3.633-1.734,3.641,3.641,0,0,1,2.859,1.336V5h3.961V23h-3.551l-.2-1.359a3.739,3.739,0,0,1-3.094,1.594,4.274,4.274,0,0,1-3.586-1.734A7.991,7.991,0,0,1,106,16.566Zm3.949.246q0,3.375,1.969,3.375a1.944,1.944,0,0,0,1.875-1.1V14.258a1.892,1.892,0,0,0-1.852-1.125q-1.828,0-1.98,2.953ZM127.145,23a4.459,4.459,0,0,1-.375-1.137,3.672,3.672,0,0,1-3.047,1.371,4.5,4.5,0,0,1-3.047-1.084,3.45,3.45,0,0,1-1.254-2.725,3.546,3.546,0,0,1,1.523-3.117,7.761,7.761,0,0,1,4.43-1.055h1.219v-.671q0-1.755-1.512-1.755a1.236,1.236,0,0,0-1.406,1.39h-3.949a3.54,3.54,0,0,1,1.564-2.985,6.575,6.575,0,0,1,3.99-1.147,5.764,5.764,0,0,1,3.832,1.184,4.115,4.115,0,0,1,1.441,3.246v5.613a5.748,5.748,0,0,0,.539,2.672V23Zm-2.473-2.578a2.2,2.2,0,0,0,1.225-.316,1.983,1.983,0,0,0,.7-.715V17.363h-1.148q-2.062,0-2.062,1.852a1.131,1.131,0,0,0,.363.873A1.315,1.315,0,0,0,124.672,20.422Zm7.57-3.855a7.746,7.746,0,0,1,1.3-4.746,4.282,4.282,0,0,1,3.633-1.734,3.641,3.641,0,0,1,2.859,1.336V5H144V23h-3.551l-.2-1.359a3.739,3.739,0,0,1-3.094,1.594,4.274,4.274,0,0,1-3.586-1.734A7.991,7.991,0,0,1,132.242,16.566Zm3.949.246q0,3.375,1.969,3.375a1.944,1.944,0,0,0,1.875-1.1V14.258a1.892,1.892,0,0,0-1.852-1.125q-1.828,0-1.98,2.953Zm16.184,6.422a6.518,6.518,0,0,1-4.723-1.74,6.009,6.009,0,0,1-1.8-4.529v-.328a7.787,7.787,0,0,1,.721-3.434,5.274,5.274,0,0,1,2.1-2.3,6.35,6.35,0,0,1,3.281-.814,5.489,5.489,0,0,1,4.219,1.658,6.516,6.516,0,0,1,1.547,4.623V17.9h-7.852a2.846,2.846,0,0,0,.926,1.676,2.755,2.755,0,0,0,1.852.609,3.549,3.549,0,0,0,2.93-1.312l1.8,2.133a5.045,5.045,0,0,1-2.092,1.623A7.069,7.069,0,0,1,152.375,23.234Zm-.445-10.1q-1.734,0-2.062,2.3h3.984v-.3a1.956,1.956,0,0,0-.48-1.471A1.912,1.912,0,0,0,151.93,13.133Zm14.016,6.3a.912.912,0,0,0-.527-.809,8.021,8.021,0,0,0-2-.633,9.138,9.138,0,0,1-2.437-.861,4.083,4.083,0,0,1-1.465-1.295,3.092,3.092,0,0,1-.5-1.746,3.5,3.5,0,0,1,1.441-2.877,5.938,5.938,0,0,1,3.773-1.131,6.579,6.579,0,0,1,4.031,1.137,3.555,3.555,0,0,1,1.523,2.988h-3.961q0-1.523-1.605-1.523a1.591,1.591,0,0,0-1.043.346,1.07,1.07,0,0,0-.422.861.982.982,0,0,0,.516.855,4.872,4.872,0,0,0,1.646.539,14.228,14.228,0,0,1,1.986.5q2.859.984,2.859,3.527a3.321,3.321,0,0,1-1.541,2.824,6.758,6.758,0,0,1-3.99,1.09,6.9,6.9,0,0,1-2.906-.586,4.86,4.86,0,0,1-1.992-1.594,3.609,3.609,0,0,1-.715-2.121H162.3a1.526,1.526,0,0,0,.586,1.283,2.41,2.41,0,0,0,1.441.4,1.9,1.9,0,0,0,1.213-.328A1.05,1.05,0,0,0,165.945,19.438Z" transform="translate(903 2389)" fill="#12263f"/>
    <g id="Grupo_118322" data-name="Grupo 118322" transform="translate(949.513 2257)">
      <g id="Grupo_118321" data-name="Grupo 118321" clip-path="url(#clip-path)">
        <path id="Trazado_180436" data-name="Trazado 180436" d="M0,137.358a4.768,4.768,0,0,0,.577-2.078,22.061,22.061,0,0,1,26.051-16.508c.452.089.749.269.886-.425.929-4.7,2.643-9.183,4.013-13.76,1.775-5.932,3.654-11.832,5.49-17.745.47-1.516.473-1.516,2.189-1.18,1.651.681,1.648.68,1.086,2.493q-4.178,13.482-8.349,26.966a23.483,23.483,0,0,0-1,3.991,1.2,1.2,0,0,0,.792,1.455,20.121,20.121,0,0,1,6,4.3c1.3,1.325,1.308,1.321.016,2.568-1.421,1-1.4.984-2.708-.267A15.679,15.679,0,0,0,28,122.93l.013.009a.359.359,0,0,0-.414-.2,17.5,17.5,0,0,0-7.9-.768,18.509,18.509,0,0,0,.74,36.8,13.753,13.753,0,0,0,7.588-1.087,2.384,2.384,0,0,0,1.444-.4A18.512,18.512,0,0,0,39,132.914c-.729-1.662-.729-1.662.7-2.629,1.655-.749,1.655-.749,2.449,1.008a3.5,3.5,0,0,1,.286.644c.135.612.485.8,1.1.763,1.335-.084,2.674-.088,4.011-.148q20.342-.9,40.683-1.811c2.587-.113,2.589-.074,1.764-2.481-.808-2.356-.8-2.331,1.569-3.171.735-.261,1.039-.19,1.307.629A114.006,114.006,0,0,0,98.95,141.27c.849,1.7.839,1.7-.687,2.662-1.634.636-1.634.636-2.418-.975a86.546,86.546,0,0,1-3.462-7.983,1.142,1.142,0,0,0-1.365-.873q-23.226,1.069-46.455,2.076c-.605.027-.872.049-.751.838A22.032,22.032,0,0,1,.4,144.541c-.084-.425.029-.949-.4-1.276Z" transform="translate(0 -58.494)" fill="#030303"/>
        <path id="Trazado_180437" data-name="Trazado 180437" d="M165.293,93.7c1.527-.958,1.536-.963.688-2.662A113.972,113.972,0,0,1,159.9,75.488c-.268-.818-.573-.889-1.308-.628-2.368.84-2.376.815-1.569,3.17.825,2.407.823,2.368-1.764,2.481q-20.343.889-40.683,1.811c-1.336.059-2.676.064-4.01.148-.618.039-.968-.151-1.1-.764a3.5,3.5,0,0,0-.286-.643c-.794-1.758-.794-1.758-2.449-1.009l-1.939-2.85c1.292-1.247,1.288-1.243-.016-2.568a20.113,20.113,0,0,0-6-4.3,1.194,1.194,0,0,1-.792-1.455,23.468,23.468,0,0,1,1-3.991q4.164-13.486,8.349-26.966c.562-1.813.565-1.812-1.086-2.493l1.018-3.236c1.711.434,1.717.435,2.234-1.245,1.294-4.2,2.606-8.4,3.862-12.61a5.032,5.032,0,0,1,4.086-3.774c3.234-.656,6.519-1.115,9.7-1.97,3.132-.842,10.191-.184,13.193.8.209,1.05.819,2.4.939,3.463a5.513,5.513,0,0,1-.939,2.874c-.732-.356-4.921-2.426-5.591-2.874-.839-.559-1.206-.341-1.619.517-.969,2.012-1.013,1.991.781,3.112a2.323,2.323,0,0,0-.693,1.193,17.528,17.528,0,0,1-2.64,5.471,3.644,3.644,0,0,1-1.961-.177q-3.451-.956-6.9-1.919c-1.436-.4-1.435-.408-1.577,1.122a9.107,9.107,0,0,1-2.138-.62c-.613-.186-.847,0-.888.649-.122,1.951-.328,3.9-.449,5.847-.26,4.181-.422,8.369-.766,12.542-.11,1.33-.13,2.66-.231,3.986a98.418,98.418,0,0,0-.633,11.012,25.916,25.916,0,0,0-4.6,4.034c-1.885,2.244-1.884,2.207.644,3.732.6.36.815.235,1.17-.283a16.51,16.51,0,0,1,6.324-5.358,4.241,4.241,0,0,1,1.765-.6c7.08-.288,14.156-.642,21.237-.9a68.8,68.8,0,0,0,30.041-7.96,24.267,24.267,0,0,1,9.992-2.44q.009,15.354.017,30.707a5.155,5.155,0,0,1-8.061-.074,20.869,20.869,0,0,1-1.524-2.231c-.325-.541-.657-.474-.99-.105-.632.7-2.363.746-1.933,1.94a9.07,9.07,0,0,0,2.772,3.744c2.87,2.4,6.064,2.67,9.481,1.413.381.349.236.809.236,1.224q.009,19.1,0,38.206c-2.355.015-4.71,0-7.064.06-.67.016-.744-.268-.769-.823-.28-6.314-.639-12.625-.843-18.942a6.652,6.652,0,0,0-1.4-4.2,30.2,30.2,0,0,1-2.033-3.163c-1.017-1.665-1.007-1.671-2.747-.8-.121-1.2-.984-2.045-1.445-3.083" transform="translate(-67.03 -8.264)" fill="#fdd9a9"/>
        <path id="Trazado_180438" data-name="Trazado 180438" d="M153.26,4.7a15.467,15.467,0,0,0-9.11-.365c-3.18.855-6.465,1.314-9.7,1.97a5.032,5.032,0,0,0-4.086,3.774c-1.256,4.213-2.568,8.408-3.862,12.61-.517,1.68-.523,1.679-2.234,1.245-1.674-.6-1.668-.6-1.122-2.37q1.962-6.354,3.915-12.711a8.391,8.391,0,0,1,6.755-6.029c4.612-.971,9.248-1.828,13.872-2.744a2.488,2.488,0,0,1,1.044-.037c3.224.695,6.449,1.387,9.681,2.048a1.1,1.1,0,0,1,1.029,1.037c.54,2.935,1.145,5.86,1.77,8.778.127.593,0,.844-.585.985-1.3.314-2.8.379-3.809,1.109-.979.707-.982,2.312-1.535,3.474a8.791,8.791,0,0,1-10.027,4.784c-1.56-.376-3.1-.834-4.751-1.281-.231,3.027-.468,6-.682,8.973-.441,6.123-.85,12.247-1.326,18.367-.063.812.1.995.9.957,6.958-.327,13.923-.539,20.877-.93A62.747,62.747,0,0,0,186.319,41.2c5.705-3.011,11.862-3.378,18.1-3.483.478-.008.631.171.584.615a5.66,5.66,0,0,0,0,.59q0,39.915.021,79.83c0,.923-.129,1.257-1.172,1.244-5.156-.064-10.313-.045-15.469-.012-.787.005-1.067-.164-1.1-1.013-.281-7.551-.622-15.1-.917-22.65a2.831,2.831,0,0,0-.522-1.513c-.883-1.346-1.758-2.7-2.6-4.073s-.811-1.375.509-2.218c1.74-.873,1.73-.867,2.747.8a30.3,30.3,0,0,0,2.033,3.163,6.652,6.652,0,0,1,1.4,4.2c.2,6.316.562,12.628.843,18.942.025.555.1.839.769.823,2.354-.056,4.709-.045,7.064-.06a11.552,11.552,0,0,1,1.409.053c1.144.179,1.483-.188,1.478-1.415-.054-13.041-.034-26.083-.034-39.124V74.481a11.443,11.443,0,0,1-3.09,2.477c-3.418,1.257-6.612.983-9.481-1.413a9.073,9.073,0,0,1-2.772-3.744c-.43-1.194,1.3-1.239,1.933-1.94.332-.368.665-.436.99.105a20.783,20.783,0,0,0,1.524,2.231,5.155,5.155,0,0,0,8.062.074c.619-.756,1.2-1.546,1.866-2.26a3.874,3.874,0,0,0,.992-2.877c-.043-7.751-.023-15.5-.023-23.254,0-2.783,0-2.783-2.852-2.315A24.269,24.269,0,0,0,188.617,44a68.788,68.788,0,0,1-30.041,7.96c-7.08.259-14.157.612-21.237.9a4.24,4.24,0,0,0-1.765.6,16.509,16.509,0,0,0-6.324,5.358c-.355.517-.573.642-1.169.283-2.528-1.526-2.529-1.488-.644-3.732a25.943,25.943,0,0,1,4.6-4.034,15.3,15.3,0,0,1,1.668-.868,1.8,1.8,0,0,0,1.263-1.823c.272-4.437.63-8.869.947-13.3q.622-8.71,1.228-17.422c.142-1.53.141-1.525,1.577-1.122q3.449.966,6.9,1.919a3.644,3.644,0,0,0,1.961.177,5.022,5.022,0,0,0,4.707-3.4c.931-2.3.931-2.3-1.374-3.267-1.795-1.121-1.75-1.1-.781-3.112.413-.858.781-1.077,1.619-.517a18.2,18.2,0,0,0,2.182,1.087,10.32,10.32,0,0,0,1.318.731c1.128.433,1.989-.266,1.766-1.4-.2-1.039-.44-2.072-.642-3.111-.07-.36-.1-.679-.577-.749-.85-.125-1.693-.3-2.539-.457" transform="translate(-84.045 0)" fill="#030303"/>
        <path id="Trazado_180439" data-name="Trazado 180439" d="M222.433,114.171c.239.84.1,1.5-1.217,1.555a4.771,4.771,0,0,0-2.287,1.155,9.008,9.008,0,0,1-10.4.4,6.1,6.1,0,0,0-7.246.269,9.015,9.015,0,0,1-10.4.4,4.956,4.956,0,0,0-2.369-.977c-1.162,0-1.37-.587-1.355-1.586.033-2.258-.685-2.261,2.165-1.878a8.936,8.936,0,0,1,3.344,1.4,5.621,5.621,0,0,0,6.619-.246,9.342,9.342,0,0,1,11.024-.411,5.617,5.617,0,0,0,6.614-.27,10.635,10.635,0,0,1,4.154-1.866c.911-.176,1.432-.023,1.3,1.048a6.53,6.53,0,0,0,.056,1.013" transform="translate(-128.031 -76.673)" fill="#030303"/>
        <path id="Trazado_180440" data-name="Trazado 180440" d="M188.545,260.333a8.285,8.285,0,0,1-4.856-1.371,5.993,5.993,0,0,0-7.236.262,9.024,9.024,0,0,1-10.4.388,4.472,4.472,0,0,0-2.251-.952c-1.342.06-1.488-.587-1.472-1.695.03-2.212.04-2.249,2.293-1.766a11.706,11.706,0,0,1,3.333,1.442,5.577,5.577,0,0,0,6.423-.256,9.439,9.439,0,0,1,11.225-.4,5.5,5.5,0,0,0,6.417-.277,10.6,10.6,0,0,1,4.606-1.97c.751-.11,1.028.083.921.823a.7.7,0,0,0,0,.118,6.533,6.533,0,0,1,.014,2.222c-.247.7-1.256.321-1.837.7-.656.427-1.357.787-2.006,1.226a8.64,8.64,0,0,1-5.171,1.51" transform="translate(-111.077 -173.607)" fill="#030303"/>
        <path id="Trazado_180441" data-name="Trazado 180441" d="M35.7,236.48a13.75,13.75,0,0,1-7.588,1.088,18.509,18.509,0,0,1-.74-36.8,17.5,17.5,0,0,1,7.9.768l.414.2-.013-.009a42.148,42.148,0,0,1,4.738,4.2A20.364,20.364,0,0,1,42,230.222a24.226,24.226,0,0,1-6.3,6.258m1.922-11.3c-.008-.2-.072-.274-.768-.659a14.035,14.035,0,0,0-12.909-.68c-2.4,1.025-2.388,1.052-.963,3.134a2.837,2.837,0,0,1,.263.391c.265.574.57.526,1.092.237a10.555,10.555,0,0,1,10.779-.013,2.087,2.087,0,0,0,.623.247,14.646,14.646,0,0,0,1.884-2.656M35.01,216.37c0,1.925,0,1.925,1.281,1.926,2.217,0,2.217,0,2.217-1.481,0-2.053,0-2.053-1.419-2.053-2.079,0-2.079,0-2.08,1.608m-12.233-1.608c-1.863,0-1.863,0-1.864,1.351,0,2.184,0,2.184,1.487,2.184,2.033,0,2.033,0,2.034-1.4,0-2.138,0-2.138-1.657-2.138" transform="translate(-7.668 -137.289)" fill="#ffca00"/>
        <path id="Trazado_180442" data-name="Trazado 180442" d="M88.708,238.853a24.227,24.227,0,0,0,6.3-6.258,20.363,20.363,0,0,0-1.594-24.3,42.148,42.148,0,0,0-4.738-4.2,15.672,15.672,0,0,1,7.051,4.238c1.3,1.25,1.287,1.269,2.708.266l1.939,2.85c-1.424.967-1.424.967-.7,2.629a18.512,18.512,0,0,1-9.529,24.371,2.382,2.382,0,0,1-1.444.4" transform="translate(-60.681 -139.663)" fill="#ffca00"/>
        <path id="Trazado_180443" data-name="Trazado 180443" d="M87.821,203.687l-.414-.2a.358.358,0,0,1,.414.2" transform="translate(-59.812 -139.242)" fill="#02cb89"/>
        <path id="Trazado_180444" data-name="Trazado 180444" d="M362.123,238.392a11.444,11.444,0,0,0,3.09-2.477v1.421c0,13.041-.021,26.083.034,39.125.005,1.227-.334,1.594-1.478,1.415a11.485,11.485,0,0,0-1.409-.053q0-19.1,0-38.207c0-.415.146-.875-.236-1.224" transform="translate(-247.797 -161.434)" fill="#fdd9a9"/>
        <path id="Trazado_180445" data-name="Trazado 180445" d="M157.069,55.264q-.613,8.711-1.228,17.422c-.317,4.434-.675,8.866-.947,13.3a1.8,1.8,0,0,1-1.263,1.823,15.171,15.171,0,0,0-1.669.868,98.416,98.416,0,0,1,.633-11.012c.1-1.327.121-2.656.231-3.986.344-4.173.506-8.361.766-12.542.121-1.951.327-3.9.449-5.847.041-.653.276-.836.888-.65a9.088,9.088,0,0,0,2.138.62" transform="translate(-103.971 -37.345)" fill="#fdd9a9"/>
        <path id="Trazado_180446" data-name="Trazado 180446" d="M362.876,131.147c2.852-.467,2.852-.467,2.852,2.315,0,7.751-.021,15.5.023,23.254a3.873,3.873,0,0,1-.992,2.877c-.664.715-1.247,1.5-1.866,2.26q-.009-15.353-.017-30.707" transform="translate(-248.312 -89.583)" fill="#fdd9a9"/>
        <path id="Trazado_180447" data-name="Trazado 180447" d="M204.584,38.732c2.305.965,2.305.965,1.374,3.267a5.022,5.022,0,0,1-4.707,3.4,17.52,17.52,0,0,0,2.639-5.471,2.328,2.328,0,0,1,.693-1.193" transform="translate(-137.714 -26.504)" fill="#fdd9a9"/>
        <path id="Trazado_180448" data-name="Trazado 180448" d="M61.017,272.78a14.633,14.633,0,0,1-1.884,2.656,2.092,2.092,0,0,1-.623-.248,10.555,10.555,0,0,0-10.779.013c-.522.29-.827.337-1.092-.237a2.868,2.868,0,0,0-.263-.391c-1.426-2.082-1.437-2.109.963-3.134a14.036,14.036,0,0,1,12.909.68c.7.385.76.463.768.659" transform="translate(-31.068 -184.886)" fill="#030303"/>
        <path id="Trazado_180449" data-name="Trazado 180449" d="M86.6,247c0-1.609,0-1.609,2.08-1.608,1.42,0,1.42,0,1.419,2.053,0,1.484,0,1.484-2.217,1.481-1.282,0-1.282,0-1.281-1.926" transform="translate(-59.263 -167.917)" fill="#030303"/>
        <path id="Trazado_180450" data-name="Trazado 180450" d="M86.6,247c0-1.609,0-1.609,2.08-1.608,1.42,0,1.42,0,1.419,2.053,0,1.484,0,1.484-2.217,1.481-1.282,0-1.282,0-1.281-1.926" transform="translate(-73.02 -167.917)" fill="#030303"/>
      </g>
    </g>
  </g>
</svg>
