<svg id="Grupo_118337" data-name="Grupo 118337" xmlns="http://www.w3.org/2000/svg" xmlns:xlink="http://www.w3.org/1999/xlink" width="70" height="59.852" viewBox="0 0 70 59.852">
  <defs>
    <clipPath id="clip-path">
      <rect id="Rectángulo_36943" data-name="Rectángulo 36943" width="70" height="59.852" fill="none"/>
    </clipPath>
  </defs>
  <g id="Grupo_118336" data-name="Grupo 118336" clip-path="url(#clip-path)">
    <path id="Trazado_180554" data-name="Trazado 180554" d="M16.028,305.611a2.7,2.7,0,0,1,.23.415c2.021-.012,4.043,0,6.064,0a1.229,1.229,0,0,0,1.039-.416l-7.333.005" transform="translate(-13.1 -249.781)" fill="#fdfdfd"/>
    <path id="Trazado_180555" data-name="Trazado 180555" d="M69.616,39.141c.931-1.363.075-2.719-1.582-2.731-1.389-.011-2.779.02-4.168-.011a2.332,2.332,0,0,0-1.974.868c-.689.818-1.441,1.584-2.139,2.394-.359.416-.8.219-1.205.217-.251,0-.164-.283-.177-.446A18.238,18.238,0,0,0,53.753,28.51a18.4,18.4,0,0,0-16.031-6.382c-.578.049-.547-.2-.546-.6.008-6.173-.041-12.347.031-18.519A2.71,2.71,0,0,0,34.212,0Q18.734.065,3.256,0C1.771,0,.636.365,0,1.782v.91c23.168,0,12.739,0,35.907-.013.512,0,.628.115.628.628-.015,22.963-.015,28.934,0,51.9,0,.513-.115.628-.628.628-16.613-.011-15.642-.014-22.529-.009a1,1,0,0,0,.752.4,5.94,5.94,0,0,0,.682.017q6.492,0,12.984-.006a1.937,1.937,0,0,1,1.138.346,18.536,18.536,0,0,0,14.721,2.79A18.909,18.909,0,0,0,58.371,42.383c.011-.145-.057-.393.152-.394.427,0,.885-.2,1.263.239.708.832,1.469,1.618,2.187,2.443a2.062,2.062,0,0,0,1.67.766c1.481-.016,2.961.007,4.442-.009,1.614-.017,2.448-1.365,1.543-2.7a2.786,2.786,0,0,1-.01-3.582" transform="translate(0 0)" fill="#fdfdfd"/>
    <path id="Trazado_180556" data-name="Trazado 180556" d="M0,1.782C.636.365,1.771,0,3.256,0Q18.734.059,34.212,0a2.71,2.71,0,0,1,2.994,3.009c-.071,6.172-.023,12.346-.031,18.519,0,.4-.032.65.546.6A18.4,18.4,0,0,1,53.753,28.51,18.238,18.238,0,0,1,58.37,39.433c.014.163-.074.445.177.446.405,0,.846.2,1.205-.217.7-.811,1.45-1.576,2.139-2.394a2.332,2.332,0,0,1,1.974-.868c1.389.031,2.779,0,4.168.011,1.657.013,2.513,1.368,1.582,2.731a2.786,2.786,0,0,0,.011,3.582c.905,1.339.071,2.687-1.543,2.7-1.48.016-2.961-.008-4.442.009a2.062,2.062,0,0,1-1.67-.766c-.717-.824-1.478-1.611-2.186-2.443-.378-.444-.835-.241-1.263-.239-.208,0-.141.25-.152.394A18.909,18.909,0,0,1,43.655,59.374a18.537,18.537,0,0,1-14.721-2.79,1.938,1.938,0,0,0-1.138-.346q-6.492.016-12.984.006a5.94,5.94,0,0,1-.682-.017,1.01,1.01,0,0,1-.02-2.01,4.731,4.731,0,0,1,.682-.026q5.159,0,10.319,0h.716c.1-.261-.093-.334-.186-.435a18.3,18.3,0,0,1-3.88-6.36.669.669,0,0,0-.774-.529c-1.64.026-3.28.015-4.92.009-.787,0-1.271-.4-1.271-1.028s.475-1.016,1.27-1.019c1.458-.006,2.916-.024,4.373.011.49.012.564-.148.473-.575a13.4,13.4,0,0,1-.287-3.19c.013-.435-.14-.533-.547-.526-1.366.023-2.733.01-4.1.007a1.055,1.055,0,0,1-1.115-.723.965.965,0,0,1,.326-1.1,1.244,1.244,0,0,1,.9-.227c1.39,0,2.779-.013,4.168.008.361.005.513-.081.568-.464a15.32,15.32,0,0,1,.848-3.364c.181-.469-.047-.475-.4-.473-1.777.009-3.553,0-5.33.007a1.051,1.051,0,0,1-1.025-.543.951.951,0,0,1,.058-1.035,1.231,1.231,0,0,1,1.141-.479c2,0,4.009-.017,6.013.015a.909.909,0,0,0,.941-.563A18.731,18.731,0,0,1,25.8,27.9h-.786q-4.442,0-8.884,0c-.855,0-1.338-.374-1.337-1.019s.495-1.028,1.341-1.029q5.672,0,11.344.006a1.8,1.8,0,0,0,1.128-.353,17.61,17.61,0,0,1,5.944-2.8.649.649,0,0,0,.595-.768q-.037-6.116,0-12.232c0-.47-.106-.616-.592-.6-1.206.038-2.414,0-3.621.017a1.182,1.182,0,0,1-1.369-1.031c.265-.857.478-1.027,1.356-1.032,1.23-.007,2.46-.018,3.689.007.416.009.547-.108.537-.533-.028-1.184-.009-2.368-.01-3.552,0-.893,0-.894-.927-.894H18.15l-15.1,0c-1,0-1,0-1,1.028,0,1.047.045,2.1-.016,3.141-.039.662.152.82.813.818,7.514-.024,15.029-.013,22.543-.01,1.035,0,1.217.128,1.495,1.024-.279.872-.5,1.026-1.5,1.026q-8.973,0-17.946,0c-.248,0-.5.026-.745.04-1.3-.014-2.593.005-3.887-.056-.618-.029-.774.144-.773.768q.029,21.788.015,43.575a3.925,3.925,0,0,1,0,.41c-.028.269.084.353.35.349,1.432-.023,2.865-.032,4.3-.045.841.014,1.681.022,2.522.044.8.021,1.244.418,1.226,1.063-.018.618-.448.984-1.221.986-2.436.009-4.872-.018-7.308.014A2.155,2.155,0,0,1,0,55.09Zm49.41,30.77c.925-.338,1.21-.246,1.762.578a13.342,13.342,0,0,1,2.272,6.277c.04.429.2.53.6.507a8.415,8.415,0,0,1,1.569.005c.714.093.75-.245.687-.809a16.862,16.862,0,1,0-33.417,4.47c1.2,6.765,5.156,11.4,11.733,13.426,6.419,1.976,12.148.391,16.938-4.31A16.386,16.386,0,0,0,56.3,42.727c.075-.6-.041-.863-.707-.784a8.512,8.512,0,0,1-1.569,0c-.412-.028-.534.114-.578.523a14.007,14.007,0,0,1-27.9-.554,13.3,13.3,0,0,1,6.686-12.936c4.82-2.948,9.8-2.8,14.68.031.817.473.9.781.6,1.693a1.291,1.291,0,0,1-1.681.054,11.87,11.87,0,0,0-8.384-1.639,12.022,12.022,0,0,0-9.788,13.555,11.566,11.566,0,0,0,7.719,9.472,11.465,11.465,0,0,0,11.954-2.158,11.671,11.671,0,0,0,4.057-7.374c.076-.479,0-.722-.569-.669a11.38,11.38,0,0,1-1.639,0c-.408-.021-.593.084-.668.534A9.15,9.15,0,1,1,37.966,31.895,9.23,9.23,0,0,1,48.25,38.144c.193.583-.02,1.439.577,1.706.532.238,1.259,0,1.889.071.675.071.759-.217.663-.777a11.7,11.7,0,0,0-1.905-4.85,1.325,1.325,0,0,1-.064-1.74m-2.9,7.354a5.789,5.789,0,0,0-.066-.586,7.11,7.11,0,1,0-1.476,6.155,7.388,7.388,0,0,0,1.487-2.959c.115-.439.006-.608-.475-.57a10.211,10.211,0,0,1-1.57,0,.817.817,0,0,0-.976.633,4.215,4.215,0,0,1-5.3,2.39,4.277,4.277,0,1,1,5.356-5.615c.1.243.079.584.534.562.815-.04,1.634-.011,2.482-.011m15.822,2.048c1.171,1.42,1.171,1.42,2.814,1.42h.888c1.64,0,1.674-.02.824-1.457a1.707,1.707,0,0,1,.023-2.017,4.489,4.489,0,0,0,.725-1.456,20.947,20.947,0,0,1-2.846-.025c-1.246-.175-1.745.634-2.4,1.487h.771c.228,0,.455-.007.683,0a1.026,1.026,0,1,1-.02,2.043c-.448.014-.9,0-1.464,0m-20.9,0c-.627,0-1.171.008-1.714,0-.753-.013-1.193-.391-1.2-1.014s.42-1.017,1.172-1.031c.559-.01,1.118,0,1.71,0a2.071,2.071,0,0,0-2.282-1.179A2.239,2.239,0,0,0,37.3,40.839a2.212,2.212,0,0,0,1.578,2.22,2.141,2.141,0,0,0,2.549-1.1" transform="translate(0 0)" fill="#040303"/>
    <path id="Trazado_180557" data-name="Trazado 180557" d="M44.252,45.843c0-.47-.106-.616-.592-.6-1.206.038-2.414,0-3.621.017a1.182,1.182,0,0,1-1.369-1.031H36c-.279.872-.5,1.026-1.5,1.026q-8.973,0-17.946,0c-.248,0-.5.026-.745.04-1.3-.014-2.594.005-3.887-.056-.618-.029-.774.144-.773.768q.029,21.788.015,43.575a3.924,3.924,0,0,1,0,.41c-.028.269.084.353.35.349,1.433-.023,2.865-.032,4.3-.045.841.014,1.681.022,2.522.044.8.021,1.245.418,1.226,1.063a.986.986,0,0,1-.183.57l3.117,0a1.044,1.044,0,0,1-.168-.589.944.944,0,0,1,.9-1.016,4.705,4.705,0,0,1,.682-.026q5.159,0,10.319,0h.716c.1-.26-.093-.334-.186-.435a18.3,18.3,0,0,1-3.88-6.36.669.669,0,0,0-.774-.529c-1.64.026-3.28.015-4.92.009-.787,0-1.271-.4-1.271-1.028s.475-1.016,1.27-1.019c1.458-.006,2.916-.024,4.373.011.49.012.564-.148.473-.575a13.4,13.4,0,0,1-.287-3.19c.013-.435-.14-.533-.547-.526-1.366.023-2.733.011-4.1.007a1.056,1.056,0,0,1-1.115-.723.965.965,0,0,1,.326-1.1,1.244,1.244,0,0,1,.9-.228c1.39,0,2.779-.012,4.168.008.361.005.513-.081.568-.464a15.319,15.319,0,0,1,.848-3.365c.181-.469-.047-.475-.4-.473-1.777.009-3.553,0-5.33.007a1.051,1.051,0,0,1-1.025-.543.951.951,0,0,1,.058-1.035,1.231,1.231,0,0,1,1.141-.479c2,0,4.009-.017,6.013.015a.909.909,0,0,0,.941-.564,18.735,18.735,0,0,1,2.726-3.715h-.786q-4.442,0-8.884,0c-.854,0-1.338-.374-1.337-1.019S24.4,62,25.245,62q5.672,0,11.344.006a1.8,1.8,0,0,0,1.128-.353,17.61,17.61,0,0,1,5.944-2.8.649.649,0,0,0,.595-.767q-.037-6.116,0-12.232M15.806,64.279a.61.61,0,0,0-.011.09.61.61,0,0,1,.011-.09.415.415,0,0,1,.148-.245c-.1-.117-.193-.24-.3-.349-.757-.775-.714-1.322.158-1.951a1.3,1.3,0,0,1,1.355.589c.384.527.69.449,1.072-.012a13.872,13.872,0,0,1,1.15-1.161,1.039,1.039,0,0,1,1.561-.091,1,1,0,0,1-.089,1.511q-1.16,1.2-2.358,2.363a1.04,1.04,0,0,1-1.616-.013c-.313-.293-.622-.59-.933-.885a.415.415,0,0,0-.148.245m0-4.234,0,.844,0-.844m.067-11.132a.491.491,0,0,1-.07-.252.491.491,0,0,0,.07.252m-.261,2.1c-.774-.828-.631-1.519.409-1.966a.468.468,0,0,1-.087-.063.468.468,0,0,0,.087.063,1.705,1.705,0,0,1,1.3.773c.261.311.448.353.741.017.418-.478.885-.915,1.346-1.354a1.028,1.028,0,1,1,1.425,1.461q-1.143,1.171-2.315,2.315a1.033,1.033,0,0,1-1.661-.006c-.347-.325-.69-.655-1.034-.983q-.009,2.074-.018,4.149a1.443,1.443,0,0,1,1.46.676c.289.362.508.407.835.024a18.2,18.2,0,0,1,1.3-1.308,1.048,1.048,0,0,1,1.519-.1,1.008,1.008,0,0,1-.077,1.56q-1.116,1.152-2.265,2.271a1.065,1.065,0,0,1-1.765-.007c-.277-.266-.558-.528-.837-.792-.1-.117-.2-.241-.3-.351-.78-.8-.745-1.309.138-1.968q.009-2.074.018-4.149c-.07-.086-.136-.176-.211-.257m5.228,30.545q-1.117,1.152-2.268,2.271c-.643.627-1.115.614-1.765-.011-.277-.266-.558-.528-.838-.793-.1-.117-.195-.241-.3-.351-.778-.8-.743-1.3.139-1.967a1.254,1.254,0,0,1,1.314.535c.426.615.764.472,1.172-.021a13.122,13.122,0,0,1,1.1-1.116A1.045,1.045,0,0,1,20.916,80a1.01,1.01,0,0,1-.074,1.561m.033-6.366q-1.185,1.223-2.41,2.408a1,1,0,0,1-1.559-.012c-.367-.336-.722-.686-1.082-1.03-.07-.086-.136-.176-.212-.257-.779-.83-.626-1.536.425-1.96a.553.553,0,0,1-.1-.078.429.429,0,0,1-.114-.185.429.429,0,0,0,.114.185.553.553,0,0,0,.1.078,1.7,1.7,0,0,1,1.294.78c.276.333.462.31.741,0,.422-.474.885-.914,1.345-1.352a1.016,1.016,0,0,1,1.513-.081.991.991,0,0,1-.056,1.507m-5.087-3.66c0-.134.007-.268.017-.4-.01.134-.015.268-.017.4,0,.067,0,.134,0,.2,0-.067,0-.134,0-.2m.026,2.016c-.005.1-.021.214-.022.322,0-.108.017-.218.022-.322.007-.134.009-.268.009-.4,0,.134,0,.269-.009.4m5.073-4.689q-1.184,1.227-2.411,2.412a1.011,1.011,0,0,1-1.562-.006c-.333-.307-.657-.623-.984-.936-.118-.133-.232-.269-.354-.4-.68-.714-.6-1.313.252-1.858.7-.182,1.111.276,1.5.723.271.311.449.343.74.013.435-.493.915-.95,1.395-1.4a1.019,1.019,0,1,1,1.426,1.45m4.291-19.493c2.322-.005,4.644,0,6.966,0q3.312,0,6.624,0a3.944,3.944,0,0,1,.68.031,1,1,0,0,1,.127,1.935,1.905,1.905,0,0,1-.6.084q-6.9.007-13.795,0c-.783,0-1.269-.419-1.27-1.035s.478-1.012,1.271-1.014m13.794,8.37q-6.9.006-13.8,0c-.959,0-1.5-.677-1.171-1.43a1.056,1.056,0,0,1,1.106-.622c2.322.009,4.645,0,6.968,0q3.45,0,6.9,0c.819,0,1.274.352,1.292.983.019.663-.455,1.064-1.3,1.065" transform="translate(-9.11 -36.149)" fill="#f1eff1"/>
    <path id="Trazado_180558" data-name="Trazado 180558" d="M35.99,17.358c-.277-.9-.46-1.023-1.495-1.024-7.514,0-15.029-.014-22.543.01-.661,0-.852-.156-.813-.818.061-1.044.016-2.094.016-3.142,0-1.027,0-1.027,1-1.028l15.1,0H43.3c.926,0,.927,0,.927.895,0,1.184-.018,2.369.01,3.552.01.425-.121.542-.537.533-1.229-.025-2.459-.014-3.689-.007-.878.005-1.091.176-1.356,1.032H35.99" transform="translate(-9.1 -9.279)" fill="#2d54fe"/>
    <path id="Trazado_180559" data-name="Trazado 180559" d="M89.24,72.346q3.312,0,6.624,0a3.944,3.944,0,0,1,.68.03,1,1,0,0,1,.127,1.935,1.9,1.9,0,0,1-.6.084q-6.9.007-13.795,0c-.783,0-1.269-.419-1.27-1.035s.478-1.012,1.271-1.014c2.322-.005,4.644,0,6.966,0" transform="translate(-66.206 -59.13)" fill="#040303"/>
    <path id="Trazado_180560" data-name="Trazado 180560" d="M89.17,106.951q3.45,0,6.9,0c.819,0,1.274.352,1.292.983.019.663-.455,1.064-1.3,1.065q-6.9.005-13.8,0c-.959,0-1.5-.677-1.171-1.43a1.056,1.056,0,0,1,1.106-.622c2.322.009,4.645,0,6.968,0" transform="translate(-66.204 -87.411)" fill="#040303"/>
    <path id="Trazado_180561" data-name="Trazado 180561" d="M33.725,103.378c-.1-.117-.2-.241-.3-.351-.78-.8-.745-1.309.138-1.968a1.443,1.443,0,0,1,1.46.676c.289.361.508.407.835.024a18.2,18.2,0,0,1,1.3-1.308,1.048,1.048,0,0,1,1.519-.1,1.008,1.008,0,0,1-.076,1.56q-1.116,1.151-2.265,2.271a1.065,1.065,0,0,1-1.765-.007c-.277-.266-.558-.528-.837-.792" transform="translate(-26.862 -81.788)" fill="#040303"/>
    <path id="Trazado_180562" data-name="Trazado 180562" d="M33.725,241.825c-.1-.117-.195-.241-.3-.35-.778-.8-.743-1.305.139-1.967a1.254,1.254,0,0,1,1.314.534c.426.615.764.472,1.172-.021a13.118,13.118,0,0,1,1.1-1.116,1.045,1.045,0,0,1,1.519-.109,1.01,1.01,0,0,1-.074,1.561q-1.117,1.152-2.268,2.271c-.643.627-1.115.614-1.765-.011-.277-.266-.558-.529-.837-.793" transform="translate(-26.864 -194.947)" fill="#040303"/>
    <path id="Trazado_180563" data-name="Trazado 180563" d="M33.62,68.555c-.07-.086-.136-.176-.211-.257-.774-.828-.631-1.518.409-1.966a1.706,1.706,0,0,1,1.3.773c.262.311.448.353.742.017.418-.478.885-.914,1.346-1.354A1.028,1.028,0,1,1,38.63,67.23q-1.143,1.171-2.315,2.315a1.033,1.033,0,0,1-1.661-.006c-.347-.325-.69-.655-1.034-.983" transform="translate(-26.904 -53.434)" fill="#040303"/>
    <path id="Trazado_180564" data-name="Trazado 180564" d="M33.738,137.946c-.1-.117-.193-.24-.3-.349-.757-.775-.714-1.322.158-1.951a1.3,1.3,0,0,1,1.355.589c.384.527.69.449,1.072-.012a13.928,13.928,0,0,1,1.15-1.161,1.039,1.039,0,0,1,1.561-.091,1,1,0,0,1-.089,1.511q-1.16,1.2-2.358,2.363a1.04,1.04,0,0,1-1.616-.013c-.313-.293-.622-.59-.933-.885" transform="translate(-26.894 -110.06)" fill="#040303"/>
    <path id="Trazado_180565" data-name="Trazado 180565" d="M33.616,207.023c-.07-.086-.136-.176-.212-.257-.779-.83-.626-1.536.425-1.96a1.7,1.7,0,0,1,1.294.78c.276.333.462.31.741,0,.422-.474.885-.914,1.345-1.352a1.016,1.016,0,0,1,1.513-.081.991.991,0,0,1-.056,1.507q-1.185,1.223-2.41,2.408a1,1,0,0,1-1.559-.012c-.367-.336-.722-.686-1.082-1.03" transform="translate(-26.901 -166.613)" fill="#040303"/>
    <path id="Trazado_180566" data-name="Trazado 180566" d="M33.715,172.476c-.118-.133-.232-.269-.354-.4-.68-.714-.6-1.312.252-1.857.7-.183,1.111.276,1.5.723.27.312.449.343.74.014.435-.493.915-.95,1.395-1.4a1.019,1.019,0,1,1,1.426,1.45q-1.184,1.226-2.411,2.412a1.012,1.012,0,0,1-1.563-.006c-.333-.307-.656-.624-.984-.936" transform="translate(-26.895 -138.295)" fill="#040303"/>
    <path id="Trazado_180567" data-name="Trazado 180567" d="M148.778,138.437c.3-.912.218-1.219-.6-1.693-4.885-2.831-9.861-2.98-14.68-.031a13.3,13.3,0,0,0-6.686,12.935,14.007,14.007,0,0,0,27.9.554c.045-.409.167-.551.578-.523a8.512,8.512,0,0,0,1.569,0c.666-.079.782.184.707.784a16.387,16.387,0,0,1-4.75,9.969c-4.789,4.7-10.519,6.286-16.938,4.31-6.576-2.024-10.528-6.661-11.733-13.426a16.862,16.862,0,1,1,33.417-4.47c.063.563.026.9-.687.809a8.414,8.414,0,0,0-1.569-.005c-.392.023-.558-.078-.6-.507a13.341,13.341,0,0,0-2.273-6.277c-.552-.824-.836-.916-1.762-.578a7.413,7.413,0,0,0-1.9-1.848" transform="translate(-101.266 -107.732)" fill="#e9f2fb"/>
    <path id="Trazado_180568" data-name="Trazado 180568" d="M170.574,160.237a7.413,7.413,0,0,1,1.9,1.848,1.325,1.325,0,0,0,.064,1.74,11.7,11.7,0,0,1,1.905,4.85c.1.56.012.849-.662.777-.631-.067-1.357.167-1.89-.071-.6-.267-.385-1.123-.577-1.706a9.164,9.164,0,1,0-9.516,11.9,9.115,9.115,0,0,0,9.78-7.557c.076-.451.261-.555.669-.535a11.4,11.4,0,0,0,1.638,0c.568-.053.645.19.569.669a11.67,11.67,0,0,1-4.058,7.374,11.992,11.992,0,0,1-19.673-7.313,12.022,12.022,0,0,1,9.788-13.555,11.869,11.869,0,0,1,8.385,1.639,1.291,1.291,0,0,0,1.681-.054" transform="translate(-123.061 -129.532)" fill="#fe502d"/>
    <path id="Trazado_180569" data-name="Trazado 180569" d="M191.471,191.183c-.848,0-1.667-.028-2.482.011-.455.022-.434-.319-.534-.562a4.271,4.271,0,1,0-5.356,5.615,4.215,4.215,0,0,0,5.3-2.39.817.817,0,0,1,.976-.633,10.211,10.211,0,0,0,1.57,0c.481-.039.591.131.475.57a7.389,7.389,0,0,1-1.487,2.959,7.106,7.106,0,0,1-12.535-5.122,7.109,7.109,0,0,1,14.011-1.033,5.782,5.782,0,0,1,.066.586" transform="translate(-144.966 -151.276)" fill="#e9f2fb"/>
    <path id="Trazado_180570" data-name="Trazado 180570" d="M341.2,213.751c.569,0,1.017.012,1.464,0a1.026,1.026,0,1,0,.021-2.043c-.227-.009-.455,0-.683,0h-.772c.651-.853,1.15-1.662,2.4-1.487a20.948,20.948,0,0,0,2.846.025,4.5,4.5,0,0,1-.725,1.456,1.707,1.707,0,0,0-.023,2.017c.85,1.436.815,1.457-.824,1.457h-.888c-1.644,0-1.644,0-2.814-1.42" transform="translate(-278.875 -171.796)" fill="#ffca00"/>
    <path id="Trazado_180571" data-name="Trazado 180571" d="M208.324,215.062a2.141,2.141,0,0,1-2.549,1.1,2.212,2.212,0,0,1-1.578-2.22,2.239,2.239,0,0,1,1.812-2.111,2.071,2.071,0,0,1,2.282,1.179c-.592,0-1.151-.008-1.71,0-.752.013-1.18.4-1.172,1.031s.448,1,1.2,1.014c.544.01,1.088,0,1.714,0" transform="translate(-166.895 -173.107)" fill="#fe502d"/>
  </g>
</svg>
