<svg xmlns="http://www.w3.org/2000/svg" xmlns:xlink="http://www.w3.org/1999/xlink" width="371" height="120.461" viewBox="0 0 371 120.461">
  <defs>
    <clipPath id="clip-path">
      <path id="Trazado_180361" data-name="Trazado 180361" d="M60.23,0a60.23,60.23,0,1,0,60.23,60.23l-60.23-.1Z" transform="translate(0)" fill="#2d54fe"/>
    </clipPath>
    <clipPath id="clip-path-2">
      <rect id="Rectángulo_36920" data-name="Rectángulo 36920" width="371" height="120.461" fill="none"/>
    </clipPath>
    <clipPath id="clip-path-3">
      <rect id="Rectángulo_36921" data-name="Rectángulo 36921" width="51.777" height="70" fill="none"/>
    </clipPath>
  </defs>
  <g id="Grupo_118343" data-name="Grupo 118343" transform="translate(-629 -8999)">
    <g id="Grupo_118306" data-name="Grupo 118306" transform="translate(629 8999)">
      <g id="Grupo_118302" data-name="Grupo 118302" transform="translate(0)">
        <g id="Grupo_118301" data-name="Grupo 118301" clip-path="url(#clip-path)">
          <rect id="Rectángulo_36919" data-name="Rectángulo 36919" width="120.461" height="120.461" transform="translate(0 0)" fill="#2d54fe"/>
        </g>
      </g>
      <g id="Grupo_118304" data-name="Grupo 118304" transform="translate(0 0)">
        <g id="Grupo_118303" data-name="Grupo 118303" clip-path="url(#clip-path-2)">
          <path id="Trazado_180362" data-name="Trazado 180362" d="M103.611,54.883A48.728,48.728,0,1,1,54.881,6.154a48.729,48.729,0,0,1,48.729,48.729" transform="translate(5.347 5.347)" fill="#fff"/>
        </g>
      </g>
    </g>
    <g id="Grupo_118310" data-name="Grupo 118310" transform="translate(664 9024.23)">
      <g id="Grupo_118309" data-name="Grupo 118309" clip-path="url(#clip-path-3)">
        <path id="Trazado_180363" data-name="Trazado 180363" d="M1,50.769c-.82-.228-.988-.451-.988-1.37q0-10.185,0-20.37,0-13.74-.012-27.48A1.86,1.86,0,0,1,.593,0h50.59a1.85,1.85,0,0,1,.594,1.548q-.048,3.312,0,6.626a1.2,1.2,0,0,1-1,1.388c-.875-.276-1.057-.51-1.059-1.412,0-1.8-.024-3.6.012-5.4.011-.546-.093-.717-.687-.716q-23.132.029-46.263,0c-.621,0-.725.171-.724.747q.025,23.1.013,46.191c0,.182,0,.365,0,.547-.025.792-.26,1.068-1.062,1.25" transform="translate(0)" fill="#030303"/>
        <path id="Trazado_180364" data-name="Trazado 180364" d="M5.479,59.871c.8-.182,1.038-.458,1.062-1.25.006-.182,0-.364,0-.547q0-23.1-.013-46.191c0-.576.1-.748.724-.747q23.132.031,46.263,0c.593,0,.7.17.687.716-.036,1.8-.017,3.6-.012,5.4,0,.9.184,1.137,1.059,1.412q0,1.341,0,2.681c-.863.2-1.061.47-1.061,1.456q0,13.625,0,27.25c0,.295-.022.59-.034.885-.408.387-.813.777-1.224,1.16a34.106,34.106,0,0,1-2.678,2.569,3.736,3.736,0,0,1-.061-1.217c.84-.164,1.084-.444,1.09-1.279q.009-1.536,0-3.073c0-.97-.343-1.312-1.31-1.313q-2.971-.005-5.941,0c-1.146,0-1.432.291-1.433,1.465q0,5.5,0,10.994c0,.408-.028.816-.043,1.224l-.574.352a7.88,7.88,0,0,1-1.732,1.153q-.012-4.169-.024-8.337c0-1.009-.338-1.343-1.357-1.345q-2.974-.007-5.947,0c-1.02,0-1.355.331-1.356,1.345,0,3.531,0,7.063,0,10.594,0,1.161-.022,2.322-.033,3.482-.836.236-1.456.932-2.325,1.1q-.015-3.412-.03-6.824c-.005-1.084-.3-1.389-1.361-1.39q-2.97,0-5.94,0c-1.055,0-1.36.313-1.36,1.391q0,5.461-.005,10.922c-1.106.409-2.209.826-3.319,1.226-2.046.738-4.159,1.256-6.236,1.9-1.252.008-2.5-.013-3.755.036-.537.021-.668-.134-.665-.666.023-4.144.014-8.288.012-12.431,0-.9-.19-1.143-1.06-1.41q0-1.343,0-2.685M16.861,22.5a7.93,7.93,0,1,0,7.9,7.994,7.957,7.957,0,0,0-7.9-7.994M30.3,20.006q5.4,0,10.8,0c.989,0,1.332-.34,1.337-1.3.007-1.321.009-2.642,0-3.963-.007-.854-.354-1.226-1.2-1.228q-10.864-.011-21.729,0c-.844,0-1.192.372-1.2,1.224-.01,1.275,0,2.551,0,3.826,0,1.142.3,1.44,1.471,1.44q5.262,0,10.523,0m10.258,13.74h5.467c1.572,0,3.144.009,4.716-.006a1,1,0,0,0,1.092-.977A1.037,1.037,0,0,0,50.8,31.7a4.583,4.583,0,0,0-.478-.007H30.848a2.091,2.091,0,0,0-.875.1.965.965,0,0,0-.617.97.906.906,0,0,0,.617.9,2.514,2.514,0,0,0,.807.082q4.887.007,9.773,0m.073-6.633q-5.023,0-10.046,0c-.776,0-1.205.354-1.227.972-.022.648.43,1.049,1.216,1.078.114,0,.228,0,.342,0H50.253a2.477,2.477,0,0,0,.879-.079,1,1,0,0,0,.627-1.317,1.123,1.123,0,0,0-1.222-.66c-3.3.01-6.606.005-9.91,0m0-4.614H30.849a3.541,3.541,0,0,0-.614.013,1.022,1.022,0,0,0-.07,2.01,2.5,2.5,0,0,0,.612.027q9.809,0,19.618,0a2.476,2.476,0,0,0,.612-.029,1.019,1.019,0,0,0-.064-2.007,3.432,3.432,0,0,0-.614-.014H40.624M13.751,68.2c-.978,0-1.956-.005-2.933,0-1.015.007-1.365.352-1.369,1.341q-.006,1.91,0,3.82c0,.965.352,1.327,1.308,1.331q3.036.012,6.072,0c.956,0,1.3-.357,1.305-1.338.009-1.251.007-2.5,0-3.752-.005-1.063-.334-1.4-1.381-1.4-1-.006-2,0-3,0m7.281-25.114H12.292c-1.1,0-1.609.325-1.6,1.028s.522,1.026,1.619,1.026q8.739,0,17.479,0a3.336,3.336,0,0,0,.879-.075,1,1,0,0,0-.081-1.938,3.462,3.462,0,0,0-.68-.037q-4.438,0-8.876,0M21,49.725h8.741c.228,0,.457.01.682-.011a.942.942,0,0,0,.95-.966.97.97,0,0,0-.861-1.055,2.522,2.522,0,0,0-.545-.019q-8.912,0-17.825,0a2.513,2.513,0,0,0-.739.074.932.932,0,0,0-.7,1.044.953.953,0,0,0,.867.911,4.706,4.706,0,0,0,.682.02H21M36.453,36.308q-2.9,0-5.8,0c-.85,0-1.314.382-1.3,1.048.014.638.467,1,1.277,1q5.8,0,11.6,0c.851,0,1.308-.377,1.3-1.048-.012-.642-.46-1-1.273-1q-2.9-.006-5.8,0M16.932,52.294c-1.66,0-3.319,0-4.978,0-.788,0-1.264.392-1.263,1.016s.481,1.031,1.264,1.032q4.944.009,9.889,0c.782,0,1.262-.41,1.263-1.034s-.477-1.012-1.265-1.014c-1.637,0-3.274,0-4.91,0" transform="translate(-4.478 -9.102)" fill="#f3f9ff"/>
        <path id="Trazado_180365" data-name="Trazado 180365" d="M1.012,108.212c.869.267,1.059.509,1.06,1.409,0,4.144.012,8.288-.012,12.432,0,.532.128.687.665.666,1.25-.048,2.5-.028,3.755-.036a1.869,1.869,0,0,0,.2.022q21.25,0,42.5.016c.562,0,.543-.249.542-.649q-.011-12.469-.007-24.938c0-.181-.022-.362-.034-.543.012-.295.034-.59.034-.885q0-13.625,0-27.25c0-.986.2-1.253,1.061-1.456.742.121,1,.581,1,1.3-.014,3.714-.006,7.427-.006,11.141v43.539c0,1.622-.155,1.775-1.808,1.775H1.568c-1.292,0-1.547-.256-1.548-1.556,0-4.534.01-9.068-.01-13.6a1.2,1.2,0,0,1,1-1.388" transform="translate(-0.009 -54.757)" fill="#030303"/>
        <path id="Trazado_180366" data-name="Trazado 180366" d="M78.623,228.937c.012.181.034.362.034.543q0,12.469.007,24.938c0,.4.02.649-.542.649q-21.25-.027-42.5-.016a1.862,1.862,0,0,1-.2-.022c2.076-.64,4.189-1.158,6.236-1.9,1.109-.4,2.212-.817,3.318-1.226a1.233,1.233,0,0,0,1.293.793c2.026-.013,4.052,0,6.077-.007.958,0,1.286-.353,1.3-1.338q.017-1.773.031-3.547c.869-.165,1.489-.86,2.325-1.1q.018,2.32.036,4.64c.009,1.013.335,1.34,1.359,1.343q2.9.007,5.805,0c1.2,0,1.494-.289,1.5-1.481q.012-5.121.024-10.242a7.876,7.876,0,0,0,1.732-1.153l.574-.352c.015.248.043.5.043.745q0,5.564,0,11.128c0,1.013.346,1.351,1.36,1.354q3,.008,6.008,0c.959,0,1.314-.365,1.314-1.328,0-5.279-.007-10.559.01-15.838a1.219,1.219,0,0,0-1.01-1.387q-.015-.736-.029-1.472A34.181,34.181,0,0,0,77.4,230.1c.411-.383.816-.773,1.224-1.161" transform="translate(-28.946 -187.103)" fill="#f3f9ff"/>
        <path id="Trazado_180367" data-name="Trazado 180367" d="M216.093,220.029a1.219,1.219,0,0,1,1.01,1.387c-.017,5.279-.007,10.559-.01,15.838,0,.962-.355,1.324-1.314,1.328q-3,.012-6.008,0c-1.014,0-1.359-.341-1.36-1.354q-.009-5.564,0-11.128c0-.248-.028-.5-.043-.745.015-.408.043-.816.043-1.224q0-5.5,0-10.994c0-1.174.287-1.465,1.433-1.465q2.971,0,5.941,0c.967,0,1.306.343,1.31,1.313q.007,1.536,0,3.073c-.005.835-.25,1.115-1.089,1.279a1.121,1.121,0,0,1-.958-1.279c.023-.614-.015-1.23.012-1.844.017-.376-.084-.517-.487-.509-1.207.025-2.414.021-3.621,0-.374-.006-.517.09-.516.492q.02,10.9.01,21.793c0,.408.112.561.54.551,1.093-.027,2.187-.041,3.279,0,.6.025.8-.114.8-.767-.031-4.782-.018-9.564-.016-14.346,0-.928.16-1.137,1.047-1.407" transform="translate(-170.289 -172.993)" fill="#030303"/>
        <path id="Trazado_180368" data-name="Trazado 180368" d="M32.157,73.321a7.93,7.93,0,1,1-7.962,7.863,7.951,7.951,0,0,1,7.962-7.863M31.093,78.54h0c0-.8-.028-1.6.01-2.391.026-.56-.1-.708-.681-.527a5.882,5.882,0,1,0,7.353,7.261c.144-.488.08-.639-.452-.631-1.663.026-3.326.016-4.989.006-.871-.005-1.207-.323-1.232-1.189-.025-.842-.005-1.686-.005-2.528m4.4,1.683c.661,0,1.322-.011,1.982,0,.338.008.435-.1.367-.442A6.1,6.1,0,0,0,33.6,75.541c-.319-.065-.462-.011-.459.349.012,1.3.015,2.6,0,3.9,0,.386.183.45.5.443.615-.014,1.23,0,1.845,0" transform="translate(-19.773 -59.923)" fill="#030303"/>
        <path id="Trazado_180369" data-name="Trazado 180369" d="M225.356,229.131c-.887.27-1.047.479-1.047,1.407,0,4.782-.015,9.565.016,14.346,0,.653-.2.792-.8.767-1.091-.045-2.186-.03-3.279,0-.428.01-.541-.143-.54-.551q.01-10.9-.01-21.793c0-.4.142-.5.516-.492,1.207.019,2.414.023,3.621,0,.4-.008.5.133.487.509-.027.614.011,1.23-.012,1.844a1.121,1.121,0,0,0,.958,1.279,3.731,3.731,0,0,0,.061,1.217q.014.736.029,1.472" transform="translate(-179.552 -182.096)" fill="#fe502d"/>
        <path id="Trazado_180370" data-name="Trazado 180370" d="M87.63,30.615q-5.261,0-10.523,0c-1.166,0-1.468-.3-1.471-1.44,0-1.275-.008-2.551,0-3.826.007-.852.354-1.223,1.2-1.224q10.865-.011,21.729,0c.842,0,1.19.374,1.2,1.227q.015,1.981,0,3.963c-.005.96-.348,1.3-1.337,1.3q-5.4.009-10.8,0m.08-4.451H79.38c-1.7,0-1.673,0-1.7,1.7-.01.578.166.715.727.713,5.85-.02,11.7-.012,17.55-.012,1.78,0,1.758,0,1.77-1.773,0-.522-.156-.647-.658-.643-3.118.022-6.237.011-9.355.011" transform="translate(-61.813 -19.711)" fill="#030303"/>
        <path id="Trazado_180371" data-name="Trazado 180371" d="M156.743,251.475q-.012,5.121-.024,10.242c0,1.192-.291,1.48-1.5,1.481q-2.9,0-5.805,0c-1.024,0-1.35-.33-1.359-1.343q-.02-2.32-.036-4.64c.012-1.161.032-2.321.033-3.482,0-3.531,0-7.063,0-10.594,0-1.013.335-1.343,1.356-1.345q2.973-.006,5.947,0c1.019,0,1.354.337,1.357,1.345q.015,4.169.024,8.337m-2.09,1.018h.008c0-2.685-.007-5.37.007-8.055,0-.407-.052-.616-.545-.6-1.182.037-2.367.024-3.55.005-.369-.006-.46.138-.46.48q.016,8.158.008,16.315c0,.39.122.511.508.5,1.092-.022,2.186-.041,3.276.006.583.025.773-.11.763-.736-.04-2.639-.017-5.279-.017-7.919" transform="translate(-120.974 -197.607)" fill="#030303"/>
        <path id="Trazado_180372" data-name="Trazado 180372" d="M96.4,295.457q-.015,1.773-.031,3.547c-.01.985-.337,1.334-1.3,1.338-2.026.008-4.052-.005-6.077.007a1.234,1.234,0,0,1-1.293-.793q0-5.461.005-10.922c0-1.078.305-1.39,1.36-1.391q2.97,0,5.94,0c1.059,0,1.356.307,1.361,1.39q.016,3.412.03,6.824m-2.091-1.672h.007c0-1.32-.015-2.64.009-3.96.007-.413-.1-.551-.531-.541-1.183.029-2.367.026-3.55,0-.4-.008-.492.13-.49.506q.021,3.994,0,7.989c0,.439.154.531.554.523,1.16-.024,2.322-.03,3.482,0,.434.01.536-.151.53-.554-.02-1.32-.008-2.64-.008-3.96" transform="translate(-71.677 -234.753)" fill="#030303"/>
        <path id="Trazado_180373" data-name="Trazado 180373" d="M147.346,125.675q-4.887,0-9.773,0a2.5,2.5,0,0,1-.807-.082.906.906,0,0,1-.617-.9.965.965,0,0,1,.617-.97,2.094,2.094,0,0,1,.875-.1h19.478a4.631,4.631,0,0,1,.478.007,1.037,1.037,0,0,1,1.024,1.062,1,1,0,0,1-1.092.977c-1.572.016-3.144.006-4.716.006h-5.467" transform="translate(-111.27 -101.031)" fill="#030303"/>
        <path id="Trazado_180374" data-name="Trazado 180374" d="M147.406,98.549c3.3,0,6.607,0,9.91,0a1.123,1.123,0,0,1,1.222.66,1,1,0,0,1-.627,1.317,2.478,2.478,0,0,1-.879.079H137.691c-.114,0-.228,0-.342,0-.787-.029-1.239-.43-1.216-1.078.021-.618.45-.97,1.226-.972q5.023-.007,10.046,0" transform="translate(-111.257 -80.537)" fill="#030303"/>
        <path id="Trazado_180375" data-name="Trazado 180375" d="M147.425,73.291h9.706a3.414,3.414,0,0,1,.614.015,1.019,1.019,0,0,1,.064,2.007,2.485,2.485,0,0,1-.612.029q-9.809,0-19.618,0a2.488,2.488,0,0,1-.612-.027,1.022,1.022,0,0,1,.07-2.01,3.54,3.54,0,0,1,.614-.013h9.775" transform="translate(-111.279 -59.893)" fill="#030303"/>
        <path id="Trazado_180376" data-name="Trazado 180376" d="M31.493,323.395c1,0,2,0,3,0,1.047.006,1.376.34,1.381,1.4.006,1.25.008,2.5,0,3.752-.007.981-.349,1.334-1.305,1.338q-3.036.012-6.072,0c-.956,0-1.3-.366-1.308-1.331q-.007-1.91,0-3.82c0-.99.354-1.334,1.369-1.341.978-.007,1.956,0,2.933,0m.059,2.046c-.613,0-1.225.014-1.837-.005-.339-.011-.5.079-.482.453.026.5.024,1,0,1.5-.017.358.114.476.469.467.793-.02,1.588-.006,2.382-.006,1.872,0,1.861,0,1.765-1.911-.019-.388-.152-.514-.528-.5-.589.023-1.179.006-1.769.006" transform="translate(-22.22 -264.299)" fill="#030303"/>
        <path id="Trazado_180377" data-name="Trazado 180377" d="M44.345,185.964q4.438,0,8.876,0a3.491,3.491,0,0,1,.68.037,1,1,0,0,1,.081,1.938,3.351,3.351,0,0,1-.879.075q-8.739.006-17.479,0c-1.1,0-1.611-.327-1.619-1.026s.5-1.028,1.6-1.028h8.739" transform="translate(-27.791 -151.983)" fill="#030303"/>
        <path id="Trazado_180378" data-name="Trazado 180378" d="M44.34,213.114H35.6a4.731,4.731,0,0,1-.682-.019.953.953,0,0,1-.867-.911.932.932,0,0,1,.695-1.044,2.509,2.509,0,0,1,.739-.075q8.912-.006,17.825,0a2.522,2.522,0,0,1,.544.02.97.97,0,0,1,.861,1.056.943.943,0,0,1-.949.966c-.226.02-.455.011-.682.011H44.34" transform="translate(-27.823 -172.491)" fill="#030303"/>
        <path id="Trazado_180379" data-name="Trazado 180379" d="M143.227,148.884q2.9,0,5.8,0c.813,0,1.26.361,1.273,1,.013.671-.444,1.047-1.295,1.048q-5.8,0-11.6,0c-.81,0-1.262-.364-1.277-1-.015-.666.449-1.046,1.3-1.048q2.9-.005,5.8,0" transform="translate(-111.251 -121.678)" fill="#030303"/>
        <path id="Trazado_180380" data-name="Trazado 180380" d="M40.241,236.365c1.637,0,3.274,0,4.91,0,.788,0,1.266.391,1.265,1.014s-.481,1.033-1.263,1.034q-4.944.009-9.889,0c-.784,0-1.263-.408-1.264-1.032s.475-1.014,1.263-1.016c1.659,0,3.319,0,4.978,0" transform="translate(-27.787 -193.173)" fill="#030303"/>
        <path id="Trazado_180381" data-name="Trazado 180381" d="M40.225,88.5c0,.843-.019,1.686.005,2.528.026.867.361,1.184,1.233,1.189,1.663.01,3.326.019,4.989-.006.533-.008.6.143.452.631a5.882,5.882,0,1,1-7.353-7.261c.583-.181.707-.033.681.527-.037.8-.01,1.594-.01,2.391Z" transform="translate(-28.905 -69.887)" fill="#ffca00"/>
        <path id="Trazado_180382" data-name="Trazado 180382" d="M75.5,90.044c-.615,0-1.23-.01-1.845,0-.321.007-.509-.057-.5-.443.016-1.3.013-2.6,0-3.9,0-.36.14-.414.459-.349a6.1,6.1,0,0,1,4.238,4.245c.069.344-.028.45-.367.442-.66-.016-1.321,0-1.982,0" transform="translate(-59.782 -69.744)" fill="#2d54fe"/>
        <path id="Trazado_180383" data-name="Trazado 180383" d="M96.85,35.268c3.118,0,6.237.011,9.355-.011.5,0,.661.121.658.643-.012,1.773.009,1.773-1.77,1.773-5.85,0-11.7-.008-17.55.012-.561,0-.737-.135-.727-.713.03-1.7,0-1.7,1.7-1.7H96.85" transform="translate(-70.952 -28.814)" fill="#ffca00"/>
        <path id="Trazado_180384" data-name="Trazado 180384" d="M164.01,261.644c0,2.64-.023,5.28.017,7.919.009.626-.18.761-.763.736-1.09-.047-2.185-.028-3.276-.006-.386.007-.508-.114-.508-.5q.011-8.158-.008-16.315c0-.342.091-.486.46-.48,1.183.019,2.367.032,3.55-.005.492-.015.547.193.545.6-.014,2.685-.007,5.37-.007,8.055Z" transform="translate(-130.331 -206.759)" fill="#ffca00"/>
        <path id="Trazado_180385" data-name="Trazado 180385" d="M103.467,302.92c0,1.32-.013,2.64.008,3.96.006.4-.1.563-.53.554-1.16-.025-2.322-.02-3.482,0-.4.008-.558-.084-.554-.523q.029-3.994,0-7.989c0-.377.091-.515.49-.506,1.183.025,2.367.028,3.55,0,.429-.01.539.128.531.541-.024,1.32-.009,2.64-.009,3.96Z" transform="translate(-80.834 -243.888)" fill="#2d54fe"/>
        <path id="Trazado_180386" data-name="Trazado 180386" d="M40.694,334.565c.59,0,1.18.016,1.769-.006.376-.014.509.111.528.5.1,1.912.106,1.911-1.765,1.911-.794,0-1.588-.014-2.382.006-.354.009-.486-.109-.469-.467.024-.5.026-1,0-1.5-.02-.375.143-.464.482-.453.612.019,1.225.005,1.837.005" transform="translate(-31.361 -273.424)" fill="#d3d3d3"/>
      </g>
    </g>
  </g>
</svg>
