<svg xmlns="http://www.w3.org/2000/svg" xmlns:xlink="http://www.w3.org/1999/xlink" width="371" height="120.461" viewBox="0 0 371 120.461">
  <defs>
    <clipPath id="clip-path">
      <path id="Trazado_180361" data-name="Trazado 180361" d="M60.23,0a60.23,60.23,0,1,0,60.23,60.23l-60.23-.1Z" transform="translate(0)" fill="#2d54fe"/>
    </clipPath>
    <clipPath id="clip-path-2">
      <rect id="Rectángulo_36920" data-name="Rectángulo 36920" width="371" height="120.461" fill="none"/>
    </clipPath>
    <clipPath id="clip-path-3">
      <rect id="Rectángulo_36924" data-name="Rectángulo 36924" width="70" height="70.022" fill="none"/>
    </clipPath>
  </defs>
  <g id="Grupo_118341" data-name="Grupo 118341" transform="translate(-768 -8582.539)">
    <g id="Grupo_118308" data-name="Grupo 118308" transform="translate(768 8582.539)">
      <g id="Grupo_118302" data-name="Grupo 118302" transform="translate(0)">
        <g id="Grupo_118301" data-name="Grupo 118301" clip-path="url(#clip-path)">
          <rect id="Rectángulo_36919" data-name="Rectángulo 36919" width="120.461" height="120.461" transform="translate(0 0)" fill="#2d54fe"/>
        </g>
      </g>
      <g id="Grupo_118304" data-name="Grupo 118304" transform="translate(0 0)">
        <g id="Grupo_118303" data-name="Grupo 118303" clip-path="url(#clip-path-2)">
          <path id="Trazado_180362" data-name="Trazado 180362" d="M103.611,54.883A48.728,48.728,0,1,1,54.881,6.154a48.729,48.729,0,0,1,48.729,48.729" transform="translate(5.347 5.347)" fill="#fff"/>
        </g>
      </g>
    </g>
    <g id="Grupo_118317" data-name="Grupo 118317" transform="translate(796 8604.747)">
      <g id="Grupo_118316" data-name="Grupo 118316" clip-path="url(#clip-path-3)">
        <path id="Trazado_180422" data-name="Trazado 180422" d="M70,37.879a6.5,6.5,0,0,0-.374,2.093A34.9,34.9,0,0,1,59.4,59.742,34.686,34.686,0,0,1,41.322,69.4,35.685,35.685,0,0,1,22.629,67.88a31.569,31.569,0,0,1-7.045-3.386.835.835,0,0,0-.928-.036q-5.7,2.607-11.406,5.2c-.145.066-.286.138-.431.2a1.328,1.328,0,0,1-1.58-.228,1.345,1.345,0,0,1-.31-1.565q1.486-3.989,2.953-7.985c.574-1.555,1.137-3.113,1.727-4.662a.943.943,0,0,0-.07-.945A36.035,36.035,0,0,1,.028,33.622a33.652,33.652,0,0,1,8.207-20.8A35.075,35.075,0,0,1,31.854.14c.139-.015.332.082.4-.14h5.333c.023.109.1.126.2.134A32.483,32.483,0,0,1,52.266,4.79c9.569,5.827,15.479,14.2,17.365,25.318A8.7,8.7,0,0,0,70,32.272ZM4.607,66.021c.394-.175.6-.265.8-.359,3-1.365,6.005-2.72,9-4.1a1.753,1.753,0,0,1,1.913.148,28.758,28.758,0,0,0,7.115,3.562,32.584,32.584,0,0,0,19.941.84,32.175,32.175,0,0,0,18.11-12.984,30.467,30.467,0,0,0,5.3-23.416A31.937,31.937,0,0,0,52.221,7.921,30.493,30.493,0,0,0,30.661,3.05a31.536,31.536,0,0,0-18.078,9.006A31.389,31.389,0,0,0,2.777,33.518a32.84,32.84,0,0,0,5.5,20.136,1.853,1.853,0,0,1,.218,1.857c-.653,1.673-1.253,3.366-1.874,5.05l-2.014,5.46" transform="translate(0)" fill="#020303"/>
        <path id="Trazado_180423" data-name="Trazado 180423" d="M21.834,83.169l2.014-5.46c.621-1.685,1.222-3.378,1.874-5.05A1.854,1.854,0,0,0,25.5,70.8,32.84,32.84,0,0,1,20,50.666,31.389,31.389,0,0,1,29.81,29.2,31.536,31.536,0,0,1,47.888,20.2a30.493,30.493,0,0,1,21.56,4.871,31.937,31.937,0,0,1,14.56,21.786,30.467,30.467,0,0,1-5.3,23.416A32.175,32.175,0,0,1,60.6,83.255a32.585,32.585,0,0,1-19.941-.84,28.755,28.755,0,0,1-7.115-3.562,1.753,1.753,0,0,0-1.913-.148c-2.991,1.384-6,2.739-9,4.1-.2.093-.411.183-.8.359M76.8,53.544c.927-.185,1.395-.651,1.4-1.39s-.47-1.206-1.4-1.388l-.289-2.688a1.457,1.457,0,0,0,1.041-1.821,8.66,8.66,0,0,0-.273-1.4,24.926,24.926,0,0,0-5.447-9.289c-7.716-8.83-18.7-11.649-29.237-7.529A25.974,25.974,0,1,0,77.5,58.183a1.449,1.449,0,0,0-.986-1.951l.29-2.689" transform="translate(-17.227 -17.148)" fill="#ffca00"/>
        <path id="Trazado_180424" data-name="Trazado 180424" d="M133.094,104.7q.144,1.344.289,2.688c-.9.225-1.333.673-1.332,1.388s.428,1.162,1.332,1.39q-.145,1.344-.29,2.689c-1.088.034-1.448.31-1.7,1.383a22.5,22.5,0,0,1-1.734,4.8,23.242,23.242,0,0,1-43.929-13.053,22.6,22.6,0,0,1,9.941-16.341,21.587,21.587,0,0,1,18.328-3.4c6.985,1.835,12.052,6.274,15.757,12.358a10.742,10.742,0,0,1,1.684,4.568c.111,1.158.493,1.492,1.658,1.535M112.9,114.3q0-6.047,0-12.094c0-1.124-.5-1.624-1.626-1.628q-2.494-.008-4.988,0a1.4,1.4,0,0,0-1.587,1.6q0,12.06,0,24.12c0,1.124.5,1.625,1.626,1.629q2.426.008,4.851,0c1.256,0,1.725-.473,1.726-1.736q0-5.945,0-11.889m0-20.565a4.1,4.1,0,1,0-4.133,4.105,4.111,4.111,0,0,0,4.133-4.105" transform="translate(-73.808 -73.774)" fill="#d2e1f1"/>
        <path id="Trazado_180425" data-name="Trazado 180425" d="M115.942,87.771c-1.165-.043-1.548-.377-1.658-1.535a10.742,10.742,0,0,0-1.684-4.568c-3.705-6.084-8.772-10.523-15.757-12.358a21.587,21.587,0,0,0-18.328,3.4,22.594,22.594,0,0,0-9.94,16.341A23.242,23.242,0,0,0,112.5,102.106a22.516,22.516,0,0,0,1.734-4.8c.257-1.074.617-1.35,1.7-1.384a1.449,1.449,0,0,1,.986,1.951,25.98,25.98,0,1,1-34.9-30.147c10.541-4.12,21.521-1.3,29.237,7.529a24.924,24.924,0,0,1,5.447,9.289,8.673,8.673,0,0,1,.273,1.4,1.457,1.457,0,0,1-1.041,1.821" transform="translate(-56.656 -56.841)" fill="#010303"/>
        <path id="Trazado_180426" data-name="Trazado 180426" d="M426.254,248.043c-.9-.228-1.332-.674-1.332-1.39s.43-1.164,1.332-1.389c.926.182,1.4.65,1.4,1.389s-.468,1.2-1.4,1.39" transform="translate(-366.679 -211.647)" fill="#020303"/>
        <path id="Trazado_180427" data-name="Trazado 180427" d="M233.568,209.246q0,5.945,0,11.889c0,1.264-.47,1.734-1.726,1.736q-2.426,0-4.851,0c-1.122,0-1.625-.505-1.626-1.629q0-12.06,0-24.12a1.4,1.4,0,0,1,1.587-1.6q2.494-.01,4.988,0c1.124,0,1.625.5,1.626,1.628q.006,6.047,0,12.094m-2.735.021c0-2.983.008-5.966-.006-8.949,0-.673.3-1.573-.133-1.955-.372-.332-1.258-.053-1.91-.117-.58-.056-.7.141-.7.7.022,6.353.01,12.706.02,19.059,0,.7-.3,1.627.136,2.021.384.343,1.3.06,1.976.119.522.045.634-.13.631-.635-.024-3.415-.012-6.831-.012-10.247" transform="translate(-194.473 -168.72)"/>
        <path id="Trazado_180428" data-name="Trazado 180428" d="M233.576,119.832a4.1,4.1,0,1,1-4.071-4.1,4.114,4.114,0,0,1,4.071,4.1m-2.739.033a1.363,1.363,0,1,0-1.426,1.333,1.379,1.379,0,0,0,1.426-1.333" transform="translate(-194.483 -99.871)" fill="#020303"/>
        <path id="Trazado_180429" data-name="Trazado 180429" d="M247.446,226.115c0,3.416-.012,6.831.012,10.247,0,.5-.109.68-.631.635-.676-.058-1.592.225-1.976-.119-.44-.394-.135-1.325-.136-2.021-.01-6.353,0-12.706-.02-19.059,0-.563.121-.76.7-.7.652.063,1.538-.215,1.91.117.428.382.13,1.282.133,1.955.015,2.983.006,5.966.006,8.949" transform="translate(-211.086 -185.569)" fill="#2d54fe"/>
        <path id="Trazado_180430" data-name="Trazado 180430" d="M248.079,137.1a1.363,1.363,0,1,1-1.3-1.392,1.379,1.379,0,0,1,1.3,1.392" transform="translate(-211.724 -117.107)" fill="#2d54fe"/>
      </g>
    </g>
  </g>
</svg>
