<svg xmlns="http://www.w3.org/2000/svg" xmlns:xlink="http://www.w3.org/1999/xlink" width="371" height="120.461" viewBox="0 0 371 120.461">
  <defs>
    <clipPath id="clip-path">
      <path id="Trazado_180361" data-name="Trazado 180361" d="M60.23,0a60.23,60.23,0,1,0,60.23,60.23l-60.23-.1Z" transform="translate(0)" fill="#2d54fe"/>
    </clipPath>
    <clipPath id="clip-path-2">
      <rect id="Rectángulo_36920" data-name="Rectángulo 36920" width="371" height="120.461" fill="none"/>
    </clipPath>
    <clipPath id="clip-path-3">
      <rect id="Rectángulo_36923" data-name="Rectángulo 36923" width="57.837" height="70" fill="none"/>
    </clipPath>
  </defs>
  <g id="Grupo_118339" data-name="Grupo 118339" transform="translate(-1000 -8734.77)">
    <g id="Grupo_118307" data-name="Grupo 118307" transform="translate(1000 8734.77)">
      <g id="Grupo_118302" data-name="Grupo 118302" transform="translate(0)">
        <g id="Grupo_118301" data-name="Grupo 118301" clip-path="url(#clip-path)">
          <rect id="Rectángulo_36919" data-name="Rectángulo 36919" width="120.461" height="120.461" transform="translate(0 0)" fill="#2d54fe"/>
        </g>
      </g>
      <g id="Grupo_118304" data-name="Grupo 118304" transform="translate(0 0)">
        <g id="Grupo_118303" data-name="Grupo 118303" clip-path="url(#clip-path-2)">
          <path id="Trazado_180362" data-name="Trazado 180362" d="M103.611,54.883A48.728,48.728,0,1,1,54.881,6.154a48.729,48.729,0,0,1,48.729,48.729" transform="translate(5.347 5.347)" fill="#fff"/>
        </g>
      </g>
    </g>
    <g id="Grupo_118315" data-name="Grupo 118315" transform="translate(1033.082 8760)">
      <g id="Grupo_118314" data-name="Grupo 118314" clip-path="url(#clip-path-3)">
        <path id="Trazado_180414" data-name="Trazado 180414" d="M39.933,46.611a1.462,1.462,0,0,1-.3,2.172c-1.881,1.886-3.76,3.774-5.656,5.644a1.276,1.276,0,0,0-.422,1.007c.017,4.28.009,8.56.012,12.84a1.745,1.745,0,0,1-.281,1.166,1.294,1.294,0,0,1-1.386.518,1.407,1.407,0,0,1-1.091-1.327V57.346a4.324,4.324,0,0,1-3.785.01V68.631c-.208.938-.743,1.423-1.5,1.36-.793-.066-1.256-.667-1.257-1.65,0-4.282-.009-8.565.011-12.847A1.435,1.435,0,0,0,23.8,54.37Q12.678,43.269,1.571,32.15c-2.1-2.1-2.095-4.41,0-6.51Q12.882,14.333,24.19,3.028C25.336,1.883,26.373.6,27.96,0H29.6a6.938,6.938,0,0,1,3.233,2.2Q44.506,13.9,56.2,25.581c2.186,2.186,2.178,4.455-.022,6.656Q52,36.415,47.824,40.591a1.4,1.4,0,1,1-1.9-1.971q4.248-4.255,8.5-8.506a1.446,1.446,0,0,0,.033-2.4Q42.29,15.529,30.11,3.355a1.439,1.439,0,0,0-2.4.02Q15.553,15.525,3.4,27.68c-.89.89-.882,1.546.022,2.45Q15.552,42.259,27.682,54.386c.915.915,1.565.91,2.494-.019q3.771-3.766,7.539-7.537a1.44,1.44,0,0,1,2.219-.22" transform="translate(0)" fill="#030302"/>
        <path id="Trazado_180415" data-name="Trazado 180415" d="M52.2,58.77a1.44,1.44,0,0,0-2.219.22q-3.773,3.765-7.539,7.537c-.93.929-1.579.934-2.494.019Q27.818,54.418,15.692,42.289c-.9-.9-.912-1.561-.022-2.45q12.15-12.154,24.3-24.3a1.438,1.438,0,0,1,2.4-.02q12.18,12.173,24.352,24.353a1.445,1.445,0,0,1-.033,2.4q-4.248,4.256-8.5,8.506A1.437,1.437,0,0,0,57.969,53l-2.01,1.951c-.825-.509-1.441-.5-1.963.039a1.424,1.424,0,0,0,.027,1.962L52.2,58.77m-18.961-30.5-1.777,1.775a1.471,1.471,0,0,0-1.452-.31c-.918.343-1.139,1.22-.557,2.247L27.48,34.039a1.445,1.445,0,0,0-2.22.254q-2.54,2.533-5.074,5.073a2.11,2.11,0,0,0-.006,3.379q9.638,9.642,19.28,19.28a2.117,2.117,0,0,0,3.432.017Q52.56,52.38,62.221,42.713a2.086,2.086,0,0,0,.024-3.284Q52.537,29.712,42.821,20a2.069,2.069,0,0,0-3.285.014q-3.052,3.037-6.089,6.088a1.431,1.431,0,0,0-.209,2.168" transform="translate(-12.266 -12.159)" fill="#ffca00"/>
        <path id="Trazado_180416" data-name="Trazado 180416" d="M147.915,325.151V313.876a4.323,4.323,0,0,0,3.785-.01v11.285h-3.785" transform="translate(-120.89 -256.52)" fill="#d3d3d3"/>
        <path id="Trazado_180417" data-name="Trazado 180417" d="M226.74,234.528a1.424,1.424,0,0,1-.027-1.961c.522-.536,1.138-.548,1.963-.039.506.817.5,1.43-.031,1.953-.5.494-1.113.51-1.906.047" transform="translate(-184.983 -189.738)" fill="#030302"/>
        <path id="Trazado_180418" data-name="Trazado 180418" d="M60.987,67.474l1.973-2.054c.821.519,1.423.524,1.952.014a1.438,1.438,0,0,0,.056-1.951l1.777-1.775a1.454,1.454,0,0,0,2.171-.272q2.711-2.7,5.411-5.416c.242-.244.383-.354.69-.045q9.072,9.1,18.173,18.175c.279.278.26.425-.009.694q-9.074,9.052-18.123,18.128c-.311.312-.455.273-.741-.015Q65.292,83.905,56.239,74.88c-.326-.325-.3-.486.014-.791,1.5-1.465,2.974-2.955,4.453-4.44a1.465,1.465,0,0,0,.281-2.176m20.1,7.334c-.233.244-.441.443-.626.662a1.371,1.371,0,0,0,.04,1.91,1.332,1.332,0,0,0,1.854.029q1.584-1.506,3.094-3.09a1.293,1.293,0,0,0,0-1.852c-1.007-1.053-2.036-2.087-3.095-3.088a1.317,1.317,0,0,0-1.9.073,1.388,1.388,0,0,0,0,1.864c.176.214.465.347.541.7a7.634,7.634,0,0,0-4.914,1.535V68.379a8.77,8.77,0,0,0,.592.681,1.337,1.337,0,0,0,1.953.049,1.31,1.31,0,0,0-.006-1.949q-1.465-1.529-3-2.994a1.282,1.282,0,0,0-1.9-.011q-1.553,1.49-3.044,3.044a1.357,1.357,0,0,0,1.922,1.914c.212-.181.414-.373.707-.639v.8q0,7.142,0,14.283c0,1.027.551,1.682,1.384,1.664.814-.018,1.344-.658,1.349-1.645.006-1.481-.017-2.962.009-4.442a4.472,4.472,0,0,1,5.035-4.329" transform="translate(-45.774 -45.594)" fill="#d2e1f1"/>
        <path id="Trazado_180419" data-name="Trazado 180419" d="M46.844,53.377a1.465,1.465,0,0,1-.281,2.176c-1.479,1.485-2.955,2.974-4.453,4.44-.312.3-.339.466-.014.791Q51.15,69.807,60.174,78.86c.286.287.431.326.741.015Q69.962,69.8,79.039,60.747c.269-.269.288-.416.009-.694q-9.1-9.075-18.173-18.175c-.307-.308-.448-.2-.69.045q-2.7,2.718-5.411,5.416a1.454,1.454,0,0,1-2.171.272,1.431,1.431,0,0,1,.209-2.168q3.04-3.048,6.089-6.088a2.069,2.069,0,0,1,3.285-.014Q71.9,49.05,81.609,58.768a2.086,2.086,0,0,1-.024,3.284Q71.924,71.719,62.257,81.38a2.117,2.117,0,0,1-3.432-.017q-9.642-9.638-19.28-19.28A2.11,2.11,0,0,1,39.55,58.7q2.535-2.539,5.074-5.073a1.445,1.445,0,0,1,2.22-.254" transform="translate(-31.63 -31.497)" fill="#020101"/>
        <path id="Trazado_180420" data-name="Trazado 180420" d="M94.636,96.15A1.438,1.438,0,0,1,94.58,98.1c-.529.509-1.132.5-1.952-.014-.582-1.027-.362-1.9.557-2.247a1.471,1.471,0,0,1,1.451.31" transform="translate(-75.441 -78.261)" fill="#030302"/>
        <path id="Trazado_180421" data-name="Trazado 180421" d="M145,110.383a4.472,4.472,0,0,0-5.035,4.329c-.026,1.48,0,2.961-.009,4.442,0,.987-.535,1.627-1.349,1.645-.833.018-1.383-.636-1.384-1.664q0-7.142,0-14.283v-.8c-.293.265-.495.457-.707.639a1.357,1.357,0,0,1-1.922-1.914q1.49-1.553,3.044-3.044a1.282,1.282,0,0,1,1.9.011q1.533,1.461,3,2.994a1.31,1.31,0,0,1,.006,1.949,1.337,1.337,0,0,1-1.953-.049,8.768,8.768,0,0,1-.592-.681v5.173a7.634,7.634,0,0,1,4.914-1.535c-.076-.354-.365-.487-.541-.7a1.388,1.388,0,0,1,0-1.864,1.317,1.317,0,0,1,1.9-.073c1.058,1,2.087,2.036,3.095,3.088a1.293,1.293,0,0,1,0,1.852q-1.509,1.581-3.094,3.09a1.332,1.332,0,0,1-1.854-.029,1.371,1.371,0,0,1-.04-1.91c.185-.218.393-.417.626-.662" transform="translate(-109.677 -81.169)" fill="#030302"/>
      </g>
    </g>
  </g>
</svg>
