<svg xmlns="http://www.w3.org/2000/svg" xmlns:xlink="http://www.w3.org/1999/xlink" width="190" height="111" viewBox="0 0 190 111">
  <defs>
    <clipPath id="clip-path">
      <rect id="Rectángulo_36874" data-name="Rectángulo 36874" width="59.808" height="90" fill="none"/>
    </clipPath>
  </defs>
  <g id="Grupo_118331" data-name="Grupo 118331" transform="translate(-390 -1601)">
    <g id="Grupo_118193" data-name="Grupo 118193" transform="translate(210 727)">
      <path id="Trazado_178448" data-name="Trazado 178448" d="M791.013-1163H941.987c-.282-39.809-33.964-72-75.487-72S791.295-1202.809,791.013-1163Z" transform="translate(1141.5 -278) rotate(180)" fill="#ffca00" opacity="0.15"/>
      <g id="Grupo_117240" data-name="Grupo 117240" transform="translate(370 985) rotate(180)">
        <path id="Trazado_100600" data-name="Trazado 100600" d="M713.6-210.305l2.423-2.423,8.456,8.456,2.423,2.423-2.423,2.423-8.456,8.456-2.423-2.423,8.456-8.456Z" transform="translate(-702.564 212.728)" fill="#2d54fe"/>
        <path id="Trazado_100601" data-name="Trazado 100601" d="M776.91-201.849l-8.456-8.456,2.423-2.423,8.456,8.456,2.423,2.423-2.423,2.423-8.456,8.456-2.423-2.423Z" transform="translate(-768.453 212.728)" fill="#2d54fe"/>
      </g>
      <g id="Grupo_117241" data-name="Grupo 117241" transform="translate(195.667 949.479) rotate(90)">
        <path id="Trazado_100600-2" data-name="Trazado 100600" d="M0,13.922l1.744,1.744L7.833,9.578,9.578,7.833,7.833,6.089,1.744,0,0,1.744,6.089,7.833Z" transform="translate(7.944)" fill="#fe502d"/>
        <path id="Trazado_100601-2" data-name="Trazado 100601" d="M6.089,7.833,0,13.922l1.744,1.744L7.833,9.578,9.578,7.833,7.833,6.089,1.744,0,0,1.744Z" fill="#fe502d"/>
      </g>
      <rect id="Rectángulo_36648" data-name="Rectángulo 36648" width="39" height="10" transform="translate(370 905) rotate(180)" fill="#ffca00"/>
      <rect id="Rectángulo_36650" data-name="Rectángulo 36650" width="39" height="10" transform="translate(219 925.12) rotate(180)" fill="#2d54fe"/>
    </g>
    <g id="Grupo_118222" data-name="Grupo 118222" transform="translate(455.204 1601)">
      <g id="Grupo_118221" data-name="Grupo 118221" clip-path="url(#clip-path)">
        <path id="Trazado_180105" data-name="Trazado 180105" d="M15.311,357.715c-1.281-.785-1.233-2-1.02-3.244a8.8,8.8,0,0,1,10.293-7.116,1.235,1.235,0,0,0,1.426-.558,9.363,9.363,0,0,1,14.481-.083c.422.511.594.476,1-.01a9.364,9.364,0,0,1,14.592.239.97.97,0,0,0,1.145.433,8.8,8.8,0,0,1,10.54,7.8,2.177,2.177,0,0,1-1.3,2.537H65.408a2.611,2.611,0,0,1-1.157-1.772,5.225,5.225,0,0,0-5.29-5.253,5.173,5.173,0,0,0-5.187,5.255,2.275,2.275,0,0,1-1.374,1.771H51.346a2.64,2.64,0,0,1-1.182-1.75,9.035,9.035,0,0,1,2.955-6.519c.307-.273.122-.421-.057-.632a5.944,5.944,0,0,0-7.935-.775,6.3,6.3,0,0,0-2.4,4.772,1.749,1.749,0,0,1-1.777,1.7,1.812,1.812,0,0,1-1.72-1.684c-.057-.405-.063-.821-.153-1.218a5.892,5.892,0,0,0-10.091-2.858c-.179.185-.518.348-.136.688a9.135,9.135,0,0,1,2.97,6.519,2.224,2.224,0,0,1-1.39,1.759H29.374a2.611,2.611,0,0,1-1.158-1.771,5.236,5.236,0,0,0-5.38-5.253,5.175,5.175,0,0,0-5.1,5.254,2.287,2.287,0,0,1-1.374,1.771Z" transform="translate(-11.054 -267.715)" fill="#020202"/>
        <path id="Trazado_180106" data-name="Trazado 180106" d="M107.709,400.682a2.64,2.64,0,0,0,1.182,1.75H87.973a2.224,2.224,0,0,0,1.39-1.759Z" transform="translate(-68.598 -312.431)" fill="#fefefe"/>
        <path id="Trazado_180107" data-name="Trazado 180107" d="M24.121,402.388a2.286,2.286,0,0,0,1.374-1.771H35.971a2.611,2.611,0,0,0,1.158,1.772Z" transform="translate(-18.809 -312.388)" fill="#fefefe"/>
        <path id="Trazado_180108" data-name="Trazado 180108" d="M187.742,402.386a2.275,2.275,0,0,0,1.374-1.771h10.477a2.61,2.61,0,0,0,1.157,1.772Z" transform="translate(-146.395 -312.386)" fill="#fefefe"/>
        <path id="Trazado_180109" data-name="Trazado 180109" d="M58.054,69.544a1.842,1.842,0,0,1,1.749,2.11c.009.673.007,1.347,0,2.021-.016,1.766-1.226,2.532-2.828,1.757-5.044-2.442-10.09-4.882-15.111-7.371-.745-.369-1.178-.351-1.59.389A4.481,4.481,0,0,1,35.3,70.862c-.919-.13-1.874.017-2.808-.035-.621-.035-.9.086-.828.788a17.236,17.236,0,0,1,.014,2.107,1.831,1.831,0,0,1-1.732,2.029c-1.047.017-1.763-.808-1.781-2.068-.01-.732-.045-1.468.012-2.2.045-.575-.172-.67-.689-.659-1.522.034-3.046-.019-4.568.024a2.536,2.536,0,0,1-2.218-1c-.435-.552-.926-1.064-1.313-1.646-.326-.49-.606-.525-1.126-.27C13.339,70.358,8.4,72.75,3.466,75.15c-.315.153-.626.317-.951.444A1.709,1.709,0,0,1,.061,74.075c-.02-6.237-.168-12.482.087-18.71.193-4.725,2.871-8.031,7.144-10.022.846-.394,1.7-.783,2.567-1.12a.8.8,0,0,0,.6-.974,59.33,59.33,0,0,1-.09-8.6A47.511,47.511,0,0,1,27.939,1.042c1.72-1.385,2.256-1.4,3.966,0a47.15,47.15,0,0,1,17.3,30.813,49.849,49.849,0,0,1,.18,11.393.818.818,0,0,0,.6.973,22.827,22.827,0,0,1,5.131,2.624A11.83,11.83,0,0,1,59.8,56.77c-.008,1.156-.74,1.686-1.75,1.957-1.52-.555-1.73-.847-1.764-2.493a8.879,8.879,0,0,0-.98-3.874c-1.275-2.523-3.6-3.644-6.046-4.635-.515-.209-.461.183-.5.432a49.039,49.039,0,0,1-5.644,16.036c-.273.477-.053.577.3.75q6.191,3,12.372,6.016c.279.136.5.274.628-.181a1.731,1.731,0,0,1,1.636-1.235M46.078,39.215a44.53,44.53,0,0,0-3.161-17.668c-.167-.419-.333-.644-.859-.642q-12.17.033-24.341.007a.7.7,0,0,0-.769.507A43.394,43.394,0,0,0,13.938,33.9,52.694,52.694,0,0,0,14.82,49.02a43.4,43.4,0,0,0,7.288,17.035,2.526,2.526,0,0,0,2.586,1.291,14.426,14.426,0,0,1,2.72-.007c.629.041.776-.162.764-.772-.04-2.05-.032-4.1-.009-6.151a1.74,1.74,0,0,1,2.2-1.9,1.768,1.768,0,0,1,1.3,1.936c.013,2.08.018,4.16-.007,6.239-.006.485.112.656.623.641q1.888-.055,3.778,0a1.145,1.145,0,0,0,1.029-.492A35.581,35.581,0,0,0,41.36,60.01a49.917,49.917,0,0,0,4.718-20.795M3.564,71.176c.324-.149.559-.252.79-.364,3.964-1.927,7.918-3.876,11.9-5.763.687-.326.623-.6.315-1.139a49.532,49.532,0,0,1-5.114-13.734c-.191-.844-.01-2.2-.631-2.4-.642-.212-1.638.546-2.445.947a7.96,7.96,0,0,0-4.789,7.3c-.107,5-.028,10.009-.028,15.161M40.821,17.385c-.01-.154,0-.219-.02-.263A44.6,44.6,0,0,0,30.461,4.386c-.432-.367-.684-.331-1.092.014a44.625,44.625,0,0,0-9.294,10.91,10.707,10.707,0,0,0-1.13,2.074Z" transform="translate(0 0)" fill="#020202"/>
        <path id="Trazado_180110" data-name="Trazado 180110" d="M210.27,238.314a1.732,1.732,0,0,0-1.636,1.235c-.126.455-.349.317-.628.181q-6.183-3.015-12.372-6.016c-.357-.173-.577-.273-.3-.75a49.044,49.044,0,0,0,5.644-16.037c.043-.248-.011-.641.5-.432,2.443.991,4.771,2.111,6.046,4.635A8.88,8.88,0,0,1,208.5,225c.035,1.646.244,1.937,1.765,2.493l0,4.005c-1.147.3-1.722.872-1.749,1.737-.027.886.577,1.516,1.749,1.823q0,1.626,0,3.251" transform="translate(-152.216 -168.771)" fill="#fcddab"/>
        <path id="Trazado_180111" data-name="Trazado 180111" d="M257.385,288.407c-1.172-.307-1.776-.937-1.749-1.823.027-.865.6-1.437,1.749-1.737,1.168.309,1.771.94,1.744,1.823-.026.862-.6,1.435-1.744,1.737" transform="translate(-199.336 -222.114)" fill="#020202"/>
        <path id="Trazado_180112" data-name="Trazado 180112" d="M101.5,368.411l-18.346-.01a9.132,9.132,0,0,0-2.97-6.519c-.382-.34-.043-.5.136-.688a5.892,5.892,0,0,1,10.091,2.858c.09.4.1.813.153,1.218a1.812,1.812,0,0,0,1.72,1.684,1.75,1.75,0,0,0,1.777-1.7,6.294,6.294,0,0,1,2.4-4.772,5.944,5.944,0,0,1,7.935.775c.178.211.364.359.057.632a9.035,9.035,0,0,0-2.955,6.519" transform="translate(-62.388 -280.161)" fill="#e9ebfc"/>
        <path id="Trazado_180113" data-name="Trazado 180113" d="M40.793,382.011H30.317a5.175,5.175,0,0,1,5.1-5.253,5.236,5.236,0,0,1,5.38,5.252" transform="translate(-23.631 -293.783)" fill="#e9ebfc"/>
        <path id="Trazado_180114" data-name="Trazado 180114" d="M204.419,382.012H193.942a5.173,5.173,0,0,1,5.186-5.255,5.225,5.225,0,0,1,5.29,5.253" transform="translate(-151.221 -293.784)" fill="#e9ebfc"/>
        <path id="Trazado_180115" data-name="Trazado 180115" d="M94.726,113.234a49.915,49.915,0,0,1-4.718,20.795,35.574,35.574,0,0,1-4.261,6.835,1.145,1.145,0,0,1-1.029.492q-1.888-.051-3.778,0c-.511.015-.629-.157-.623-.641.025-2.079.019-4.159.007-6.239a1.768,1.768,0,0,0-1.3-1.936,1.74,1.74,0,0,0-2.2,1.9c-.023,2.05-.031,4.1.009,6.151.012.611-.135.813-.764.772a14.407,14.407,0,0,0-2.72.008,2.527,2.527,0,0,1-2.586-1.291,43.4,43.4,0,0,1-7.288-17.035,52.686,52.686,0,0,1-.882-15.115A43.4,43.4,0,0,1,65.6,95.437a.7.7,0,0,1,.769-.507q12.17.017,24.341-.007c.527,0,.692.223.859.642a44.531,44.531,0,0,1,3.161,17.668m-4.556-.873a11.6,11.6,0,1,0-11.641,11.577A11.625,11.625,0,0,0,90.17,112.36m-9.852,16.21a1.747,1.747,0,0,0-3.494-.044,1.747,1.747,0,0,0,3.494.044" transform="translate(-48.648 -74.019)" fill="#aeb8fd"/>
        <path id="Trazado_180116" data-name="Trazado 180116" d="M16.082,240.191c0-5.152-.079-10.159.028-15.161a7.96,7.96,0,0,1,4.789-7.3c.807-.4,1.8-1.16,2.445-.948.621.206.439,1.56.631,2.4a49.541,49.541,0,0,0,5.114,13.734c.308.541.372.813-.315,1.139-3.983,1.888-7.936,3.837-11.9,5.764-.231.112-.466.215-.79.364" transform="translate(-12.518 -169.015)" fill="#fcddab"/>
        <path id="Trazado_180117" data-name="Trazado 180117" d="M107.9,31.995H86.019a10.707,10.707,0,0,1,1.13-2.074,44.623,44.623,0,0,1,9.294-10.91c.408-.346.66-.381,1.092-.014a44.6,44.6,0,0,1,10.339,12.736c.024.044.01.109.02.263" transform="translate(-67.075 -14.609)" fill="#fc7976"/>
        <path id="Trazado_180118" data-name="Trazado 180118" d="M106.39,132.955a11.6,11.6,0,1,1-11.6-11.62,11.613,11.613,0,0,1,11.6,11.62M90.5,139.7a3.327,3.327,0,0,0,.321.244,7.986,7.986,0,0,0,9.367-1.028,8.1,8.1,0,0,0,2.108-8.978c-.564-1.452-.564-1.451-1.641-.375L90.5,139.7m8.588-13.538a2.564,2.564,0,0,0-.31-.245,7.943,7.943,0,0,0-8.183.138,8.089,8.089,0,0,0-2.923,10.659c.148.256.21.655.647.216,3.574-3.589,7.162-7.164,10.77-10.768" transform="translate(-64.868 -94.613)" fill="#020202"/>
        <path id="Trazado_180119" data-name="Trazado 180119" d="M131.427,241.537a1.747,1.747,0,0,1-3.494-.044,1.747,1.747,0,0,1,3.494.044" transform="translate(-99.758 -186.985)" fill="#020202"/>
        <path id="Trazado_180120" data-name="Trazado 180120" d="M116.366,166.143l10.155-10.137c1.077-1.075,1.076-1.076,1.641.376a8.1,8.1,0,0,1-2.109,8.978,7.986,7.986,0,0,1-9.367,1.028,3.324,3.324,0,0,1-.321-.245" transform="translate(-90.738 -121.052)" fill="#fefefe"/>
        <path id="Trazado_180121" data-name="Trazado 180121" d="M111.579,138.629c-3.608,3.6-7.2,7.179-10.77,10.768-.436.438-.5.04-.647-.216a8.089,8.089,0,0,1,2.923-10.659,7.943,7.943,0,0,1,8.183-.138,2.561,2.561,0,0,1,.31.245" transform="translate(-77.363 -107.075)" fill="#fefefe"/>
      </g>
    </g>
  </g>
</svg>
