<svg xmlns="http://www.w3.org/2000/svg" xmlns:xlink="http://www.w3.org/1999/xlink" width="190" height="118.5" viewBox="0 0 190 118.5">
  <defs>
    <clipPath id="clip-path">
      <rect id="Rectángulo_36873" data-name="Rectángulo 36873" width="78.049" height="90" fill="none"/>
    </clipPath>
  </defs>
  <g id="Grupo_118329" data-name="Grupo 118329" transform="translate(-1020 -1139.5)">
    <g id="Grupo_118190" data-name="Grupo 118190" transform="translate(840 273)">
      <path id="Trazado_178448" data-name="Trazado 178448" d="M791.013-1163H941.987c-.282-39.809-33.964-72-75.487-72S791.295-1202.809,791.013-1163Z" transform="translate(1141.5 -278) rotate(180)" fill="#ffca00" opacity="0.15"/>
      <g id="Grupo_117240" data-name="Grupo 117240" transform="translate(370 985) rotate(180)">
        <path id="Trazado_100600" data-name="Trazado 100600" d="M713.6-210.305l2.423-2.423,8.456,8.456,2.423,2.423-2.423,2.423-8.456,8.456-2.423-2.423,8.456-8.456Z" transform="translate(-702.564 212.728)" fill="#2d54fe"/>
        <path id="Trazado_100601" data-name="Trazado 100601" d="M776.91-201.849l-8.456-8.456,2.423-2.423,8.456,8.456,2.423,2.423-2.423,2.423-8.456,8.456-2.423-2.423Z" transform="translate(-768.453 212.728)" fill="#2d54fe"/>
      </g>
      <g id="Grupo_117241" data-name="Grupo 117241" transform="translate(195.667 949.479) rotate(90)">
        <path id="Trazado_100600-2" data-name="Trazado 100600" d="M0,13.922l1.744,1.744L7.833,9.578,9.578,7.833,7.833,6.089,1.744,0,0,1.744,6.089,7.833Z" transform="translate(7.944)" fill="#fe502d"/>
        <path id="Trazado_100601-2" data-name="Trazado 100601" d="M6.089,7.833,0,13.922l1.744,1.744L7.833,9.578,9.578,7.833,7.833,6.089,1.744,0,0,1.744Z" fill="#fe502d"/>
      </g>
      <rect id="Rectángulo_36648" data-name="Rectángulo 36648" width="39" height="10" transform="translate(370 905) rotate(180)" fill="#ffca00"/>
      <rect id="Rectángulo_36650" data-name="Rectángulo 36650" width="39" height="10" transform="translate(219 925.12) rotate(180)" fill="#2d54fe"/>
    </g>
    <g id="Grupo_118218" data-name="Grupo 118218" transform="translate(1079.976 1139.5)">
      <g id="Grupo_118217" data-name="Grupo 118217" clip-path="url(#clip-path)">
        <path id="Trazado_180066" data-name="Trazado 180066" d="M37.616,0a3.929,3.929,0,0,1,2.942,4.427c-.03.434.133.547.545.534.877-.027,1.756-.009,2.635-.008a3.547,3.547,0,0,1,3.294,1.8.866.866,0,0,0,.923.448q5.928-.01,11.857,0a4.531,4.531,0,0,1,4.917,4.912c.008,3.572-.01,7.143.01,10.715.005.929-.336,1.515-1.288,1.669-1.078-.239-1.368-.6-1.37-1.778-.005-3.511,0-7.023,0-10.534,0-1.7-.639-2.335-2.329-2.338q-5.179-.01-10.358-.01c-1.869,0-1.84,0-1.852,1.882,0,.634.206.773.8.765,2.575-.033,5.153.062,7.724-.045,2.414-.1,3.466,1,3.432,3.384-.085,5.968-.029,11.938-.023,17.907a1.031,1.031,0,0,0,.146.8l3.855-6.229c1.123-1.737,2.25-3.472,3.367-5.213,1.759-2.744,4.47-3.353,7.247-1.616.545.341,1.09.683,1.626,1.039a4.784,4.784,0,0,1,1.457,6.892c-2.595,4.135-5.223,8.248-7.827,12.377q-2.968,4.707-5.91,9.43c-1.181,1.844-2.35,3.7-3.554,5.527a2.533,2.533,0,0,0-.42,1.475q.017,11.818.005,23.636c0,1.91-.928,2.891-2.737,2.892q-24.339,0-48.679-.008a2.507,2.507,0,0,1-2.771-2.777q-.006-33.346,0-66.692a2.5,2.5,0,0,1,2.758-2.785c2.46-.012,4.921,0,7.381,0,1.808,0,1.772,0,1.813-1.842.015-.682-.2-.814-.835-.809-3.778.03-7.557.013-11.335.016-1.782,0-2.419.647-2.42,2.447q0,36.334,0,72.667c0,1.729.671,2.414,2.37,2.414q27.371,0,54.742-.008c1.676,0,2.326-.655,2.328-2.351q.006-7.293,0-14.586,0-7.029,0-14.059c0-1.2.288-1.565,1.349-1.78,1.046.239,1.3.53,1.3,1.614q.006,14.585-.006,29.17a4.472,4.472,0,0,1-4.668,4.634Q32.377,90.006,4.7,90A4.525,4.525,0,0,1,0,85.283Q0,48.6,0,11.918A4.507,4.507,0,0,1,4.683,7.2q5.974-.029,11.949,0a1.161,1.161,0,0,0,1.191-.609A3.408,3.408,0,0,1,20.85,4.958c.907-.019,1.817-.028,2.723,0,.486.018.692-.112.646-.631A3.874,3.874,0,0,1,27.069,0Zm5.81,62.562c-.743-.853-.775-1.259-.145-2.255Q49.845,49.928,56.42,39.557a2.455,2.455,0,0,0,.4-1.392c-.012-7.411-.021-14.822.012-22.233,0-.736-.245-.83-.883-.829q-23.595.022-47.19-.007c-.67,0-.863.144-.863.846q.031,32.646,0,65.292c0,.782.249.872.93.869,6.063-.027,12.127-.016,18.19-.016,2.109,0,4.218-.016,6.327.012.508.007.69-.12.776-.649.165-1.007.46-1.991.688-2.988.983-4.3,1.845-8.641,4.7-12.236.569-.716,1.1-1.091,1.993-.781.821.812.869,1.218.247,2.221-.725,1.168-1.463,2.328-2.176,3.5-.107.177-.374.484-.124.611a5.741,5.741,0,0,0,1.649.552c.357.058.428-.417.59-.671Q47.36,62.736,53.016,53.8q6.177-9.751,12.348-19.506c.133-.211.461-.517.3-.658a5.078,5.078,0,0,0-1.52-1.007c-.386-.148-.477.41-.645.676q-9,14.2-17.986,28.4c-.653,1.031-.994,1.164-2.092.857m-11.1-50.115c3.954,0,7.908-.009,11.862.011.51,0,.737-.08.708-.658-.049-.993,0-1.991-.021-2.986-.017-.908-.309-1.183-1.235-1.2-.7-.012-1.408-.042-2.108,0-2.863.19-3.834-.752-3.645-3.591.072-1.072-.312-1.373-1.43-1.374-2.343,0-4.686,0-7.029,0s-2.62-.272-2.566,2.439a2.285,2.285,0,0,1-2.506,2.517c-1.025.018-2.05,0-3.075.005-1.145,0-1.409.261-1.413,1.371,0,.908.044,1.819-.016,2.723-.043.646.2.758.788.754,3.9-.027,7.79-.014,11.686-.014m8.67,69.576a2.6,2.6,0,0,0,.347.062c4.948,0,9.9-.019,14.845.019.734.006.627-.373.627-.81q0-9.443-.006-18.886c0-.182.088-.4-.141-.594-1.9,3-3.784,5.988-5.681,8.962-4.871,7.638-3,5.534-9.776,11.047-.045.037-.086.08-.215.2m4-6.877a6.537,6.537,0,0,0,.449-.579q2.384-3.733,4.756-7.475,9.548-15.083,19.089-30.171c.154-.244.509-.6.367-.744a4.814,4.814,0,0,0-1.425-.987c-.465-.206-.529.363-.689.615Q60.785,46.428,54.062,57.07q-5.115,8.078-10.226,16.159c-.138.219-.493.46-.191.759.411.407.877.759,1.346,1.158M70.952,23.151a1.9,1.9,0,0,0-1.565.88c-.356.5-.649,1.041-1.009,1.536-.288.4-.158.589.214.816,1.171.715,2.323,1.461,3.481,2.2C74,29.8,74,29.8,75.081,27.746a2.132,2.132,0,0,0-.734-2.981c-.65-.445-1.331-.844-1.995-1.269a2.337,2.337,0,0,0-1.4-.346M36.67,82.067c2.087-1.677,3.991-3.209,5.9-4.737.251-.2.178-.375.01-.586a6.707,6.707,0,0,0-3.626-2.31c-.368-.1-.466.063-.536.354-.562,2.348-1.126,4.695-1.746,7.279M72.4,31.99c-.156-.123-.3-.253-.456-.355-1.282-.818-2.568-1.628-3.85-2.444-1.464-.931-1.45-.924-2.35.559-.228.376-.249.564.169.818,1.622.989,3.217,2.023,4.826,3.034.154.1.338.364.514.126.4-.538.742-1.116,1.148-1.739" transform="translate(0)" fill="#020202"/>
        <path id="Trazado_180067" data-name="Trazado 180067" d="M72.024,86.544c-1.062.215-1.348.581-1.35,1.78q-.006,7.029,0,14.059,0,7.293,0,14.586c0,1.7-.652,2.351-2.328,2.351q-27.371.006-54.742.008c-1.7,0-2.37-.685-2.37-2.414q0-36.334,0-72.667c0-1.8.637-2.446,2.419-2.447,3.778,0,7.557.014,11.335-.016.638-.005.85.127.835.809-.04,1.841,0,1.841-1.813,1.841-2.46,0-4.921-.009-7.381,0a2.5,2.5,0,0,0-2.758,2.785q-.005,33.346,0,66.692a2.507,2.507,0,0,0,2.771,2.777q24.34.011,48.679.008c1.809,0,2.736-.982,2.737-2.891q.009-11.818-.005-23.637a2.533,2.533,0,0,1,.42-1.475c1.2-1.83,2.372-3.683,3.554-5.528q0,1.689,0,3.376" transform="translate(-8.593 -31.968)" fill="#2d54fe"/>
        <path id="Trazado_180068" data-name="Trazado 180068" d="M218.3,60.309l-3.855,6.229a1.031,1.031,0,0,1-.145-.795c-.006-5.969-.062-11.939.023-17.907.034-2.384-1.018-3.485-3.432-3.384-2.571.108-5.149.013-7.724.045-.593.008-.8-.131-.8-.765.012-1.882-.017-1.884,1.852-1.882q5.179,0,10.358.01c1.689,0,2.326.64,2.329,2.338,0,3.511,0,7.023,0,10.534,0,1.176.292,1.538,1.37,1.778q.01,1.9.021,3.8" transform="translate(-154.83 -32.018)" fill="#2d54fe"/>
        <path id="Trazado_180069" data-name="Trazado 180069" d="M67.207,114.612c-.89-.311-1.424.065-1.993.781-2.859,3.594-3.72,7.933-4.7,12.236-.228,1-.524,1.982-.688,2.988-.086.529-.269.656-.777.649-2.109-.029-4.218-.012-6.327-.012-6.064,0-12.127-.011-18.19.016-.681,0-.931-.088-.93-.869q.038-32.646,0-65.292c0-.7.193-.847.863-.846q23.595.031,47.19.007c.638,0,.886.093.883.829-.032,7.411-.024,14.822-.012,22.232a2.456,2.456,0,0,1-.4,1.392q-6.582,10.367-13.139,20.751c-.63,1-.6,1.4.145,2.255a34.126,34.126,0,0,1-1.925,2.885M54.553,97.766c0-1.639.01-3.278,0-4.917a3.283,3.283,0,0,0-3.343-3.514q-5.092-.077-10.186,0a3.3,3.3,0,0,0-3.336,3.45q-.035,4.961,0,9.923A3.284,3.284,0,0,0,41,106.168q5.091.089,10.185,0a3.263,3.263,0,0,0,3.36-3.488c.013-1.639,0-3.278,0-4.917M46.094,110.5c-1.639,0-3.278-.009-4.918,0a3.333,3.333,0,0,0-3.491,3.472q-.032,4.962,0,9.924a3.348,3.348,0,0,0,3.425,3.467q5.005.048,10.011,0a3.316,3.316,0,0,0,3.426-3.446q.026-5.005,0-10.011A3.29,3.29,0,0,0,51.1,110.5c-1.669-.013-3.337,0-5.006,0m8.459-33.892c0-1.639.01-3.278,0-4.918a3.33,3.33,0,0,0-3.515-3.53q-4.918-.016-9.836,0a3.35,3.35,0,0,0-3.514,3.459q-.037,4.961,0,9.924a3.347,3.347,0,0,0,3.488,3.48q4.962.016,9.924,0a3.307,3.307,0,0,0,3.451-3.41c.02-1.668,0-3.337.005-5.006m13.428-4.08v0c-2.636,0-5.271,0-7.907,0-.989,0-1.542.464-1.563,1.268-.022.831.567,1.362,1.572,1.364q7.862.012,15.725.005c1.022,0,1.6-.5,1.6-1.335s-.563-1.305-1.612-1.308c-2.606-.006-5.212,0-7.818,0m-2.755,23.78c1.756,0,3.512.006,5.268,0,.964,0,1.552-.492,1.574-1.271a1.369,1.369,0,0,0-1.512-1.357q-5.268-.023-10.535,0a1.332,1.332,0,0,0-1.51,1.341c.008.81.555,1.282,1.536,1.288,1.727.01,3.453,0,5.18,0m-1.289,2.9c-1.315,0-2.629-.014-3.943,0-.937.014-1.456.474-1.483,1.254a1.308,1.308,0,0,0,1.469,1.371q3.9.031,7.8,0a1.357,1.357,0,0,0,1.5-1.357,1.339,1.339,0,0,0-1.487-1.267c-1.285-.019-2.57,0-3.855-.006m-.1-18.552c1.315,0,2.63.009,3.944,0a1.324,1.324,0,1,0,.018-2.626q-3.9-.028-7.8,0a1.326,1.326,0,0,0-1.483,1.36c.019.782.55,1.257,1.466,1.267,1.285.014,2.571,0,3.857,0" transform="translate(-25.705 -49.165)" fill="#f3f3f3"/>
        <path id="Trazado_180070" data-name="Trazado 180070" d="M96.966,21.062c-3.9,0-7.79-.013-11.686.014-.592,0-.83-.107-.788-.754.06-.9.012-1.815.016-2.723,0-1.11.269-1.367,1.413-1.371,1.025,0,2.05.013,3.075,0A2.285,2.285,0,0,0,91.5,13.706c-.055-2.711.212-2.441,2.565-2.439s4.686,0,7.029,0c1.118,0,1.5.3,1.43,1.374-.19,2.839.782,3.78,3.644,3.591.7-.047,1.406-.016,2.108,0,.925.016,1.217.292,1.234,1.2.019,1-.028,1.993.021,2.986.029.578-.2.66-.709.658-3.954-.02-7.907-.011-11.861-.011" transform="translate(-64.64 -8.614)" fill="#f3f3f3"/>
        <path id="Trazado_180071" data-name="Trazado 180071" d="M174.51,283.343c.129-.12.169-.163.214-.2,6.776-5.513,4.906-3.409,9.776-11.047,1.9-2.974,3.777-5.958,5.681-8.962.229.2.14.412.141.594q.008,9.443.006,18.886c0,.437.108.816-.627.81-4.948-.038-9.9-.018-14.845-.019a2.594,2.594,0,0,1-.347-.062" transform="translate(-133.515 -201.32)" fill="#f3f3f3"/>
        <path id="Trazado_180072" data-name="Trazado 180072" d="M169.644,171.625a34.161,34.161,0,0,0,1.925-2.884c1.1.307,1.44.173,2.092-.857q8.991-14.2,17.986-28.4c.168-.265.26-.823.646-.676a5.08,5.08,0,0,1,1.519,1.007c.157.142-.171.448-.3.658q-6.168,9.757-12.348,19.506-5.66,8.935-11.329,17.865c-.161.254-.232.728-.59.671a5.734,5.734,0,0,1-1.649-.552c-.25-.126.017-.434.124-.611.713-1.176,1.451-2.336,2.176-3.5.622-1,.574-1.408-.247-2.221" transform="translate(-128.142 -106.179)" fill="#ffca00"/>
        <path id="Trazado_180073" data-name="Trazado 180073" d="M186.753,189.613c-.469-.4-.935-.751-1.346-1.158-.3-.3.053-.54.191-.759q5.1-8.086,10.226-16.159,6.734-10.635,13.477-21.265c.16-.252.224-.82.689-.615a4.814,4.814,0,0,1,1.425.987c.142.141-.213.5-.367.744q-9.542,15.087-19.089,30.17-2.369,3.743-4.756,7.475a6.56,6.56,0,0,1-.449.579" transform="translate(-141.761 -114.467)" fill="#ffca00"/>
        <path id="Trazado_180074" data-name="Trazado 180074" d="M293.139,98.549a2.336,2.336,0,0,1,1.4.346c.664.425,1.345.823,1.995,1.269a2.132,2.132,0,0,1,.734,2.981c-1.081,2.054-1.081,2.054-3.008.833-1.159-.735-2.31-1.481-3.481-2.2-.372-.227-.5-.421-.214-.816.36-.494.653-1.038,1.009-1.536a1.9,1.9,0,0,1,1.565-.88" transform="translate(-222.186 -75.398)" fill="#fe502d"/>
        <path id="Trazado_180075" data-name="Trazado 180075" d="M156.1,324.394c.62-2.584,1.185-4.931,1.747-7.279.07-.291.167-.453.536-.354a6.707,6.707,0,0,1,3.626,2.31c.168.21.241.385-.01.586-1.907,1.528-3.811,3.06-5.9,4.737" transform="translate(-119.43 -242.327)" fill="#ffca00"/>
        <path id="Trazado_180076" data-name="Trazado 180076" d="M286,124.985c-.406.623-.75,1.2-1.148,1.739-.176.238-.36-.03-.514-.126-1.609-1.011-3.2-2.044-4.826-3.034-.417-.255-.4-.442-.169-.818.9-1.484.886-1.49,2.35-.559,1.283.816,2.569,1.626,3.85,2.444.159.1.3.232.456.355" transform="translate(-213.597 -92.995)" fill="#f3f3f3"/>
        <path id="Trazado_180077" data-name="Trazado 180077" d="M67.812,179.3c0,1.639.01,3.278,0,4.917a3.263,3.263,0,0,1-3.36,3.489q-5.092.079-10.185,0a3.284,3.284,0,0,1-3.319-3.459q-.031-4.961,0-9.923a3.3,3.3,0,0,1,3.336-3.45q5.092-.081,10.185,0a3.283,3.283,0,0,1,3.343,3.514c.012,1.639,0,3.278,0,4.917m-2.639.025c0-1.609-.018-3.219.008-4.827.012-.723-.305-1-1-.993q-4.783.016-9.567,0c-.746,0-1.049.32-1.046,1.061q.023,4.739,0,9.479c0,.685.259,1.04.976,1.038q4.827-.011,9.655,0c.709,0,.991-.315.98-1.018-.025-1.58-.008-3.16-.008-4.739" transform="translate(-38.965 -130.699)" fill="#020202"/>
        <path id="Trazado_180078" data-name="Trazado 180078" d="M59.351,261.07c1.669,0,3.337-.01,5.006,0a3.29,3.29,0,0,1,3.447,3.405q.029,5.005,0,10.011a3.316,3.316,0,0,1-3.426,3.447q-5.005.044-10.011,0a3.348,3.348,0,0,1-3.425-3.467q-.037-4.961,0-9.923a3.333,3.333,0,0,1,3.491-3.472c1.639-.012,3.278,0,4.918,0m5.82,8.45c0-1.581-.017-3.163.008-4.743.012-.723-.23-1.082-1.009-1.077q-4.787.03-9.575,0c-.706,0-1.025.288-1.024.988q.008,4.787,0,9.575c0,.744.338,1.054,1.071,1.051q4.743-.017,9.487,0c.735,0,1.065-.293,1.052-1.05-.027-1.581-.008-3.162-.008-4.743" transform="translate(-38.963 -199.738)" fill="#020202"/>
        <path id="Trazado_180079" data-name="Trazado 180079" d="M67.809,89.27c0,1.668.015,3.337,0,5.006a3.307,3.307,0,0,1-3.451,3.41q-4.962.018-9.924,0A3.347,3.347,0,0,1,50.942,94.2q-.032-4.962,0-9.924a3.35,3.35,0,0,1,3.514-3.459q4.918-.017,9.836,0a3.33,3.33,0,0,1,3.515,3.53c.012,1.639,0,3.278,0,4.918m-2.638,0c0-1.581-.023-3.163.009-4.743.016-.8-.324-1.086-1.1-1.081q-4.7.033-9.4,0c-.786-.005-1.114.312-1.11,1.1q.024,4.7,0,9.4c0,.761.266,1.125,1.08,1.118q4.743-.036,9.487,0c.753,0,1.057-.3,1.045-1.045-.025-1.581-.008-3.162-.008-4.743" transform="translate(-38.962 -61.83)" fill="#020202"/>
        <path id="Trazado_180080" data-name="Trazado 180080" d="M149.121,99.435c2.606,0,5.213,0,7.819,0,1.048,0,1.609.467,1.611,1.308s-.58,1.334-1.6,1.335q-7.863.006-15.725-.005c-1,0-1.594-.533-1.572-1.364.021-.8.574-1.265,1.562-1.268,2.636-.007,5.271,0,7.907,0Z" transform="translate(-106.845 -76.075)" fill="#020202"/>
        <path id="Trazado_180081" data-name="Trazado 180081" d="M146.365,192.065c-1.727,0-3.453.007-5.18,0-.981-.006-1.528-.478-1.536-1.288a1.332,1.332,0,0,1,1.51-1.341q5.268-.021,10.535,0a1.369,1.369,0,0,1,1.512,1.357c-.022.778-.61,1.266-1.574,1.271-1.756.009-3.512,0-5.268,0" transform="translate(-106.843 -144.924)" fill="#020202"/>
        <path id="Trazado_180082" data-name="Trazado 180082" d="M145.073,212.988c1.285,0,2.571-.014,3.855.005a1.339,1.339,0,0,1,1.487,1.267,1.357,1.357,0,0,1-1.5,1.357q-3.9.029-7.8,0a1.308,1.308,0,0,1-1.469-1.371c.027-.78.545-1.24,1.483-1.254,1.314-.019,2.629,0,3.943,0" transform="translate(-106.842 -162.95)" fill="#020202"/>
        <path id="Trazado_180083" data-name="Trazado 180083" d="M144.976,125.423c-1.285,0-2.571.01-3.857,0-.915-.01-1.447-.485-1.466-1.267a1.326,1.326,0,0,1,1.483-1.36q3.9-.024,7.8,0a1.324,1.324,0,1,1-.018,2.626c-1.315.012-2.629,0-3.944,0" transform="translate(-106.846 -93.937)" fill="#020202"/>
        <path id="Trazado_180084" data-name="Trazado 180084" d="M73.774,188.032c0,1.58-.017,3.16.008,4.739.011.7-.271,1.02-.98,1.018q-4.828-.015-9.655,0c-.716,0-.978-.353-.976-1.038q.018-4.739,0-9.479c0-.741.3-1.064,1.046-1.061q4.783.02,9.567,0c.695,0,1.012.27,1,.993-.027,1.608-.008,3.218-.008,4.827m-1.642-1.939a1.35,1.35,0,0,0-.875-1.17,1.227,1.227,0,0,0-1.488.42c-.594.759-1.15,1.546-1.721,2.322-.852,1.158-.851,1.159-1.76.082a1.357,1.357,0,0,0-1.929-.311,1.328,1.328,0,0,0-.177,1.883c.462.674.934,1.344,1.448,1.979a1.8,1.8,0,0,0,3.041-.052c1.046-1.369,2.047-2.772,3.073-4.156a1.938,1.938,0,0,0,.389-1" transform="translate(-47.565 -139.406)" fill="#ffca00"/>
        <path id="Trazado_180085" data-name="Trazado 180085" d="M73.781,278.1c0,1.581-.019,3.162.008,4.743.013.757-.317,1.053-1.052,1.051q-4.743-.019-9.487,0c-.733,0-1.073-.307-1.071-1.051q.016-4.787,0-9.575c0-.7.317-.991,1.024-.987q4.787.025,9.574,0c.78,0,1.021.354,1.009,1.077-.025,1.581-.008,3.162-.008,4.743m-6.627.39c-.325-.424-.593-.8-.892-1.158a1.277,1.277,0,0,0-1.853-.317,1.311,1.311,0,0,0-.252,1.873c.473.7.969,1.393,1.5,2.053a1.8,1.8,0,0,0,2.943.018c1.113-1.43,2.164-2.908,3.23-4.374a1.265,1.265,0,0,0,.247-1.154,1.313,1.313,0,0,0-2.39-.364c-.834,1.12-1.661,2.245-2.531,3.424" transform="translate(-47.572 -208.315)" fill="#ffca00"/>
        <path id="Trazado_180086" data-name="Trazado 180086" d="M73.773,97.846c0,1.581-.017,3.162.008,4.743.012.748-.292,1.05-1.045,1.045q-4.743-.03-9.487,0c-.814.006-1.083-.358-1.08-1.118q.023-4.7,0-9.4c0-.783.324-1.1,1.11-1.1q4.7.031,9.4,0c.78-.005,1.121.277,1.1,1.081-.032,1.581-.009,3.162-.009,4.743M72.13,95.507a1.357,1.357,0,0,0-.862-1.21,1.209,1.209,0,0,0-1.489.408c-.617.778-1.193,1.588-1.781,2.388-.81,1.1-.808,1.1-1.7.038a1.362,1.362,0,0,0-1.928-.333,1.331,1.331,0,0,0-.2,1.882c.443.652.906,1.293,1.393,1.913a1.823,1.823,0,0,0,3.15-.034c1.024-1.35,2.012-2.726,3.021-4.088a1.837,1.837,0,0,0,.4-.964" transform="translate(-47.564 -70.404)" fill="#ffca00"/>
        <path id="Trazado_180087" data-name="Trazado 180087" d="M77.686,194.616a1.938,1.938,0,0,1-.389,1c-1.026,1.384-2.027,2.788-3.073,4.156a1.8,1.8,0,0,1-3.041.052c-.514-.635-.987-1.3-1.448-1.979a1.328,1.328,0,0,1,.177-1.883,1.357,1.357,0,0,1,1.929.312c.909,1.076.908,1.076,1.76-.082.571-.776,1.128-1.564,1.721-2.322a1.227,1.227,0,0,1,1.488-.42,1.35,1.35,0,0,1,.875,1.17" transform="translate(-53.119 -147.929)" fill="#020202"/>
        <path id="Trazado_180088" data-name="Trazado 180088" d="M72.687,285.508c.871-1.179,1.7-2.3,2.531-3.424a1.313,1.313,0,0,1,2.39.364,1.265,1.265,0,0,1-.247,1.154c-1.066,1.466-2.117,2.945-3.23,4.374a1.8,1.8,0,0,1-2.943-.018c-.531-.66-1.026-1.351-1.5-2.053a1.311,1.311,0,0,1,.252-1.872,1.277,1.277,0,0,1,1.853.317c.3.353.567.734.892,1.158" transform="translate(-53.105 -215.335)" fill="#020202"/>
        <path id="Trazado_180089" data-name="Trazado 180089" d="M77.688,102.577a1.836,1.836,0,0,1-.4.964c-1.008,1.362-2,2.739-3.021,4.088a1.823,1.823,0,0,1-3.15.034c-.487-.62-.95-1.261-1.393-1.913a1.331,1.331,0,0,1,.2-1.882,1.362,1.362,0,0,1,1.928.333c.894,1.064.892,1.063,1.7-.038.588-.8,1.164-1.611,1.781-2.388a1.209,1.209,0,0,1,1.489-.408,1.357,1.357,0,0,1,.862,1.21" transform="translate(-53.122 -77.474)" fill="#020202"/>
      </g>
    </g>
  </g>
</svg>
