<svg xmlns="http://www.w3.org/2000/svg" xmlns:xlink="http://www.w3.org/1999/xlink" width="190" height="110.689" viewBox="0 0 190 110.689">
  <defs>
    <clipPath id="clip-path">
      <path id="Trazado_180104" data-name="Trazado 180104" d="M0,0H90.06V90H0Z" fill="none"/>
    </clipPath>
  </defs>
  <g id="Grupo_118330" data-name="Grupo 118330" transform="translate(-390 -1327.311)">
    <g id="Grupo_118191" data-name="Grupo 118191" transform="translate(210 453)">
      <path id="Trazado_178448" data-name="Trazado 178448" d="M791.013-1163H941.987c-.282-39.809-33.964-72-75.487-72S791.295-1202.809,791.013-1163Z" transform="translate(1141.5 -278) rotate(180)" fill="#ffca00" opacity="0.15"/>
      <g id="Grupo_117240" data-name="Grupo 117240" transform="translate(370 985) rotate(180)">
        <path id="Trazado_100600" data-name="Trazado 100600" d="M713.6-210.305l2.423-2.423,8.456,8.456,2.423,2.423-2.423,2.423-8.456,8.456-2.423-2.423,8.456-8.456Z" transform="translate(-702.564 212.728)" fill="#2d54fe"/>
        <path id="Trazado_100601" data-name="Trazado 100601" d="M776.91-201.849l-8.456-8.456,2.423-2.423,8.456,8.456,2.423,2.423-2.423,2.423-8.456,8.456-2.423-2.423Z" transform="translate(-768.453 212.728)" fill="#2d54fe"/>
      </g>
      <g id="Grupo_117241" data-name="Grupo 117241" transform="translate(195.667 949.479) rotate(90)">
        <path id="Trazado_100600-2" data-name="Trazado 100600" d="M0,13.922l1.744,1.744L7.833,9.578,9.578,7.833,7.833,6.089,1.744,0,0,1.744,6.089,7.833Z" transform="translate(7.944)" fill="#fe502d"/>
        <path id="Trazado_100601-2" data-name="Trazado 100601" d="M6.089,7.833,0,13.922l1.744,1.744L7.833,9.578,9.578,7.833,7.833,6.089,1.744,0,0,1.744Z" fill="#fe502d"/>
      </g>
      <rect id="Rect치ngulo_36648" data-name="Rect치ngulo 36648" width="39" height="10" transform="translate(370 905) rotate(180)" fill="#ffca00"/>
      <rect id="Rect치ngulo_36650" data-name="Rect치ngulo 36650" width="39" height="10" transform="translate(219 925.12) rotate(180)" fill="#2d54fe"/>
    </g>
    <g id="Grupo_118220" data-name="Grupo 118220" transform="translate(440.078 1327.311)">
      <g id="Enmascarar_grupo_46" data-name="Enmascarar grupo 46" clip-path="url(#clip-path)">
        <path id="Trazado_180090" data-name="Trazado 180090" d="M3.166,90H2.99A5.08,5.08,0,0,1,0,87.186V2.755C.767,1.12,1.9,0,3.843,0q3.46.007,6.92,0A1.444,1.444,0,0,1,12.4,1.333,1.434,1.434,0,0,1,10.75,2.647c-2.2-.02-4.394-.01-6.591,0-1.213,0-1.52.307-1.522,1.491,0,1.992.051,3.986-.024,5.975C2.579,11,2.819,11.2,3.7,11.2q40.293-.04,80.586-.024c.351,0,.7-.022,1.052-.034.524.013,1.049,0,1.57.046.453.036.525-.181.523-.569-.013-2.275,0-4.549-.009-6.824a1.056,1.056,0,0,0-1.146-1.15c-.374-.016-.751.035-1.127.057-.379-.02-.757-.057-1.136-.058q-33.056,0-66.113,0c-1.436,0-1.658-.145-2.026-1.3C16.234.175,16.5,0,17.972,0H85.666c.176,0,.352,0,.527,0a3.7,3.7,0,0,1,3.865,3.963q0,41.011,0,82.021a3.668,3.668,0,0,1-3.175,3.9c-.322,0-.644.01-.966.01q-40.872,0-81.745.009c-.332,0-.7-.176-1.006.094m81.956-2.762c1.8.227,2.329.012,2.326-1.954q-.047-34.773-.02-69.547c0-2.057,0-2.057-2.117-1.891-.292-.013-.584-.038-.876-.039q-40.447,0-80.893-.024c-.821,0-.922.25-.921.971q.028,35.39.016,70.779c0,1.547.221,1.767,1.777,1.767q39.875,0,79.75,0c.319,0,.639-.04.959-.061" transform="translate(0 0)" fill="#030303"/>
        <path id="Trazado_180091" data-name="Trazado 180091" d="M93.65,132.091c-.319.021-.639.061-.959.061q-39.875,0-79.75,0c-1.556,0-1.777-.22-1.777-1.767q0-35.39-.016-70.78c0-.721.1-.972.921-.971q40.447.041,80.893.024c.292,0,.584.025.876.038q0,31.607-.009,63.215a93.168,93.168,0,0,1-.179,10.177m-6.058-30.2c1.1.106,1.512-.137,1.844-1.154a17.69,17.69,0,0,0,.739-7.535A17.029,17.029,0,0,0,70.709,78.62,16.808,16.808,0,0,0,56.751,98.345a16,16,0,0,0,11.8,13.2c6.525,1.957,12.3.243,17.133-4.568.745-.742.745-1.174.157-2.088a17.914,17.914,0,0,0,1.749-3M50.675,95.905c.456-9.039-6.858-16.971-16.119-17.48a16.951,16.951,0,1,0,16.119,17.48" transform="translate(-8.528 -44.853)" fill="#f3f9ff"/>
        <path id="Trazado_180092" data-name="Trazado 180092" d="M20.9,5.67l3.472.007c.368,1.153.59,1.3,2.026,1.3q33.056,0,66.113,0c.379,0,.757.037,1.136.057a9.8,9.8,0,0,1,.184,2.507q0,2.967.006,5.934c-.351.012-.7.035-1.052.035q-40.293,0-80.586.023c-.885,0-1.124-.2-1.09-1.089.075-1.989.021-3.983.025-5.975,0-1.184.309-1.488,1.522-1.491,2.2-.006,4.394-.016,6.591,0A1.434,1.434,0,0,0,20.9,5.67M76.228,9.521a1.724,1.724,0,0,0-1.771,1.688,1.753,1.753,0,1,0,3.5.042,1.733,1.733,0,0,0-1.734-1.73m4.86,1.72a1.742,1.742,0,0,0,1.7,1.76,1.767,1.767,0,0,0,1.776-1.789,1.731,1.731,0,0,0-1.761-1.7,1.7,1.7,0,0,0-1.72,1.727m8.386-1.717a1.745,1.745,0,0,0-1.8,1.673,1.8,1.8,0,0,0,1.766,1.813,1.757,1.757,0,0,0,1.732-1.74,1.7,1.7,0,0,0-1.7-1.746" transform="translate(-8.493 -4.337)" fill="#d3d3d3"/>
        <path id="Trazado_180093" data-name="Trazado 180093" d="M362.121,132.083a93.17,93.17,0,0,0,.179-10.178q.03-31.607.009-63.215c2.117-.166,2.117-.166,2.117,1.891q0,34.774.02,69.547c0,1.966-.527,2.182-2.326,1.954" transform="translate(-276.999 -44.844)" fill="#f3f9ff"/>
        <path id="Trazado_180094" data-name="Trazado 180094" d="M362.435,19.728q0-2.967-.006-5.934a9.807,9.807,0,0,0-.184-2.507c.376-.021.753-.072,1.127-.056a1.056,1.056,0,0,1,1.146,1.15c.006,2.275,0,4.55.009,6.824,0,.388-.07.605-.523.569-.521-.042-1.047-.033-1.57-.047" transform="translate(-277.094 -8.588)" fill="#d3d3d3"/>
        <path id="Trazado_180095" data-name="Trazado 180095" d="M243.644,174.749a18.025,18.025,0,0,1-1.748,3c-.926-.539-1.318-.467-2.143.352a13.889,13.889,0,0,1-12.736,4.185,14.165,14.165,0,0,1-11.8-15.543,14.292,14.292,0,1,1,27.775,5.979,1.523,1.523,0,0,0,.655,2.027m-8.7-10.865a1.218,1.218,0,0,0-.8-1.159,1.275,1.275,0,0,0-1.458.3c-.884.9-1.793,1.774-2.642,2.7-.443.485-.728.586-1.214.027-.768-.883-1.624-1.69-2.453-2.519-.723-.722-1.507-.809-2.08-.249-.608.593-.552,1.307.186,2.074.854.887,1.692,1.792,2.595,2.626.476.44.4.681-.027,1.083-.894.845-1.741,1.74-2.594,2.628-.721.75-.76,1.494-.133,2.074a1.37,1.37,0,0,0,2.018-.237c.872-.869,1.75-1.734,2.577-2.645.4-.443.637-.4,1.021.015.832.906,1.71,1.771,2.583,2.639a1.369,1.369,0,0,0,2.014.216c.592-.562.54-1.353-.164-2.082-.854-.886-1.7-1.786-2.6-2.622-.471-.436-.406-.688.023-1.094.894-.845,1.734-1.748,2.6-2.624a1.5,1.5,0,0,0,.548-1.153" transform="translate(-164.58 -117.712)" fill="#fe502d"/>
        <path id="Trazado_180096" data-name="Trazado 180096" d="M69.051,160.223a16.945,16.945,0,1,1-16.119-17.48c9.261.508,16.576,8.441,16.119,17.48m-31.237-.549a14.3,14.3,0,1,0,14.319-14.312,14.341,14.341,0,0,0-14.319,14.312" transform="translate(-26.905 -109.17)" fill="#030303"/>
        <path id="Trazado_180097" data-name="Trazado 180097" d="M235.06,166.144a1.523,1.523,0,0,1-.655-2.027,14.292,14.292,0,1,0-15.972,9.564,13.889,13.889,0,0,0,12.736-4.185c.825-.819,1.218-.891,2.143-.352.588.914.587,1.346-.158,2.088-4.83,4.811-10.608,6.526-17.133,4.568a16,16,0,0,1-11.8-13.2,16.808,16.808,0,0,1,13.959-19.725,17.029,17.029,0,0,1,19.466,14.579,17.691,17.691,0,0,1-.739,7.536c-.332,1.017-.742,1.261-1.844,1.154" transform="translate(-155.995 -109.107)" fill="#030303"/>
        <path id="Trazado_180098" data-name="Trazado 180098" d="M282.391,22.053a1.732,1.732,0,0,1,1.734,1.73,1.753,1.753,0,1,1-3.5-.042,1.724,1.724,0,0,1,1.771-1.688" transform="translate(-214.655 -16.869)" fill="#030303"/>
        <path id="Trazado_180099" data-name="Trazado 180099" d="M308.832,23.749a1.7,1.7,0,0,1,1.72-1.727,1.731,1.731,0,0,1,1.761,1.7,1.767,1.767,0,0,1-1.776,1.789,1.741,1.741,0,0,1-1.7-1.76" transform="translate(-236.236 -16.845)" fill="#030303"/>
        <path id="Trazado_180100" data-name="Trazado 180100" d="M338.66,22.063a1.7,1.7,0,0,1,1.7,1.746,1.757,1.757,0,0,1-1.732,1.74,1.8,1.8,0,0,1-1.766-1.813,1.745,1.745,0,0,1,1.8-1.673" transform="translate(-257.678 -16.877)" fill="#030303"/>
        <path id="Trazado_180101" data-name="Trazado 180101" d="M263.361,192.3a1.5,1.5,0,0,1-.548,1.153c-.864.877-1.7,1.779-2.6,2.624-.429.406-.494.657-.023,1.094.9.836,1.745,1.736,2.6,2.622.7.729.756,1.521.164,2.082a1.369,1.369,0,0,1-2.014-.216c-.872-.869-1.75-1.733-2.583-2.639-.384-.417-.619-.457-1.021-.015-.827.911-1.7,1.776-2.577,2.645a1.37,1.37,0,0,1-2.018.237c-.626-.58-.588-1.324.133-2.074.853-.887,1.7-1.783,2.594-2.628.426-.4.5-.644.027-1.083-.9-.834-1.741-1.74-2.595-2.626-.738-.767-.794-1.481-.186-2.074.573-.559,1.358-.473,2.08.249.829.829,1.685,1.636,2.453,2.519.486.558.771.457,1.214-.027.85-.93,1.758-1.806,2.642-2.7a1.275,1.275,0,0,1,1.458-.3,1.218,1.218,0,0,1,.8,1.159" transform="translate(-192.995 -146.125)" fill="#030303"/>
        <path id="Trazado_180102" data-name="Trazado 180102" d="M46.408,168.275A14.3,14.3,0,1,1,60.73,182.582a14.348,14.348,0,0,1-14.322-14.307m12.815,5.714a1.7,1.7,0,0,0,1.163-.775q2.826-3.644,5.669-7.276c.36-.462.735-.915,1.056-1.4a1.178,1.178,0,0,0-.056-1.4,1.255,1.255,0,0,0-1.3-.545,1.8,1.8,0,0,0-1.082.837c-1.708,2.2-3.436,4.376-5.117,6.593-.4.528-.624.512-1.022.027-.631-.769-1.31-1.5-1.989-2.229a1.324,1.324,0,1,0-1.966,1.739c1.141,1.3,2.3,2.576,3.457,3.864a1.5,1.5,0,0,0,1.188.571" transform="translate(-35.499 -117.772)" fill="#2d54fe"/>
        <path id="Trazado_180103" data-name="Trazado 180103" d="M84.349,201.986a1.5,1.5,0,0,1-1.188-.571c-1.153-1.288-2.316-2.566-3.457-3.864a1.324,1.324,0,1,1,1.966-1.739c.679.728,1.358,1.46,1.989,2.229.4.485.621.5,1.022-.027,1.681-2.216,3.409-4.4,5.117-6.593a1.8,1.8,0,0,1,1.082-.837,1.255,1.255,0,0,1,1.3.545,1.178,1.178,0,0,1,.056,1.4c-.321.488-.7.941-1.056,1.4q-2.834,3.638-5.669,7.276a1.7,1.7,0,0,1-1.163.775" transform="translate(-60.625 -145.769)" fill="#030303"/>
      </g>
    </g>
  </g>
</svg>
