<svg xmlns="http://www.w3.org/2000/svg" xmlns:xlink="http://www.w3.org/1999/xlink" width="190" height="109" viewBox="0 0 190 109">
  <defs>
    <clipPath id="clip-path">
      <rect id="Rectángulo_36875" data-name="Rectángulo 36875" width="89.992" height="90" fill="none"/>
    </clipPath>
  </defs>
  <g id="Grupo_118332" data-name="Grupo 118332" transform="translate(-1020 -1800)">
    <g id="Grupo_118194" data-name="Grupo 118194" transform="translate(840 924)">
      <path id="Trazado_178448" data-name="Trazado 178448" d="M791.013-1163H941.987c-.282-39.809-33.964-72-75.487-72S791.295-1202.809,791.013-1163Z" transform="translate(1141.5 -278) rotate(180)" fill="#ffca00" opacity="0.15"/>
      <g id="Grupo_117240" data-name="Grupo 117240" transform="translate(370 985) rotate(180)">
        <path id="Trazado_100600" data-name="Trazado 100600" d="M713.6-210.305l2.423-2.423,8.456,8.456,2.423,2.423-2.423,2.423-8.456,8.456-2.423-2.423,8.456-8.456Z" transform="translate(-702.564 212.728)" fill="#2d54fe"/>
        <path id="Trazado_100601" data-name="Trazado 100601" d="M776.91-201.849l-8.456-8.456,2.423-2.423,8.456,8.456,2.423,2.423-2.423,2.423-8.456,8.456-2.423-2.423Z" transform="translate(-768.453 212.728)" fill="#2d54fe"/>
      </g>
      <g id="Grupo_117241" data-name="Grupo 117241" transform="translate(195.667 949.479) rotate(90)">
        <path id="Trazado_100600-2" data-name="Trazado 100600" d="M0,13.922l1.744,1.744L7.833,9.578,9.578,7.833,7.833,6.089,1.744,0,0,1.744,6.089,7.833Z" transform="translate(7.944)" fill="#fe502d"/>
        <path id="Trazado_100601-2" data-name="Trazado 100601" d="M6.089,7.833,0,13.922l1.744,1.744L7.833,9.578,9.578,7.833,7.833,6.089,1.744,0,0,1.744Z" fill="#fe502d"/>
      </g>
      <rect id="Rectángulo_36648" data-name="Rectángulo 36648" width="39" height="10" transform="translate(370 905) rotate(180)" fill="#ffca00"/>
      <rect id="Rectángulo_36650" data-name="Rectángulo 36650" width="39" height="10" transform="translate(219 925.12) rotate(180)" fill="#2d54fe"/>
    </g>
    <g id="Grupo_118224" data-name="Grupo 118224" transform="translate(1070.004 1800)">
      <g id="Grupo_118223" data-name="Grupo 118223" clip-path="url(#clip-path)">
        <path id="Trazado_180122" data-name="Trazado 180122" d="M0,49.046V40.961A1.269,1.269,0,0,0,.184,40.7,4.482,4.482,0,0,1,4.637,37.5c.491-.01.633-.189.721-.626a38.257,38.257,0,0,1,2.7-8.406.762.762,0,0,0,.013-.813,4.4,4.4,0,0,1-.564-2.444c.007-1.845-.013-3.69.006-5.535A4.48,4.48,0,0,1,12.22,15c1.61-.019,3.221-.025,4.831.008a1.921,1.921,0,0,0,1.411-.53A39.794,39.794,0,0,1,31.307,6.909c1.666-.6,1.669-.6,1.7-2.353A4.451,4.451,0,0,1,37.577.013Q45-.013,52.423.013A4.442,4.442,0,0,1,56.975,4.57C57,5.681,57,6.793,57.014,7.9c-.173,1.44.219,2.928-.385,4.337-.135.315.192.361.4.442A34.4,34.4,0,0,1,61.789,14.9a1.148,1.148,0,0,0,.663.158c.845-.047,1.694-.038,2.54-.074a8.7,8.7,0,0,0,2.219-.119,35.972,35.972,0,0,0-5.99-3.657c-1.144-.561-1.358-1.026-1.11-2.231a1.61,1.61,0,0,1,2.373-.5,38.968,38.968,0,0,1,8.965,5.939A2.094,2.094,0,0,0,73.016,15c1.551-.04,3.1-.023,4.654-.011a4.5,4.5,0,0,1,4.8,4.765c.014,1.815,0,3.63,0,5.445a4.381,4.381,0,0,1-.562,2.444.833.833,0,0,0,.042.892,37.176,37.176,0,0,1,2.621,8.155c.108.556.268.8.933.824a4.457,4.457,0,0,1,4.476,4.725q.011,2.767,0,5.533A4.472,4.472,0,0,1,85.5,52.495c-.587.024-.8.2-.9.746a37.663,37.663,0,0,1-2.639,8.241c-.115.257-.273.492-.07.811a5.049,5.049,0,0,1,.594,2.876c-.014,1.7.008,3.4-.007,5.094a4.5,4.5,0,0,1-4.729,4.75c-1.58.018-3.162.027-4.742-.009a2.024,2.024,0,0,0-1.493.546,39.7,39.7,0,0,1-13.1,7.639c-1.426.5-1.448.507-1.429,2.019a4.528,4.528,0,0,1-2.552,4.357c-.324.174-.729.152-1,.435H36.382c-.323-.36-.815-.4-1.2-.644a4.758,4.758,0,0,1-2.159-4.847c.051-.622-.15-.9-.773-1.108a39.43,39.43,0,0,1-13.9-7.972,1.62,1.62,0,0,0-1.187-.42c-1.669.019-3.34.031-5.009,0a4.473,4.473,0,0,1-4.629-4.675c-.019-1.845,0-3.691-.006-5.536a4.419,4.419,0,0,1,.56-2.446.764.764,0,0,0,0-.813,37.485,37.485,0,0,1-2.7-8.41c-.1-.525-.33-.611-.812-.628A4.483,4.483,0,0,1,.214,49.395c-.05-.13-.038-.3-.214-.348M22.48,59.988c1.435,0,2.87-.016,4.3,0a4.486,4.486,0,0,1,4.7,4.7c.013,1.874-.007,3.749.007,5.623a4.312,4.312,0,0,1-.534,2.275c-.213.361-.191.524.211.713A32.743,32.743,0,0,0,35.9,75.132a.859.859,0,0,0,.338.066,66.606,66.606,0,0,1,8.327-.173c2.517-.051,5.037.015,7.555-.027.7-.012,1.366.314,2.071.1a31.991,31.991,0,0,0,4.568-1.775c.386-.183.553-.311.275-.755A4.12,4.12,0,0,1,58.5,70.3c.011-1.757,0-3.514,0-5.271,0-3.252,1.794-5.035,5.06-5.038,2.811,0,5.623-.006,8.434.005a.845.845,0,0,0,.918-.469,34.84,34.84,0,0,0,2.473-6.36c.133-.479.049-.671-.5-.657-1.4.034-2.811.029-4.217.007a4.5,4.5,0,0,1-4.677-4.639c-.039-1.9-.035-3.807,0-5.71a4.506,4.506,0,0,1,4.732-4.673c1.347-.015,2.7-.039,4.041.012.695.027.763-.222.6-.8A36.3,36.3,0,0,0,73.05,30.75,1.134,1.134,0,0,0,71.857,30c-2.869.039-5.74.033-8.609.013a4.489,4.489,0,0,1-4.742-4.738c-.011-1.874,0-3.749,0-5.623a4.011,4.011,0,0,1,.513-2.191c.3-.475.116-.609-.307-.808a30.891,30.891,0,0,0-4.489-1.737,1.179,1.179,0,0,0-.5-.1,28.928,28.928,0,0,1-5.429.166c-3.426.039-6.853-.007-10.279.026a8.141,8.141,0,0,0-2.159-.109,30.121,30.121,0,0,0-4.653,1.8c-.448.209-.436.4-.217.775a4.216,4.216,0,0,1,.509,2.193c-.013,1.786,0,3.573,0,5.359,0,3.186-1.816,4.992-5.017,5q-4.217.006-8.434,0c-.385,0-.713-.015-.939.429a33.637,33.637,0,0,0-2.506,6.439c-.125.46-.039.622.47.612,1.405-.028,2.811-.022,4.217-.006A4.51,4.51,0,0,1,24,42.176c.034,1.874.031,3.749,0,5.623a4.518,4.518,0,0,1-4.779,4.718c-1.347.013-2.7.037-4.041-.012-.664-.024-.715.223-.561.757a35.1,35.1,0,0,0,2.422,6.193A.9.9,0,0,0,18,60c1.493-.023,2.987-.009,4.48-.008m-3.062-32.94h2.723c1.494,0,2.988.026,4.481-.013,1.249-.033,1.835-.561,1.848-1.641q.036-2.9,0-5.8a1.408,1.408,0,0,0-1.352-1.548,11.733,11.733,0,0,0-1.75-.08q-6.414-.009-12.827,0c-1.485,0-2.01.54-2.013,2q0,2.5,0,5.008c0,1.532.513,2.061,2.037,2.068,2.284.01,4.568,0,6.853,0M12,49.561c2.37,0,4.741.015,7.111-.006,1.282-.012,1.856-.58,1.865-1.8q.02-2.765,0-5.531a1.552,1.552,0,0,0-1.717-1.764q-7.243-.037-14.485,0c-1.267.008-1.791.616-1.8,1.877-.009,1.668,0,3.336,0,5,0,1.7.491,2.209,2.179,2.216,2.283.01,4.565,0,6.848,0M70.57,72.05c2.34,0,4.681.012,7.021,0,1.334-.01,1.883-.561,1.891-1.862q.016-2.721,0-5.442c-.008-1.159-.547-1.769-1.7-1.775q-7.241-.036-14.482,0c-1.312.007-1.807.588-1.812,1.937-.006,1.668,0,3.335,0,5,0,1.649.48,2.134,2.149,2.141,2.311.009,4.622,0,6.934,0m7.378-31.543c-2.256,0-4.511,0-6.767,0-1.65,0-2.1.452-2.105,2.063,0,1.728-.007,3.457,0,5.185.006,1.131.508,1.721,1.632,1.727q7.25.041,14.5,0c1.224-.008,1.743-.612,1.751-1.826.011-1.67,0-3.34,0-5.009,0-1.634-.5-2.13-2.162-2.137-2.285-.009-4.57,0-6.854,0M70.39,27.034c2.4,0,4.8.013,7.2-.005,1.338-.01,1.863-.552,1.869-1.876q.012-2.679,0-5.359c-.007-1.2-.489-1.783-1.675-1.791Q70.5,17.952,63.2,18c-1.191.008-1.688.591-1.7,1.774-.012,1.669,0,3.338,0,5.008,0,1.83.426,2.249,2.3,2.252q3.295.006,6.589,0M19.511,72.011c2.342,0,4.684.021,7.026-.008,1.417-.017,1.912-.545,1.917-1.919.006-1.61,0-3.221,0-4.831,0-1.824-.435-2.26-2.286-2.262q-5.753-.007-11.505,0c-.761,0-1.524-.024-2.283.01-1.357.062-1.82.561-1.825,1.918-.005,1.639,0,3.279,0,4.918,0,1.712.451,2.167,2.193,2.174,2.254.009,4.508,0,6.763,0m25.48,6.017c-2.4,0-4.8-.007-7.2,0-1.266,0-1.763.5-1.77,1.748q-.016,2.723,0,5.446A1.551,1.551,0,0,0,37.791,87q7.2.016,14.4,0a1.56,1.56,0,0,0,1.774-1.782q.016-2.723,0-5.445c-.008-1.245-.509-1.739-1.775-1.744-2.4-.009-4.8,0-7.2,0M44.96,12q3.51,0,7.019,0c1.548,0,2.007-.451,2.011-1.961,0-1.726.008-3.451,0-5.177-.007-1.327-.543-1.872-1.859-1.874q-7.151-.01-14.3,0c-1.278,0-1.822.545-1.83,1.807q-.016,2.676,0,5.352C36,11.506,36.492,12,37.853,12c2.369.008,4.738,0,7.107,0M32.97,9.51a36.382,36.382,0,0,0-10.32,5.436c1.824.129,3.437-.063,5.04.12a.753.753,0,0,0,.411-.117,35.277,35.277,0,0,1,4.928-2.286c.237-.087.458-.185.307-.5A7.345,7.345,0,0,1,32.97,9.51M22.6,75.016c.387.295.561.435.742.563a38.46,38.46,0,0,0,8.9,4.684c.715.267.844.07.782-.595a2.9,2.9,0,0,1,.223-1.55c.261-.529.038-.709-.429-.87A23,23,0,0,1,29.139,75.6a4.072,4.072,0,0,0-2.471-.614c-1.261.117-2.542.029-4.071.029m44.531-.078c-1.651,0-3.3,0-4.952.006a.735.735,0,0,0-.322.127,33.643,33.643,0,0,1-4.911,2.28c-.245.09-.435.2-.288.505a7,7,0,0,1,.355,2.566c2.277-.439,7.595-3.191,10.117-5.484m8.966-44.877a40.677,40.677,0,0,1,1.99,5.317c.625,2.229.639,2.216,3,2.12.44-.018.614-.074.5-.591a38.445,38.445,0,0,0-2.113-6.577c-.124-.292-.241-.529-.627-.436a20.06,20.06,0,0,1-2.749.168M13.909,59.939a41.555,41.555,0,0,1-2-5.258c-.213-.712-.1-1.726-.716-2.062-.589-.323-1.483-.09-2.243-.1-.029,0-.059,0-.088,0-.406-.038-.57.056-.464.537a37.246,37.246,0,0,0,2.137,6.664c.111.261.221.482.566.4a23.436,23.436,0,0,1,2.807-.179m62.17,0a23.376,23.376,0,0,1,2.819.18c.35.082.449-.156.558-.412a36.543,36.543,0,0,0,2.137-6.664c.081-.375.047-.541-.379-.53-.7.019-1.4.016-2.107,0-.349-.008-.5.113-.587.474a35.006,35.006,0,0,1-2.441,6.951M13.908,30.069a23.427,23.427,0,0,1-2.812-.181c-.346-.083-.453.145-.563.4A37.407,37.407,0,0,0,8.4,36.954c-.106.484.061.55.463.54.672-.017,1.346-.015,2.018,0,.346.007.5-.109.588-.473a34.7,34.7,0,0,1,2.443-6.951" transform="translate(0 0)"/>
        <path id="Trazado_180123" data-name="Trazado 180123" d="M53.708,85.553c-2.284,0-4.569.007-6.853,0-1.523-.007-2.034-.535-2.036-2.068q0-2.5,0-5.008c0-1.462.528-2,2.013-2q6.414-.013,12.827,0a11.736,11.736,0,0,1,1.75.08A1.408,1.408,0,0,1,62.76,78.1q.032,2.9,0,5.8c-.013,1.08-.6,1.609-1.848,1.641-1.492.039-2.987.012-4.48.013H53.708" transform="translate(-34.289 -58.504)" fill="#fe502d"/>
        <path id="Trazado_180124" data-name="Trazado 180124" d="M21.674,181.283c-2.283,0-4.565.008-6.848,0-1.688-.007-2.177-.515-2.179-2.216,0-1.668-.007-3.336,0-5,.007-1.261.531-1.869,1.8-1.877q7.243-.045,14.485,0a1.552,1.552,0,0,1,1.717,1.764q.022,2.765,0,5.531c-.009,1.221-.583,1.789-1.865,1.8-2.37.021-4.741.006-7.111.007" transform="translate(-9.675 -131.721)" fill="#2d54fe"/>
        <path id="Trazado_180125" data-name="Trazado 180125" d="M270.828,277.08c-2.311,0-4.622.007-6.934,0-1.669-.007-2.147-.492-2.149-2.141,0-1.668,0-3.335,0-5,.005-1.349.5-1.931,1.812-1.937q7.24-.038,14.482,0c1.153.006,1.692.615,1.7,1.775q.019,2.721,0,5.442c-.008,1.3-.557,1.852-1.891,1.862-2.34.017-4.681,0-7.021,0" transform="translate(-200.259 -205.03)" fill="#ffca00"/>
        <path id="Trazado_180126" data-name="Trazado 180126" d="M302.924,172.438c2.285,0,4.57-.006,6.854,0,1.666.006,2.16.5,2.162,2.137,0,1.67.008,3.34,0,5.009-.008,1.214-.527,1.819-1.751,1.826q-7.25.046-14.5,0c-1.124-.006-1.626-.6-1.632-1.727-.01-1.728,0-3.457,0-5.185,0-1.61.456-2.058,2.106-2.062,2.256-.006,4.511,0,6.767,0" transform="translate(-224.976 -131.93)" fill="#2d54fe"/>
        <path id="Trazado_180127" data-name="Trazado 180127" d="M270.7,85.587q-3.295,0-6.589,0c-1.871,0-2.3-.423-2.3-2.252,0-1.669-.008-3.339,0-5.008.008-1.183.505-1.766,1.7-1.773q7.292-.046,14.583,0c1.186.008,1.668.593,1.675,1.791q.016,2.679,0,5.359c-.006,1.325-.531,1.867-1.869,1.876-2.4.017-4.8,0-7.2.005" transform="translate(-200.315 -58.553)" fill="#fe502d"/>
        <path id="Trazado_180128" data-name="Trazado 180128" d="M53.883,277.152c-2.254,0-4.508.008-6.763,0-1.742-.007-2.192-.462-2.193-2.174,0-1.639,0-3.279,0-4.918,0-1.356.467-1.855,1.825-1.918.76-.035,1.522-.01,2.283-.01q5.753,0,11.505,0c1.851,0,2.285.438,2.286,2.262,0,1.61,0,3.221,0,4.831-.005,1.374-.5,1.9-1.917,1.919-2.342.029-4.684.008-7.026.009" transform="translate(-34.372 -205.14)" fill="#ffca00"/>
        <path id="Trazado_180129" data-name="Trazado 180129" d="M162.284,332.166c2.4,0,4.8-.007,7.2,0,1.267,0,1.768.5,1.775,1.744q.016,2.723,0,5.445a1.56,1.56,0,0,1-1.774,1.782q-7.2.015-14.4,0a1.551,1.551,0,0,1-1.772-1.778q-.015-2.723,0-5.445c.007-1.25.5-1.743,1.77-1.748,2.4-.01,4.8,0,7.2,0" transform="translate(-117.293 -254.138)" fill="#d3d3d3"/>
        <path id="Trazado_180130" data-name="Trazado 180130" d="M162.186,21.727c-2.369,0-4.738.006-7.107,0-1.361,0-1.849-.494-1.855-1.85q-.012-2.676,0-5.352c.008-1.262.552-1.805,1.83-1.808q7.151-.011,14.3,0c1.317,0,1.852.547,1.859,1.874.009,1.726.006,3.451,0,5.177,0,1.51-.464,1.959-2.011,1.961q-3.51.006-7.019,0" transform="translate(-117.226 -9.724)" fill="#d3d3d3"/>
        <path id="Trazado_180131" data-name="Trazado 180131" d="M241.358,33.654l3.1,1.076c-.249,1.205-.034,1.67,1.109,2.231a35.974,35.974,0,0,1,5.99,3.658,8.7,8.7,0,0,1-2.219.119c-.846.037-1.695.028-2.54.074a1.147,1.147,0,0,1-.663-.157,34.368,34.368,0,0,0-4.756-2.221c-.211-.081-.538-.127-.4-.442.6-1.408.212-2.9.385-4.337" transform="translate(-184.344 -25.749)" fill="#636363"/>
        <path id="Trazado_180132" data-name="Trazado 180132" d="M106.743,40.485a7.355,7.355,0,0,0,.366,2.657c.151.312-.07.41-.307.5a35.276,35.276,0,0,0-4.928,2.285.753.753,0,0,1-.411.117c-1.6-.183-3.216.01-5.04-.12a36.378,36.378,0,0,1,10.32-5.436" transform="translate(-73.773 -30.975)" fill="#636363"/>
        <path id="Trazado_180133" data-name="Trazado 180133" d="M96.2,319.2c1.529,0,2.81.088,4.071-.029a4.069,4.069,0,0,1,2.47.614,23.044,23.044,0,0,0,3.675,1.648c.467.162.69.341.429.87a2.9,2.9,0,0,0-.223,1.55c.061.665-.068.862-.782.595a38.457,38.457,0,0,1-8.9-4.684c-.181-.129-.354-.268-.742-.563" transform="translate(-73.6 -244.186)" fill="#636363"/>
        <path id="Trazado_180134" data-name="Trazado 180134" d="M251.491,319.017c-2.522,2.292-7.84,5.044-10.117,5.484a7.006,7.006,0,0,0-.355-2.566c-.147-.305.043-.415.288-.5a33.694,33.694,0,0,0,4.911-2.28.734.734,0,0,1,.322-.127c1.651-.008,3.3-.006,4.952-.006" transform="translate(-184.364 -244.079)" fill="#636363"/>
        <path id="Trazado_180135" data-name="Trazado 180135" d="M323.935,127.36a20.058,20.058,0,0,0,2.749-.168c.386-.093.5.144.627.436a38.467,38.467,0,0,1,2.113,6.577c.117.517-.057.573-.5.591-2.363.1-2.377.109-3-2.12a40.712,40.712,0,0,0-1.99-5.317" transform="translate(-247.842 -97.299)" fill="#636363"/>
        <path id="Trazado_180136" data-name="Trazado 180136" d="M41.161,230.764a23.429,23.429,0,0,0-2.807.18c-.345.082-.455-.139-.567-.4a37.264,37.264,0,0,1-2.137-6.664c-.105-.481.058-.574.464-.537.029,0,.058,0,.088,0,.76.011,1.654-.223,2.243.1.611.336.5,1.35.716,2.062a41.52,41.52,0,0,0,2,5.258" transform="translate(-27.252 -170.825)" fill="#636363"/>
        <path id="Trazado_180137" data-name="Trazado 180137" d="M323.875,230.982a35.011,35.011,0,0,0,2.441-6.951c.084-.36.238-.482.587-.474.7.016,1.4.018,2.107,0,.426-.012.46.155.379.53a36.55,36.55,0,0,1-2.136,6.663c-.109.256-.209.494-.558.412a23.374,23.374,0,0,0-2.819-.18" transform="translate(-247.796 -171.043)" fill="#636363"/>
        <path id="Trazado_180138" data-name="Trazado 180138" d="M41.155,127.364a34.7,34.7,0,0,0-2.443,6.951c-.085.364-.242.48-.588.473-.673-.014-1.346-.016-2.018,0-.4.01-.569-.056-.463-.54a37.407,37.407,0,0,1,2.136-6.661c.11-.259.217-.487.563-.4a23.427,23.427,0,0,0,2.812.181" transform="translate(-27.247 -97.295)" fill="#636363"/>
        <path id="Trazado_180139" data-name="Trazado 180139" d="M123.048,118.792a5.15,5.15,0,0,1,2.145.705,1.944,1.944,0,0,0,1.55-.019,3.7,3.7,0,0,0,2.779-2.755,2.187,2.187,0,0,1,2.233-1.535c.877-.025,1.755-.022,2.632,0a2.128,2.128,0,0,1,2.268,1.6c.346,1.955,1.933,2.264,3.307,2.925.324.156.574-.028.825-.148,2.6-1.242,3.129-1.03,5.28,1.074,1.33,1.3,1.741,2.652.765,4.3a1.749,1.749,0,0,0,.032,2.1c.449.6.226,1.569,1.178,1.914,2.772,1,3.009,1.37,3.034,4.621.014,1.807-.644,2.995-2.41,3.465-.875.233-1.214.832-1.613,1.61a3.26,3.26,0,0,0,.061,3.34,2.392,2.392,0,0,1-.495,2.979c-.59.609-1.183,1.218-1.809,1.789a2.16,2.16,0,0,1-2.746.419c-1.581-1.071-2.911-.259-4.321.271a.825.825,0,0,0-.473.583q-.261.7-.551,1.383a2.471,2.471,0,0,1-2.369,1.643c-.848.018-1.7.015-2.545,0a2.189,2.189,0,0,1-2.328-1.649c-.37-1.878-1.864-2.258-3.244-2.871a.749.749,0,0,0-.665.066c-.479.217-.97.405-1.455.609a2.428,2.428,0,0,1-2.767-.457c-.646-.593-1.266-1.217-1.865-1.857a2.194,2.194,0,0,1-.452-2.816c1.06-1.584.277-2.913-.289-4.32a.765.765,0,0,0-.512-.431c-.464-.177-.927-.357-1.385-.545a2.491,2.491,0,0,1-1.7-2.417c-.012-.848-.016-1.7,0-2.545a2.125,2.125,0,0,1,1.579-2.279c1.945-.344,2.3-1.9,2.944-3.286.151-.325-.02-.575-.14-.827-1.266-2.658-1.086-3.2,1.2-5.391a3.271,3.271,0,0,1,2.33-1.25m2.986,24.482a1.9,1.9,0,0,1,1,.284,6.051,6.051,0,0,0,1.576.751,3.792,3.792,0,0,1,3.312,3.231c.142.664.652.573,1.1.554s1.052.206,1.205-.524a3.776,3.776,0,0,1,3.38-3.258.189.189,0,0,0,.079-.037,3.96,3.96,0,0,1,4.865-.1c.542.353.807-.122,1.075-.42s.892-.529.515-1.127a4.039,4.039,0,0,1,.114-4.948.183.183,0,0,0,.032-.081,3.727,3.727,0,0,1,3.2-3.326.6.6,0,0,0,.553-.474,1.5,1.5,0,0,0-1.093-2.055c-.245-.1-.484-.211-.736-.284a2.088,2.088,0,0,1-1.567-1.7,6.22,6.22,0,0,0-.882-2.187,2.522,2.522,0,0,1-.1-2.878c.141-.254.2-.558.356-.8.338-.519.149-.85-.227-1.284a1.215,1.215,0,0,0-1.791-.322c-.269.169-.594.247-.878.395a2.092,2.092,0,0,1-2.24-.12,6.887,6.887,0,0,0-2.251-.956,2.367,2.367,0,0,1-1.989-1.843c-.082-.308-.27-.59-.342-.9-.14-.6-.508-.733-1.084-.741-.743-.01-1.318.077-1.463.957a7.714,7.714,0,0,1-.343.9,2.122,2.122,0,0,1-1.706,1.566,8.663,8.663,0,0,0-2.578,1.082,1.973,1.973,0,0,1-2,.1,13.823,13.823,0,0,1-1.282-.565c-.533-.322-.853-.135-1.284.233a1.217,1.217,0,0,0-.328,1.79,11.044,11.044,0,0,1,.464,1.04,1.919,1.919,0,0,1-.1,1.921,10.465,10.465,0,0,0-1.16,2.83,1.824,1.824,0,0,1-1.226,1.375,12.234,12.234,0,0,1-1.222.48c-.733.172-.922.594-.914,1.315.008.689.183,1.1.89,1.248.366.079.7.3,1.058.416a2,2,0,0,1,1.46,1.588,6.729,6.729,0,0,0,.91,2.27,2.538,2.538,0,0,1,.1,2.88c-.141.254-.195.562-.357.8-.4.577-.113.952.306,1.335.4.369.694.808,1.4.42a6,6,0,0,1,2.2-.83" transform="translate(-88.085 -88.117)"/>
        <path id="Trazado_180140" data-name="Trazado 180140" d="M135.627,152.886a5.991,5.991,0,0,0-2.2.83c-.7.389-1-.051-1.4-.42-.419-.383-.7-.758-.306-1.335.162-.236.217-.544.357-.8a2.538,2.538,0,0,0-.1-2.88,6.725,6.725,0,0,1-.91-2.27,2,2,0,0,0-1.46-1.588c-.362-.111-.693-.337-1.058-.416-.706-.153-.882-.559-.89-1.248-.008-.721.18-1.143.914-1.315a12.339,12.339,0,0,0,1.222-.48,1.824,1.824,0,0,0,1.226-1.375,10.467,10.467,0,0,1,1.16-2.83,1.919,1.919,0,0,0,.1-1.921,11.13,11.13,0,0,0-.464-1.04,1.217,1.217,0,0,1,.327-1.789c.432-.368.752-.555,1.284-.233a13.825,13.825,0,0,0,1.282.565,1.972,1.972,0,0,0,2-.1,8.672,8.672,0,0,1,2.578-1.083,2.122,2.122,0,0,0,1.706-1.566,7.771,7.771,0,0,0,.343-.9c.145-.88.719-.967,1.462-.957.576.008.944.14,1.084.741.072.31.26.591.342.9a2.367,2.367,0,0,0,1.989,1.843,6.886,6.886,0,0,1,2.251.956,2.092,2.092,0,0,0,2.24.12c.284-.148.609-.226.878-.395a1.215,1.215,0,0,1,1.791.322c.375.433.564.764.226,1.284-.157.241-.215.545-.356.8a2.522,2.522,0,0,0,.1,2.878,6.224,6.224,0,0,1,.882,2.187,2.088,2.088,0,0,0,1.567,1.7c.252.073.491.188.736.284a1.5,1.5,0,0,1,1.093,2.055.6.6,0,0,1-.553.474,3.726,3.726,0,0,0-3.2,3.326.187.187,0,0,1-.032.081,4.039,4.039,0,0,0-.114,4.948c.377.6-.236.818-.515,1.127s-.533.773-1.075.42a3.96,3.96,0,0,0-4.865.1.192.192,0,0,1-.079.037,3.776,3.776,0,0,0-3.38,3.258c-.154.729-.75.5-1.206.524s-.959.11-1.1-.554a3.792,3.792,0,0,0-3.312-3.231,6.051,6.051,0,0,1-1.576-.751,1.9,1.9,0,0,0-1-.284m16.026-10.126a8.982,8.982,0,1,0-8.92,8.954,8.958,8.958,0,0,0,8.92-8.954" transform="translate(-97.678 -97.729)" fill="#2d54fe"/>
        <path id="Trazado_180141" data-name="Trazado 180141" d="M171.268,162.357a8.982,8.982,0,1,1-9.047-9.009,8.95,8.95,0,0,1,9.047,9.009m-3-.019a5.986,5.986,0,1,0-6.04,5.978,5.965,5.965,0,0,0,6.04-5.978" transform="translate(-117.293 -117.326)" fill="#393939"/>
      </g>
    </g>
  </g>
</svg>
