<svg xmlns="http://www.w3.org/2000/svg" xmlns:xlink="http://www.w3.org/1999/xlink" width="190" height="115" viewBox="0 0 190 115">
  <defs>
    <clipPath id="clip-path">
      <rect id="Rectángulo_36876" data-name="Rectángulo 36876" width="89.968" height="90" fill="none"/>
    </clipPath>
  </defs>
  <g id="Grupo_118333" data-name="Grupo 118333" transform="translate(-390 -1974)">
    <g id="Grupo_118196" data-name="Grupo 118196" transform="translate(210 1104)">
      <path id="Trazado_178448" data-name="Trazado 178448" d="M791.013-1163H941.987c-.282-39.809-33.964-72-75.487-72S791.295-1202.809,791.013-1163Z" transform="translate(1141.5 -278) rotate(180)" fill="#ffca00" opacity="0.15"/>
      <g id="Grupo_117240" data-name="Grupo 117240" transform="translate(370 985) rotate(180)">
        <path id="Trazado_100600" data-name="Trazado 100600" d="M713.6-210.305l2.423-2.423,8.456,8.456,2.423,2.423-2.423,2.423-8.456,8.456-2.423-2.423,8.456-8.456Z" transform="translate(-702.564 212.728)" fill="#2d54fe"/>
        <path id="Trazado_100601" data-name="Trazado 100601" d="M776.91-201.849l-8.456-8.456,2.423-2.423,8.456,8.456,2.423,2.423-2.423,2.423-8.456,8.456-2.423-2.423Z" transform="translate(-768.453 212.728)" fill="#2d54fe"/>
      </g>
      <g id="Grupo_117241" data-name="Grupo 117241" transform="translate(195.667 949.479) rotate(90)">
        <path id="Trazado_100600-2" data-name="Trazado 100600" d="M0,13.922l1.744,1.744L7.833,9.578,9.578,7.833,7.833,6.089,1.744,0,0,1.744,6.089,7.833Z" transform="translate(7.944)" fill="#fe502d"/>
        <path id="Trazado_100601-2" data-name="Trazado 100601" d="M6.089,7.833,0,13.922l1.744,1.744L7.833,9.578,9.578,7.833,7.833,6.089,1.744,0,0,1.744Z" fill="#fe502d"/>
      </g>
      <rect id="Rectángulo_36648" data-name="Rectángulo 36648" width="39" height="10" transform="translate(370 905) rotate(180)" fill="#ffca00"/>
      <rect id="Rectángulo_36650" data-name="Rectángulo 36650" width="39" height="10" transform="translate(219 925.12) rotate(180)" fill="#2d54fe"/>
    </g>
    <g id="Grupo_118226" data-name="Grupo 118226" transform="translate(440.016 1974)">
      <g id="Grupo_118225" data-name="Grupo 118225" clip-path="url(#clip-path)">
        <path id="Trazado_180142" data-name="Trazado 180142" d="M75.389,90H71.347c-.1-.265-.344-.169-.527-.2a14.707,14.707,0,0,1-9.05-4.777,5.6,5.6,0,0,0-5.082-2.1c-4.358.148-8.725.049-13.089.042a1.767,1.767,0,1,1,.009-3.509c4.481-.008,8.962,0,13.442-.008a1.72,1.72,0,0,0,.966-.1,13.691,13.691,0,0,1-.926-3.907c-.039-.736-.3-.928-1.051-.926q-22.711.041-45.422.019c-1.573,0-2.183-.609-2.183-2.178q0-20.338,0-40.676c0-1.5.635-2.13,2.141-2.13q32.287,0,64.575,0c1.562,0,2.169.614,2.169,2.191q0,7.995,0,15.989c0,3.016,0,6.033.008,9.049,0,.248-.183.6.27.715a17.764,17.764,0,0,1,4.642,1.974v-1.05q0-16.385.021-32.769c0-.83-.166-1.043-1.025-1.042q-32.463.043-64.926.022c-1.469,0-1.983-.4-2.279-1.753a1.851,1.851,0,0,1,2.185-1.76q11.549,0,23.1,0,21.034,0,42.068.014c.662,0,.891-.13.876-.846-.049-2.487-.016-4.976-.02-7.465,0-1.574-.672-2.243-2.246-2.245-3.454,0-6.909-.008-10.363.005-.634,0-1.438-.274-1.857.13-.384.371-.082,1.167-.12,1.774A5.14,5.14,0,0,1,64.789,17a4.962,4.962,0,0,1-5.253-.26,5.125,5.125,0,0,1-2.423-4.509c-.017-1.659-.017-1.659-1.7-1.659q-12.339,0-24.679,0c-.666,0-1.506-.192-1.95.134-.426.313-.112,1.2-.141,1.835a5.271,5.271,0,0,1-10.393,1.018,9.624,9.624,0,0,1-.142-2.445c0-.412-.111-.554-.54-.552-4.069.015-8.139,0-12.208.02a1.771,1.771,0,0,0-1.835,1.843c-.017,3.483.008,6.966.016,10.449-.009.175-.027.35-.027.525q0,26.919,0,53.839c0,1.561.674,2.215,2.272,2.215q11.418,0,22.836,0a7.43,7.43,0,0,1,.877.016,1.749,1.749,0,0,1,.031,3.477,6.614,6.614,0,0,1-.877.02c-7.173,0-14.348-.1-21.518.047-3.416.072-5.942-.855-7.137-4.264V11.274c.056-.058.14-.107.165-.177,1.042-2.856,2.721-4.039,5.743-4.04q5.1,0,10.192,0c.638,0,1.467.2,1.863-.116.422-.34.113-1.2.138-1.837A5.3,5.3,0,1,1,28.629,6.135c-.054.784.182.943.943.941,8.522-.031,17.045-.017,25.567-.025.635,0,1.442.271,1.859-.119.383-.358.079-1.163.116-1.77a5.118,5.118,0,0,1,3-4.6,4.981,4.981,0,0,1,5.384.51A5.434,5.434,0,0,1,67.647,6.25c-.047.633.1.833.788.825,3.778-.04,7.556-.019,11.334-.019,3.835,0,5.988,2.146,5.988,5.968q0,24.292-.011,48.584a2.2,2.2,0,0,0,.53,1.492A16.507,16.507,0,0,1,76.6,89.7c-.4.079-.867-.036-1.207.3M60.452,73.482a13,13,0,1,0,13.023-13,13.025,13.025,0,0,0-13.023,13M34.6,38.332c0-1.55-.02-3.1.012-4.648.01-.5-.149-.634-.639-.63q-4.166.032-8.333,0c-.5,0-.64.143-.637.639q.031,4.561,0,9.122c0,.508.156.634.646.63q4.166-.033,8.333,0c.5,0,.641-.143.631-.639-.031-1.491-.011-2.982-.011-4.473m26.148-.047c0-1.52-.013-3.041.008-4.561.006-.453-.056-.678-.6-.673-2.807.027-5.614.023-8.421,0-.47,0-.585.144-.582.6q.028,4.6,0,9.21c0,.474.15.584.6.581q4.21-.027,8.421,0c.465,0,.6-.141.589-.6-.025-1.52-.01-3.041-.009-4.561M25.011,65.748c0,1.55.019,3.1-.011,4.649-.01.5.142.64.64.636q4.166-.034,8.333,0c.493,0,.64-.132.636-.632q-.033-4.561,0-9.122c0-.5-.132-.641-.633-.637q-4.166.035-8.333,0c-.493,0-.654.127-.644.633.031,1.49.011,2.982.011,4.473M34.6,52.019c0-1.492-.015-2.985.009-4.477.007-.452-.118-.608-.588-.605q-4.214.029-8.428,0c-.469,0-.593.159-.591.608q.024,4.477,0,8.954c0,.487.132.654.639.65q4.17-.033,8.34,0c.513,0,.639-.168.631-.653-.027-1.492-.01-2.985-.01-4.477m26.148.038c0-1.491-.017-2.983.01-4.473.009-.481-.112-.654-.626-.65q-4.166.036-8.333,0c-.476,0-.654.1-.65.619q.037,4.473,0,8.946c0,.479.1.655.619.65,2.777-.025,5.555-.03,8.333,0,.583.007.666-.209.656-.711-.029-1.461-.01-2.923-.01-4.385M21.5,38.251c0-1.523-.021-3.046.012-4.568.011-.5-.143-.633-.635-.629q-4.172.033-8.345,0c-.452,0-.592.112-.589.579q.031,4.611,0,9.223c0,.459.123.588.584.585q4.172-.031,8.345,0c.485,0,.651-.114.64-.624-.034-1.522-.012-3.045-.012-4.568m16.616-.068c0,1.522.019,3.044-.011,4.565-.01.5.07.708.651.7,2.75-.035,5.5-.025,8.252-.006.463,0,.658-.076.653-.606q-.039-4.608,0-9.217c0-.5-.186-.563-.609-.561-2.78.015-5.56.022-8.339-.005-.531-.005-.615.187-.607.654.027,1.492.01,2.984.01,4.477m26.148.026c0,1.523.014,3.045-.009,4.568-.007.45.045.674.595.669,2.811-.028,5.622-.022,8.433,0,.425,0,.539-.122.537-.541q-.025-4.656,0-9.311c0-.43-.132-.535-.545-.532q-4.216.025-8.433,0c-.459,0-.6.123-.588.586.028,1.522.01,3.045.01,4.568M21.5,65.858c0-1.493-.023-2.987.012-4.48.012-.546-.1-.748-.7-.74q-4.084.054-8.169,0c-.614-.009-.7.208-.7.743q.035,4.48,0,8.96c0,.508.076.7.654.7q4.128-.052,8.257,0c.573.007.669-.187.658-.7-.031-1.493-.011-2.986-.011-4.48m26.148-.022c0-1.521-.02-3.043.012-4.564.011-.5-.137-.633-.631-.629q-4.17.034-8.339,0c-.464,0-.587.127-.584.587q.03,4.608,0,9.217c0,.463.125.588.586.585q4.17-.032,8.339,0c.5,0,.639-.136.629-.631-.031-1.521-.011-3.043-.011-4.565M21.5,52.091c0-1.523-.017-3.046.011-4.568.008-.463-.13-.589-.588-.586q-4.216.03-8.433,0c-.413,0-.548.1-.545.533q.027,4.568,0,9.136c0,.419.112.544.537.541,2.811-.018,5.622-.024,8.433,0,.549.006.6-.219.594-.669-.023-1.464-.009-2.928-.009-4.392m26.148,0c0-1.521-.018-3.043.011-4.564.009-.462-.122-.589-.585-.586q-4.214.032-8.427,0c-.421,0-.542.118-.54.54q.025,4.564,0,9.129c0,.421.118.543.539.54q4.213-.026,8.427,0c.462,0,.595-.123.586-.585-.029-1.492-.011-2.984-.011-4.477m16.615-.123c0,1.52.021,3.04-.012,4.559-.011.5.145.633.635.626,2.8-.038,5.607.06,8.408-.169.426-.035.526-.152.524-.558q-.023-4.471,0-8.942c0-.414-.106-.545-.533-.543q-4.252.027-8.5,0c-.447,0-.531.155-.526.556.02,1.49.008,2.981.008,4.471m-13.1,13.812c0,1.492.029,2.985-.014,4.475-.017.6.115.808.756.787,1.49-.051,2.984-.041,4.475,0,.566.014.806-.134.9-.727a14.243,14.243,0,0,1,2.692-6.3,3.922,3.922,0,0,0,.8-2.575c-.005-.7-.233-.8-.853-.795-2.632.033-5.266.049-7.9-.007-.774-.016-.907.239-.88.933.054,1.4.016,2.808.016,4.212M25.115,8.793c0-1.084.009-2.167,0-3.251A1.752,1.752,0,1,0,21.633,5.5q-.02,3.338,0,6.677a1.762,1.762,0,0,0,1.757,1.893,1.783,1.783,0,0,0,1.72-1.934c.015-1.112,0-2.225,0-3.338M64.128,8.9c0-1.142.013-2.284,0-3.426a1.747,1.747,0,1,0-3.477,0q-.022,3.338,0,6.677a1.747,1.747,0,1,0,3.477,0c.017-1.083,0-2.167,0-3.25" transform="translate(0 0)" fill="#010101"/>
        <path id="Trazado_180143" data-name="Trazado 180143" d="M93.715,100.178c0-.83-.166-1.043-1.025-1.042q-32.463.043-64.926.022c-1.469,0-1.983-.4-2.279-1.753H22.02c-.264,1.18-.883,1.773-1.826,1.749-.913-.023-1.482-.6-1.739-1.749H14.994c-.009.175-.027.35-.027.525q0,26.92,0,53.839c0,1.561.674,2.215,2.272,2.215q11.418,0,22.836,0a7.431,7.431,0,0,1,.878.016,1.8,1.8,0,0,1,1.221.709q2.087.01,4.174.054a1.727,1.727,0,0,1,1.424-.776,1.792,1.792,0,0,1,1.508.837q2,.044,4,.076a1.9,1.9,0,0,1,1.784-.915c4.481-.008,8.962,0,13.442-.008a1.722,1.722,0,0,0,.966-.1,13.694,13.694,0,0,1-.926-3.907c-.039-.736-.3-.928-1.051-.926q-22.711.041-45.422.019c-1.573,0-2.183-.608-2.183-2.178q0-20.338,0-40.676c0-1.5.635-2.13,2.141-2.13q32.287,0,64.575,0c1.562,0,2.169.614,2.169,2.19q0,7.995,0,15.989c0,3.016,0,6.033.008,9.049,0,.248-.183.6.27.715A17.755,17.755,0,0,1,93.694,134v-1.05q0-16.385.021-32.769" transform="translate(-11.451 -74.528)" fill="#fefefe"/>
        <path id="Trazado_180144" data-name="Trazado 180144" d="M18.476,57.047H15.015c-.008-3.483-.033-6.966-.016-10.449a1.771,1.771,0,0,1,1.835-1.843c4.069-.024,8.138-.005,12.208-.02.429,0,.544.141.54.552a9.636,9.636,0,0,0,.142,2.446,5.271,5.271,0,0,0,10.393-1.018c.028-.634-.286-1.522.14-1.835.444-.326,1.283-.133,1.95-.134q12.339-.007,24.679,0c1.682,0,1.682,0,1.7,1.659a5.125,5.125,0,0,0,2.423,4.509,4.961,4.961,0,0,0,5.253.26,5.14,5.14,0,0,0,2.866-4.517c.039-.607-.264-1.4.12-1.774.419-.4,1.222-.128,1.856-.131,3.454-.014,6.909-.009,10.363-.005,1.574,0,2.243.671,2.246,2.244,0,2.488-.029,4.977.02,7.465.014.717-.215.847-.877.847q-21.034-.028-42.068-.014-11.549,0-23.1,0a1.851,1.851,0,0,0-2.185,1.76H22.041c-.261-1.182-.883-1.78-1.827-1.756-.916.024-1.485.6-1.738,1.756" transform="translate(-11.472 -34.172)" fill="#ffca00"/>
        <path id="Trazado_180145" data-name="Trazado 180145" d="M257.4,270.521a13,13,0,1,1,13.026,13,13.021,13.021,0,0,1-13.026-13m21.086-3.079a1.684,1.684,0,0,0-1.032-1.517,1.74,1.74,0,0,0-2.079.447c-1.616,1.614-3.244,3.217-4.837,4.853-.379.389-.6.409-.969,0-.586-.652-1.218-1.266-1.859-1.867a1.727,1.727,0,0,0-2.575-.041,1.691,1.691,0,0,0,.093,2.505q1.712,1.766,3.477,3.479a1.719,1.719,0,0,0,2.7,0c2.167-2.14,4.31-4.3,6.463-6.457a1.921,1.921,0,0,0,.617-1.4" transform="translate(-196.953 -197.038)" fill="#fe502d"/>
        <path id="Trazado_180146" data-name="Trazado 180146" d="M116.048,146.018c0,1.491-.02,2.983.011,4.473.011.5-.127.643-.631.639q-4.166-.036-8.333,0c-.489,0-.65-.121-.646-.63q.033-4.561,0-9.122c0-.5.136-.643.637-.639q4.166.034,8.333,0c.49,0,.649.126.639.63-.031,1.549-.012,3.1-.012,4.648" transform="translate(-81.45 -107.686)" fill="#ffca00"/>
        <path id="Trazado_180147" data-name="Trazado 180147" d="M227.387,145.966c0,1.52-.016,3.041.01,4.561.008.456-.124.6-.589.6q-4.21-.029-8.421,0c-.448,0-.6-.107-.6-.581q.031-4.6,0-9.21c0-.454.112-.6.582-.6,2.807.021,5.614.025,8.42,0,.547-.005.609.22.6.672-.022,1.52-.008,3.041-.008,4.561" transform="translate(-166.641 -107.681)" fill="#ffca00"/>
        <path id="Trazado_180148" data-name="Trazado 180148" d="M106.459,263.318c0-1.491.02-2.983-.011-4.473-.011-.506.151-.636.644-.632q4.166.033,8.333,0c.5,0,.637.138.633.636q-.034,4.561,0,9.122c0,.5-.143.636-.636.632q-4.166-.033-8.333,0c-.5,0-.649-.136-.64-.636.03-1.549.011-3.1.011-4.649" transform="translate(-81.448 -197.57)" fill="#ffca00"/>
        <path id="Trazado_180149" data-name="Trazado 180149" d="M116.044,204.941c0,1.492-.017,2.985.01,4.477.009.485-.117.658-.631.653q-4.17-.035-8.34,0c-.507,0-.642-.163-.639-.65q.027-4.477,0-8.954c0-.449.122-.611.591-.608q4.214.028,8.428,0c.47,0,.6.154.588.605-.024,1.492-.009,2.984-.009,4.477" transform="translate(-81.446 -152.921)" fill="#2d54fe"/>
        <path id="Trazado_180150" data-name="Trazado 180150" d="M227.383,204.971c0,1.462-.019,2.924.01,4.385.01.5-.073.718-.656.711-2.777-.033-5.555-.028-8.333,0-.519,0-.622-.171-.619-.65q.03-4.473,0-8.946c0-.519.174-.622.65-.619q4.166.03,8.333,0c.514,0,.635.169.626.65-.027,1.491-.01,2.982-.01,4.473" transform="translate(-166.637 -152.914)" fill="#ffca00"/>
        <path id="Trazado_180151" data-name="Trazado 180151" d="M60.394,145.941c0,1.523-.022,3.046.012,4.568.012.51-.155.628-.64.624q-4.172-.032-8.345,0c-.461,0-.587-.126-.584-.585q.03-4.612,0-9.224c0-.468.137-.582.589-.579q4.172.029,8.345,0c.492,0,.646.125.635.629-.033,1.522-.012,3.045-.012,4.568" transform="translate(-38.898 -107.69)" fill="#ffca00"/>
        <path id="Trazado_180152" data-name="Trazado 180152" d="M162.244,145.866c0-1.492.017-2.985-.01-4.477-.008-.467.075-.659.607-.654,2.78.027,5.56.02,8.339.005.422,0,.613.063.609.561q-.037,4.608,0,9.217c0,.53-.19.609-.653.606-2.75-.019-5.5-.028-8.252.006-.581.007-.661-.2-.651-.7.03-1.521.011-3.043.011-4.564" transform="translate(-124.132 -107.683)" fill="#ffca00"/>
        <path id="Trazado_180153" data-name="Trazado 180153" d="M273.585,145.9c0-1.523.017-3.046-.01-4.568-.009-.463.129-.589.588-.586q4.216.03,8.433,0c.413,0,.548.1.545.533q-.026,4.655,0,9.311c0,.419-.112.544-.537.541-2.811-.018-5.622-.025-8.433,0-.549.006-.6-.219-.594-.669.023-1.522.009-3.045.009-4.568" transform="translate(-209.325 -107.693)" fill="#ffca00"/>
        <path id="Trazado_180154" data-name="Trazado 180154" d="M60.393,263.414c0,1.493-.02,2.987.011,4.48.011.511-.085.7-.658.7q-4.128-.05-8.257,0c-.578.007-.658-.189-.654-.7q.034-4.48,0-8.96c0-.535.081-.752.7-.743q4.084.057,8.169,0c.6-.008.717.195.7.741-.034,1.492-.012,2.986-.012,4.48" transform="translate(-38.897 -197.556)" fill="#ffca00"/>
        <path id="Trazado_180155" data-name="Trazado 180155" d="M171.781,263.41c0,1.522-.02,3.043.012,4.564.01.5-.132.635-.629.632q-4.17-.035-8.339,0c-.461,0-.589-.122-.586-.585q.03-4.608,0-9.217c0-.46.12-.59.584-.587q4.17.032,8.339,0c.495,0,.642.131.631.629-.032,1.521-.012,3.043-.012,4.564" transform="translate(-124.136 -197.574)" fill="#ffca00"/>
        <path id="Trazado_180156" data-name="Trazado 180156" d="M60.4,205.011c0,1.464-.014,2.928.009,4.392.007.45-.045.675-.594.669-2.811-.028-5.622-.022-8.433,0-.425,0-.539-.122-.537-.541q.025-4.568,0-9.136c0-.43.132-.535.545-.532q4.217.025,8.433,0c.459,0,.6.123.588.586-.028,1.522-.01,3.045-.01,4.567" transform="translate(-38.902 -152.921)" fill="#ffca00"/>
        <path id="Trazado_180157" data-name="Trazado 180157" d="M171.785,205.007c0,1.492-.018,2.985.011,4.477.009.462-.124.589-.586.585q-4.213-.032-8.427,0c-.422,0-.542-.12-.539-.54q.025-4.564,0-9.129c0-.422.119-.542.54-.54q4.214.026,8.427,0c.463,0,.594.124.585.586-.028,1.521-.011,3.043-.011,4.564" transform="translate(-124.14 -152.92)" fill="#ffca00"/>
        <path id="Trazado_180158" data-name="Trazado 180158" d="M273.579,204.884c0-1.49.012-2.981-.008-4.471-.005-.4.078-.559.526-.556q4.252.031,8.5,0c.427,0,.535.128.533.542q-.025,4.471,0,8.942c0,.405-.1.523-.524.558-2.8.229-5.605.131-8.408.169-.49.007-.646-.122-.635-.626.033-1.519.012-3.039.012-4.558" transform="translate(-209.319 -152.92)" fill="#ffca00"/>
        <path id="Trazado_180159" data-name="Trazado 180159" d="M217.772,263.311c0-1.4.038-2.81-.016-4.212-.027-.694.106-.949.88-.933,2.632.056,5.266.04,7.9.007.62-.008.848.1.853.794a3.921,3.921,0,0,1-.8,2.575,14.24,14.24,0,0,0-2.692,6.3c-.1.593-.338.741-.9.727-1.491-.038-2.985-.047-4.475,0-.64.022-.773-.19-.756-.786.043-1.491.014-2.983.014-4.475" transform="translate(-166.613 -197.535)" fill="#ffca00"/>
        <path id="Trazado_180160" data-name="Trazado 180160" d="M95.561,20.4c0,1.113.012,2.226,0,3.338a1.783,1.783,0,0,1-1.72,1.934,1.761,1.761,0,0,1-1.758-1.893q-.025-3.338,0-6.677a1.752,1.752,0,1,1,3.48.047c.012,1.083,0,2.167,0,3.25" transform="translate(-70.446 -11.606)" fill="#c6effb"/>
        <path id="Trazado_180161" data-name="Trazado 180161" d="M261.677,20.509c0,1.083.013,2.167,0,3.25a1.747,1.747,0,1,1-3.477,0q-.023-3.338,0-6.677a1.747,1.747,0,1,1,3.477,0c.017,1.142,0,2.284,0,3.426" transform="translate(-197.549 -11.607)" fill="#c6effb"/>
        <path id="Trazado_180162" data-name="Trazado 180162" d="M147.344,340.072a1.738,1.738,0,0,1,1.716-1.731,1.753,1.753,0,1,1,.043,3.505,1.738,1.738,0,0,1-1.759-1.775" transform="translate(-112.74 -258.881)" fill="#010101"/>
        <path id="Trazado_180163" data-name="Trazado 180163" d="M29.823,91.683c.253-1.157.822-1.732,1.738-1.756.944-.024,1.566.573,1.827,1.756-.264,1.18-.883,1.773-1.826,1.749-.913-.023-1.482-.6-1.739-1.749" transform="translate(-22.819 -68.807)" fill="#010101"/>
        <path id="Trazado_180164" data-name="Trazado 180164" d="M302.026,294.267a1.921,1.921,0,0,1-.617,1.4c-2.153,2.154-4.3,4.317-6.463,6.457a1.719,1.719,0,0,1-2.7,0q-1.763-1.714-3.477-3.479a1.691,1.691,0,0,1-.093-2.505,1.727,1.727,0,0,1,2.575.041c.641.6,1.272,1.214,1.859,1.867.368.409.59.389.969,0,1.593-1.636,3.221-3.239,4.837-4.853a1.74,1.74,0,0,1,2.079-.447,1.684,1.684,0,0,1,1.032,1.517" transform="translate(-220.488 -223.865)" fill="#010101"/>
      </g>
    </g>
  </g>
</svg>
