<svg id="Grupo_118289" data-name="Grupo 118289" xmlns="http://www.w3.org/2000/svg" xmlns:xlink="http://www.w3.org/1999/xlink" width="70.001" height="70" viewBox="0 0 70.001 70">
  <defs>
    <clipPath id="clip-path">
      <rect id="Rectángulo_36908" data-name="Rectángulo 36908" width="70.001" height="70" fill="none"/>
    </clipPath>
  </defs>
  <g id="Grupo_118288" data-name="Grupo 118288" clip-path="url(#clip-path)">
    <path id="Trazado_180258" data-name="Trazado 180258" d="M0,53.252c.206-.083.178-.3.247-.454A3.284,3.284,0,0,1,3.4,50.682q6.767-.045,13.534,0a3.307,3.307,0,0,1,3.345,2.983A13.483,13.483,0,0,1,20.244,57c-.081.607-.683,1.074-.671,1.591s.6.985.671,1.593a13.716,13.716,0,0,1-.01,3.54c-.054.377-.019.5.4.5q3.076-.033,6.152,0c.444,0,.452-.152.389-.515a13.518,13.518,0,0,1-.049-3.269,3.325,3.325,0,0,1,1.2-2.212,16.513,16.513,0,0,1-3.859-2.572,15.892,15.892,0,0,1-5.25-13.287,15.71,15.71,0,0,1,4.862-10.594c1.526-1.5,3.018-3.04,4.556-4.531a.772.772,0,0,0,.193-1.089c-1.328-2.586-2.611-5.2-3.928-7.787a.833.833,0,0,1,.068-.983,8.857,8.857,0,0,1,8.139-3.959c.32.012.421.176.537.411.468.95.948,1.893,1.477,2.943.8-1.237,1.624-2.352,2.278-3.559a1.654,1.654,0,0,1,1.853-.917,12.646,12.646,0,0,1,7.052,2.8c.376.288.153.5.032.742-1.7,3.414-3.4,6.832-5.126,10.23a.838.838,0,0,0,.178,1.2c1,.93,1.953,1.913,2.905,2.893.252.259.4.254.636-.011a3.616,3.616,0,0,1,4.545-1.024,1.629,1.629,0,0,0,1.977-.907,4.426,4.426,0,0,1,6.4-1.762,3.469,3.469,0,0,1,1.253,1.581,1.647,1.647,0,0,0,2.316.992,3.429,3.429,0,0,1,3.951.787c.212.207.422.415.629.627a3.442,3.442,0,0,1,.81,3.95,1.65,1.65,0,0,0,.954,2.318A3.441,3.441,0,0,1,70,40.079c0,.319.008.638,0,.957a3.425,3.425,0,0,1-2.17,3.261,1.654,1.654,0,0,0-1,2.351,3.46,3.46,0,0,1-.771,3.9,4.241,4.241,0,0,1-3.246,1.759,4.035,4.035,0,0,1-1.39-.3,1.651,1.651,0,0,0-2.283.932,3.4,3.4,0,0,1-3.408,2.244,8.914,8.914,0,0,1-1.635-.061,3.361,3.361,0,0,1-2.561-2.13,1.711,1.711,0,0,0-2.321-1,2.35,2.35,0,0,0-1.339,1.023,17.962,17.962,0,0,1-4.56,4.454c.233,0,.465,0,.7,0a3.309,3.309,0,0,1,3.36,2.884,15.14,15.14,0,0,1,.018,3.2c-.048.7-.752,1.273-.7,1.844s.694,1.127.7,1.8c0,1.612.426,3.3-.692,4.749-.16.208-.027.332.078.475a3.549,3.549,0,0,1,.661,2.316,13.211,13.211,0,0,1-.095,2.588,3.152,3.152,0,0,1-2.638,2.6c-.048.009-.084.082-.125.125H2.6A4.463,4.463,0,0,1,0,77.45V73.486c.258-.41.514-.821.774-1.229a.222.222,0,0,0-.04-.3A8.836,8.836,0,0,1,0,70.614V66.787c.327-.371.377-.9.738-1.257.084-.082.136-.193.033-.3C.4,64.859.324,64.315,0,63.916V59.951c.257-.414.514-.829.773-1.242a.214.214,0,0,0,0-.25Q.385,57.839,0,57.217V53.252M35.045,28.1c-1.161,0-2.323.021-3.484-.011a1.32,1.32,0,0,0-1.065.452c-1.5,1.528-2.987,3.069-4.54,4.54a14.106,14.106,0,0,0-4.375,12.633A13.547,13.547,0,0,0,37.827,57.142a12.917,12.917,0,0,0,10.1-9.346c1.5-5.138.6-9.933-3.165-13.949-1.744-1.858-3.6-3.614-5.389-5.429a1.051,1.051,0,0,0-.844-.322c-1.161.016-2.322.006-3.484.006M49.774,49.51a4.211,4.211,0,0,1,3.908,2.72c.337.89,1.218.716,1.961.723a1.26,1.26,0,0,0,1.388-.873,3.981,3.981,0,0,1,5.238-2.18,1.207,1.207,0,0,0,1.546-.314q.284-.3.58-.58a1.226,1.226,0,0,0,.3-1.551,3.974,3.974,0,0,1,2.141-5.2,1.213,1.213,0,0,0,.9-1.3c0-.3,0-.592,0-.888a1.3,1.3,0,0,0-.9-1.3,3.839,3.839,0,0,1-2.149-5.125,1.359,1.359,0,0,0-.339-1.668c-.184-.17-.356-.352-.532-.53a1.211,1.211,0,0,0-1.547-.309,3.97,3.97,0,0,1-5.234-2.178,1.174,1.174,0,0,0-1.252-.855c-.319,0-.638,0-.957,0a1.259,1.259,0,0,0-1.216.825,3.864,3.864,0,0,1-5.264,2.19,1.712,1.712,0,0,0-2.014.85.235.235,0,0,0,.061.3,17.024,17.024,0,0,1,2.582,3.509,7.913,7.913,0,0,1,13.188,8.695,7.719,7.719,0,0,1-4.475,3.585,7.854,7.854,0,0,1-7.152-1.237,20.46,20.46,0,0,1-.756,2.7M34.939,21.257c-.267-.142-.3-.384-.4-.579-.758-1.5-1.509-3.006-2.264-4.508-.117-.233-.17-.5-.566-.454a6.564,6.564,0,0,0-4.136,2.028.487.487,0,0,0-.106.654Q29.252,21.926,31,25.471a.563.563,0,0,0,.58.361q3.415-.013,6.831,0a.564.564,0,0,0,.579-.362q2.243-4.517,4.513-9.021c.165-.326.105-.477-.193-.642a11.689,11.689,0,0,0-3.126-1.13,1.178,1.178,0,0,0-1.458.679c-1.23,1.986-2.52,3.935-3.79,5.9M54.8,46.15a5.782,5.782,0,0,0,6.105-4.882,5.632,5.632,0,0,0-10.539-3.423,1.245,1.245,0,0,0-.185,1.027,15.236,15.236,0,0,1,.625,4.574,1.163,1.163,0,0,0,.339.851A5.427,5.427,0,0,0,54.8,46.15M23.7,71.007c2.187,0,4.374.005,6.561,0,.922,0,1.321-.415,1.333-1.339.007-.524,0-1.048,0-1.572,0-1.3-.312-1.577-1.61-1.61-.514-.013-.645.127-.637.638.025,1.625,0,1.6-1.618,1.629-.565.011-.67-.178-.662-.693.026-1.57.005-1.55-1.587-1.572-.49-.007-.66.091-.652.625.027,1.648,0,1.629-1.675,1.638-.483,0-.6-.138-.6-.611.012-1.684-.007-1.666-1.713-1.652-.436,0-.519.141-.522.544-.016,1.788-.028,1.778-1.805,1.714-.344-.012-.493-.089-.469-.459.029-.454.013-.911,0-1.366,0-.144.064-.313-.135-.411a1.473,1.473,0,0,0-2.1,1.237c-.016.569,0,1.139,0,1.709,0,1.207.344,1.554,1.531,1.555q3.178,0,6.356,0M10.16,57.465c2.164,0,4.328.005,6.492,0,1.005,0,1.4-.408,1.4-1.418,0-.478,0-.957,0-1.435,0-1.383-.306-1.661-1.688-1.667-.461,0-.56.149-.561.58,0,1.691-.018,1.674-1.711,1.672-.451,0-.577-.128-.567-.572.011-.537.255-1.271-.1-1.563-.335-.272-1.042-.062-1.58-.114-.48-.046-.551.168-.552.586,0,1.684-.017,1.664-1.722,1.663-.471,0-.551-.162-.551-.584,0-1.7-.013-1.684-1.7-1.667-.406,0-.554.092-.55.527,0,.556.269,1.319-.131,1.617-.371.277-1.094.067-1.661.1-.345.02-.5-.075-.47-.449.031-.453.013-.911,0-1.366,0-.143.064-.31-.141-.407a1.47,1.47,0,0,0-2.1,1.232c-.02.569-.007,1.139,0,1.708.005,1.2.357,1.557,1.539,1.558q3.178,0,6.356,0m0,6.748c2.21,0,4.419-.005,6.629,0,.656,0,1.171-.259,1.234-.917a15.3,15.3,0,0,0,0-2.661c-.058-.727-.8-1.072-1.851-.931-.7.094-.32.657-.332.975-.051,1.3-.022,1.278-1.553,1.316-.575.014-.783-.094-.762-.731.053-1.577.015-1.557-1.583-1.578-.5-.007-.66.115-.654.639.019,1.67,0,1.645-1.644,1.671-.534.009-.633-.161-.627-.654.021-1.7,0-1.68-1.716-1.656-.439.006-.551.155-.525.557.028.431-.005.866.01,1.3.011.307-.077.428-.417.449-1.842.113-1.841.124-1.854-1.662,0-.114,0-.228,0-.342a.269.269,0,0,0-.14-.278,1.527,1.527,0,0,0-2.1,1.183c-.03.636-.014,1.275-.007,1.913.013,1.031.378,1.4,1.4,1.4q3.246.007,6.492,0m27.05,0c2.209,0,4.418-.008,6.627,0,.616,0,1.152-.188,1.252-.81a10.118,10.118,0,0,0,.011-2.86c-.085-.671-.848-.989-1.853-.839-.636.094-.305.613-.314.92-.039,1.359-.018,1.33-1.558,1.372-.594.016-.776-.123-.757-.743.048-1.559.013-1.53-1.532-1.57-.59-.015-.709.177-.7.726.033,1.578.009,1.559-1.588,1.583-.51.007-.761-.089-.69-.662a10.632,10.632,0,0,0,.01-1.229c0-.217,0-.415-.31-.4-.611.022-1.324-.152-1.8.11-.366.2-.078.968-.124,1.481a4.085,4.085,0,0,0,0,.41c0,.2-.1.289-.293.281-.633-.026-1.373.222-1.865-.1-.362-.239-.077-.978-.12-1.492-.011-.136,0-.273,0-.41a.262.262,0,0,0-.157-.267,1.491,1.491,0,0,0-2.071,1.278c-.012.615-.007,1.23,0,1.845.009,1.021.371,1.375,1.416,1.377q3.211.005,6.422,0M23.72,77.767c2.185,0,4.369,0,6.554,0,.637,0,1.207-.2,1.275-.868a14.587,14.587,0,0,0,0-2.792c-.061-.67-.856-1.006-1.839-.858-.688.1-.309.662-.322.983-.052,1.293-.022,1.267-1.56,1.305-.579.014-.781-.1-.761-.734.051-1.565.014-1.538-1.525-1.575-.582-.014-.716.172-.706.725.031,1.577.007,1.558-1.589,1.581-.509.007-.758-.088-.687-.659a10.653,10.653,0,0,0,.01-1.228c0-.218,0-.419-.309-.4-.61.03-1.33-.218-1.8.1-.377.26-.081.977-.129,1.489-.013.135,0,.273,0,.409,0,.152-.055.277-.23.272-.655-.019-1.389.207-1.937-.1-.328-.183-.069-.888-.106-1.357-.014-.181,0-.364-.005-.546a.256.256,0,0,0-.161-.263,1.5,1.5,0,0,0-2.071,1.283c-.014.569-.005,1.138,0,1.707,0,1.2.331,1.519,1.553,1.521q3.175,0,6.349,0M8.379,71.007q2.423,0,4.846,0c.239,0,.544.07.432-.361a16.66,16.66,0,0,1-.127-2.512c-.059-.55.387-1.279-.014-1.568-.375-.271-1.1-.035-1.664-.077-.463-.034-.561.143-.561.576,0,1.7-.018,1.684-1.7,1.682-.44,0-.59-.11-.574-.565.019-.537.246-1.252-.091-1.574-.365-.347-1.081-.061-1.641-.113-.373-.035-.535.085-.508.485.031.453,0,.91.01,1.364.009.3-.113.375-.4.4-1.858.153-1.857.161-1.872-1.637,0-.114,0-.228,0-.341a.239.239,0,0,0-.155-.26,1.465,1.465,0,0,0-2.09,1.318c-.013.591-.009,1.183,0,1.774.014,1.019.4,1.406,1.4,1.41,1.57.006,3.139,0,4.709,0m30.672,0c1.594,0,3.189.007,4.783,0a1.149,1.149,0,0,0,1.311-1.292c.011-.546,0-1.093,0-1.64,0-1.262-.318-1.554-1.565-1.587-.513-.014-.7.1-.686.658.035,1.607.006,1.585-1.636,1.6-.519.006-.649-.142-.642-.65.021-1.616,0-1.6-1.619-1.612-.463,0-.619.1-.615.591.012,1.73-.008,1.717-1.779,1.668-.392-.011-.5-.129-.5-.511,0-.56.264-1.31-.108-1.633-.391-.34-1.133-.058-1.718-.108-.442-.038-.567.072-.492.554a11.2,11.2,0,0,1,0,3.4c-.068.454.007.582.48.574,1.594-.027,3.189-.01,4.783-.011m.05,6.76h4.783c.643,0,1.168-.251,1.224-.927a16.774,16.774,0,0,0,0-2.66c-.056-.72-.807-1.07-1.851-.927-.7.1-.239.65-.328.981a3.765,3.765,0,0,0-.018.952c0,.165,0,.341-.231.335-.656-.018-1.391.208-1.939-.1-.331-.185-.071-.89-.109-1.36a4.3,4.3,0,0,1,0-.478c.007-.217-.069-.345-.311-.337-.611.021-1.324-.151-1.8.111-.363.2-.078.968-.122,1.481a3.833,3.833,0,0,0,0,.41c0,.2-.1.282-.3.276a4.705,4.705,0,0,1-1.868-.113c-.349-.18-.073-.968-.116-1.483a1.376,1.376,0,0,1,0-.273c.041-.344-.135-.425-.444-.414-.5.018-1,.024-1.5,0-.377-.02-.454.1-.4.471a11.634,11.634,0,0,1,.009,3.534c-.068.45.043.536.466.531,1.617-.021,3.234-.009,4.852-.009m-30.749,0c1.615,0,3.23,0,4.845,0,.214,0,.57.117.46-.335a19.159,19.159,0,0,1-.127-2.649c-.054-.512.388-1.191.01-1.452s-1.055-.042-1.6-.09c-.505-.045-.661.112-.656.635.018,1.665-.006,1.641-1.64,1.667-.522.008-.639-.142-.632-.644.022-1.7,0-1.7-1.706-1.65a1.029,1.029,0,0,1-.136,0c-.3-.031-.4.116-.394.4.012.5,0,1,0,1.5,0,.239-.06.351-.337.385-1.835.225-1.922.159-1.932-1.644a2.74,2.74,0,0,0-.008-.409.329.329,0,0,0-.125-.216,1.55,1.55,0,0,0-2.1,1.094c-.043.68-.025,1.364-.015,2.046.015.977.391,1.351,1.376,1.358,1.57.01,3.139,0,4.709,0" transform="translate(0 -10.048)" fill="#040302"/>
    <path id="Trazado_180259" data-name="Trazado 180259" d="M0,12.034,7.822.873c.819-1.168,1.6-1.165,2.43.015q3.7,5.28,7.395,10.56a1.326,1.326,0,0,1,.3,1.444,1.3,1.3,0,0,1-1.382.651c-.8-.017-1.6.027-2.39-.016-.5-.027-.646.092-.642.621.027,3.825.014,7.649.014,11.474,0,2.094-.035,4.19.019,6.283.018.7-.171.945-.846.823a.955.955,0,0,0-.269.03.965.965,0,0,0-.268-.032c-.7.115-.9-.145-.9-.87.031-6.328.017-12.657.018-18.986,0-1.288.318-1.6,1.624-1.6.558,0,1.116,0,1.834,0L9.031,3.089,3.308,11.27c.832,0,1.507-.018,2.181,0A1.167,1.167,0,0,1,6.78,12.538c.013.227,0,.455,0,.683q.007,11.985.014,23.971a12.319,12.319,0,0,1-1.969.045c-.226.015-.339-.059-.319-.3.013-.158,0-.318,0-.477,0-7.415-.008-14.829.015-22.244,0-.583-.153-.727-.709-.687-.724.052-1.458-.027-2.182.024A1.743,1.743,0,0,1,0,12.854v-.82" transform="translate(0 0)" fill="#040302"/>
    <path id="Trazado_180260" data-name="Trazado 180260" d="M21.6,51.009q-.007-11.985-.014-23.971c0-.228.009-.456,0-.683a1.167,1.167,0,0,0-1.291-1.264c-.674-.023-1.349,0-2.181,0l5.723-8.18,5.728,8.178c-.718,0-1.276,0-1.834,0-1.306,0-1.624.314-1.624,1.6,0,6.329.012,12.657-.019,18.986,0,.724.2.985.9.87a.965.965,0,0,1,.268.032c-.006,1.3-.023,2.6-.012,3.894,0,.381-.06.584-.515.575-1.707-.031-3.415-.026-5.122-.035" transform="translate(-14.799 -13.818)" fill="#2d54fe"/>
    <path id="Trazado_180261" data-name="Trazado 180261" d="M292.109,274c-2.437,0-4.874-.011-7.311.01-.439,0-.573-.1-.572-.56,0-1.734-.017-1.734,1.712-1.734,4.487,0,8.974.009,13.461-.012.5,0,.658.107.652.631-.02,1.664,0,1.664-1.655,1.664Z" transform="translate(-232.298 -222.062)" fill="#040302"/>
    <path id="Trazado_180262" data-name="Trazado 180262" d="M292.178,323.432c-2.46,0-4.919-.01-7.379.01-.431,0-.576-.089-.576-.553,0-1.738-.017-1.738,1.711-1.738,4.487,0,8.973.008,13.46-.012.5,0,.662.1.656.63-.02,1.662,0,1.663-1.654,1.663Z" transform="translate(-232.297 -262.467)" fill="#040302"/>
    <path id="Trazado_180263" data-name="Trazado 180263" d="M289.852,298.713c-1.685,0-3.369-.014-5.053.01-.434.006-.575-.1-.574-.555,0-1.737-.017-1.737,1.709-1.737,2.982,0,5.964.012,8.946-.012.5,0,.658.1.651.63-.021,1.664,0,1.665-1.65,1.665Z" transform="translate(-232.298 -242.263)" fill="#040302"/>
    <path id="Trazado_180264" data-name="Trazado 180264" d="M359.544,298.767c-1.125,0-1.125,0-1.125-1.137s0-1.146,1.12-1.146c1.137,0,1.137,0,1.137,1.141s0,1.142-1.132,1.142" transform="translate(-292.937 -242.318)" fill="#040302"/>
    <path id="Trazado_180265" data-name="Trazado 180265" d="M130.983,98.773c1.161,0,2.323.01,3.484-.006a1.051,1.051,0,0,1,.844.322c1.791,1.815,3.645,3.571,5.389,5.429,3.769,4.016,4.663,8.811,3.165,13.949a12.917,12.917,0,0,1-10.1,9.346,13.547,13.547,0,0,1-16.245-11.424,14.107,14.107,0,0,1,4.375-12.633c1.553-1.471,3.041-3.013,4.54-4.54a1.32,1.32,0,0,1,1.065-.452c1.16.032,2.322.011,3.483.011m-.025,4.51c-1.14,0-1.14,0-1.14,1.137a4.735,4.735,0,0,0,0,.546c.049.415-.077.587-.539.635a4.5,4.5,0,0,0-.087,8.921,23.239,23.239,0,0,0,2.8.071,2.249,2.249,0,1,1,.125,4.5,20.213,20.213,0,0,1-2.39,0,2.284,2.284,0,0,1-2.174-2c-.075-.454.235-1.092-.184-1.321-.388-.211-.978-.053-1.478-.057-.091,0-.183.007-.273,0-.237-.018-.291.1-.32.321a4.7,4.7,0,0,0,2.992,5.063c.5.189,1.234-.018,1.469.449a3.639,3.639,0,0,1,.054,1.616c-.012.346.094.463.459.478,1.767.073,1.781.085,1.773-1.676,0-.445.085-.607.577-.659a4.5,4.5,0,0,0,.294-8.889,19.1,19.1,0,0,0-3.066-.1,2.255,2.255,0,1,1-.067-4.508c.774-.027,1.549-.028,2.322,0a1.917,1.917,0,0,1,1.962,1.322c.243.966.789,1.035,1.553.946a1.233,1.233,0,0,1,.341,0c.561.095.641-.184.581-.664a4.441,4.441,0,0,0-3.7-3.771c-.749-.078-.858-.375-.783-.972a2.23,2.23,0,0,0,0-.273c0-1.113,0-1.113-1.1-1.113" transform="translate(-95.937 -80.719)" fill="#d3d3d3"/>
    <path id="Trazado_180266" data-name="Trazado 180266" d="M256.888,120.228a20.452,20.452,0,0,0,.756-2.7,7.854,7.854,0,0,0,7.152,1.237,7.717,7.717,0,0,0,4.475-3.585,7.913,7.913,0,0,0-13.188-8.694,17.024,17.024,0,0,0-2.582-3.509.235.235,0,0,1-.061-.3,1.712,1.712,0,0,1,2.014-.85,3.864,3.864,0,0,0,5.264-2.19,1.259,1.259,0,0,1,1.216-.825c.319,0,.638,0,.957,0a1.174,1.174,0,0,1,1.252.855,3.969,3.969,0,0,0,5.234,2.178,1.211,1.211,0,0,1,1.547.309c.176.178.348.361.532.53a1.359,1.359,0,0,1,.339,1.668,3.839,3.839,0,0,0,2.149,5.126,1.3,1.3,0,0,1,.9,1.3c0,.3,0,.592,0,.888a1.213,1.213,0,0,1-.9,1.3,3.974,3.974,0,0,0-2.141,5.2,1.226,1.226,0,0,1-.3,1.551q-.3.284-.58.58a1.207,1.207,0,0,1-1.546.314,3.981,3.981,0,0,0-5.238,2.18,1.26,1.26,0,0,1-1.388.873c-.742-.007-1.623.167-1.961-.723a4.211,4.211,0,0,0-3.908-2.72" transform="translate(-207.114 -80.766)" fill="#2d54fe"/>
    <path id="Trazado_180267" data-name="Trazado 180267" d="M157.441,31.692c1.27-1.967,2.56-3.916,3.79-5.9a1.178,1.178,0,0,1,1.458-.678,11.684,11.684,0,0,1,3.126,1.13c.3.165.358.317.193.643q-2.275,4.5-4.513,9.021a.564.564,0,0,1-.579.362q-3.415-.013-6.831,0a.563.563,0,0,1-.579-.361q-1.755-3.543-3.539-7.071a.487.487,0,0,1,.106-.654,6.564,6.564,0,0,1,4.135-2.028c.4-.045.448.22.566.454.755,1.5,1.506,3.007,2.264,4.508.1.195.136.437.4.578" transform="translate(-122.502 -20.482)" fill="#d3d3d3"/>
    <path id="Trazado_180268" data-name="Trazado 180268" d="M279.082,147.187a5.426,5.426,0,0,1-3.656-1.852,1.163,1.163,0,0,1-.339-.851,15.229,15.229,0,0,0-.625-4.574,1.247,1.247,0,0,1,.185-1.027,5.632,5.632,0,0,1,10.54,3.423,5.782,5.782,0,0,1-6.105,4.882m3.89-5.616a3.375,3.375,0,1,0-3.39,3.378,3.382,3.382,0,0,0,3.39-3.378" transform="translate(-224.279 -111.084)" fill="#ffca00"/>
    <path id="Trazado_180269" data-name="Trazado 180269" d="M94.439,312.892q-3.178,0-6.356,0c-1.187,0-1.527-.347-1.531-1.555,0-.569-.013-1.139,0-1.708a1.472,1.472,0,0,1,2.1-1.236c.2.1.132.267.135.411.009.455.026.913,0,1.366-.024.37.125.447.469.459,1.777.063,1.79.073,1.805-1.715,0-.4.086-.541.522-.544,1.706-.014,1.724-.032,1.713,1.652,0,.473.118.613.6.611,1.675-.009,1.7.011,1.675-1.638-.009-.534.161-.631.651-.625,1.592.022,1.613,0,1.587,1.572-.009.515.1.7.662.693,1.619-.031,1.643,0,1.618-1.629-.008-.511.122-.652.637-.638,1.3.033,1.608.312,1.61,1.61,0,.524.006,1.048,0,1.572-.013.925-.411,1.336-1.333,1.339-2.187.008-4.374,0-6.561,0" transform="translate(-70.734 -251.933)" fill="#ffca00"/>
    <path id="Trazado_180270" data-name="Trazado 180270" d="M20.258,238.778q-3.178,0-6.356,0c-1.183,0-1.534-.359-1.539-1.558,0-.569-.016-1.14,0-1.708a1.47,1.47,0,0,1,2.1-1.232c.2.1.138.264.141.407.01.455.027.913,0,1.366-.025.374.124.469.47.449.567-.033,1.289.176,1.661-.1.4-.3.136-1.061.131-1.617,0-.435.145-.523.55-.527,1.687-.016,1.7-.03,1.7,1.667,0,.422.08.584.551.584,1.706,0,1.719.021,1.722-1.663,0-.419.072-.633.552-.586.538.052,1.245-.158,1.58.113.36.292.116,1.026.1,1.563-.009.444.117.572.567.572,1.693,0,1.707.019,1.711-1.672,0-.432.1-.583.561-.58,1.382.007,1.687.284,1.688,1.667,0,.478,0,.957,0,1.435-.008,1.01-.4,1.414-1.4,1.418-2.164.008-4.328,0-6.492,0" transform="translate(-10.098 -191.36)" fill="#ffca00"/>
    <path id="Trazado_180271" data-name="Trazado 180271" d="M20.233,275.768q-3.246,0-6.492,0c-1.02,0-1.386-.371-1.4-1.4-.008-.638-.024-1.277.007-1.913a1.527,1.527,0,0,1,2.1-1.183.268.268,0,0,1,.14.278c0,.114,0,.228,0,.342.013,1.785.012,1.774,1.854,1.662.341-.021.429-.142.417-.449-.016-.432.018-.867-.01-1.3-.026-.4.086-.551.525-.557,1.717-.025,1.737-.042,1.716,1.656-.006.493.092.662.627.654,1.639-.026,1.663,0,1.644-1.671-.006-.524.151-.646.654-.639,1.6.021,1.635,0,1.583,1.578-.021.637.187.745.762.731,1.531-.038,1.5-.013,1.554-1.316.012-.318-.371-.881.332-.975,1.05-.141,1.793.2,1.851.931a15.3,15.3,0,0,1,0,2.661c-.063.658-.578.919-1.234.917-2.21-.009-4.419,0-6.629,0" transform="translate(-10.078 -221.603)" fill="#ffca00"/>
    <path id="Trazado_180272" data-name="Trazado 180272" d="M168.555,275.781q-3.211,0-6.422,0c-1.045,0-1.406-.356-1.416-1.377-.006-.615-.01-1.23,0-1.845a1.491,1.491,0,0,1,2.071-1.278.261.261,0,0,1,.157.267c0,.137-.006.274,0,.41.042.514-.243,1.253.12,1.492.492.324,1.232.077,1.865.1.2.008.3-.082.293-.281,0-.137-.009-.274,0-.41.045-.513-.242-1.279.124-1.48.475-.262,1.188-.087,1.8-.11.307-.011.311.186.31.4a10.589,10.589,0,0,1-.01,1.229c-.071.573.18.67.69.662,1.6-.023,1.621,0,1.588-1.583-.012-.549.107-.742.7-.726,1.545.04,1.58.011,1.533,1.57-.019.62.163.759.757.743,1.541-.042,1.519-.013,1.558-1.372.009-.307-.322-.826.314-.92,1-.149,1.768.168,1.853.839a10.112,10.112,0,0,1-.011,2.86c-.1.622-.636.813-1.252.81-2.209-.013-4.418,0-6.627,0" transform="translate(-131.349 -221.616)" fill="#ffca00"/>
    <path id="Trazado_180273" data-name="Trazado 180273" d="M94.459,349.941q-3.175,0-6.349,0c-1.222,0-1.548-.324-1.553-1.521,0-.569-.011-1.138,0-1.707a1.5,1.5,0,0,1,2.071-1.283.256.256,0,0,1,.161.263c0,.182-.009.365.005.546.037.469-.221,1.175.106,1.357.548.306,1.282.08,1.937.1.174,0,.227-.12.23-.272,0-.137-.008-.274,0-.409.048-.512-.248-1.229.13-1.489.466-.321,1.187-.073,1.8-.1.3-.015.311.186.309.4a10.613,10.613,0,0,1-.01,1.228c-.071.572.178.667.687.659,1.6-.024,1.62,0,1.59-1.581-.011-.553.123-.739.706-.725,1.538.037,1.575.009,1.525,1.575-.02.632.181.748.761.734,1.537-.038,1.508-.012,1.56-1.3.013-.32-.366-.879.322-.983.983-.148,1.778.188,1.839.858a14.586,14.586,0,0,1,0,2.792c-.068.663-.637.87-1.275.868-2.185-.007-4.369,0-6.554,0" transform="translate(-70.739 -282.222)" fill="#ffca00"/>
    <path id="Trazado_180274" data-name="Trazado 180274" d="M18.48,312.927c-1.57,0-3.139,0-4.709,0-1.006,0-1.39-.391-1.4-1.41-.008-.591-.012-1.183,0-1.774a1.465,1.465,0,0,1,2.09-1.318.239.239,0,0,1,.154.26c0,.114,0,.227,0,.341.014,1.8.014,1.79,1.872,1.637.287-.024.409-.1.4-.4-.014-.455.021-.911-.01-1.364-.027-.4.135-.52.508-.485.56.053,1.277-.234,1.641.113.337.321.11,1.036.091,1.573-.016.456.134.565.574.565,1.683,0,1.7.018,1.7-1.682,0-.433.1-.61.561-.576.566.042,1.288-.194,1.664.077.4.289-.045,1.019.014,1.568a16.682,16.682,0,0,0,.126,2.512c.112.431-.192.361-.431.361q-2.423,0-4.846,0" transform="translate(-10.102 -251.968)" fill="#ffca00"/>
    <path id="Trazado_180275" data-name="Trazado 180275" d="M190.1,313.183c-1.594,0-3.189-.017-4.783.011-.473.008-.548-.12-.48-.574a11.207,11.207,0,0,0,0-3.4c-.075-.482.05-.592.492-.554.585.05,1.327-.232,1.718.108.372.324.105,1.073.108,1.633,0,.382.109.5.5.511,1.77.049,1.791.062,1.779-1.668,0-.5.152-.6.615-.591,1.618.014,1.64,0,1.619,1.612-.007.508.123.657.642.65,1.643-.02,1.671,0,1.636-1.6-.012-.561.173-.672.686-.658,1.247.033,1.562.325,1.564,1.587,0,.547.009,1.093,0,1.64a1.148,1.148,0,0,1-1.311,1.292c-1.594.01-3.189,0-4.783,0" transform="translate(-151.051 -252.224)" fill="#ffca00"/>
    <path id="Trazado_180276" data-name="Trazado 180276" d="M190.109,350.278c-1.617,0-3.235-.012-4.852.009-.423.005-.533-.081-.466-.531a11.633,11.633,0,0,0-.009-3.534c-.058-.368.019-.491.4-.471.5.026,1,.02,1.5,0,.309-.011.485.07.444.414a1.38,1.38,0,0,0,0,.273c.042.515-.234,1.3.116,1.483a4.706,4.706,0,0,0,1.868.113c.193.005.3-.072.3-.276a3.787,3.787,0,0,1,0-.41c.044-.513-.241-1.28.122-1.481.474-.263,1.188-.091,1.8-.112.242-.008.318.119.311.337a4.407,4.407,0,0,0,0,.478c.038.47-.221,1.175.109,1.36.549.307,1.283.081,1.939.1.227.006.23-.17.231-.335a3.774,3.774,0,0,1,.018-.952c.089-.33-.374-.884.328-.981,1.044-.143,1.795.207,1.851.927a16.773,16.773,0,0,1,0,2.66c-.056.677-.581.927-1.224.927h-4.783" transform="translate(-151.009 -282.558)" fill="#ffca00"/>
    <path id="Trazado_180277" data-name="Trazado 180277" d="M18.427,349.93c-1.57,0-3.139.007-4.709,0-.985-.006-1.361-.381-1.376-1.357-.01-.682-.029-1.367.015-2.047a1.55,1.55,0,0,1,2.1-1.094.329.329,0,0,1,.125.216,2.74,2.74,0,0,1,.008.409c.011,1.8.1,1.868,1.932,1.644.277-.034.34-.146.337-.385-.006-.5.007-1,0-1.5-.007-.285.093-.432.394-.4a1.031,1.031,0,0,0,.136,0c1.708-.052,1.729-.052,1.706,1.65-.007.5.11.652.632.644,1.634-.026,1.657,0,1.64-1.667-.006-.524.151-.68.656-.635.541.048,1.222-.168,1.6.09s-.064.939-.01,1.452a19.163,19.163,0,0,0,.127,2.649c.111.452-.245.334-.46.335-1.615.008-3.23,0-4.845,0" transform="translate(-10.076 -282.21)" fill="#ffca00"/>
    <path id="Trazado_180278" data-name="Trazado 180278" d="M166.172,123.508c1.1,0,1.1,0,1.1,1.113a2.23,2.23,0,0,1,0,.273c-.075.6.035.894.783.972a4.441,4.441,0,0,1,3.7,3.771c.06.48-.02.759-.581.664a1.233,1.233,0,0,0-.341,0c-.764.089-1.309.019-1.553-.946a1.917,1.917,0,0,0-1.962-1.322c-.773-.029-1.549-.028-2.322,0a2.255,2.255,0,1,0,.067,4.508,19.1,19.1,0,0,1,3.066.1,4.5,4.5,0,0,1-.294,8.889c-.492.052-.579.214-.577.659.008,1.761-.007,1.749-1.773,1.676-.365-.015-.47-.132-.459-.478a3.639,3.639,0,0,0-.054-1.616c-.235-.467-.969-.26-1.469-.449a4.7,4.7,0,0,1-2.992-5.063c.029-.222.083-.34.32-.321.09.007.182,0,.273,0,.5,0,1.09-.155,1.478.057.419.228.109.867.184,1.321a2.284,2.284,0,0,0,2.174,2,20.21,20.21,0,0,0,2.39,0,2.249,2.249,0,1,0-.125-4.5,23.236,23.236,0,0,1-2.8-.071,4.5,4.5,0,0,1,.087-8.921c.462-.049.588-.22.539-.635a4.731,4.731,0,0,1,0-.546c0-1.137,0-1.137,1.14-1.137" transform="translate(-131.152 -100.943)" fill="#040302"/>
    <path id="Trazado_180279" data-name="Trazado 180279" d="M291.058,151.635a3.375,3.375,0,1,1-3.359-3.4,3.388,3.388,0,0,1,3.359,3.4m-3.4,1.1a1.136,1.136,0,0,0,1.16-1.084,1.128,1.128,0,0,0-2.255-.065,1.134,1.134,0,0,0,1.1,1.15" transform="translate(-232.365 -121.149)" fill="#040302"/>
  </g>
</svg>
