<svg id="Grupo_118463" data-name="Grupo 118463" xmlns="http://www.w3.org/2000/svg" xmlns:xlink="http://www.w3.org/1999/xlink" width="70" height="49.037" viewBox="0 0 70 49.037">
  <defs>
    <clipPath id="clip-path">
      <rect id="Rectángulo_36994" data-name="Rectángulo 36994" width="70" height="49.037" fill="none"/>
    </clipPath>
  </defs>
  <g id="Grupo_118463-2" data-name="Grupo 118463" clip-path="url(#clip-path)">
    <path id="Trazado_180728" data-name="Trazado 180728" d="M10.375,22.05a.836.836,0,0,1,1.2.334,3.059,3.059,0,0,0,3.276,1.461,31.876,31.876,0,0,1,3.337-.023c.082-.234-.1-.352-.2-.492q-4.3-6.609-8.6-13.217a.914.914,0,0,0-.953-.484c-2.514.2-3.328-.662-3.281-3.277.031-1.73.959-2.741,2.679-2.649,1.526.082,3.061.013,4.591.018a2.128,2.128,0,0,1,2.375,2.35c0,.51.019,1.021-.006,1.53A2.083,2.083,0,0,1,12.739,9.63c-.625.019-1.251,0-2,0,.548.848,1.055,1.632,1.563,2.415.315.486.654.957.944,1.457.208.358.384.52.662.08a3.8,3.8,0,0,1,4.078-1.765,20.354,20.354,0,0,0,2.989.018c.513-.009.986.067.994.682s-.45.724-.97.72c-1.438-.01-2.876.011-4.314-.012a1.076,1.076,0,0,0-.949.425c-.423.52-1.167.956-1.262,1.515s.608,1.132.969,1.692c1.406,2.179,2.833,4.343,4.24,6.522a.8.8,0,0,0,.762.451c4.314-.018,8.627-.011,12.944-.011.114-.233-.092-.339-.185-.472Q27.323,14.873,21.44,6.4a.948.948,0,0,0-.962-.5,9.429,9.429,0,0,1-1.321,0,2.04,2.04,0,0,1-1.983-2.015c-.02-.626-.023-1.253,0-1.878A2.019,2.019,0,0,1,19.183.018q3.409-.036,6.818,0a2.041,2.041,0,0,1,2.013,2,17.972,17.972,0,0,1,0,1.878A2.054,2.054,0,0,1,25.943,5.9c-.995.023-1.99,0-2.979,0-.123.245.077.359.172.5,1.515,2.191,3.043,4.373,4.549,6.569.249.363.439.517.72.065a3.7,3.7,0,0,1,4.01-1.756,14.472,14.472,0,0,0,2.224.014c.539-.008,1.112,0,1.1.717s-.6.685-1.131.682c-1.113-.007-2.227.016-3.34-.012a1.143,1.143,0,0,0-1.072.458c-.394.536-1.222.928-1.224,1.514,0,.534.645,1.073,1.014,1.6q2.476,3.567,4.954,7.133a.773.773,0,0,0,.7.44c3.524-.017,7.047-.01,10.568-.01.1-.244-.1-.353-.193-.493q-4.661-7.035-9.322-14.072a.906.906,0,0,0-.885-.492,5,5,0,0,1-1.658-.084,2.059,2.059,0,0,1-1.525-1.93c-.021-.6-.017-1.206,0-1.809a2.062,2.062,0,0,1,2.062-2.1c2.226-.035,4.453-.031,6.679,0a2.091,2.091,0,0,1,2.108,2.133c.015.533.011,1.067,0,1.6a2.12,2.12,0,0,1-2.187,2.2c-1.034.017-2.068,0-3.241,0l3.089,4.661c.549-.592,1.072-1.132,1.565-1.7a1.233,1.233,0,0,1,1.03-.45c1.438.02,2.876.016,4.314,0,.5,0,.917.132.925.69s-.386.718-.9.713c-1.275-.014-2.551.011-3.827-.014a1.017,1.017,0,0,0-.887.4c-.441.533-1.237,1.013-1.283,1.565s.642,1.164,1.023,1.74c1.521,2.3,3.053,4.588,4.565,6.891a1.014,1.014,0,0,0,.987.554c1.321-.043,2.644-.039,3.965,0,.488.014.669-.108.741-.614a8.374,8.374,0,0,1,12.207-6.1c.529.288.79.621.563,1.22-.46.368-.873.185-1.344-.038a6.687,6.687,0,0,0-7.549.812A6.579,6.579,0,0,0,54.849,26.2a6.973,6.973,0,1,0,13.516-3.432c-.128-.513-.2-.95.3-1.284.557-.068.836.189,1,.724a8.371,8.371,0,1,1-16.312,3.617c-.062-.435-.165-.633-.665-.619-1.39.039-2.783.03-4.174,0a.8.8,0,0,0-.771.435q-2.749,4.178-5.535,8.331c-.221.329-.175.494.05.815a3.352,3.352,0,0,0,3.521,1.582,17.3,17.3,0,0,1,2.362-.024c.5-.007.84.2.832.709s-.367.693-.856.69q-2.261-.013-4.522,0a1.056,1.056,0,0,1-.842-.4c-.512-.568-1.036-1.125-1.612-1.748l-3.1,4.662c1.127,0,2.114,0,3.1,0a2.141,2.141,0,0,1,2.33,2.336c0,.487.011.975,0,1.461a2.091,2.091,0,0,1-2.106,2.136c-2.2.03-4.407.027-6.61,0a2.088,2.088,0,0,1-2.136-2.17q-.013-.8,0-1.6a1.976,1.976,0,0,1,2.07-2.126c1.38.146,2.031-.5,2.71-1.55,2.828-4.375,5.738-8.7,8.618-13.038l.33-.5h-.688c-3.293,0-6.587.006-9.88-.008a.892.892,0,0,0-.848.434q-2.874,4.179-5.793,8.327c-.245.349-.184.525.053.863a3.292,3.292,0,0,0,3.468,1.534,16.162,16.162,0,0,1,2.293-.021c.469,0,.78.211.791.68a.665.665,0,0,1-.758.714c-1.531,0-3.061,0-4.592,0a.929.929,0,0,1-.715-.362Q29,36.637,28.311,35.9c-.129-.138-.234-.384-.46-.057-1.655,2.394-3.32,4.78-5.066,7.288,1.074,0,2.012-.005,2.949,0a2.1,2.1,0,0,1,2.289,2.291c0,.51.017,1.021,0,1.531a2.062,2.062,0,0,1-2.086,2.07q-3.34.029-6.679,0a2.04,2.04,0,0,1-2.082-2.063c-.016-.6-.018-1.206,0-1.809a2.051,2.051,0,0,1,1.983-2.018.256.256,0,0,1,.069,0c1.476.325,2.241-.465,3.024-1.62,3.56-5.253,7.217-10.44,10.84-15.65l.448-.646h-.775c-4.059,0-8.117.008-12.176-.011a.962.962,0,0,0-.943.506q-2.473,3.86-5.006,7.681c-.231.349-.184.527.049.876a3.368,3.368,0,0,0,3.532,1.554,25.493,25.493,0,0,1,2.85-.024c.506,0,.911.162.9.717s-.419.689-.924.685q-2.47-.021-4.94,0a1.15,1.15,0,0,1-.97-.419c-.377-.44-.8-.837-1.174-1.282-.28-.336-.434-.439-.72.026-.786,1.276-1.627,2.518-2.514,3.878.712,0,1.325-.009,1.936,0A2.087,2.087,0,0,1,14.8,41.5c.019.579.02,1.16,0,1.739A2.039,2.039,0,0,1,12.786,45.3q-2.782.059-5.566,0a2.017,2.017,0,0,1-2.014-2.058c-.016-.6-.019-1.206,0-1.809a1.965,1.965,0,0,1,2.047-2A2.209,2.209,0,0,0,9.5,38.194c2.874-4.314,5.817-8.582,8.812-12.978a29.528,29.528,0,0,1-3.377-.025,3.631,3.631,0,0,0-3.467,1.533C8.2,30.545,4.8,34.256,1.445,38.009c-.216.242-.409.514-.792.485C.129,38.453-.129,38,.092,37.4a38.984,38.984,0,0,0,1.243-3.9A35.574,35.574,0,0,0,.278,12.127c-.079-.217-.159-.434-.23-.654a.64.64,0,0,1,.3-.834.669.669,0,0,1,.882.154q.789.881,1.575,1.765c1.559,1.747,3.113,3.5,4.682,5.238.338.375.473.734.148,1.172a.855.855,0,0,1-1.213-.257c-.757-.877-1.538-1.733-2.31-2.6q-.73-.817-1.462-1.631c.266,1.544.6,3.03.827,4.536.16,1.037.172,1.042,1.254,1.127.429.034.725.215.743.659s-.273.641-.689.725c-.325.066-.783-.189-.95.174a2.544,2.544,0,0,0,0,1.029c.006.232.026.464.018.695-.011.3.112.413.411.4.393-.018.788-.014,1.182,0a.66.66,0,0,1,.709.695.67.67,0,0,1-.719.689c-.162.009-.324,0-.487,0-1.083,0-1.084,0-1.116,1.1A2.45,2.45,0,0,0,3.84,27.34c.17.354.628.1.954.168.418.083.7.282.683.728s-.32.64-.748.651a.654.654,0,0,1-.139,0c-.808-.155-1.15.2-1.092,1a.693.693,0,0,1-.026.136,44.758,44.758,0,0,1-.937,4.5c.31-.064.415-.29.561-.454q3.709-4.144,7.406-8.3c.354-.4.942-.777.986-1.21.051-.5-.62-.853-.979-1.266a.892.892,0,0,1-.134-1.242M38.087,4.227H34.894c-.6,0-.9.279-.883.893.013.486,0,.972,0,1.458a.705.705,0,0,0,.758.8q3.263.02,6.525,0a.717.717,0,0,0,.782-.782c.011-.486,0-.972.005-1.458.013-.649-.318-.919-.942-.914-1.018.008-2.036,0-3.054,0m-.035,37.426c-1.041,0-2.083.006-3.124,0-.635,0-.941.284-.918.929.016.462.009.925,0,1.388a.727.727,0,0,0,.8.836q3.228.016,6.456,0a.739.739,0,0,0,.818-.821c0-.463.008-.926,0-1.388-.013-.71-.243-.935-.974-.941-1.018-.008-2.036,0-3.055,0M22.609,44.526c-1.064,0-2.127.008-3.191,0-.572-.006-.866.238-.856.826.008.485.006.971,0,1.457-.007.582.281.835.854.832,2.1-.007,4.208-.01,6.312,0,.656,0,.922-.311.905-.937-.01-.37,0-.74,0-1.11-.006-.895-.168-1.064-1.04-1.067-.994,0-1.989,0-2.983,0m0-40.013c.624,0,1.249,0,1.873,0,2.358.008,2.146.208,2.147-2.252a1.276,1.276,0,0,0,0-.139.7.7,0,0,0-.765-.718h-6.52a.686.686,0,0,0-.778.762c0,.485.013.972-.006,1.456-.026.661.3.908.931.9,1.04-.02,2.081-.005,3.121-.005M10,5.121c-.856,0-1.711,0-2.567,0-.57,0-.858.258-.844.843.012.485,0,.971,0,1.457a.713.713,0,0,0,.8.82h5.2a.729.729,0,0,0,.816-.813c.007-.486,0-.971,0-1.457a.74.74,0,0,0-.845-.851c-.856,0-1.711,0-2.567,0M9.993,40.8c-.81,0-1.619,0-2.428,0-.78.006-.962.2-.97.995,0,.393-.005.787,0,1.18.011.763.176.937.948.943,1.249.009,2.5,0,3.747,0,2.368.011,2.119.163,2.125-2.277a.746.746,0,0,0-.854-.846c-.856.006-1.712,0-2.567,0" transform="translate(0 0)" fill="#050404"/>
    <path id="Trazado_180729" data-name="Trazado 180729" d="M307.691,98.1c-.5.334-.431.771-.3,1.284a6.973,6.973,0,1,1-13.516,3.432,6.579,6.579,0,0,1,2.383-7.079,6.686,6.686,0,0,1,7.549-.812c.471.223.884.406,1.344.038a4.324,4.324,0,0,1,.991.858.734.734,0,0,0,.931,1.118l.621,1.162m-6.824,7.752a4.464,4.464,0,0,1-3.776-1.552,4.674,4.674,0,0,1,.005-6.333c.312-.4.553-.811.093-1.215-.442-.387-.824-.1-1.128.258a6.172,6.172,0,0,0,3.72,10.225,5,5,0,0,0,1.87-.032.669.669,0,0,0,.6-.8.641.641,0,0,0-.757-.551c-.208.007-.417,0-.626,0m1.98-6.477a2.224,2.224,0,0,0-4.293-.849c-.285.719-.19,1.32.28,1.458.747.22.889-.3,1.014-.869a.757.757,0,0,1,.767-.593.772.772,0,0,1,.767.5.793.793,0,0,1-.2.951c-.153.14-.325.26-.479.4a2.288,2.288,0,0,0-.771,1.722.654.654,0,0,0,.653.745.607.607,0,0,0,.714-.59,1.5,1.5,0,0,1,.694-1.136,2.072,2.072,0,0,0,.855-1.738m1.163,6.658c.545-.008,1.2-.636,1.17-1.066a.626.626,0,0,0-.668-.638,1.334,1.334,0,0,0-1.125,1.032.613.613,0,0,0,.622.672m-2.7-1.728c0-.457-.2-.783-.678-.78-.51,0-.719.358-.712.835.007.45.229.783.694.783.51,0,.715-.348.695-.838" transform="translate(-239.023 -76.617)" fill="#f85c3d"/>
    <path id="Trazado_180730" data-name="Trazado 180730" d="M21.47,85.437A.892.892,0,0,0,21.6,86.68c.36.413,1.03.769.979,1.266-.044.433-.632.812-.986,1.21q-3.7,4.152-7.406,8.3c-.146.163-.251.39-.561.454a44.821,44.821,0,0,0,.937-4.5.681.681,0,0,0,.026-.136c-.058-.8.284-1.15,1.092-1a.668.668,0,0,0,.139,0c.429-.012.727-.206.748-.652s-.265-.645-.683-.728c-.326-.065-.784.186-.954-.168a2.453,2.453,0,0,1-.007-1.027c.032-1.1.033-1.1,1.116-1.1.162,0,.325.005.487,0a.67.67,0,0,0,.719-.689.66.66,0,0,0-.709-.7c-.393-.015-.788-.019-1.182,0-.3.013-.422-.1-.411-.4.009-.231-.012-.463-.018-.695a2.543,2.543,0,0,1,0-1.029c.167-.363.625-.108.95-.174.416-.084.707-.279.689-.725s-.313-.626-.743-.659c-1.083-.085-1.095-.091-1.254-1.127-.232-1.506-.561-2.993-.827-4.536q.731.815,1.462,1.631c.772.864,1.553,1.72,2.31,2.6a.855.855,0,0,0,1.213.257l.9,1c-.235.309-.371.639-.091.982.3.367.669.3,1.04.111l.888.988" transform="translate(-11.095 -63.387)" fill="#ecbd20"/>
    <path id="Trazado_180731" data-name="Trazado 180731" d="M95.474,175.9c.717,0,1.434.012,2.15,0,.485-.011.853.16.869.669s-.337.727-.822.728q-2.219,0-4.439,0c-.476,0-.834-.194-.828-.717s.371-.684.851-.678c.74.01,1.479,0,2.219,0" transform="translate(-75.218 -143.179)" fill="#050404"/>
    <path id="Trazado_180732" data-name="Trazado 180732" d="M95.456,81.646c-.74,0-1.479-.006-2.219,0-.483.005-.84-.164-.836-.693s.368-.7.842-.7q2.219,0,4.438,0c.488,0,.829.238.808.741-.02.461-.35.661-.815.654-.739-.011-1.479,0-2.219,0" transform="translate(-75.216 -65.326)" fill="#050404"/>
    <path id="Trazado_180733" data-name="Trazado 180733" d="M243.477,78.772c-.648,0-1.3-.008-1.944,0-.481.008-.856-.161-.869-.675s.346-.724.828-.725q1.944-.005,3.888,0c.452,0,.789.213.8.683.011.515-.339.717-.827.714-.625,0-1.25,0-1.875,0" transform="translate(-195.904 -62.982)" fill="#0a0a0a"/>
    <path id="Trazado_180734" data-name="Trazado 180734" d="M243.463,178.772h1.944c.464,0,.779.219.78.69s-.327.7-.779.7q-1.978.014-3.957,0c-.453,0-.78-.232-.78-.7s.314-.691.78-.691h2.013" transform="translate(-195.909 -145.523)" fill="#0a0a0a"/>
    <path id="Trazado_180735" data-name="Trazado 180735" d="M172.892,78.759c-.646,0-1.293,0-1.939,0a.649.649,0,0,1-.736-.655.666.666,0,0,1,.74-.731c1.293-.018,2.586-.012,3.879,0a.684.684,0,0,1,.775.7c0,.467-.316.689-.78.689h-1.939" transform="translate(-138.559 -62.971)" fill="#0a0a0a"/>
    <path id="Trazado_180736" data-name="Trazado 180736" d="M105.9,159.166c.646,0,1.293-.008,1.939,0,.448.008.772.2.769.7s-.333.689-.777.693c-1.27.01-2.54.009-3.81,0-.456,0-.776-.229-.773-.7s.323-.688.782-.692c.623,0,1.247,0,1.87,0" transform="translate(-84.042 -129.562)" fill="#0a0a0a"/>
    <path id="Trazado_180737" data-name="Trazado 180737" d="M105.927,96.962c.623,0,1.247-.006,1.87,0,.475.007.826.2.811.728-.014.5-.361.664-.8.666-1.247.006-2.494,0-3.741,0-.483,0-.829-.208-.814-.727.014-.48.355-.667.8-.67.623,0,1.247,0,1.87,0" transform="translate(-84.049 -78.927)" fill="#0a0a0a"/>
    <path id="Trazado_180738" data-name="Trazado 180738" d="M172.91,178.77c.646,0,1.293,0,1.939,0,.466,0,.767.235.763.7a.665.665,0,0,1-.723.684c-1.316.016-2.632.02-3.948,0a.662.662,0,0,1-.723-.747c.026-.445.325-.637.752-.64.646,0,1.293,0,1.939,0" transform="translate(-138.559 -145.521)" fill="#0a0a0a"/>
    <path id="Trazado_180739" data-name="Trazado 180739" d="M183.463,95.548c-.51,0-1.02.006-1.531,0-.48-.006-.835-.207-.821-.73.012-.483.346-.669.8-.667,1.02,0,2.041,0,3.061,0,.455,0,.78.188.786.682s-.324.694-.769.709c-.51.018-1.02,0-1.53,0" transform="translate(-147.427 -76.64)" fill="#0a0a0a"/>
    <path id="Trazado_180740" data-name="Trazado 180740" d="M183.448,163.369c-.51,0-1.02,0-1.53,0-.458,0-.787-.186-.8-.669s.3-.718.753-.724q1.565-.021,3.13,0c.446.006.774.216.768.709s-.333.678-.787.682c-.51,0-1.02,0-1.53,0" transform="translate(-147.429 -131.843)" fill="#0a0a0a"/>
    <path id="Trazado_180741" data-name="Trazado 180741" d="M360.977,103.68a.734.734,0,0,1-.931-1.118c.375-.182.754-.268,1.046.12a.757.757,0,0,1-.115,1" transform="translate(-292.931 -83.362)" fill="#050404"/>
    <path id="Trazado_180742" data-name="Trazado 180742" d="M45.774,107.929c-.371.188-.741.255-1.04-.112-.28-.343-.144-.673.091-.982a.728.728,0,0,1,.95,1.094" transform="translate(-36.286 -86.867)" fill="#0a0a0a"/>
    <path id="Trazado_180743" data-name="Trazado 180743" d="M186.943,22.717c1.018,0,2.036.006,3.054,0,.624,0,.956.265.942.914-.01.486.006.972-.005,1.458a.717.717,0,0,1-.782.782q-3.263.014-6.525,0a.705.705,0,0,1-.758-.8c0-.486.01-.972,0-1.458-.017-.614.288-.893.883-.893h3.193M186.891,25c.485,0,.97.014,1.455,0,.453-.017.768-.252.754-.724a.664.664,0,0,0-.742-.662c-.97-.01-1.94-.012-2.91,0-.454.006-.765.234-.751.717a.672.672,0,0,0,.739.667c.484.02.97,0,1.455.005" transform="translate(-148.856 -18.49)" fill="#ecbd20"/>
    <path id="Trazado_180744" data-name="Trazado 180744" d="M186.9,223.952c1.018,0,2.036-.006,3.055,0,.732.006.961.232.974.941.009.463,0,.926,0,1.388a.739.739,0,0,1-.818.821q-3.228.011-6.456,0a.727.727,0,0,1-.8-.836c.007-.463.014-.926,0-1.388-.023-.645.283-.934.918-.929,1.041.008,2.083,0,3.124,0m-.056,2.271v0c.508,0,1.016.011,1.524,0a.665.665,0,0,0,.727-.677.657.657,0,0,0-.7-.7q-1.489-.032-2.979,0a.659.659,0,0,0-.723.68c0,.484.318.692.768.7s.924,0,1.385,0" transform="translate(-148.852 -182.299)" fill="#ecbd20"/>
    <path id="Trazado_180745" data-name="Trazado 180745" d="M103.847,239.392c.994,0,1.989,0,2.983,0,.873,0,1.034.173,1.04,1.067,0,.37-.008.74,0,1.11.017.626-.249.941-.905.937-2.1-.012-4.208-.009-6.312,0-.574,0-.862-.251-.854-.833.006-.485.008-.971,0-1.457-.01-.588.285-.832.856-.826,1.064.011,2.127,0,3.191,0m-.053,2.251c.508,0,1.017.015,1.524,0a.665.665,0,0,0,.711-.694.651.651,0,0,0-.711-.686c-.993-.008-1.987-.01-2.98,0a.642.642,0,0,0-.707.685.662.662,0,0,0,.708.694c.484.023.97.005,1.455.005" transform="translate(-81.239 -194.867)" fill="#ecbd20"/>
    <path id="Trazado_180746" data-name="Trazado 180746" d="M103.832,10.653c-1.04,0-2.081-.015-3.121.005-.634.012-.956-.235-.931-.9.019-.485,0-.971.006-1.456a.686.686,0,0,1,.778-.762h6.52a.7.7,0,0,1,.765.718,1.277,1.277,0,0,1,0,.139c0,2.459.211,2.26-2.147,2.251-.624,0-1.249,0-1.873,0m-.018-.864c.485,0,.97,0,1.456,0a.663.663,0,0,0,.741-.66.671.671,0,0,0-.749-.725c-.97-.011-1.941-.014-2.911,0a.693.693,0,1,0,.008,1.383c.485,0,.97,0,1.456,0" transform="translate(-81.221 -6.141)" fill="#ecbd20"/>
    <path id="Trazado_180747" data-name="Trazado 180747" d="M38.855,27.528c.856,0,1.711,0,2.567,0a.74.74,0,0,1,.845.851c0,.486,0,.971,0,1.457a.729.729,0,0,1-.816.813q-2.6,0-5.2,0a.713.713,0,0,1-.8-.82c0-.486.01-.971,0-1.457-.014-.585.274-.846.844-.843.856,0,1.711,0,2.567,0m-.014.873c-.484,0-.968,0-1.452,0a.689.689,0,1,0-.049,1.377c.99.027,1.982.026,2.973,0a.66.66,0,0,0,.724-.743c-.023-.448-.311-.64-.743-.639H38.84" transform="translate(-28.851 -22.407)" fill="#ecbd20"/>
    <path id="Trazado_180748" data-name="Trazado 180748" d="M38.845,219.346c.856,0,1.711,0,2.567,0a.746.746,0,0,1,.854.846c-.006,2.441.243,2.289-2.125,2.277-1.249-.006-2.5.005-3.747,0-.771-.006-.937-.179-.948-.943-.006-.393,0-.787,0-1.18.008-.8.19-.989.97-.995.81-.006,1.619,0,2.429,0m-.01,2.245c.507,0,1.014.007,1.521,0a.624.624,0,0,0,.681-.63.634.634,0,0,0-.648-.738c-1.013-.033-2.028-.029-3.042-.006a.689.689,0,1,0,.036,1.377c.484,0,.968,0,1.452,0" transform="translate(-28.852 -178.55)" fill="#ecbd20"/>
    <path id="Trazado_180749" data-name="Trazado 180749" d="M304.469,116.527c.208,0,.417.006.625,0a.642.642,0,0,1,.757.551.669.669,0,0,1-.6.8,5,5,0,0,1-1.87.032,6.172,6.172,0,0,1-3.72-10.226c.3-.362.686-.645,1.128-.258.46.4.219.82-.093,1.215a4.675,4.675,0,0,0-.005,6.334,4.465,4.465,0,0,0,3.776,1.552" transform="translate(-242.625 -87.295)" fill="#fec8be"/>
    <path id="Trazado_180750" data-name="Trazado 180750" d="M323.679,112.439a2.073,2.073,0,0,1-.856,1.738,1.5,1.5,0,0,0-.694,1.136.607.607,0,0,1-.714.59.654.654,0,0,1-.653-.745,2.288,2.288,0,0,1,.771-1.722c.153-.14.326-.26.479-.4a.793.793,0,0,0,.2-.951.772.772,0,0,0-.768-.5.757.757,0,0,0-.767.593c-.125.565-.267,1.089-1.014.869-.47-.138-.566-.739-.28-1.458a2.224,2.224,0,0,1,4.294.849" transform="translate(-259.854 -89.684)" fill="#050404"/>
    <path id="Trazado_180751" data-name="Trazado 180751" d="M346.7,150.691a.613.613,0,0,1-.622-.672,1.334,1.334,0,0,1,1.125-1.033.626.626,0,0,1,.668.638c.031.431-.625,1.059-1.17,1.066" transform="translate(-281.713 -121.277)" fill="#fec8be"/>
    <path id="Trazado_180752" data-name="Trazado 180752" d="M328.852,145.444c.02.49-.184.838-.694.837-.466,0-.688-.333-.695-.783-.007-.477.2-.832.712-.835.477,0,.678.323.677.781" transform="translate(-266.561 -117.758)" fill="#050404"/>
    <path id="Trazado_180753" data-name="Trazado 180753" d="M194.909,28.866c-.485,0-.97.015-1.455,0a.672.672,0,0,1-.739-.667c-.014-.483.3-.711.751-.717.97-.013,1.94-.01,2.91,0a.665.665,0,0,1,.742.662c.014.472-.3.707-.754.724-.484.018-.97,0-1.455,0" transform="translate(-156.873 -22.36)" fill="#050404"/>
    <path id="Trazado_180754" data-name="Trazado 180754" d="M194.873,230.044c-.462,0-.924.01-1.385,0s-.772-.221-.768-.7a.659.659,0,0,1,.723-.68q1.489-.028,2.979,0a.657.657,0,0,1,.7.7.665.665,0,0,1-.727.677c-.508.015-1.016,0-1.524,0v0" transform="translate(-156.876 -186.119)" fill="#050404"/>
    <path id="Trazado_180755" data-name="Trazado 180755" d="M111.809,245.42c-.485,0-.971.018-1.455-.005a.662.662,0,0,1-.708-.694.642.642,0,0,1,.707-.685c.993-.011,1.987-.009,2.98,0a.651.651,0,0,1,.711.686.665.665,0,0,1-.711.694c-.507.019-1.016,0-1.525,0" transform="translate(-89.253 -198.643)" fill="#050404"/>
    <path id="Trazado_180756" data-name="Trazado 180756" d="M111.841,13.512c-.485,0-.97,0-1.455,0a.693.693,0,1,1-.008-1.383c.97-.016,1.941-.013,2.911,0a.671.671,0,0,1,.749.725.663.663,0,0,1-.741.66c-.485,0-.97,0-1.456,0" transform="translate(-89.249 -9.863)" fill="#050404"/>
    <path id="Trazado_180757" data-name="Trazado 180757" d="M44.178,32.225H45.63c.432,0,.72.192.743.639a.66.66,0,0,1-.724.743c-.991.021-1.982.022-2.973,0a.689.689,0,1,1,.049-1.377c.484,0,.968,0,1.452,0" transform="translate(-34.189 -26.231)" fill="#050404"/>
    <path id="Trazado_180758" data-name="Trazado 180758" d="M44.18,225.323c-.484,0-.968,0-1.452,0a.689.689,0,1,1-.036-1.377c1.013-.023,2.029-.028,3.042.006a.634.634,0,0,1,.648.738.623.623,0,0,1-.681.63c-.507.01-1.014,0-1.521,0" transform="translate(-34.196 -182.281)" fill="#050404"/>
  </g>
</svg>
