<svg id="Grupo_118476" data-name="Grupo 118476" xmlns="http://www.w3.org/2000/svg" xmlns:xlink="http://www.w3.org/1999/xlink" width="70.021" height="70" viewBox="0 0 70.021 70">
  <defs>
    <clipPath id="clip-path">
      <rect id="Rectángulo_36944" data-name="Rectángulo 36944" width="70.021" height="70" fill="none"/>
    </clipPath>
  </defs>
  <g id="Grupo_118338" data-name="Grupo 118338" clip-path="url(#clip-path)">
    <path id="Trazado_180572" data-name="Trazado 180572" d="M159.359,134.228c-1.062-.266-1.363-.638-1.369-1.712,0-.684-.015-1.368,0-2.051a4.646,4.646,0,0,1,9.293-.032c.046,1.685.01,3.373.011,5.059,0,.477,0,.954,0,1.507a5.358,5.358,0,0,1,2.1-.385,4.48,4.48,0,0,1,3.808,2.285c.19.317.322.369.674.215a4.567,4.567,0,0,1,6.043,2.125c.184.342.313.371.667.234a4.58,4.58,0,0,1,6.395,4.166c.081,4.625.146,9.254-.048,13.877a39.252,39.252,0,0,1-2.329,10.559c-.3.928-.623,1.853-.877,2.795a1.993,1.993,0,0,1-1.117,1.407h-.821a1.862,1.862,0,0,1-.88-1.357,38.059,38.059,0,0,1,1.229-4.11,35.777,35.777,0,0,0,2.138-11.348c-.012-3.85.006-7.7,0-11.55a1.916,1.916,0,0,0-1.887-2.074,1.954,1.954,0,0,0-1.945,2.1c-.014,1.162,0,2.324,0,3.485-.005,1.055-.524,1.7-1.354,1.706s-1.368-.65-1.379-1.7c-.007-.706,0-1.412,0-2.118,0-1.321.016-2.643-.006-3.964a1.881,1.881,0,0,0-2.159-1.91,1.922,1.922,0,0,0-1.669,2c-.014,2.027-.008,4.055,0,6.082a1.409,1.409,0,0,1-.931,1.507c-.958.34-1.795-.35-1.8-1.5-.014-2.574,0-5.148,0-7.723,0-1.585-.673-2.458-1.9-2.47s-1.936.874-1.936,2.439q0,2.665,0,5.331c0,.866.021,1.732-.009,2.6a1.392,1.392,0,0,1-1.363,1.424,1.415,1.415,0,0,1-1.36-1.432c-.012-.181,0-.364,0-.547q0-5.057,0-10.114,0-4.169,0-8.337a1.929,1.929,0,1,0-3.835.022c0,.592,0,1.185,0,1.777-.009,1.062-.322,1.456-1.363,1.727" transform="translate(-130.915 -104.278)" fill="#020202"/>
    <path id="Trazado_180573" data-name="Trazado 180573" d="M0,7.233C.736,5.8,2.082,5.575,3.489,5.449a13.223,13.223,0,0,1,1.485-.2A1.709,1.709,0,0,0,6.743,3.913c.33-.843.791-1.634,1.192-2.449a2.333,2.333,0,0,1,4.329,0c.515,1.037,1.041,2.07,1.526,3.121a.867.867,0,0,0,.749.569c1.083.138,2.163.312,3.247.446a2.448,2.448,0,0,1,2.265,1.588,2.4,2.4,0,0,1-.824,2.689c-.782.731-1.516,1.514-2.307,2.234a1.033,1.033,0,0,0-.354,1.073c.212,1.117.384,2.242.593,3.36a2.28,2.28,0,0,1-.885,2.416,2.241,2.241,0,0,1-2.512.149c-1.09-.562-2.178-1.131-3.253-1.722a.755.755,0,0,0-.815,0c-1.038.563-2.094,1.094-3.131,1.66a2.308,2.308,0,0,1-2.688-.132A2.375,2.375,0,0,1,3.064,16.4c.2-1.119.386-2.241.6-3.358a.813.813,0,0,0-.283-.837c-.8-.746-1.561-1.533-2.365-2.273A9.412,9.412,0,0,1,0,8.6Zm16.793,1C15.89,8.1,15,7.9,14.1,7.842A2.983,2.983,0,0,1,11.33,5.778c-.341-.827-.792-1.61-1.236-2.5C9.591,4.3,9.128,5.186,8.712,6.1A2.705,2.705,0,0,1,6.361,7.8c-1,.1-1.985.292-3,.448.713.742,1.314,1.464,2.014,2.073a2.928,2.928,0,0,1,.983,3.125c-.208.912-.317,1.846-.486,2.867,1.016-.532,1.934-.984,2.823-1.486a2.682,2.682,0,0,1,2.844.014c.886.5,1.8.95,2.8,1.471-.19-1.13-.328-2.163-.543-3.179a2.7,2.7,0,0,1,.913-2.693c.719-.688,1.37-1.446,2.084-2.209" transform="translate(0 0.001)" fill="#030302"/>
    <path id="Trazado_180574" data-name="Trazado 180574" d="M108.713,254.822a3.576,3.576,0,0,1-1.015-.971c-1.4-1.938-2.8-3.875-4.227-5.79a20.451,20.451,0,0,1-3.583-7.659c-.807-3.452-1.677-6.889-2.442-10.349a4.678,4.678,0,0,1,2.792-5.1,4.781,4.781,0,0,1,5.805,1.492c.624.867,1.027,1.861,1.7,2.935v-3.4c0-.433,0-.866,0-1.3.013-1.016.35-1.418,1.363-1.638a1.455,1.455,0,0,1,1.369,1.708q.007,4.884,0,9.768a3.114,3.114,0,0,1-.02.477,1.333,1.333,0,0,1-1.071,1.188,1.29,1.29,0,0,1-1.415-.6,6.5,6.5,0,0,1-.343-.589c-1.156-2.14-2.305-4.283-3.466-6.42a2.132,2.132,0,0,0-2.192-1.3,2.089,2.089,0,0,0-1.771,2.7c.7,3.01,1.494,6,2.149,9.019a19.852,19.852,0,0,0,3.768,8.081c1.324,1.708,2.557,3.486,3.839,5.226a2.636,2.636,0,0,1,.536,1.161,1.844,1.844,0,0,1-.963,1.366Z" transform="translate(-80.675 -184.822)" fill="#030303"/>
    <path id="Trazado_180575" data-name="Trazado 180575" d="M168.44,401.959a1.845,1.845,0,0,0,.963-1.366l20.178.009a1.862,1.862,0,0,0,.879,1.357Z" transform="translate(-139.581 -331.959)" fill="#fefefe"/>
    <path id="Trazado_180576" data-name="Trazado 180576" d="M144.105,186.15l-20.178-.009a2.635,2.635,0,0,0-.536-1.161c-1.283-1.74-2.516-3.518-3.839-5.226a19.852,19.852,0,0,1-3.768-8.081c-.655-3.02-1.45-6.009-2.149-9.019a2.089,2.089,0,0,1,1.771-2.7,2.132,2.132,0,0,1,2.192,1.3c1.161,2.137,2.31,4.28,3.466,6.42a6.521,6.521,0,0,0,.343.588,1.29,1.29,0,0,0,1.415.6,1.333,1.333,0,0,0,1.07-1.188,3.1,3.1,0,0,0,.02-.477q0-4.884,0-9.768a1.454,1.454,0,0,0-1.369-1.708q0-1.32,0-2.64c1.089-.237,1.608-1.038,1.235-1.9a1.6,1.6,0,0,0-1.231-.867q0-1.426,0-2.851c1.041-.272,1.354-.665,1.363-1.727,0-.592,0-1.185,0-1.777a1.929,1.929,0,1,1,3.835-.022q.008,4.169,0,8.337,0,5.057,0,10.114c0,.182-.008.365,0,.547a1.415,1.415,0,0,0,1.36,1.432,1.392,1.392,0,0,0,1.362-1.424c.031-.865.009-1.731.009-2.6q0-2.665,0-5.331c0-1.564.7-2.45,1.936-2.439s1.9.885,1.9,2.47c0,2.574-.009,5.148,0,7.723.006,1.154.843,1.843,1.8,1.5a1.409,1.409,0,0,0,.931-1.507c-.006-2.027-.011-4.055,0-6.082a1.922,1.922,0,0,1,1.669-2,1.88,1.88,0,0,1,2.159,1.91c.023,1.321.006,2.642.006,3.964,0,.706-.006,1.412,0,2.118.011,1.046.547,1.7,1.379,1.7s1.349-.652,1.354-1.706c.006-1.162-.009-2.324,0-3.485a1.954,1.954,0,0,1,1.945-2.1,1.916,1.916,0,0,1,1.887,2.074c.008,3.85-.01,7.7,0,11.55a35.772,35.772,0,0,1-2.137,11.347,38.007,38.007,0,0,0-1.229,4.11" transform="translate(-94.106 -117.507)" fill="#f0cbab"/>
    <path id="Trazado_180577" data-name="Trazado 180577" d="M148.44,16.8c.18-1.045.379-2.3.621-3.552a1.066,1.066,0,0,0-.347-1.137c-.812-.73-1.569-1.522-2.358-2.279a2.359,2.359,0,0,1-.789-2.579,2.394,2.394,0,0,1,2.158-1.627c1.058-.151,2.116-.316,3.178-.435a1.1,1.1,0,0,0,1.012-.732c.435-1,.958-1.957,1.431-2.938a2.343,2.343,0,0,1,4.388.021c.49,1.024,1.022,2.028,1.494,3.059a.873.873,0,0,0,.763.558c1.06.14,2.116.313,3.177.441A2.483,2.483,0,0,1,165.493,7.2a2.4,2.4,0,0,1-.838,2.686c-.8.749-1.557,1.536-2.359,2.278a.927.927,0,0,0-.3.962c.215,1.116.395,2.239.6,3.357a2.326,2.326,0,0,1-.833,2.44,2.257,2.257,0,0,1-2.567.183c-1.071-.549-2.141-1.1-3.191-1.691a.842.842,0,0,0-.934.012c-1.075.59-2.153,1.178-3.259,1.706A2.316,2.316,0,0,1,148.44,16.8m13.847-8.548c-1-.151-1.928-.35-2.87-.42a2.844,2.844,0,0,1-2.58-1.9c-.372-.862-.829-1.686-1.3-2.634-.529,1.063-1.008,1.988-1.45,2.93A2.6,2.6,0,0,1,151.869,7.8c-1.021.119-2.035.3-3.113.465.731.744,1.341,1.457,2.046,2.06a2.953,2.953,0,0,1,.99,3.185c-.206.894-.316,1.81-.486,2.815.927-.486,1.777-.876,2.569-1.359a2.947,2.947,0,0,1,3.333,0c.8.485,1.652.875,2.565,1.352-.2-1.2-.37-2.278-.563-3.349a2.525,2.525,0,0,1,.824-2.4c.749-.728,1.458-1.5,2.254-2.319" transform="translate(-120.524 -0.008)" fill="#030302"/>
    <path id="Trazado_180578" data-name="Trazado 180578" d="M308.05,16.782c.021,1.991-1.6,3.117-3.2,2.412-1.161-.512-2.275-1.137-3.389-1.748a.9.9,0,0,0-.993-.011c-1.03.577-2.084,1.11-3.13,1.66a2.259,2.259,0,0,1-2.571-.151,2.282,2.282,0,0,1-.859-2.425c.211-1.094.367-2.2.578-3.292a1.076,1.076,0,0,0-.37-1.133c-.812-.73-1.563-1.529-2.356-2.28a2.361,2.361,0,0,1-.773-2.583,2.4,2.4,0,0,1,2.173-1.61c1.082-.15,2.162-.307,3.245-.446a.956.956,0,0,0,.872-.609c.458-1.037.991-2.041,1.49-3.061a2.338,2.338,0,0,1,4.358-.012c.5,1.02,1.026,2.026,1.5,3.059a.978.978,0,0,0,.872.619c1.061.133,2.118.3,3.178.437a2.445,2.445,0,0,1,2.244,1.613,2.371,2.371,0,0,1-.806,2.634c-.774.739-1.52,1.509-2.31,2.23a1.044,1.044,0,0,0-.369,1.124c.263,1.267.447,2.551.62,3.574m-11.327-.462c1.006-.525,1.9-.96,2.769-1.456a2.707,2.707,0,0,1,2.9-.014c.885.506,1.8.951,2.8,1.472-.181-1.052-.32-2.014-.517-2.964A2.856,2.856,0,0,1,305.6,10.4c.737-.657,1.38-1.418,2.092-2.162-1.031-.152-2.033-.332-3.043-.442a2.63,2.63,0,0,1-2.262-1.616c-.437-.937-.918-1.853-1.439-2.9-.526,1.06-1.012,2-1.463,2.96a2.572,2.572,0,0,1-2.163,1.544c-1.028.128-2.051.3-3.084.452.038.311.263.417.415.568q.895.892,1.81,1.764a2.516,2.516,0,0,1,.809,2.465c-.208,1.043-.357,2.1-.554,3.279" transform="translate(-241.029 -0.006)" fill="#030302"/>
    <path id="Trazado_180579" data-name="Trazado 180579" d="M159.421,191.451a1.6,1.6,0,0,1,1.231.867c.373.866-.146,1.667-1.235,1.9-.874-.181-1.346-.646-1.362-1.343s.416-1.146,1.367-1.428" transform="translate(-130.974 -158.65)" fill="#030303"/>
    <path id="Trazado_180580" data-name="Trazado 180580" d="M33.043,24.1c-.714.763-1.365,1.521-2.084,2.209A2.7,2.7,0,0,0,30.046,29c.216,1.016.354,2.049.543,3.179-1-.521-1.914-.969-2.8-1.471a2.682,2.682,0,0,0-2.844-.014c-.889.5-1.807.954-2.823,1.486.169-1.021.278-1.956.486-2.867a2.928,2.928,0,0,0-.983-3.125c-.7-.609-1.3-1.331-2.014-2.073,1.017-.155,2-.347,3-.448a2.705,2.705,0,0,0,2.352-1.706c.415-.909.879-1.8,1.381-2.815.445.888.9,1.671,1.236,2.5a2.983,2.983,0,0,0,2.767,2.063c.9.057,1.793.255,2.7.39" transform="translate(-16.25 -15.868)" fill="#ffca00"/>
    <path id="Trazado_180581" data-name="Trazado 180581" d="M178.309,24.127c-.8.822-1.505,1.591-2.254,2.319a2.526,2.526,0,0,0-.824,2.4c.194,1.071.362,2.147.563,3.349-.913-.476-1.768-.867-2.565-1.352a2.947,2.947,0,0,0-3.333,0c-.792.483-1.641.873-2.569,1.359.17-1.006.279-1.922.486-2.815a2.953,2.953,0,0,0-.99-3.185c-.7-.6-1.314-1.315-2.046-2.06,1.079-.164,2.092-.346,3.113-.465a2.6,2.6,0,0,0,2.216-1.577c.442-.942.922-1.867,1.45-2.93.473.948.93,1.772,1.3,2.634a2.843,2.843,0,0,0,2.58,1.9c.942.071,1.875.27,2.87.42" transform="translate(-136.546 -15.885)" fill="#ffca00"/>
    <path id="Trazado_180582" data-name="Trazado 180582" d="M313.067,32.189c.2-1.18.346-2.236.554-3.279a2.516,2.516,0,0,0-.809-2.465q-.914-.873-1.81-1.764c-.152-.151-.377-.257-.415-.568,1.034-.153,2.056-.323,3.084-.452a2.572,2.572,0,0,0,2.163-1.544c.451-.958.937-1.9,1.463-2.96.521,1.044,1,1.96,1.439,2.9A2.63,2.63,0,0,0,321,23.67c1.01.11,2.012.289,3.043.442-.712.743-1.355,1.5-2.092,2.162a2.856,2.856,0,0,0-.924,2.953c.2.95.336,1.912.517,2.964-1-.521-1.919-.966-2.8-1.472a2.707,2.707,0,0,0-2.9.014c-.865.5-1.764.93-2.769,1.456" transform="translate(-257.374 -15.875)" fill="#ffca00"/>
  </g>
</svg>
