<svg id="Grupo_118479" data-name="Grupo 118479" xmlns="http://www.w3.org/2000/svg" xmlns:xlink="http://www.w3.org/1999/xlink" width="69.99" height="70" viewBox="0 0 69.99 70">
  <defs>
    <clipPath id="clip-path">
      <rect id="Rectángulo_36946" data-name="Rectángulo 36946" width="69.99" height="70" fill="none"/>
    </clipPath>
  </defs>
  <g id="Grupo_118342" data-name="Grupo 118342" clip-path="url(#clip-path)">
    <path id="Trazado_180601" data-name="Trazado 180601" d="M68.213,70H51.264a2.89,2.89,0,0,1-1.606-3.21c.025-.248-.023-.5.009-.751.06-.45-.111-.564-.556-.56-2.665.021-5.331.011-8,.01-1.893,0-2.719-.815-2.72-2.684,0-2.642-.019-5.285.014-7.927.007-.583-.172-.7-.724-.7q-4.749.04-9.5,0c-.716-.005-1.35-.034-1.5.894a1.89,1.89,0,0,1-.379.641q-4.481,6.73-8.969,13.455c-.122.183-.2.414-.451.528l-.37-.554c-2.941-4.409-5.87-8.826-8.833-13.22a5.124,5.124,0,0,1-.915-3c.022-7.176.007-14.352.021-21.527a1.433,1.433,0,0,0-.473-1.131c-1.4-1.368-2.765-2.776-4.169-4.142-.327-.318-.316-.49.006-.789.651-.6,1.259-1.253,1.891-1.878a1.12,1.12,0,0,0,.291-1.31,1.106,1.106,0,0,0-1.153-.678c-.911.017-1.823-.013-2.733.013-.363.01-.455-.1-.453-.457q.02-4.066,0-8.132c0-.358.095-.466.454-.455.819.026,1.64,0,2.46.012.6.012,1.165-.069,1.426-.7a1.281,1.281,0,0,0-.481-1.509C3.246,9.665,2.67,9.05,2.066,8.462c-.209-.2-.274-.325-.018-.577Q4.991,4.983,7.9,2.041c.216-.218.326-.2.526,0,.633.655,1.3,1.281,1.927,1.937a1.168,1.168,0,0,0,2.086-.876c-.01-.888.01-1.777-.009-2.665-.007-.314.064-.432.408-.43q4.1.021,8.2,0c.392,0,.438.153.432.48-.018.888.008,1.777-.011,2.665a1.131,1.131,0,0,0,.7,1.205,1.173,1.173,0,0,0,1.355-.365c.617-.638,1.264-1.249,1.877-1.892.232-.243.371-.294.64-.022q2.857,2.894,5.752,5.749c.287.283.253.436-.017.69-.63.593-1.223,1.224-1.843,1.828a1.158,1.158,0,0,0-.389,1.4,1.223,1.223,0,0,0,1.287.7c.843-.011,1.686.017,2.528-.011.4-.014.565.077.543.52-.039.773.021,1.55-.022,2.323-.027.48.157.566.584.557,1.116-.025,2.233-.033,3.348,0,.483.015.608-.134.6-.61-.022-2.733-.014-5.467-.009-8.2a2.261,2.261,0,0,1,2.492-2.5c2.3-.006,4.6.006,6.9-.007.609,0,1.44.266,1.764-.113.307-.36.1-1.166.1-1.777A2.319,2.319,0,0,1,52.26.018c4.966,0,9.933.027,14.9-.018A2.614,2.614,0,0,1,69.99,1.795V9.722a3.04,3.04,0,0,1-3.218,1.614c-1.956-.074-3.916-.018-5.875-.018q-4.236,0-8.472,0c-1.905,0-2.761-.851-2.764-2.735,0-.41-.029-.822.007-1.229.039-.443-.108-.574-.56-.57-2.619.022-5.238.026-7.857,0-.53-.006-.637.157-.632.655.025,2.664.013,5.329.011,7.993,0,1.806-.827,2.64-2.614,2.642-1.207,0-2.414.021-3.621-.011-.434-.012-.539.125-.523.537.031.8-.011,1.594.017,2.391.014.391-.113.5-.5.494-.933-.025-1.867,0-2.8-.009a1.075,1.075,0,0,0-1.065.7,1.034,1.034,0,0,0,.228,1.2c.4.432.842.833,1.247,1.264a.747.747,0,0,0,.606.229c3.6,0,7.2-.011,10.795.007.449,0,.526-.163.514-.557-.026-.842-.01-1.685-.007-2.528A2.3,2.3,0,0,1,45.524,19.2q3.86,0,7.72,0c.915,0,.915,0,.933-.928a2.234,2.234,0,0,1,2.285-2.433q3.381-.042,6.763,0a2.2,2.2,0,0,1,2.248,2.323c.014,1.435.011,2.869,0,4.3a2.256,2.256,0,0,1-2.342,2.388c-2.209.026-4.418.02-6.627,0a2.254,2.254,0,0,1-2.174-1.472,3.321,3.321,0,0,1-.147-1.416c.028-.373-.07-.506-.475-.5q-4.031.028-8.062,0c-.455,0-.52.164-.508.554.026.842.011,1.685.007,2.528A2.269,2.269,0,0,1,42.584,27.1c-3.052,0-6.111.13-9.153-.045a5.566,5.566,0,0,0-4.672,1.916,4.793,4.793,0,0,0-1.7,4.277c.071.542.191.657.7.656,6.673-.016,13.345-.007,20.018-.016.607,0,1.407.266,1.771-.117s.1-1.171.1-1.781a2.3,2.3,0,0,1,2.6-2.606c4.919,0,9.839.036,14.757-.024a2.776,2.776,0,0,1,2.978,1.689v8.064a2.759,2.759,0,0,1-2.429,1.543c-5.17-.033-10.34-.01-15.51-.017A2.241,2.241,0,0,1,49.664,38.3a15.414,15.414,0,0,1,.005-1.571c.032-.461-.093-.619-.59-.618q-10.693.025-21.385,0c-.55,0-.623.186-.616.664.026,1.776.04,3.553-.005,5.329-.016.634.11.836.8.831,4.919-.035,9.839-.021,14.758-.017a2.253,2.253,0,0,1,2.518,2.529c0,.8.038,1.6-.012,2.391-.035.555.106.729.693.721,2.482-.036,4.965-.015,7.447-.015.891,0,.891,0,.9-.878a2.305,2.305,0,0,1,2.508-2.508c2.118-.008,4.236-.012,6.354,0a2.274,2.274,0,0,1,2.436,2.433c.008,1.344,0,2.687,0,4.031a2.287,2.287,0,0,1-2.568,2.564c-2,.006-4.008,0-6.013,0-1.883,0-2.738-.823-2.7-2.693.011-.595-.177-.7-.722-.691-2.71.029-5.42.024-8.13.009a2.245,2.245,0,0,1-2.431-2.425c-.007-.888-.025-1.777.009-2.664.017-.444-.107-.579-.564-.577q-7.345.024-14.689,0c-.5,0-.593.169-.587.623.024,1.844.036,3.69-.006,5.534-.013.571.185.657.69.654,3.439-.02,6.878-.013,10.317-.01a2.265,2.265,0,0,1,2.551,2.567q.006,3.895,0,7.789c0,.921,0,.921.888.921,2.141,0,4.282.011,6.422-.007.558,0,1.3.261,1.623-.124.273-.325.093-1.041.1-1.583.006-1.99.825-2.809,2.827-2.81,4.851,0,9.7.027,14.553-.017a2.743,2.743,0,0,1,2.95,1.749v7.928A3.014,3.014,0,0,1,68.213,70M29.016,8.308c-.262-.281-.367-.4-.479-.512-.74-.742-1.512-1.455-2.212-2.233-.442-.491-.719-.566-1.2-.022a3.164,3.164,0,0,1-3.2,1.091C20.159,6.25,19.2,4.965,19.2,2.927c0-.5-.106-.683-.636-.655-.863.046-1.731.012-2.6.012-1.241,0-1.239,0-1.309,1.21a3.185,3.185,0,0,1-2.083,2.944,3.188,3.188,0,0,1-3.552-.624,4.969,4.969,0,0,1-.535-.527c-.228-.273-.4-.263-.651,0-.774.8-1.546,1.614-2.372,2.362-.453.411-.444.649.007,1.049A3.245,3.245,0,0,1,6.63,11.938a3.29,3.29,0,0,1-3.557,2.721c-.676-.013-.854.185-.816.837a25.217,25.217,0,0,1,0,2.937c-.037.64.176.789.79.782a3.3,3.3,0,0,1,3.422,2.2,3.253,3.253,0,0,1-.978,3.773c-.474.433-.439.69.012,1.1a26.721,26.721,0,0,1,2.123,2.127c.431.489.691.426,1.09-.02A3.253,3.253,0,0,1,12.1,27.3a3.326,3.326,0,0,1,2.566,3.424c.016.888.016.888.923.888h2.6c.96,0,.96,0,1-.942a3.389,3.389,0,0,1,3.788-3.453,3.444,3.444,0,0,1,2.321,1.3c.319.37.522.346.846,0a30.091,30.091,0,0,1,2.177-2.17c.54-.473.509-.754,0-1.244a3.339,3.339,0,0,1-.4-4.619A3.448,3.448,0,0,1,31,19.207c.474.024.629-.113.61-.6-.038-.978-.011-1.959-.011-2.938s0-.975-.954-.994a3.381,3.381,0,0,1-2.278-5.951,4.476,4.476,0,0,1,.644-.417m30.75,30.1c2.435,0,4.871-.011,7.306.01.474,0,.682-.066.671-.618-.037-1.866-.031-3.733,0-5.6.007-.487-.149-.6-.616-.6q-7.306.024-14.612,0c-.5,0-.59.167-.585.62.024,1.866.027,3.733,0,5.6-.007.48.126.607.6.6,2.412-.025,4.825-.011,7.238-.011m.047-29.361c2.437,0,4.874-.011,7.31.01.456,0,.626-.084.618-.586q-.047-2.8,0-5.6c.007-.5-.163-.6-.624-.594q-7.31.023-14.62,0c-.441,0-.577.11-.571.563q.038,2.835,0,5.67c-.007.473.157.551.579.548,2.436-.018,4.873-.009,7.31-.009m-.007,51.925c-2.437,0-4.874.01-7.31-.01-.435,0-.577.1-.571.556q.041,2.835,0,5.67c-.007.466.15.556.579.555q7.31-.021,14.62,0c.47,0,.624-.113.616-.6-.029-1.821-.034-3.644,0-5.465.011-.55-.1-.73-.694-.721-2.413.038-4.828.016-7.242.016M14.669,42.942q0,4.2,0,8.4c0,.322-.063.63.456.616,1.206-.031,2.412-.023,3.619,0,.384.007.447-.161.447-.489q-.01-8.535.005-17.07c0-.455-.181-.519-.564-.511-1.047.019-2.1.046-3.14-.008-.638-.033-.851.118-.839.805.044,2.753.018,5.508.018,8.262m6.788-1.931c0,3.438.012,6.876-.013,10.314,0,.519.136.669.644.632a11.99,11.99,0,0,1,1.911,0c.661.059.877-.107.873-.833-.035-6.056-.056-12.113.01-18.169a3.25,3.25,0,0,0-1.233-2.945c-.471-.36-.87-.751-1.511-.467s-.689.822-.687,1.425c.012,3.347.005,6.694.005,10.041m-9.025.077q0-3.928,0-7.856c0-.865.006-1.731,0-2.6a1.108,1.108,0,0,0-.746-1.112,1.089,1.089,0,0,0-1.242.308c-.308.3-.592.637-.924.909a1.364,1.364,0,0,0-.493,1.186c.018,4.919.011,9.837.011,14.756,0,1.571.018,3.143-.011,4.713-.009.462.143.578.578.559a17.915,17.915,0,0,1,2.184,0c.577.044.66-.189.657-.694-.02-3.393-.01-6.786-.01-10.179M9.277,54.212c.988,1.483,1.922,2.876,2.842,4.277.16.243.38.21.6.211,2.8,0,5.6-.006,8.4.009a.806.806,0,0,0,.771-.421c.779-1.2,1.586-2.387,2.375-3.584.09-.137.28-.256.158-.492Zm50.6-36.14c-1,0-2,.012-3-.007-.325-.006-.432.093-.428.422q.024,1.844,0,3.687c-.005.339.116.416.432.414q2.936-.018,5.873,0c.343,0,.479-.077.473-.45-.022-1.206-.02-2.413,0-3.619.006-.366-.126-.463-.474-.456-.956.02-1.912.007-2.868.007m-.068,33.874c.979,0,1.958-.013,2.937.007.347.007.481-.088.475-.455-.019-1.206-.021-2.413,0-3.619.007-.372-.129-.453-.472-.45q-2.936.021-5.873,0c-.316,0-.437.075-.432.414q.028,1.843,0,3.688c0,.329.1.428.428.422.979-.018,1.958-.007,2.937-.007M16.939,65.707,20.074,61H13.805l3.133,4.706" transform="translate(0 0)" fill="#030303"/>
    <path id="Trazado_180602" data-name="Trazado 180602" d="M39.079,18.454a4.45,4.45,0,0,0-.644.417,3.381,3.381,0,0,0,2.278,5.951c.954.018.954.018.954.994s-.027,1.96.011,2.938c.018.486-.136.623-.61.6a3.448,3.448,0,0,0-3.089,1.277,3.339,3.339,0,0,0,.4,4.619c.509.49.54.77,0,1.244a30.049,30.049,0,0,0-2.176,2.17c-.324.349-.528.372-.846,0a3.444,3.444,0,0,0-2.32-1.3,3.389,3.389,0,0,0-3.789,3.453c-.037.942-.037.942-1,.942h-2.6c-.907,0-.907,0-.923-.888a3.326,3.326,0,0,0-2.566-3.424,3.253,3.253,0,0,0-3.389,1.09c-.4.447-.659.509-1.09.02a26.691,26.691,0,0,0-2.123-2.127c-.451-.408-.486-.665-.012-1.1a3.253,3.253,0,0,0,.978-3.772,3.3,3.3,0,0,0-3.422-2.2c-.615.007-.828-.142-.791-.782a25.179,25.179,0,0,0,0-2.937c-.038-.652.14-.849.816-.837a3.29,3.29,0,0,0,3.557-2.721,3.245,3.245,0,0,0-1.158-3.241c-.451-.4-.46-.638-.007-1.049.826-.748,1.6-1.558,2.372-2.362.25-.26.423-.27.651,0a4.936,4.936,0,0,0,.535.527,3.188,3.188,0,0,0,3.552.624,3.186,3.186,0,0,0,2.083-2.944c.07-1.21.068-1.21,1.309-1.21.866,0,1.733.034,2.6-.012.53-.028.636.159.636.655,0,2.037.96,3.323,2.733,3.706a3.165,3.165,0,0,0,3.2-1.091c.48-.544.757-.469,1.2.022.7.778,1.472,1.491,2.212,2.233.112.112.216.231.479.512M27,16.945A10.149,10.149,0,1,0,37.149,27.04,10.134,10.134,0,0,0,27,16.945" transform="translate(-10.063 -10.145)" fill="#ffca00"/>
    <path id="Trazado_180603" data-name="Trazado 180603" d="M291.82,179.623c-2.413,0-4.825-.013-7.238.011-.478,0-.611-.122-.6-.6.028-1.866.025-3.733,0-5.6-.006-.453.082-.622.585-.62q7.306.03,14.612,0c.468,0,.623.114.616.6-.027,1.866-.033,3.733,0,5.6.011.552-.2.622-.671.618-2.435-.021-4.871-.01-7.306-.01" transform="translate(-232.054 -141.216)" fill="#fe502d"/>
    <path id="Trazado_180604" data-name="Trazado 180604" d="M291.864,19.212c-2.437,0-4.873-.009-7.31.009-.422,0-.586-.075-.579-.547q.044-2.835,0-5.67c-.006-.453.129-.564.571-.563q7.31.022,14.62,0c.46,0,.631.1.624.594q-.043,2.8,0,5.6c.008.5-.162.59-.618.586-2.436-.021-4.873-.01-7.31-.01" transform="translate(-232.051 -10.166)" fill="#2d54fe"/>
    <path id="Trazado_180605" data-name="Trazado 180605" d="M291.86,333.387c2.414,0,4.828.022,7.242-.016.592-.009.705.172.694.721-.035,1.821-.03,3.644,0,5.465.008.488-.146.6-.616.6q-7.31-.024-14.62,0c-.429,0-.586-.088-.579-.555q.041-2.835,0-5.67c-.007-.459.136-.559.571-.556,2.437.02,4.873.01,7.31.01" transform="translate(-232.054 -272.416)" fill="#2d54fe"/>
    <path id="Trazado_180606" data-name="Trazado 180606" d="M80.144,194.314c0-2.754.026-5.509-.018-8.262-.011-.687.2-.838.839-.805,1.044.053,2.094.027,3.14.008.383-.007.566.056.564.511q-.023,8.535-.005,17.07c0,.329-.063.5-.447.489-1.206-.021-2.413-.029-3.619,0-.519.013-.457-.294-.456-.616q0-4.2,0-8.4" transform="translate(-65.475 -151.372)" fill="#fe502d"/>
    <path id="Trazado_180607" data-name="Trazado 180607" d="M117.295,172.616c0-3.347.006-6.694-.005-10.041,0-.6.055-1.146.687-1.425s1.039.108,1.511.467a3.25,3.25,0,0,1,1.233,2.945c-.067,6.056-.046,12.113-.01,18.169,0,.726-.212.891-.873.833a11.946,11.946,0,0,0-1.911,0c-.508.037-.648-.114-.644-.633.025-3.438.013-6.876.013-10.314" transform="translate(-95.837 -131.604)" fill="#d3d3d3"/>
    <path id="Trazado_180608" data-name="Trazado 180608" d="M52.76,172.667c0,3.393-.01,6.786.01,10.179,0,.505-.08.738-.657.694a17.914,17.914,0,0,0-2.185,0c-.435.02-.587-.1-.578-.559.029-1.571.011-3.142.011-4.713,0-4.919.007-9.837-.011-14.756a1.363,1.363,0,0,1,.493-1.186c.333-.273.617-.606.925-.91a1.089,1.089,0,0,1,1.241-.308,1.109,1.109,0,0,1,.746,1.112c.01.865,0,1.73,0,2.6q0,3.928,0,7.856" transform="translate(-40.327 -131.579)" fill="#d3d3d3"/>
    <path id="Trazado_180609" data-name="Trazado 180609" d="M50.74,296.489H65.891c.123.236-.068.355-.158.492-.789,1.2-1.6,2.381-2.375,3.584a.806.806,0,0,1-.771.421c-2.8-.015-5.6-.008-8.4-.01-.222,0-.441.033-.6-.21-.921-1.4-1.854-2.794-2.842-4.277" transform="translate(-41.462 -242.277)" fill="#e5cdb3"/>
    <path id="Trazado_180610" data-name="Trazado 180610" d="M312.118,98.805c.956,0,1.912.013,2.868-.007.348-.007.48.09.474.456-.019,1.206-.021,2.413,0,3.619.007.373-.129.452-.473.45q-2.936-.021-5.873,0c-.316,0-.437-.075-.432-.414q.028-1.843,0-3.687c0-.33.1-.428.428-.422,1,.018,2,.007,3,.007" transform="translate(-252.243 -80.733)" fill="#ffca00"/>
    <path id="Trazado_180611" data-name="Trazado 180611" d="M312.05,263.908c-.979,0-1.958-.012-2.937.007-.325.006-.432-.093-.428-.422q.024-1.844,0-3.688c-.005-.339.116-.416.432-.414q2.937.018,5.873,0c.344,0,.479.078.472.45-.022,1.206-.02,2.413,0,3.619.006.367-.127.462-.475.455-.979-.02-1.958-.007-2.936-.007" transform="translate(-252.243 -211.961)" fill="#ffca00"/>
    <path id="Trazado_180612" data-name="Trazado 180612" d="M78.636,338.331,75.5,333.625h6.268l-3.135,4.706" transform="translate(-61.698 -272.623)" fill="#2d54fe"/>
    <path id="Trazado_180613" data-name="Trazado 180613" d="M47.294,37.191A10.149,10.149,0,1,1,37.15,47.358,10.137,10.137,0,0,1,47.294,37.191m-7.9,10.136a7.911,7.911,0,1,0,7.919-7.894,7.956,7.956,0,0,0-7.919,7.894" transform="translate(-30.357 -30.391)" fill="#030303"/>
    <path id="Trazado_180614" data-name="Trazado 180614" d="M49.4,57.348a7.911,7.911,0,1,1,7.894,7.929A7.933,7.933,0,0,1,49.4,57.348m2.284,0a5.625,5.625,0,1,0,5.647-5.614,5.611,5.611,0,0,0-5.647,5.614" transform="translate(-40.368 -40.412)" fill="#2d54fe"/>
    <path id="Trazado_180615" data-name="Trazado 180615" d="M61.894,67.561A5.625,5.625,0,1,1,67.458,73.2a5.6,5.6,0,0,1-5.564-5.635m2.233-.024a3.39,3.39,0,1,0,3.418-3.357,3.424,3.424,0,0,0-3.418,3.357" transform="translate(-50.577 -50.62)" fill="#030303"/>
  </g>
</svg>
