<svg xmlns="http://www.w3.org/2000/svg" xmlns:xlink="http://www.w3.org/1999/xlink" width="69.979" height="70" viewBox="0 0 69.979 70">
  <defs>
    <clipPath id="clip-path">
      <rect id="Rectángulo_36941" data-name="Rectángulo 36941" width="69.979" height="70" fill="none"/>
    </clipPath>
  </defs>
  <g id="Grupo_118332" data-name="Grupo 118332" clip-path="url(#clip-path)">
    <path id="Trazado_180508" data-name="Trazado 180508" d="M43.867,24.822c1.74.008,3.48.034,5.219.012.464-.006.577.122.575.579-.02,3.362,0,6.725-.025,10.087,0,.533.13.667.654.647,1.127-.044,2.257-.032,3.386,0,.408.01.518-.118.5-.51-.031-.61-.026-1.223,0-1.833a2.207,2.207,0,0,1,2.167-2.17q5.714-.035,11.429,0A2.2,2.2,0,0,1,69.96,33.84q.035,3.421,0,6.842a2.2,2.2,0,0,1-2.2,2.213q-5.714.031-11.429,0a2.213,2.213,0,0,1-2.165-2.172c-.023-.61-.03-1.224,0-1.833.021-.4-.1-.511-.5-.507-1.9.021-3.81-.006-5.714.021-.46.007-.58-.115-.577-.576.021-3.362,0-6.725.025-10.087,0-.529-.121-.691-.651-.647-.654.054-1.428-.19-1.942.085-.536.286-.415,1.167-.606,1.779A22.143,22.143,0,0,1,29.948,43.9a.772.772,0,0,0-.632.876c.031,2.21.027,4.421,0,6.631,0,.437.1.548.541.542q2.857-.039,5.714,0c.441.006.551-.111.539-.544-.032-1.175,0-2.351-.02-3.527-.008-.378.11-.47.473-.464,1.2.021,2.4,0,3.6.013.292,0,.42-.031.5-.383a2.218,2.218,0,0,1,2.366-1.877q5.5-.008,11.006,0A2.247,2.247,0,0,1,56.42,47.55q.015,3.245,0,6.49a2.26,2.26,0,0,1-2.438,2.408q-5.467.009-10.935,0a2.257,2.257,0,0,1-2.427-2.418c-.008-1.293-.012-2.587.005-3.88,0-.346-.062-.475-.453-.484-1.811-.042-1.811-.058-1.811,1.731,0,.729-.032,1.46.011,2.186.029.484-.1.629-.6.623-2.61-.029-5.22,0-7.831-.025-.484,0-.641.1-.621.606.043,1.08.044,2.164,0,3.244-.022.543.119.692.68.69,6.3-.022,12.6,0,18.907-.029.608,0,.8.123.763.754-.061,1.1,0,2.21-.025,3.314-.008.366.092.478.466.471q1.8-.036,3.6,0c.371.007.486-.1.468-.469-.03-.61-.023-1.223,0-1.834a2.218,2.218,0,0,1,2.2-2.212q5.714-.03,11.429,0a2.188,2.188,0,0,1,2.162,2.172q.042,3.456,0,6.913a2.2,2.2,0,0,1-2.224,2.185q-5.679.027-11.358,0a2.226,2.226,0,0,1-2.207-2.205c-.019-.587-.032-1.177,0-1.763.027-.425-.082-.556-.533-.55-1.9.029-3.81,0-5.714.023-.426.005-.561-.087-.548-.536.036-1.175,0-2.351.02-3.527.007-.363-.088-.473-.464-.472q-8.572.018-17.143,0c-.365,0-.475.092-.47.465.021,1.575.009,3.151.009,4.726,0,2.5-1.334,3.845-3.813,3.846H19.591c-2.451,0-3.807-1.347-3.808-3.779,0-7.125-.008-14.249.015-21.374,0-.573-.179-.768-.7-.97-8.3-3.2-13.44-9.139-14.823-17.959A22.53,22.53,0,0,1,43.868,15.247a.7.7,0,0,0,.841.579,18.2,18.2,0,0,1,2.115,0c.462.027.58-.115.577-.576-.021-3.362,0-6.725-.025-10.087,0-.529.125-.659.651-.649,1.857.036,3.715,0,5.573.026.466.007.6-.122.573-.58a16.554,16.554,0,0,1,0-1.763A2.207,2.207,0,0,1,56.334.025q5.714-.036,11.429,0a2.2,2.2,0,0,1,2.2,2.211q.036,3.421,0,6.842A2.215,2.215,0,0,1,67.7,11.3q-5.644.023-11.288,0A2.232,2.232,0,0,1,54.167,9.05c-.016-.587-.027-1.177.005-1.763.021-.393-.092-.52-.5-.51-1.152.028-2.305.032-3.456,0-.457-.013-.582.109-.579.574.021,3.362,0,6.725.025,10.087,0,.525-.118.661-.649.652-1.809-.031-3.62,0-5.43.007H38.921c-.47-.007-.939-.02-1.409-.021-1.41,0-1.41,0-1.41-1.422,0-.779,0-.779.7-.955-2.858-5.322-7.223-8.433-13.256-8.862a15.788,15.788,0,1,0,3.73,30.813,15.446,15.446,0,0,0,10.215-9.934c.06-.164.506-.59-.18-.616-.39-.015-.935.192-1.13-.1s-.069-.811-.081-1.231c0-.164.016-.331,0-.493-.041-.34.093-.441.431-.436.94.014,1.88-.008,2.82-.015h4.516M22.579,42.905a20.217,20.217,0,0,0,19.31-14.076c.548-1.735.548-1.715-1.231-1.74-.488-.007-.664.133-.807.61a18.1,18.1,0,1,1-1.244-13.266,2.014,2.014,0,0,0,2.347,1.4c.77-.1.779-.019.481-.768A20.315,20.315,0,1,0,22.579,42.905m4.492,16.574c0-2.3-.019-4.6.014-6.907.008-.542-.151-.655-.666-.649q-3.876.04-7.753,0c-.472,0-.639.088-.637.6.021,4.6.01,9.209.014,13.814,0,1,.4,1.39,1.425,1.392q3.1.007,6.2,0c1,0,1.4-.4,1.4-1.419q.007-3.418,0-6.836M62.065,2.272c-1.715,0-3.43.012-5.145-.009-.4,0-.511.108-.507.507q.03,2.889,0,5.779c0,.4.116.5.51.5q5.145-.022,10.29,0c.4,0,.513-.1.509-.5q-.032-2.889,0-5.779c0-.4-.113-.51-.509-.5-1.715.021-3.43.009-5.145.009m.073,31.6c-1.738,0-3.477.012-5.215-.009-.395,0-.514.1-.51.5q.031,2.889,0,5.779c0,.4.109.508.507.506q5.145-.023,10.29,0c.392,0,.516-.1.511-.5q-.032-2.889,0-5.779c0-.4-.106-.513-.506-.508-1.691.021-3.383.009-5.075.009M48.584,47.42c-1.715,0-3.43.009-5.145-.007-.384,0-.584.025-.576.511.032,1.926.025,3.852,0,5.778,0,.411.13.5.516.5q5.145-.021,10.29,0c.405,0,.506-.121.5-.512q-.029-2.889,0-5.778c0-.41-.128-.5-.515-.5-1.691.02-3.383.008-5.074.008M62.068,67.736c1.715,0,3.43-.012,5.145.009.4,0,.513-.105.508-.506q-.032-2.889,0-5.779c0-.4-.114-.506-.509-.5q-5.145.022-10.29,0c-.4,0-.511.109-.506.507q.03,2.889,0,5.779c0,.4.116.508.51.5,1.715-.021,3.43-.009,5.145-.009M22.516,49.67c1.362,0,2.723-.012,4.085.008.363.005.479-.091.473-.466-.022-1.337-.017-2.676,0-4.014,0-.343-.035-.5-.452-.421a20.95,20.95,0,0,1-8.112,0c-.392-.078-.471.039-.466.409.019,1.338.027,2.676,0,4.013-.01.443.175.48.535.475,1.314-.018,2.629-.007,3.944-.007" transform="translate(0 0)" fill="#020202"/>
    <path id="Trazado_180509" data-name="Trazado 180509" d="M199.074,88.337c3.292.007,6.584.01,9.876.03.343,0,.443-.1.429-.434-.025-.61-.02-1.223,0-1.834a2.228,2.228,0,0,1,2.238-2.248q5.644-.026,11.288,0a2.222,2.222,0,0,1,2.27,2.286q.026,3.351,0,6.7a2.224,2.224,0,0,1-2.268,2.289q-5.644.023-11.288,0a2.235,2.235,0,0,1-2.24-2.247c-.016-.611-.021-1.223,0-1.834.014-.336-.087-.437-.429-.434-3.245.02-6.489.022-9.734.03H194.7c-.563-.008-1.126-.021-1.689-.021-1.8,0-1.787,0-1.709-1.832.014-.335.1-.439.437-.434.938.015,1.877-.007,2.816-.014h4.52M217.2,92.874c1.715,0,3.43-.015,5.145.01.451.007.593-.1.586-.573q-.044-2.818,0-5.637c.006-.456-.111-.585-.576-.582q-5.074.031-10.149,0c-.451,0-.592.1-.585.574q.042,2.818,0,5.637c-.006.457.112.59.577.582,1.667-.029,3.336-.011,5-.011" transform="translate(-155.207 -68.03)" fill="#020202"/>
    <path id="Trazado_180510" data-name="Trazado 180510" d="M211.353,98.171h-4.52l-.425-2.214h4.663l.282,2.212" transform="translate(-167.487 -77.864)" fill="#e2e4e8"/>
    <path id="Trazado_180511" data-name="Trazado 180511" d="M208.824,119.907h4.517a14.4,14.4,0,0,1-.141,2.211h-4.516a14.687,14.687,0,0,0,.141-2.212" transform="translate(-169.333 -97.297)" fill="#e2e4e8"/>
    <path id="Trazado_180512" data-name="Trazado 180512" d="M68.514,51.851a14.688,14.688,0,0,1-.141,2.212c-.94.008-1.88.029-2.82.015-.338-.005-.473.1-.431.436.02.162,0,.329,0,.493.011.419-.117.934.081,1.231s.74.086,1.13.1c.687.026.24.452.18.616A15.446,15.446,0,0,1,56.3,66.888a15.788,15.788,0,1,1-3.73-30.813c6.033.429,10.4,3.54,13.256,8.862-.7.176-.7.176-.7.955,0,1.421,0,1.419,1.41,1.422.47,0,.939.013,1.409.021l.425,2.214c-.939.007-1.877.029-2.816.014-.337-.005-.423.1-.437.434-.078,1.832-.089,1.83,1.709,1.832.563,0,1.126.014,1.689.021m-25.1,3.364c-.66.658-1.182,1.222-1.754,1.733-.375.336-.425.539-.022.923q1.988,1.9,3.891,3.888c.365.38.569.4.925,0,.513-.578,1.095-1.093,1.743-1.729,0,.981.019,1.78-.008,2.578-.014.389.089.52.5.516q2.892-.032,5.784,0c.4,0,.522-.108.507-.508-.029-.825-.009-1.652-.009-2.655.719.731,1.305,1.307,1.867,1.907.237.253.391.3.666.024q2.047-2.092,4.137-4.142c.261-.257.279-.411,0-.667-.61-.569-1.189-1.171-1.891-1.869.982,0,1.8-.019,2.611.008.386.013.523-.084.518-.5q-.033-2.891,0-5.783c0-.4-.1-.524-.506-.509-.825.03-1.652.009-2.625.009.714-.709,1.286-1.3,1.884-1.862.259-.244.289-.4.014-.667q-2.09-2.05-4.139-4.14c-.259-.263-.416-.269-.668,0-.568.611-1.167,1.192-1.871,1.906,0-1.024-.013-1.863.006-2.7.007-.323-.068-.45-.423-.447-1.975.016-3.95.02-5.925,0-.417,0-.443.18-.437.5.016.812.005,1.624.005,2.663-.711-.729-1.29-1.3-1.836-1.894-.263-.288-.43-.308-.718-.013q-2.022,2.067-4.09,4.089c-.285.279-.3.443,0,.717.606.563,1.177,1.165,1.856,1.845-.994,0-1.817.016-2.639-.007-.354-.01-.488.071-.484.459q.03,2.927,0,5.854c0,.363.091.488.467.475.821-.028,1.644-.008,2.659-.008" transform="translate(-29.023 -29.24)" fill="#90d3ef"/>
    <path id="Trazado_180513" data-name="Trazado 180513" d="M32.237,52.713A20.312,20.312,0,1,1,51.093,24.874c.3.749.288.671-.481.768a2.013,2.013,0,0,1-2.347-1.4,17.944,17.944,0,0,0-18.58-9.734,18.054,18.054,0,1,0,19.824,23c.144-.477.319-.617.807-.61,1.779.025,1.779,0,1.231,1.74a20.217,20.217,0,0,1-19.31,14.076" transform="translate(-9.658 -9.809)" fill="#e2e4e8"/>
    <path id="Trazado_180514" data-name="Trazado 180514" d="M104.656,282.911c0,2.279,0,4.558,0,6.836,0,1.018-.394,1.416-1.4,1.419q-3.1.008-6.2,0c-1.022,0-1.424-.391-1.425-1.392,0-4.6.007-9.209-.014-13.814,0-.516.165-.608.637-.6q3.876.033,7.753,0c.515-.005.674.107.666.649-.033,2.3-.014,4.6-.014,6.907" transform="translate(-77.584 -223.433)" fill="#fe502d"/>
    <path id="Trazado_180515" data-name="Trazado 180515" d="M304.824,12.006c1.715,0,3.43.012,5.145-.009.4,0,.513.1.509.5q-.029,2.889,0,5.779c0,.4-.113.507-.509.5q-5.145-.022-10.29,0c-.394,0-.514-.1-.51-.5q.031-2.889,0-5.779c0-.4.108-.512.507-.507,1.715.021,3.43.009,5.145.009m-2.313,4.515c1.186,0,1.186,0,1.186-1.143,0-1.115,0-1.115-1.144-1.115-1.115,0-1.115,0-1.115,1.143,0,1.115,0,1.115,1.073,1.115m3.442-1.185c0,1.185,0,1.185,1.144,1.185,1.115,0,1.115,0,1.115-1.143,0-1.115,0-1.115-1.144-1.115-1.115,0-1.115,0-1.115,1.073" transform="translate(-242.758 -9.735)" fill="#ffca00"/>
    <path id="Trazado_180516" data-name="Trazado 180516" d="M304.9,179.608c1.691,0,3.383.012,5.074-.009.4-.005.51.111.506.508q-.028,2.889,0,5.778c0,.4-.119.5-.511.5q-5.145-.022-10.29,0c-.4,0-.511-.107-.507-.506q.03-2.889,0-5.779c0-.4.115-.508.51-.5,1.738.021,3.477.009,5.216.009m-2.289,2.256c-1.171,0-1.171,0-1.171,1.158,0,1.1,0,1.1,1.088,1.1,1.171,0,1.171,0,1.171-1.158,0-1.1,0-1.1-1.088-1.1m3.345,1.073c0,1.185,0,1.185,1.144,1.185,1.115,0,1.115,0,1.115-1.143,0-1.115,0-1.115-1.144-1.115-1.115,0-1.115,0-1.115,1.073" transform="translate(-242.758 -145.733)" fill="#ffca00"/>
    <path id="Trazado_180517" data-name="Trazado 180517" d="M233.033,251.441c1.692,0,3.383.011,5.074-.008.387,0,.519.088.515.5q-.031,2.889,0,5.779c0,.391-.1.514-.5.512q-5.145-.024-10.29,0c-.386,0-.52-.086-.516-.5.022-1.926.028-3.853,0-5.778-.008-.485.192-.514.575-.511,1.715.016,3.43.007,5.145.007m-2.319,2.256c-1.132,0-1.132,0-1.132,1.127s0,1.131,1.127,1.131,1.132,0,1.132-1.127,0-1.131-1.127-1.131m3.384,1.078c0,1.18,0,1.18,1.149,1.18,1.11,0,1.11,0,1.11-1.078,0-1.18,0-1.18-1.149-1.18-1.11,0-1.11,0-1.11,1.078" transform="translate(-184.45 -204.021)" fill="#2d54fe"/>
    <path id="Trazado_180518" data-name="Trazado 180518" d="M304.827,330.041c-1.715,0-3.43-.012-5.145.009-.394,0-.514-.1-.51-.5q.031-2.889,0-5.779c0-.4.108-.509.506-.507q5.145.023,10.29,0c.4,0,.513.1.509.5q-.029,2.889,0,5.779c0,.4-.112.51-.508.506-1.715-.021-3.43-.009-5.145-.009m-2.2-4.515c-1.194,0-1.194,0-1.194,1.206,0,1.053,0,1.053,1.065,1.053,1.194,0,1.194,0,1.194-1.205,0-1.053,0-1.053-1.065-1.053m4.409,2.259c1.171,0,1.171,0,1.171-1.158,0-1.1,0-1.1-1.088-1.1-1.171,0-1.171,0-1.171,1.158,0,1.1,0,1.1,1.088,1.1" transform="translate(-242.758 -262.305)" fill="#ffca00"/>
    <path id="Trazado_180519" data-name="Trazado 180519" d="M100.133,242.263c-1.315,0-2.629-.011-3.944.007-.36,0-.545-.032-.535-.475.031-1.337.023-2.676,0-4.013-.005-.37.073-.487.466-.409a20.95,20.95,0,0,0,8.112,0c.417-.08.455.078.452.422-.014,1.338-.019,2.676,0,4.014.006.374-.109.471-.473.466-1.361-.02-2.723-.008-4.085-.008" transform="translate(-77.617 -192.593)" fill="#e2e4e8"/>
    <path id="Trazado_180520" data-name="Trazado 180520" d="M304.74,102.57c-1.668,0-3.336-.018-5,.011-.465.008-.583-.125-.577-.582q.039-2.818,0-5.637c-.007-.47.133-.576.585-.574q5.074.028,10.149,0c.465,0,.582.127.576.582q-.038,2.818,0,5.637c.007.471-.135.58-.586.573-1.714-.026-3.43-.01-5.145-.01m-2.119-4.515c-1.194,0-1.194,0-1.194,1.205,0,1.053,0,1.053,1.065,1.053,1.194,0,1.194,0,1.194-1.205,0-1.053,0-1.053-1.065-1.053m5.58,1.078c0-1.078,0-1.078-1.11-1.078-1.149,0-1.149,0-1.149,1.18,0,1.078,0,1.078,1.11,1.078,1.149,0,1.149,0,1.149-1.18" transform="translate(-242.747 -77.726)" fill="#2d54fe"/>
    <path id="Trazado_180521" data-name="Trazado 180521" d="M62.837,74.56c-1.015,0-1.838-.019-2.659.008-.377.013-.47-.112-.467-.475q.024-2.927,0-5.854c0-.388.129-.469.484-.459.822.023,1.644.007,2.639.007-.679-.68-1.25-1.282-1.856-1.845-.3-.274-.285-.438,0-.717q2.066-2.023,4.09-4.089c.288-.294.455-.275.719.013.546.6,1.125,1.165,1.836,1.894,0-1.039.011-1.851-.005-2.663-.006-.324.02-.509.437-.5,1.975.022,3.95.018,5.925,0,.354,0,.43.124.423.447-.019.838-.006,1.677-.006,2.7.7-.713,1.3-1.295,1.871-1.906.252-.272.409-.266.668,0q2.051,2.088,4.139,4.14c.275.269.245.424-.014.667-.6.563-1.17,1.153-1.884,1.862.973,0,1.8.021,2.625-.009.4-.015.51.113.506.509q-.029,2.891,0,5.783c0,.413-.132.51-.518.5-.814-.027-1.63-.008-2.611-.008.7.7,1.281,1.3,1.891,1.869.274.256.257.41,0,.667q-2.087,2.053-4.137,4.142c-.274.28-.429.229-.666-.024-.561-.6-1.147-1.176-1.867-1.907,0,1-.021,1.83.009,2.655.014.4-.108.512-.507.508q-2.892-.03-5.784,0c-.41,0-.513-.127-.5-.516.028-.8.008-1.6.008-2.578-.648.636-1.23,1.152-1.743,1.729-.355.4-.559.378-.925,0q-1.906-1.982-3.891-3.888c-.4-.384-.353-.587.023-.923.571-.511,1.094-1.076,1.754-1.733M78.243,65.5a9.133,9.133,0,0,1-1.028-.909c-.426-.506-.723-.611-1.226-.034a2.029,2.029,0,0,1-2.449.519,2.059,2.059,0,0,1-1.385-2.09c.039-.73-.2-.969-.883-.846a2.03,2.03,0,0,1-.352,0c-.985,0-.981,0-1.045.945a2.181,2.181,0,0,1-1.367,1.974,2.14,2.14,0,0,1-2.315-.326c-.846-.672-.842-.678-1.608.087a1.345,1.345,0,0,1-.151.148c-.543.39-.608.715-.039,1.216a2.041,2.041,0,0,1,.518,2.451,2.166,2.166,0,0,1-1.953,1.4c-.979.077-.979.072-.979,1.083v.141c0,.983,0,.98.948,1.041a2.175,2.175,0,0,1,1.944,1.305,2.215,2.215,0,0,1-.25,2.33c-.216.312-.767.492-.655.885.1.338.517.584.794.871a.442.442,0,0,1,.049.051c.391.549.72.6,1.216.035a2.022,2.022,0,0,1,2.384-.538,2.165,2.165,0,0,1,1.461,1.976c.081.978.073.979,1.084.979H71.1c.983,0,.978,0,1.042-.948a2.176,2.176,0,0,1,1.369-1.972,2.14,2.14,0,0,1,2.315.328c.845.673.841.678,1.608-.088a1.36,1.36,0,0,1,.151-.148c.541-.39.613-.715.039-1.216a2.025,2.025,0,0,1-.519-2.448A2.192,2.192,0,0,1,79.262,72.3l.494,0c.118,0,.262,0,.264-.153a7.977,7.977,0,0,0-.043-1.963c-.074-.3-.676-.07-1.031-.144-.114-.024-.231-.039-.344-.071A2.247,2.247,0,0,1,77.58,66.2c.186-.2.379-.4.663-.7" transform="translate(-48.45 -48.586)" fill="#020202"/>
    <path id="Trazado_180522" data-name="Trazado 180522" d="M312.261,26.27c-1.073,0-1.073,0-1.073-1.115,0-1.144,0-1.144,1.115-1.144,1.144,0,1.144,0,1.144,1.115,0,1.143,0,1.143-1.186,1.143" transform="translate(-252.509 -19.483)" fill="#020202"/>
    <path id="Trazado_180523" data-name="Trazado 180523" d="M335.134,25.085c0-1.073,0-1.073,1.115-1.073,1.144,0,1.144,0,1.144,1.115,0,1.143,0,1.143-1.115,1.143-1.144,0-1.144,0-1.144-1.185" transform="translate(-271.94 -19.484)" fill="#020202"/>
    <path id="Trazado_180524" data-name="Trazado 180524" d="M312.359,191.614c1.088,0,1.088,0,1.088,1.1,0,1.158,0,1.158-1.171,1.158-1.088,0-1.088,0-1.088-1.1,0-1.158,0-1.158,1.171-1.158" transform="translate(-252.509 -155.482)" fill="#020202"/>
    <path id="Trazado_180525" data-name="Trazado 180525" d="M335.134,192.687c0-1.073,0-1.073,1.115-1.073,1.144,0,1.144,0,1.144,1.115,0,1.143,0,1.143-1.115,1.143-1.144,0-1.144,0-1.144-1.185" transform="translate(-271.94 -155.482)" fill="#020202"/>
    <path id="Trazado_180526" data-name="Trazado 180526" d="M240.482,263.443c1.127,0,1.127,0,1.127,1.131s0,1.127-1.132,1.127-1.127,0-1.127-1.132,0-1.127,1.132-1.127" transform="translate(-194.217 -213.767)" fill="#020202"/>
    <path id="Trazado_180527" data-name="Trazado 180527" d="M263.3,264.521c0-1.078,0-1.078,1.11-1.078,1.149,0,1.149,0,1.149,1.18,0,1.078,0,1.078-1.11,1.078-1.149,0-1.149,0-1.149-1.18" transform="translate(-213.648 -213.767)" fill="#020202"/>
    <path id="Trazado_180528" data-name="Trazado 180528" d="M312.382,335.273c1.065,0,1.065,0,1.065,1.053,0,1.206,0,1.206-1.194,1.206-1.065,0-1.065,0-1.065-1.053,0-1.205,0-1.205,1.194-1.205" transform="translate(-252.509 -272.052)" fill="#020202"/>
    <path id="Trazado_180529" data-name="Trazado 180529" d="M336.222,337.531c-1.088,0-1.088,0-1.088-1.1,0-1.158,0-1.158,1.171-1.158,1.088,0,1.088,0,1.088,1.1,0,1.158,0,1.158-1.171,1.158" transform="translate(-271.94 -272.051)" fill="#020202"/>
    <path id="Trazado_180530" data-name="Trazado 180530" d="M312.382,107.813c1.065,0,1.065,0,1.065,1.053,0,1.205,0,1.205-1.194,1.205-1.065,0-1.065,0-1.065-1.053,0-1.205,0-1.205,1.194-1.205" transform="translate(-252.509 -87.483)" fill="#020202"/>
    <path id="Trazado_180531" data-name="Trazado 180531" d="M337.393,108.891c0,1.18,0,1.18-1.149,1.18-1.11,0-1.11,0-1.11-1.078,0-1.18,0-1.18,1.149-1.18,1.11,0,1.11,0,1.11,1.078" transform="translate(-271.94 -87.483)" fill="#020202"/>
    <path id="Trazado_180532" data-name="Trazado 180532" d="M88.019,75.137c-.284.3-.478.494-.663.7A2.247,2.247,0,0,0,88.377,79.6c.112.031.229.047.344.071.355.075.957-.16,1.031.144a7.977,7.977,0,0,1,.043,1.963c0,.151-.147.152-.264.153l-.494,0a2.191,2.191,0,0,0-2.162,1.407,2.026,2.026,0,0,0,.519,2.448c.574.5.5.826-.039,1.216a1.361,1.361,0,0,0-.151.148c-.766.766-.762.761-1.608.088a2.141,2.141,0,0,0-2.315-.328,2.175,2.175,0,0,0-1.369,1.972c-.063.948-.059.948-1.042.948h-.141c-1.011,0-1,0-1.084-.979a2.165,2.165,0,0,0-1.461-1.976,2.022,2.022,0,0,0-2.384.538c-.5.57-.825.514-1.216-.035a.475.475,0,0,0-.049-.051c-.277-.287-.7-.532-.794-.871-.113-.392.439-.572.655-.884a2.215,2.215,0,0,0,.25-2.33,2.175,2.175,0,0,0-1.944-1.3c-.948-.062-.948-.059-.948-1.041v-.141c0-1.011,0-1.005.979-1.083a2.166,2.166,0,0,0,1.953-1.4,2.041,2.041,0,0,0-.518-2.451c-.569-.5-.5-.825.039-1.216a1.343,1.343,0,0,0,.151-.148c.765-.764.761-.759,1.608-.087a2.14,2.14,0,0,0,2.315.326,2.181,2.181,0,0,0,1.367-1.974c.064-.945.06-.945,1.045-.945a2.03,2.03,0,0,0,.352,0c.688-.123.922.115.883.845a2.059,2.059,0,0,0,1.385,2.09,2.029,2.029,0,0,0,2.449-.519c.5-.577.8-.472,1.226.033a9.135,9.135,0,0,0,1.028.909M80.78,85.32a4.515,4.515,0,1,0-4.513-4.534A4.518,4.518,0,0,0,80.78,85.32" transform="translate(-58.225 -58.218)" fill="#ffca00"/>
    <path id="Trazado_180533" data-name="Trazado 180533" d="M100.191,104.872a4.515,4.515,0,1,1,4.517-4.532,4.518,4.518,0,0,1-4.517,4.532m.023-6.771a2.256,2.256,0,1,0,2.234,2.313,2.262,2.262,0,0,0-2.234-2.313" transform="translate(-77.636 -77.769)" fill="#020202"/>
    <path id="Trazado_180534" data-name="Trazado 180534" d="M109.932,107.821a2.256,2.256,0,1,1-2.278,2.2,2.27,2.27,0,0,1,2.278-2.2" transform="translate(-87.354 -87.489)" fill="#90d3ef"/>
  </g>
</svg>
