<svg xmlns="http://www.w3.org/2000/svg" xmlns:xlink="http://www.w3.org/1999/xlink" width="400" height="370" viewBox="0 0 400 370">
  <defs>
    <clipPath id="clip-path">
      <rect id="Rect치ngulo_36933" data-name="Rect치ngulo 36933" width="120.051" height="120" fill="none"/>
    </clipPath>
  </defs>
  <g id="Grupo_118346" data-name="Grupo 118346" transform="translate(-810 -2540)">
    <rect id="Rect치ngulo_36864" data-name="Rect치ngulo 36864" width="400" height="370" transform="translate(810 2540)" fill="#ffca00"/>
    <path id="Trazado_180478" data-name="Trazado 180478" d="M42.617,14.82a10.062,10.062,0,0,1-.926,4.418A6.842,6.842,0,0,1,39.061,22.2a7.326,7.326,0,0,1-3.885,1.037,7.429,7.429,0,0,1-3.867-1,6.831,6.831,0,0,1-2.631-2.865,9.772,9.772,0,0,1-.99-4.277v-.961a10.106,10.106,0,0,1,.92-4.424,6.825,6.825,0,0,1,2.637-2.959,7.805,7.805,0,0,1,7.775-.012A6.948,6.948,0,0,1,41.662,9.67a9.816,9.816,0,0,1,.955,4.365Zm-4.184-.715a7.175,7.175,0,0,0-.85-3.861,2.725,2.725,0,0,0-2.432-1.318q-3.094,0-3.27,4.641l-.012,1.254a7.379,7.379,0,0,0,.832,3.855,2.721,2.721,0,0,0,2.473,1.348,2.688,2.688,0,0,0,2.4-1.324,7.178,7.178,0,0,0,.855-3.809Zm17.895,2.648A7.646,7.646,0,0,1,55,21.471a4.264,4.264,0,0,1-3.592,1.764,3.655,3.655,0,0,1-2.871-1.277v5.918H44.586V10.32h3.691l.117,1.172a3.656,3.656,0,0,1,2.988-1.406,4.3,4.3,0,0,1,3.645,1.729,7.741,7.741,0,0,1,1.3,4.752Zm-3.949-.246q0-3.375-1.969-3.375a1.859,1.859,0,0,0-1.875,1.008v4.992a1.919,1.919,0,0,0,1.9,1.055q1.887,0,1.945-3.258Zm5.191.035a7.484,7.484,0,0,1,.738-3.381,5.28,5.28,0,0,1,2.121-2.279,6.388,6.388,0,0,1,3.246-.8,5.83,5.83,0,0,1,4.488,1.764,6.768,6.768,0,0,1,1.641,4.8v.141a6.566,6.566,0,0,1-1.646,4.705,5.846,5.846,0,0,1-4.459,1.74,5.912,5.912,0,0,1-4.348-1.623,6.348,6.348,0,0,1-1.77-4.4Zm3.949.246a4.718,4.718,0,0,0,.551,2.578,1.835,1.835,0,0,0,1.629.82q2.109,0,2.156-3.246v-.4q0-3.41-2.18-3.41-1.98,0-2.145,2.941Zm17.7-2.895-1.3-.094a2.336,2.336,0,0,0-2.391,1.172V23H71.574V10.32h3.7l.129,1.629a3.058,3.058,0,0,1,2.777-1.863,3.851,3.851,0,0,1,1.1.141Zm6.609-6.727V10.32H87.91v2.742H85.824v5.8a1.481,1.481,0,0,0,.258,1,1.383,1.383,0,0,0,1.02.281,5.793,5.793,0,0,0,.984-.07v2.824a7.288,7.288,0,0,1-2.227.34,4.137,4.137,0,0,1-3.012-.961,3.939,3.939,0,0,1-.973-2.918V13.063H80.258V10.32h1.617V7.168ZM97.016,21.629a4.072,4.072,0,0,1-3.387,1.605,3.993,3.993,0,0,1-3.158-1.213A5.1,5.1,0,0,1,89.4,18.535V10.32h3.949v8.238a1.419,1.419,0,0,0,1.582,1.629,2.064,2.064,0,0,0,1.934-.973V10.32h3.973V23h-3.7Zm9.609-11.309.129,1.488a4.3,4.3,0,0,1,3.621-1.723,3.618,3.618,0,0,1,2.959,1.184,5.635,5.635,0,0,1,1.014,3.563V23h-3.961V15A2.14,2.14,0,0,0,110,13.584a1.789,1.789,0,0,0-1.406-.451,1.883,1.883,0,0,0-1.723.914V23h-3.949V10.32ZM120.7,23h-3.961V10.32H120.7ZM116.5,7.039a1.778,1.778,0,0,1,.609-1.391,2.579,2.579,0,0,1,3.164,0,1.778,1.778,0,0,1,.609,1.391,1.778,1.778,0,0,1-.609,1.391,2.579,2.579,0,0,1-3.164,0A1.778,1.778,0,0,1,116.5,7.039Zm6.129,9.527a7.746,7.746,0,0,1,1.3-4.746,4.282,4.282,0,0,1,3.633-1.734,3.641,3.641,0,0,1,2.859,1.336V5h3.961V23h-3.551l-.2-1.359a3.739,3.739,0,0,1-3.094,1.594,4.274,4.274,0,0,1-3.586-1.734A7.991,7.991,0,0,1,122.633,16.566Zm3.949.246q0,3.375,1.969,3.375a1.944,1.944,0,0,0,1.875-1.1V14.258a1.892,1.892,0,0,0-1.852-1.125q-1.828,0-1.98,2.953ZM143.773,23a4.459,4.459,0,0,1-.375-1.137,3.672,3.672,0,0,1-3.047,1.371A4.5,4.5,0,0,1,137.3,22.15a3.45,3.45,0,0,1-1.254-2.725,3.546,3.546,0,0,1,1.523-3.117A7.761,7.761,0,0,1,142,15.254h1.219v-.671q0-1.755-1.512-1.755a1.236,1.236,0,0,0-1.406,1.39h-3.949a3.54,3.54,0,0,1,1.564-2.985,6.575,6.575,0,0,1,3.99-1.147,5.764,5.764,0,0,1,3.832,1.184,4.115,4.115,0,0,1,1.441,3.246v5.613a5.748,5.748,0,0,0,.539,2.672V23ZM141.3,20.422a2.2,2.2,0,0,0,1.225-.316,1.983,1.983,0,0,0,.7-.715V17.363h-1.148q-2.062,0-2.062,1.852a1.131,1.131,0,0,0,.363.873A1.315,1.315,0,0,0,141.3,20.422Zm7.57-3.855a7.746,7.746,0,0,1,1.3-4.746,4.282,4.282,0,0,1,3.633-1.734,3.641,3.641,0,0,1,2.859,1.336V5h3.961V23h-3.551l-.2-1.359a3.739,3.739,0,0,1-3.094,1.594A4.274,4.274,0,0,1,150.2,21.5,7.991,7.991,0,0,1,148.871,16.566Zm3.949.246q0,3.375,1.969,3.375a1.944,1.944,0,0,0,1.875-1.1V14.258a1.892,1.892,0,0,0-1.852-1.125q-1.828,0-1.98,2.953ZM169,23.234a6.518,6.518,0,0,1-4.723-1.74,6.009,6.009,0,0,1-1.8-4.529v-.328A7.787,7.787,0,0,1,163.2,13.2a5.274,5.274,0,0,1,2.1-2.3,6.35,6.35,0,0,1,3.281-.814,5.489,5.489,0,0,1,4.219,1.658,6.516,6.516,0,0,1,1.547,4.623V17.9H166.5a2.846,2.846,0,0,0,.926,1.676,2.755,2.755,0,0,0,1.852.609,3.549,3.549,0,0,0,2.93-1.312l1.8,2.133a5.045,5.045,0,0,1-2.092,1.623A7.069,7.069,0,0,1,169,23.234Zm-.445-10.1q-1.734,0-2.062,2.3h3.984v-.3a1.956,1.956,0,0,0-.48-1.471A1.912,1.912,0,0,0,168.559,13.133Zm14.016,6.3a.912.912,0,0,0-.527-.809,8.021,8.021,0,0,0-2-.633,9.138,9.138,0,0,1-2.437-.861,4.083,4.083,0,0,1-1.465-1.295,3.092,3.092,0,0,1-.5-1.746,3.5,3.5,0,0,1,1.441-2.877,5.938,5.938,0,0,1,3.773-1.131,6.579,6.579,0,0,1,4.031,1.137,3.555,3.555,0,0,1,1.523,2.988h-3.961q0-1.523-1.605-1.523a1.591,1.591,0,0,0-1.043.346,1.07,1.07,0,0,0-.422.861.982.982,0,0,0,.516.855,4.872,4.872,0,0,0,1.646.539,14.228,14.228,0,0,1,1.986.5q2.859.984,2.859,3.527a3.321,3.321,0,0,1-1.541,2.824,6.758,6.758,0,0,1-3.99,1.09,6.9,6.9,0,0,1-2.906-.586,4.86,4.86,0,0,1-1.992-1.594,3.609,3.609,0,0,1-.715-2.121h3.691a1.526,1.526,0,0,0,.586,1.283,2.41,2.41,0,0,0,1.441.4,1.9,1.9,0,0,0,1.213-.328A1.05,1.05,0,0,0,182.574,19.438Z" transform="translate(903 2770)" fill="#12263f"/>
    <g id="Grupo_118327" data-name="Grupo 118327" transform="translate(949.975 2638.155)">
      <g id="Grupo_118326" data-name="Grupo 118326" clip-path="url(#clip-path)">
        <path id="Trazado_180458" data-name="Trazado 180458" d="M15.518,25.174c0-2.459-.011-4.917,0-7.375.009-1.572.715-2.275,2.3-2.278,4.917-.01,9.834,0,14.75-.011a2.034,2.034,0,0,1,2.14,1.23,2.077,2.077,0,0,1-.684,2.379C33.323,19.87,32,20.493,32.08,21.4c.069.776,1.267,1.457,1.975,2.171,1.107,1.116,2.239,2.207,3.323,3.345.376.395.614.455,1.071.088a33.789,33.789,0,0,1,13.18-6.538c.437-.109.686-.252.666-.782-.044-1.167-.042-2.338,0-3.505.019-.549-.178-.683-.691-.665-1.006.035-2.014.006-3.022.011a1.92,1.92,0,0,1-1.928-1.18,1.846,1.846,0,0,1,.471-2.2Q52.841,6.4,58.584.685A1.854,1.854,0,0,1,61.474.7q5.757,5.7,11.46,11.451a1.835,1.835,0,0,1,.447,2.21,1.933,1.933,0,0,1-1.942,1.161c-.967-.008-1.937.042-2.9-.016-.661-.04-.812.2-.788.816.047,1.248-.363,2.693.14,3.691.488.966,2.117.806,3.227,1.192A34.074,34.074,0,0,1,81.35,26.745c.692.555,1.041.5,1.62-.121,1.461-1.557,2.963-3.08,4.532-4.527.715-.658.6-1.033-.053-1.583a18.44,18.44,0,0,1-1.711-1.706,1.819,1.819,0,0,1-.391-2.115,1.858,1.858,0,0,1,1.81-1.17c5.118-.006,10.236-.017,15.354.007a1.881,1.881,0,0,1,2,2.08c.019,5.078.009,10.156.006,15.234a1.886,1.886,0,0,1-1.249,1.882,1.857,1.857,0,0,1-2.1-.477c-.673-.637-1.329-1.293-1.958-1.973-.355-.383-.6-.384-.971-.005q-3.181,3.23-6.409,6.414a.773.773,0,0,0-.167,1.042,33.713,33.713,0,0,1,3.045,11.725c.048.661.281.855.948.845,2.659-.041,5.32-.052,7.979,0,.788.017.947-.24.9-.952-.059-.964-.023-1.934-.01-2.9a1.869,1.869,0,0,1,1.179-1.8,1.781,1.781,0,0,1,2.113.4q5.832,5.794,11.619,11.632a1.786,1.786,0,0,1-.021,2.709q-5.779,5.847-11.626,11.625a1.765,1.765,0,0,1-2.119.364,1.881,1.881,0,0,1-1.148-1.825c-.007-.967-.063-1.939.016-2.9.065-.79-.236-.914-.946-.907q-5.319.054-10.639,0a1.131,1.131,0,0,0-1.254.787,31.728,31.728,0,0,1-5.192,8.237A20.538,20.538,0,0,0,81.295,90.8a5.553,5.553,0,0,1-3.172,5.285,1.136,1.136,0,0,0-.7,1.192,25.01,25.01,0,0,1-.147,4.821,7.455,7.455,0,0,1-4.831,5.728,1.118,1.118,0,0,0-.845,1.2,11.593,11.593,0,0,1-23.155-.059,1.041,1.041,0,0,0-.782-1.116,7.651,7.651,0,0,1-5.051-7.488c0-.4-.031-.809,0-1.209.143-1.595.019-2.886-1.719-3.812a4.573,4.573,0,0,1-2.136-4.239,22.042,22.042,0,0,0-5.735-14.974,28.9,28.9,0,0,1-4.67-7.573,1.129,1.129,0,0,0-1.234-.819q-5.379.059-10.76,0c-.7-.007-.89.2-.852.876.055.964.015,1.934.012,2.9a1.9,1.9,0,0,1-1.233,1.893,1.817,1.817,0,0,1-2.107-.456Q6.39,67.2.642,61.411a1.833,1.833,0,0,1,.018-2.8Q6.4,52.809,12.2,47.065a1.8,1.8,0,0,1,2.109-.431,1.911,1.911,0,0,1,1.212,1.907c0,1.008.036,2.017-.012,3.022-.029.6.187.734.752.729q4.171-.04,8.342,0c.524,0,.683-.166.714-.674a32.444,32.444,0,0,1,3.124-11.944c.234-.5.037-.725-.266-1.025-2.114-2.1-4.229-4.206-6.318-6.333-.407-.414-.666-.435-1.058,0-.565.628-1.19,1.2-1.788,1.8a1.935,1.935,0,0,1-2.288.586,1.972,1.972,0,0,1-1.208-2.033c.013-2.5,0-5,0-7.5m46.991,83.282c-3.092,0-6.185.027-9.277-.035-.9-.018-.956.3-.817,1.041a8.311,8.311,0,0,0,1.682,3.8,7.552,7.552,0,0,0,8.2,2.529,7.879,7.879,0,0,0,5.439-6.587c.041-.5.013-.844-.651-.82-1.523.054-3.048.052-4.573.073m52.636-48.443c-2.03-2.408-4.4-4.47-6.678-6.863-.19,2.581-.641,3-2.979,3-4.26,0-8.519-.018-12.779.012-1.189.008-2.8-.539-3.458.231-.691.8-.193,2.377-.167,3.615a24.257,24.257,0,0,1-.055,2.526c-.135,1.127.3,1.39,1.384,1.378,5.222-.057,10.444-.031,15.666-.022,1.592,0,2.236.652,2.321,2.252.009.173-.1.405.272.553,2.076-2.274,4.491-4.264,6.473-6.684M4.9,60.013c2.019,2.411,4.383,4.47,6.687,6.875.148-2.544.635-3,2.91-3,4.273,0,8.545.019,12.818-.013,1.192-.009,2.8.541,3.47-.239.7-.814.2-2.386.174-3.627a22.441,22.441,0,0,1,.057-2.527c.149-1.155-.336-1.365-1.391-1.354-5.1.052-10.205.025-15.308.023-2.028,0-2.584-.528-2.676-2.513,0-.1.029-.257-.281-.259-2.08,2.2-4.451,4.237-6.458,6.633m75.63-21c.615.636,1.279,1.232,1.832,1.917.648.8,1.086.694,1.782-.013C88.413,36.584,92.728,32.295,97.037,28c1.128-1.125,1.887-1.16,3.165-.207.13.1.242.2.45.059,0-2.548-.008-5.126.007-7.7,0-.538-.1-.879-.737-.734H91.936c1.334,1.729,1.293,2.406-.106,3.806q-5.718,5.725-11.443,11.444c-2.233,2.233-2.233,2.234.143,4.351M60.287,5.08c-.519-.529-.7.105-.919.319-1.272,1.227-2.513,2.487-3.76,3.74-.775.779-1.543,1.566-2.405,2.442,2.528.176,2.95.63,2.951,2.975,0,5.143.014,10.286-.015,15.429,0,.754.153,1.091.983,1.027,1.039-.08,2.087-.045,3.13-.06a21.107,21.107,0,0,1,2.286.059c1.128.145,1.39-.3,1.378-1.384-.057-5.144-.027-10.289-.025-15.433,0-1.871.565-2.464,2.387-2.552.138-.007.335.06.342.015L60.287,5.08M19.442,20.343v7.718c1.726-1.293,2.379-1.251,3.78.148q5.726,5.717,11.445,11.442c2.226,2.226,2.226,2.226,4.362-.148.663-.641,1.288-1.33,2-1.91s.62-.975-.012-1.6c-4.206-4.149-8.371-8.341-12.548-12.519C26.8,21.8,26.744,21.389,28,19.391c-2.7,0-5.336.017-7.971-.01-.83-.009-.636.495-.589.962M40.633,30.17c1.722,1.713,3.389,3.349,5.027,5.012,1.124,1.141,1.125,2.1-.005,3.244q-3.57,3.611-7.179,7.181c-1.2,1.187-2.141,1.188-3.331.013-1.172-1.156-2.315-2.341-3.529-3.573a28.418,28.418,0,0,0-2.277,8c-.317,2.224-.284,2.229,1.982,2.229.4,0,.806,0,1.209,0,1.648.023,2.331.7,2.336,2.371q.016,5.077,0,10.155a3.252,3.252,0,0,1-.418,2.2,2.66,2.66,0,0,1-2.186.8,29.878,29.878,0,0,0,4.285,6.54,25.048,25.048,0,0,1,6.063,16.286c.019,1.575.722,2.27,2.314,2.271q15.111.01,30.221-.005c1.57,0,2.278-.719,2.278-2.307a24.166,24.166,0,0,1,6.065-16.257,26.788,26.788,0,0,0,4.256-6.515c-1.872-.165-2.557-.73-2.567-2.177q-.037-5.621,0-11.242a1.922,1.922,0,0,1,2.088-2.123c1.007-.028,2.015,0,3.022-.01.314,0,.643.059.592-.482a30.4,30.4,0,0,0-2.45-9.743c-1.229,1.249-2.345,2.407-3.488,3.539-1.245,1.232-2.168,1.228-3.418-.015q-3.514-3.495-7-7.014c-1.3-1.311-1.314-2.195-.009-3.5,1.624-1.622,3.278-3.213,4.987-4.884A30.481,30.481,0,0,0,67.762,24.27c0,2.789.007,5.485,0,8.182-.006,1.734-.68,2.409-2.417,2.413q-5.258.013-10.517,0c-1.9,0-2.54-.635-2.544-2.528-.005-2.657,0-5.313,0-8.061A30.8,30.8,0,0,0,40.633,30.17M60.025,96.785v-.026c-3.3,0-6.6-.026-9.9.014-1.188.014-2.78-.547-3.461.258-.7.829-.224,2.391-.185,3.629a3.83,3.83,0,0,0,3.856,3.846q9.658.064,19.317,0a3.843,3.843,0,0,0,3.906-3.909c.027-.8-.057-1.616.02-2.413.1-1.061-.2-1.453-1.361-1.431-4.063.078-8.129.03-12.193.03" transform="translate(0 0)" fill="#020202"/>
        <path id="Trazado_180459" data-name="Trazado 180459" d="M101.758,80.984a30.792,30.792,0,0,1,11.648-5.892c0,2.748,0,5.4,0,8.061,0,1.893.64,2.526,2.543,2.529q5.259.007,10.517,0c1.736,0,2.41-.678,2.417-2.413.01-2.7,0-5.394,0-8.182a30.478,30.478,0,0,1,11.735,5.906c-1.709,1.671-3.363,3.262-4.987,4.884-1.305,1.3-1.293,2.186.009,3.5q3.493,3.516,7,7.015c1.25,1.243,2.173,1.246,3.418.015,1.143-1.131,2.259-2.29,3.488-3.539A30.393,30.393,0,0,1,152,102.6c.051.541-.278.48-.592.482-1.007.007-2.015-.019-3.022.01a1.922,1.922,0,0,0-2.088,2.123q-.032,5.621,0,11.242c.009,1.447.695,2.012,2.567,2.177a26.789,26.789,0,0,1-4.256,6.515,24.166,24.166,0,0,0-6.065,16.257c0,1.588-.708,2.305-2.278,2.307q-15.111.016-30.221.005c-1.592,0-2.295-.7-2.314-2.271a25.047,25.047,0,0,0-6.063-16.286,29.878,29.878,0,0,1-4.285-6.54,2.66,2.66,0,0,0,2.186-.8,3.252,3.252,0,0,0,.418-2.2q.007-5.077,0-10.155c-.005-1.669-.689-2.348-2.336-2.372-.4-.006-.806,0-1.209,0-2.267,0-2.3,0-1.982-2.229a28.416,28.416,0,0,1,2.277-8c1.215,1.232,2.358,2.417,3.529,3.573,1.19,1.175,2.134,1.173,3.331-.013q3.606-3.574,7.179-7.181c1.13-1.143,1.129-2.1.005-3.244-1.638-1.664-3.305-3.3-5.027-5.012m19.358,51.135c.4,0,.808-.029,1.208.007.55.049.75-.117.778-.719a18.506,18.506,0,0,1,7.547-14.213,14.743,14.743,0,0,0,5.767-14.4,15.456,15.456,0,0,0-30.467-.752c-.581,3-.581,3,2.414,2.986a1.5,1.5,0,0,1,.241,0c.708.116.921-.134.983-.892a11.6,11.6,0,0,1,10.869-10.7,11.8,11.8,0,0,1,11.561,7.682,11.293,11.293,0,0,1-3.872,13.161,22.319,22.319,0,0,0-8.853,15.734c-.236,2.105-.262,2.1,1.823,2.1m-.027,7.74c1.993,0,1.993,0,1.993-2,0-1.874,0-1.874-1.878-1.874-1.994,0-1.994,0-1.994,2,0,1.873,0,1.873,1.878,1.873" transform="translate(-61.125 -50.814)" fill="#ffca00"/>
        <path id="Trazado_180460" data-name="Trazado 180460" d="M156.931,299.026c4.064,0,8.13.048,12.193-.03,1.164-.022,1.463.37,1.361,1.431-.077.8.007,1.609-.02,2.413a3.843,3.843,0,0,1-3.906,3.909q-9.658.054-19.317,0a3.83,3.83,0,0,1-3.856-3.846c-.039-1.238-.516-2.8.185-3.629.68-.8,2.273-.243,3.461-.258,3.3-.04,6.6-.014,9.9-.014v.026" transform="translate(-96.905 -202.241)" fill="#464646"/>
        <path id="Trazado_180461" data-name="Trazado 180461" d="M60.035,60.919c-.047-.468-.241-.971.589-.962,2.636.028,5.272.01,7.971.01-1.257,2-1.2,2.413.469,4.085,4.177,4.178,8.341,8.37,12.548,12.519.632.623.739,1.007.012,1.6s-1.338,1.269-2,1.91c-.361-.315-.742-.61-1.08-.947q-8.692-8.68-17.379-17.366c-.332-.332-.592-.78-1.129-.847" transform="translate(-40.593 -40.576)" fill="#fe502d"/>
        <path id="Trazado_180462" data-name="Trazado 180462" d="M171.641,41.156c-1.044.015-2.091-.02-3.13.06-.829.064-.987-.273-.983-1.027.029-5.143.016-10.286.015-15.429,0-2.344-.422-2.8-2.95-2.974.862-.876,1.629-1.663,2.4-2.443,1.247-1.253,2.488-2.513,3.761-3.74.222-.214.4-.849.919-.319l-.036,25.872" transform="translate(-111.39 -10.205)" fill="#2d54fe"/>
        <path id="Trazado_180463" data-name="Trazado 180463" d="M268.528,59.988c.635-.145.741.2.737.734-.016,2.577-.007,5.155-.007,7.7-.207.145-.32.038-.45-.059-1.278-.953-2.036-.918-3.165.207-4.309,4.3-8.625,8.585-12.893,12.921-.7.707-1.134.816-1.781.013-.553-.686-1.217-1.282-1.832-1.917a3.735,3.735,0,0,0,.485-.352q9.228-9.217,18.448-18.441c.227-.227.483-.439.458-.809" transform="translate(-168.607 -40.575)" fill="#fe502d"/>
        <path id="Trazado_180464" data-name="Trazado 180464" d="M15.16,171.775c2.007-2.4,4.378-4.43,6.458-6.633.309,0,.276.156.281.259.092,1.984.648,2.512,2.676,2.513,5.1,0,10.206.029,15.308-.023,1.056-.011,1.54.2,1.391,1.354a22.44,22.44,0,0,0-.057,2.527l-26.058,0" transform="translate(-10.26 -111.762)" fill="#2d54fe"/>
        <path id="Trazado_180465" data-name="Trazado 180465" d="M275.185,171.292c-.026-1.238-.524-2.81.167-3.615.66-.769,2.269-.222,3.459-.231,4.259-.03,8.519-.012,12.779-.012,2.338,0,2.789-.42,2.979-3,2.276,2.393,4.648,4.455,6.678,6.863l-26.06,0" transform="translate(-186.101 -111.282)" fill="#2d54fe"/>
        <path id="Trazado_180466" data-name="Trazado 180466" d="M15.16,185.655l26.058,0c.021,1.241.526,2.813-.174,3.627-.672.781-2.278.23-3.47.239-4.273.032-8.545.012-12.818.013-2.275,0-2.761.455-2.91,3-2.3-2.4-4.668-4.463-6.686-6.875" transform="translate(-10.26 -125.642)" fill="#2d54fe"/>
        <path id="Trazado_180467" data-name="Trazado 180467" d="M275.433,185.652l26.06,0c-1.981,2.42-4.4,4.41-6.472,6.684-.37-.148-.263-.38-.272-.553-.085-1.6-.729-2.25-2.321-2.252-5.222-.009-10.444-.035-15.666.022-1.087.012-1.52-.251-1.384-1.378a24.352,24.352,0,0,0,.055-2.527" transform="translate(-186.349 -125.642)" fill="#2d54fe"/>
        <path id="Trazado_180468" data-name="Trazado 180468" d="M186.4,41.587q.018-12.936.036-25.872l6.333,6.577c-.007.046-.2-.021-.342-.015-1.822.088-2.385.681-2.386,2.552,0,5.145-.033,10.29.024,15.434.012,1.086-.25,1.529-1.378,1.384a21.1,21.1,0,0,0-2.286-.06" transform="translate(-126.147 -10.635)" fill="#2d54fe"/>
        <path id="Trazado_180469" data-name="Trazado 180469" d="M264.759,60.058c.026.37-.231.582-.458.809q-9.222,9.222-18.448,18.441a3.732,3.732,0,0,1-.485.352c-2.376-2.118-2.376-2.118-.143-4.352q5.721-5.722,11.443-11.444c1.4-1.4,1.44-2.077.105-3.806Z" transform="translate(-164.837 -40.645)" fill="#fe502d"/>
        <path id="Trazado_180470" data-name="Trazado 180470" d="M60.146,62.934c.537.067.8.515,1.129.847q8.694,8.678,17.379,17.366c.338.337.719.633,1.08.947-2.136,2.374-2.136,2.374-4.362.148Q69.649,76.52,63.926,70.8c-1.4-1.4-2.054-1.441-3.78-.148Z" transform="translate(-40.705 -42.591)" fill="#fe502d"/>
        <path id="Trazado_180471" data-name="Trazado 180471" d="M175.771,335.375c1.524-.021,3.049-.019,4.572-.073.664-.024.692.315.651.82a7.878,7.878,0,0,1-5.439,6.587,7.553,7.553,0,0,1-8.2-2.529c1.608-.018,3.218-.024,4.826-.055a3.5,3.5,0,0,0,3.492-3.432c.016-.44.062-.878.094-1.317" transform="translate(-113.262 -226.918)" fill="#d3d3d3"/>
        <path id="Trazado_180472" data-name="Trazado 180472" d="M172.129,335.456c-.032.439-.078.878-.094,1.317a3.5,3.5,0,0,1-3.492,3.432c-1.609.031-3.218.037-4.826.055a8.316,8.316,0,0,1-1.681-3.8c-.139-.742-.088-1.059.817-1.04,3.091.062,6.185.031,9.277.035" transform="translate(-109.62 -226.999)" fill="#d3d3d3"/>
        <path id="Trazado_180473" data-name="Trazado 180473" d="M153.208,162.4c-2.085,0-2.059,0-1.823-2.1a22.319,22.319,0,0,1,8.853-15.734,11.293,11.293,0,0,0,3.872-13.161,11.8,11.8,0,0,0-11.561-7.682,11.6,11.6,0,0,0-10.869,10.7c-.062.758-.275,1.008-.983.892a1.5,1.5,0,0,0-.241,0c-2.995.009-2.995.009-2.414-2.986a15.456,15.456,0,0,1,30.467.752,14.743,14.743,0,0,1-5.767,14.4,18.506,18.506,0,0,0-7.547,14.213c-.028.6-.228.768-.778.719-.4-.036-.805-.007-1.208-.007" transform="translate(-93.218 -81.1)" fill="#020202"/>
        <path id="Trazado_180474" data-name="Trazado 180474" d="M181.577,267.371c-1.878,0-1.878,0-1.878-1.873,0-2,0-2,1.994-2,1.878,0,1.878,0,1.878,1.874,0,2,0,2-1.993,2" transform="translate(-121.613 -178.326)" fill="#020202"/>
      </g>
    </g>
  </g>
</svg>
