<svg id="Grupo_118460" data-name="Grupo 118460" xmlns="http://www.w3.org/2000/svg" xmlns:xlink="http://www.w3.org/1999/xlink" width="60.551" height="70" viewBox="0 0 60.551 70">
  <defs>
    <clipPath id="clip-path">
      <rect id="Rectángulo_36991" data-name="Rectángulo 36991" width="60.551" height="70" fill="none"/>
    </clipPath>
  </defs>
  <g id="Grupo_118460-2" data-name="Grupo 118460" clip-path="url(#clip-path)">
    <path id="Trazado_180709" data-name="Trazado 180709" d="M24.473,134.407c-.693-.557-.634-1.187-.332-1.962,1.391-3.571,2.729-7.162,4.086-10.746.063-.167.121-.335.2-.563-1.506,0-2.956,0-4.406,0-.959,0-1.179-.165-1.473-1.074q2.816-7.819,5.63-15.64a1.152,1.152,0,0,1,1.176-.929c2.345.038,4.691.043,7.035.089,1.168.023,1.546.612,1.127,1.7q-1.565,4.069-3.143,8.134c-.325.84-.326.841.6.865,1.411.035,2.823.071,4.234.1a1.051,1.051,0,0,1,1.059.6,1.135,1.135,0,0,1-.243,1.258c-.691.845-1.357,1.708-2.034,2.564a.218.218,0,0,0-.148.224c0,.015.1.023.16.034l9.571,0c.613.009,1.226.027,1.839.025a6.855,6.855,0,0,0,4.421-12.227,5.36,5.36,0,0,0-5.587-1.046,3.052,3.052,0,0,0-1.3.56c-.967.633-1.37.666-1.82.116s-.325-.992.526-1.755a7.911,7.911,0,0,1,3.015-1.175c.5-.071.627-.275.644-.727a6.856,6.856,0,0,0-8.444-6.8,4.551,4.551,0,0,0-1.289.421c-1.259.573-1.482.5-2.111-.74a6.858,6.858,0,0,0-11.765-.776c-.233.346-.254.544.11.812a8.313,8.313,0,0,1,1.623,1.653.951.951,0,0,1-.091,1.45.965.965,0,0,1-1.489-.162c-.168-.186-.32-.386-.489-.57a6.84,6.84,0,0,0-11.807,5.926c.133.833-.162,1.255-.974,1.4q-.269.047-.537.1a6.831,6.831,0,0,0-.382,13.305,19.041,19.041,0,0,0,4.624.233,1.082,1.082,0,0,1,1.23.993c-.172.828-.427,1.078-1.225,1.064a23.1,23.1,0,0,1-4.9-.241,8.95,8.95,0,0,1-6.873-8.257,8.855,8.855,0,0,1,6.166-8.847c.528-.164.871-.33.686-.948a.131.131,0,0,1,0-.068c.355-1.346-.316-2.373-.976-3.456C7.143,93.958,3.917,88.576.682,83.2A3.621,3.621,0,0,1,2,77.826q2.042-1.235,4.084-2.47c2.186-1.318,4.177-.816,5.507,1.39,3.345,5.548,6.7,11.088,10.016,16.654.474.8,1.28.651,1.925.946.2.089.28-.249.387-.41a8.894,8.894,0,0,1,14.257-.865.689.689,0,0,1,.129.158c.457,1.11,1.221,1.215,2.239.765a1.24,1.24,0,0,0,.655-.508c2.615-4.395,5.334-8.727,7.876-13.165a2.282,2.282,0,0,1,.962-.932C52.926,77.9,55.8,76.4,58.689,74.9c1.089-.563,1.756-.15,1.769,1.087.031,3.166.051,6.333.094,9.5a2.556,2.556,0,0,1-.391,1.415c-2.826,4.666-5.623,9.35-8.477,14a3.96,3.96,0,0,0-.377,2.363c.005.3.246.293.424.345a8.713,8.713,0,0,1,6.688,7.667A8.877,8.877,0,0,1,51,121.012a13.989,13.989,0,0,1-1.906.126c-4.123,0-8.247.007-12.37-.015a1.215,1.215,0,0,0-1.075.523q-4.779,5.974-9.592,11.92c-.238.3-.511.561-.768.841Zm-5-40.624c-.165-.279-.277-.475-.395-.666-.358-.579-.61-1.474-1.111-1.646s-1.136.587-1.731.9l-.059.034a1.053,1.053,0,0,1-1.5-.287A1.012,1.012,0,0,1,15.1,90.67c.477-.309.968-.6,1.462-.878.261-.148.354-.271.16-.575-.576-.9-1.125-1.818-1.656-2.746-.166-.291-.289-.315-.565-.139q-1.267.8-2.566,1.558a1.044,1.044,0,0,1-1.548-.272c-.325-.542-.151-1.074.509-1.482.832-.514,1.668-1.023,2.513-1.514.289-.168.381-.3.171-.622-.578-.9-1.126-1.817-1.657-2.745-.157-.274-.284-.277-.519-.127-.479.307-.963.606-1.456.888a1.03,1.03,0,1,1-1.074-1.738,13.487,13.487,0,0,1,1.287-.771c.415-.2.53-.406.225-.807-.246-.324-.427-.7-.643-1.045a1.6,1.6,0,0,0-2.475-.622c-1.367.817-2.725,1.646-4.088,2.47-1.27.768-1.45,1.489-.682,2.764q3.328,5.523,6.659,11.044c1.056,1.751,2.114,3.5,3.195,5.29a9.116,9.116,0,0,1,7.112-4.817m17.724,22.71-.063-.241c-1.361,0-2.724-.056-4.081.016-1.338.071-1.71-.8-1.263-1.881,1.129-2.726,2.145-5.5,3.219-8.249.145-.371.2-.565-.332-.559-1.457.017-2.914-.005-4.371-.034a.441.441,0,0,0-.481.361q-2.28,6.347-4.575,12.688c-.138.38-.014.421.311.424,1.366.013,2.731.041,4.1.064,1.114.019,1.515.6,1.121,1.653-.8,2.132-1.61,4.259-2.416,6.389l.162.127,8.673-10.759m13.334-17.6c.187-.3.33-.533.47-.765C53.2,94.465,55.4,90.8,57.63,87.155c.307-.5.178-.617-.31-.733-.772-.184-1.534-.418-2.3-.64a.459.459,0,0,0-.625.208q-2.926,4.844-5.88,9.671a.383.383,0,0,0,.074.579,9.072,9.072,0,0,1,1.934,2.649m-7.078-5.107a9.495,9.495,0,0,1,2.762.829c.341.184.5.1.688-.211q2.836-4.7,5.7-9.379a.512.512,0,0,0-.093-.753c-.565-.561-1.122-1.133-1.639-1.739-.358-.42-.5-.3-.743.111C48,86.211,45.84,89.768,43.693,93.33c-.08.133-.148.273-.244.452m15.035-9.15a15.487,15.487,0,0,1,.022-2.447A2.751,2.751,0,0,0,56.536,78.8a.7.7,0,0,1-.178-.1.431.431,0,0,0-.507-.033c-1.284.673-2.57,1.342-3.9,2.036.886.937,1.724,1.83,2.572,2.712a.935.935,0,0,0,.4.235c1.155.327,2.314.64,3.559.981" transform="translate(-0.001 -64.407)" fill="#030303"/>
    <path id="Trazado_180710" data-name="Trazado 180710" d="M58.94,229.142a1.082,1.082,0,0,0-1.23-.993,19.046,19.046,0,0,1-4.623-.233,6.831,6.831,0,0,1,.382-13.305q.268-.054.537-.1c.812-.141,1.107-.563.973-1.4a6.84,6.84,0,0,1,11.807-5.926c.17.184.321.385.489.57a.965.965,0,0,0,1.489.162.951.951,0,0,0,.091-1.45,8.32,8.32,0,0,0-1.623-1.653c-.364-.267-.343-.466-.11-.812a6.858,6.858,0,0,1,11.765.777c.629,1.239.852,1.314,2.111.74a4.555,4.555,0,0,1,1.289-.421c.218.366.622.52.913.805a8,8,0,0,1,2.44,7.169c-.059.425.081.475.406.465a1.533,1.533,0,0,1,1.026.266c-.851.762-.981,1.2-.526,1.755s.853.517,1.82-.116a3.05,3.05,0,0,1,1.3-.559,1.711,1.711,0,0,0,.215.256,7.612,7.612,0,0,1,2.8,7.763,7.756,7.756,0,0,1-3.692,5.229l-9.571,0q-.006-.129-.012-.258c.677-.856,1.343-1.72,2.034-2.564a1.135,1.135,0,0,0,.243-1.258,1.052,1.052,0,0,0-1.059-.6c-1.411-.028-2.823-.064-4.234-.1-.931-.023-.93-.025-.6-.865q1.573-4.066,3.143-8.134c.419-1.088.041-1.678-1.127-1.7-2.345-.045-4.691-.05-7.036-.089a1.152,1.152,0,0,0-1.176.929q-2.811,7.821-5.63,15.64l-5.021,0" transform="translate(-41.411 -173.482)" fill="#fff"/>
    <path id="Trazado_180711" data-name="Trazado 180711" d="M191.048,16.1a7.2,7.2,0,0,1,2.509,4.1,1.058,1.058,0,0,0-.821,1.171,6.891,6.891,0,0,1-4.023,7.052,1.207,1.207,0,0,0-.754,1.177c.005.524,0,1.048,0,1.572,0,.574-.25.9-.863.891-.888-.01-1.777-.008-2.665,0a.749.749,0,0,1-.84-.844c-.009-.455-.031-.913,0-1.366a1.435,1.435,0,0,0-.957-1.539A6.986,6.986,0,1,1,189.5,16.165a1.18,1.18,0,0,0,1.551-.064" transform="translate(-154.265 -13.029)" fill="#ffca00"/>
    <path id="Trazado_180712" data-name="Trazado 180712" d="M178.185,3.073a1.18,1.18,0,0,1-1.551.064,6.986,6.986,0,1,0-6.859,12.153,1.434,1.434,0,0,1,.957,1.539c-.034.453-.012.911,0,1.366a.749.749,0,0,0,.84.844c.888-.006,1.777-.008,2.665,0,.613.007.862-.317.863-.891,0-.524.006-1.048,0-1.572a1.207,1.207,0,0,1,.754-1.177,6.891,6.891,0,0,0,4.023-7.052,1.058,1.058,0,0,1,.821-1.17c.941.077,1.178.258,1.228,1.187a8.842,8.842,0,0,1-4.2,8.332,1,1,0,0,0-.587,1.013,2.961,2.961,0,0,1-.965,2.712c-.19.159-.139.369-.14.568,0,.751.012,1.5-.006,2.254a1,1,0,0,1-1.108,1.1q-2.015.022-4.03,0a.99.99,0,0,1-1.076-1.058c-.018-.363,0-.728-.006-1.093-.01-.866.117-1.718-.671-2.432a2.39,2.39,0,0,1-.439-2.009.987.987,0,0,0-.552-1.031,9.036,9.036,0,0,1,9.508-15.37c.861.532.947.8.54,1.73m-5.269,19.191c.228,0,.456.009.683,0,.106-.006.3-.046.3-.086a3.137,3.137,0,0,0,.012-.88c-.053-.279-.336-.155-.521-.166-.318-.018-.641.024-.955-.012-.475-.054-.558.162-.564.586-.006.439.109.636.567.567a3.324,3.324,0,0,1,.478,0" transform="translate(-141.402 0)" fill="#030303"/>
    <path id="Trazado_180713" data-name="Trazado 180713" d="M311.887,59.689c.456,0,.912-.012,1.367,0a.906.906,0,0,1,.942.961.9.9,0,0,1-.855,1.044c-.976.055-1.959.05-2.937.007a1.006,1.006,0,0,1-.94-1.065,1.038,1.038,0,0,1,1.056-.952c.045,0,.091,0,.137,0h1.23v.006" transform="translate(-267.055 -51.504)" fill="#030303"/>
    <path id="Trazado_180714" data-name="Trazado 180714" d="M118.139,61.682c-.455,0-.911.027-1.363-.006a.975.975,0,0,1-.962-1.029.949.949,0,0,1,.982-.993q1.363-.033,2.727,0a.923.923,0,0,1,.986.98.954.954,0,0,1-.938,1.042c-.475.035-.954.007-1.431.007" transform="translate(-99.943 -51.465)" fill="#030303"/>
    <path id="Trazado_180715" data-name="Trazado 180715" d="M137.759,109.541a.964.964,0,0,1-.448.8c-.746.472-1.483.96-2.249,1.4A1.01,1.01,0,0,1,134.028,110c.715-.477,1.442-.941,2.19-1.364a1.017,1.017,0,0,1,1.541.9" transform="translate(-115.25 -93.629)" fill="#030303"/>
    <path id="Trazado_180716" data-name="Trazado 180716" d="M298.776,4.2a1.057,1.057,0,0,1-1.049-.6.9.9,0,0,1,.219-1.177c.817-.569,1.666-1.1,2.536-1.582a.822.822,0,0,1,1.038.283c.284.334.473.782.178,1.12A10.21,10.21,0,0,1,298.776,4.2" transform="translate(-256.825 -0.654)" fill="#030303"/>
    <path id="Trazado_180717" data-name="Trazado 180717" d="M296.6,108.386a1.3,1.3,0,0,1,.718.217c.652.409,1.311.808,1.956,1.229a1.021,1.021,0,1,1-1.055,1.743c-.718-.432-1.429-.875-2.127-1.338a.883.883,0,0,1-.371-1.126.984.984,0,0,1,.879-.724" transform="translate(-255.138 -93.533)" fill="#030303"/>
    <path id="Trazado_180718" data-name="Trazado 180718" d="M135.731,3.258a1.012,1.012,0,0,1-1.483.923c-.79-.442-1.554-.933-2.3-1.442a.9.9,0,0,1-.242-1.32.92.92,0,0,1,1.343-.364c.765.441,1.506.924,2.252,1.4a.952.952,0,0,1,.433.806" transform="translate(-113.498 -0.777)" fill="#030303"/>
    <path id="Trazado_180719" data-name="Trazado 180719" d="M32.342,106.7a9.117,9.117,0,0,0-7.112,4.817c-1.081-1.789-2.139-3.539-3.195-5.29q-3.331-5.522-6.659-11.044c-.768-1.275-.588-2,.682-2.764,1.362-.824,2.721-1.653,4.088-2.47a1.6,1.6,0,0,1,2.475.622c.216.348.4.721.643,1.045.305.4.19.6-.225.807a13.542,13.542,0,0,0-1.287.771,1.03,1.03,0,1,0,1.074,1.738c.493-.282.977-.582,1.456-.888.234-.15.362-.147.519.127.531.928,1.079,1.846,1.657,2.745.209.325.118.454-.171.622-.846.491-1.682,1-2.513,1.514-.66.408-.833.94-.509,1.482a1.044,1.044,0,0,0,1.549.272q1.3-.756,2.566-1.558c.276-.176.4-.151.565.139.531.928,1.08,1.845,1.656,2.746.194.3.1.427-.159.575-.494.281-.985.57-1.462.878a1.012,1.012,0,0,0-.431,1.453,1.053,1.053,0,0,0,1.5.287l.059-.034c.594-.318,1.221-1.081,1.731-.9s.752,1.067,1.111,1.646c.118.191.229.387.395.666" transform="translate(-12.873 -77.324)" fill="#2d54fe"/>
    <path id="Trazado_180720" data-name="Trazado 180720" d="M195.823,311.151l-8.673,10.759-.162-.126c.806-2.129,1.617-4.257,2.416-6.389.395-1.052-.007-1.634-1.121-1.653-1.366-.024-2.731-.051-4.1-.064-.325,0-.449-.045-.311-.424q2.3-6.338,4.575-12.688a.441.441,0,0,1,.481-.362c1.457.028,2.914.051,4.371.034.529-.006.477.189.332.559-1.074,2.749-2.091,5.522-3.219,8.249-.447,1.081-.075,1.952,1.263,1.881,1.357-.072,2.721-.016,4.081-.016l.063.241" transform="translate(-158.631 -259.065)" fill="#ffca00"/>
    <path id="Trazado_180721" data-name="Trazado 180721" d="M347.207,313.019a7.757,7.757,0,0,0,3.692-5.229,7.612,7.612,0,0,0-2.8-7.763,1.714,1.714,0,0,1-.215-.256,5.36,5.36,0,0,1,5.587,1.045,6.855,6.855,0,0,1-4.421,12.227c-.613,0-1.226-.016-1.839-.025" transform="translate(-299.628 -258.369)" fill="#fff"/>
    <path id="Trazado_180722" data-name="Trazado 180722" d="M355.444,168.819a9.074,9.074,0,0,0-1.934-2.649.384.384,0,0,1-.074-.579q2.953-4.828,5.88-9.671a.459.459,0,0,1,.625-.208c.763.223,1.524.456,2.3.641.489.116.617.232.31.733-2.23,3.645-4.426,7.31-6.633,10.968-.14.232-.284.462-.47.765" transform="translate(-304.918 -134.337)" fill="#fe502d"/>
    <path id="Trazado_180723" data-name="Trazado 180723" d="M317.058,141.855c.1-.179.164-.319.244-.452,2.148-3.562,4.3-7.119,6.436-10.689.245-.41.386-.531.743-.111.516.606,1.074,1.177,1.638,1.739a.512.512,0,0,1,.093.753q-2.87,4.679-5.7,9.379c-.19.315-.348.394-.689.211a9.494,9.494,0,0,0-2.762-.829" transform="translate(-273.61 -112.48)" fill="#fe502d"/>
    <path id="Trazado_180724" data-name="Trazado 180724" d="M303.09,238.125a1.533,1.533,0,0,0-1.026-.266c-.325.01-.466-.04-.407-.465a8,8,0,0,0-2.439-7.169c-.291-.285-.695-.439-.913-.805a6.856,6.856,0,0,1,8.444,6.8c-.017.452-.14.657-.644.727a7.912,7.912,0,0,0-3.015,1.175" transform="translate(-257.427 -197.801)" fill="#fff"/>
    <path id="Trazado_180725" data-name="Trazado 180725" d="M385.622,109.615c-1.245-.341-2.4-.655-3.559-.981a.935.935,0,0,1-.4-.235c-.848-.882-1.686-1.775-2.572-2.712,1.332-.694,2.617-1.363,3.9-2.036a.431.431,0,0,1,.507.033.7.7,0,0,0,.178.1,2.751,2.751,0,0,1,1.969,3.386,15.486,15.486,0,0,0-.022,2.447" transform="translate(-327.139 -89.39)" fill="#fcd85e"/>
    <path id="Trazado_180726" data-name="Trazado 180726" d="M276.338,396.956q.006.129.012.258c-.056-.011-.159-.019-.16-.034a.217.217,0,0,1,.148-.224" transform="translate(-238.342 -342.559)" fill="#e788bd"/>
    <path id="Trazado_180727" data-name="Trazado 180727" d="M223.39,155.191a3.267,3.267,0,0,0-.478,0c-.458.069-.573-.128-.567-.567.006-.424.089-.64.564-.586.315.036.637-.006.955.012.185.01.468-.113.521.166a3.137,3.137,0,0,1-.012.88c0,.04-.2.08-.3.086-.227.013-.455,0-.683,0" transform="translate(-191.876 -132.926)" fill="#e788bd"/>
  </g>
</svg>
