<svg id="Grupo_118477" data-name="Grupo 118477" xmlns="http://www.w3.org/2000/svg" xmlns:xlink="http://www.w3.org/1999/xlink" width="70.01" height="70" viewBox="0 0 70.01 70">
  <defs>
    <clipPath id="clip-path">
      <rect id="Rectángulo_36945" data-name="Rectángulo 36945" width="70.01" height="70" fill="none"/>
    </clipPath>
  </defs>
  <g id="Grupo_118340" data-name="Grupo 118340" clip-path="url(#clip-path)">
    <path id="Trazado_180583" data-name="Trazado 180583" d="M46.734,49.733c-.094.312.179.426.336.588.559.575,1.132,1.136,1.7,1.7.836.841.834,1.353,0,2.223-.135.14-.271.279-.407.418-.705.725-.717.98-.209,1.857.137.237.3.2.483.2.486.008.972-.007,1.458.005a1.161,1.161,0,0,1,1.279,1.259q.022,3.389,0,6.779a1.175,1.175,0,0,1-1.264,1.283,5.51,5.51,0,0,1-1.019-.005.966.966,0,0,0-1.209.777.836.836,0,0,0,.233,1.06c1.748,1.6,1.646,1.939.009,3.513-1.278,1.229-2.506,2.51-3.763,3.762a1.268,1.268,0,0,1-2.12.012c-.158-.151-.309-.309-.465-.463-.746-.74-.919-.744-1.852-.22-.239.134-.2.294-.208.474-.007.51.012,1.021-.007,1.531a1.161,1.161,0,0,1-1.24,1.227c-.607.019-1.216.026-1.822,0-.361-.017-.43.114-.442.452-.068,1.888-.078,1.888,1.768,1.888h23.4c1.337,0,1.668.334,1.669,1.679,0,.826.023,1.653-.01,2.478-.017.419.118.523.525.517,1.676-.022,3.353-.013,5.029-.008,1.043,0,1.45.411,1.452,1.456q.007,3.207,0,6.414c0,1.045-.411,1.457-1.452,1.458q-6.706,0-13.412,0c-1.051,0-1.46-.405-1.463-1.445q-.008-3.207,0-6.414c0-1.079.4-1.467,1.511-1.47,1.652,0,3.3-.012,4.956.007.386,0,.536-.063.542-.5.024-1.839.041-1.839-1.821-1.839q-10.97,0-21.94-.014c-.579,0-.783.094-.763.73.051,1.615.015,1.616,1.61,1.616,1.336,0,2.673-.006,4.009,0,.958.006,1.39.424,1.394,1.367q.013,3.28,0,6.56c0,.96-.424,1.4-1.362,1.4q-6.815.009-13.631,0a1.183,1.183,0,0,1-1.332-1.355q-.013-3.316,0-6.633a1.182,1.182,0,0,1,1.348-1.337c1.7-.01,3.4-.021,5.1.009.457.008.558-.117.557-.562,0-1.782.017-1.782-1.731-1.782-7.362,0-14.724.008-22.086-.015-.581,0-.714.157-.7.714.035,1.632.01,1.632,1.663,1.632,1.312,0,2.624-.005,3.936,0,.993.005,1.408.422,1.411,1.424q.009,3.244,0,6.487c0,1-.422,1.416-1.419,1.417q-6.743.006-13.485,0c-1,0-1.419-.418-1.421-1.413q-.009-3.244,0-6.487c0-1.005.414-1.423,1.406-1.427,1.652-.007,3.3-.022,4.956.01.491.01.682-.085.647-.62-.051-.774-.013-1.554-.013-2.332,0-1.405.314-1.725,1.694-1.725,8.091,0,16.182-.014,24.273.022.77,0,.9-.222.875-.915-.054-1.438-.016-1.439-1.421-1.439-.243,0-.486,0-.729,0-.941-.019-1.351-.439-1.364-1.4-.005-.389-.025-.779.005-1.166.032-.41-.121-.594-.5-.809a1.055,1.055,0,0,0-1.585.355,4.6,4.6,0,0,1-.613.622,1.157,1.157,0,0,1-1.747.025q-2.443-2.4-4.841-4.848a1.158,1.158,0,0,1,0-1.748,7.722,7.722,0,0,1,.864-.886c.387-.314.365-.6.219-1.06-.212-.663-.58-.788-1.215-.776-2.124.04-2.258-.119-2.258-2.254,0-1.871,0-3.742,0-5.612,0-1.058.392-1.442,1.447-1.45.243,0,.486,0,.729,0,1,0,1.222-.19,1.455-1.147a.472.472,0,0,0-.184-.5c-.261-.255-.517-.514-.774-.772-.938-.944-.932-1.411.029-2.373.533-.533,1.072-1.059,1.595-1.6.156-.162.433-.272.343-.585.008-3.765.021-7.529.018-11.293,0-.621.083-1.169.723-1.453.213-.095.218-.2.073-.374q-1.452-1.729-2.889-3.471c-.217-.265-.34-.152-.5.044-1,1.213-2,2.421-3.034,3.662a1.383,1.383,0,0,1,.973,1.357c-.017,3.837-.017,7.675-.023,11.513-.583,0-1.169-.031-1.748.022-.515.047-.579-.172-.576-.614.017-2.964.009-5.928.009-8.892,0-.984,0-.991-.966-1a1.45,1.45,0,0,1-.9-.238,1.118,1.118,0,0,1-.195-1.672q2.893-3.516,5.832-6.994a1.1,1.1,0,0,1,1.776-.008c1.962,2.316,3.9,4.655,5.835,6.992a1.08,1.08,0,0,1,.168,1.224,1.175,1.175,0,0,1-1.1.694c-1.12.055-1.119.061-1.119,1.212v7.071c1.1-.667,1.4-.628,2.306.26l.415.409a1.314,1.314,0,0,0,1.818.068c.174-.139.118-.3.122-.46.011-.51-.012-1.021.01-1.53a1.133,1.133,0,0,1,1.194-1.192q3.462-.026,6.924,0a1.137,1.137,0,0,1,1.2,1.186,8.838,8.838,0,0,1,0,1.311c-.046.455.131.646.533.862a1,1,0,0,0,1.523-.323,2.379,2.379,0,0,1,.306-.311c.9-.9,1.226-.945,2.311-.28,0-2.673,0-5.308.007-7.943,0-.319-.142-.36-.4-.342-.193.014-.389,0-.583,0a1.193,1.193,0,0,1-1.248-.693,1.216,1.216,0,0,1,.3-1.4c1.854-2.217,3.7-4.442,5.554-6.657a1.189,1.189,0,0,1,2.071,0c1.856,2.215,3.7,4.44,5.553,6.658a1.214,1.214,0,0,1,.293,1.4,1.23,1.23,0,0,1-1.252.691c-.966,0-.966.014-.966,1,0,2.94-.012,5.88.011,8.82,0,.507-.064.755-.652.688a15.772,15.772,0,0,0-1.675-.023c-.006-3.643,0-7.286-.025-10.93,0-.825-.033-1.621.995-1.925-1.053-1.267-2.03-2.443-3.009-3.618-.149-.179-.267-.442-.543-.1-1.007,1.232-2.029,2.452-3.079,3.718a1.484,1.484,0,0,1,.988,1.653c-.014,3.74.006,7.48.013,11.22m-19.9.149c-.137.125-.263.232-.379.348q-1.006,1-2.008,2.009c-.9.9-.9.9,0,1.811a1.328,1.328,0,0,1,.312,1.935,15.212,15.212,0,0,0-.638,1.465c-.581,1.6-.572,1.606-2.276,1.608a1.883,1.883,0,0,1-.291,0c-.437-.069-.519.147-.509.536.024.947.008,1.894.008,2.841,0,1.281,0,1.281,1.275,1.29,1,.007,1.291.217,1.6,1.139a4.407,4.407,0,0,0,.4,1.089c.9,1.324.854,2.465-.541,3.41-.276.187-.217.35,0,.562.683.656,1.346,1.333,2.017,2,.988.984,1,1,2,0a1.327,1.327,0,0,1,1.769-.261,4.645,4.645,0,0,0,1.255.566c1.5.3,2.177,1.131,1.9,2.672-.068.372.08.507.474.5.971-.027,1.943-.009,2.914-.009,1.234,0,1.234,0,1.243-1.263.007-1.024.182-1.262,1.14-1.587a4.666,4.666,0,0,0,1.151-.439c1.29-.884,2.375-.765,3.283.544.237.342.436.231.68-.023.674-.7,1.371-1.376,2.059-2.062.886-.884.885-.884.014-1.767-.74-.749-.774-1.05-.32-1.994a16.613,16.613,0,0,0,.73-1.741c.394-1.134.6-1.3,1.764-1.3a4.475,4.475,0,0,1,.655.005c.48.071.561-.157.549-.579-.028-.946-.009-1.894-.009-2.841,0-1.242,0-1.242-1.252-1.253-1.014-.009-1.243-.185-1.573-1.156-.148-.435-.31-.868-.5-1.289-.748-1.7-.762-1.707.566-3.084.288-.3.292-.462-.006-.745-.809-.77-1.618-1.544-2.365-2.373-.45-.5-.719-.477-1.173.006-1.118,1.189-1.155,1.166-2.615.465a3.019,3.019,0,0,0-.737-.306,2.113,2.113,0,0,1-1.98-2.756c.076-.425-.178-.462-.516-.456-.9.015-1.8.005-2.7.005-1.432,0-1.455,0-1.446,1.415A1.311,1.311,0,0,1,31.7,50.249a10.77,10.77,0,0,0-2.212.917,1.2,1.2,0,0,1-1.531-.214c-.278-.271-.55-.549-.828-.82-.085-.083-.182-.154-.3-.249M8.243,91.715c1.748,0,3.5-.014,5.244.01.44.006.588-.1.575-.563-.033-1.189-.024-2.379,0-3.569.006-.385-.067-.555-.508-.552q-5.317.025-10.635,0c-.405,0-.546.1-.537.525.027,1.189.035,2.38,0,3.568-.016.5.17.6.622.589,1.748-.023,3.5-.009,5.244-.009m26.772,0c1.772,0,3.543-.016,5.315.011.455.007.575-.123.564-.569-.031-1.188-.022-2.378,0-3.567.006-.374-.042-.561-.5-.559q-5.351.028-10.7,0c-.386,0-.5.114-.488.494.022,1.213.031,2.427,0,3.64-.013.463.137.565.574.559,1.747-.024,3.494-.01,5.242-.01m26.859-.005c1.749,0,3.5-.01,5.246.007.4,0,.613-.042.6-.537-.039-1.213-.025-2.429-.005-3.643.006-.371-.089-.5-.483-.5q-5.356.022-10.712,0c-.4,0-.488.131-.482.5.02,1.19.028,2.381,0,3.57-.012.464.1.622.6.613,1.748-.03,3.5-.012,5.246-.012" transform="translate(-0.043 -24.051)" fill="#010102"/>
    <path id="Trazado_180584" data-name="Trazado 180584" d="M275.141,160.332c.007-.748-.262-1.7.1-2.184.342-.454,1.359-.12,2.077-.131q2.148-.033,4.3,0c.418.008.57-.117.51-.525-.021-.142,0-.291,0-.436a1.2,1.2,0,0,1,.661-1.265,1.243,1.243,0,0,1,1.456.308c1.465,1.236,2.942,2.458,4.414,3.686.746.622,1.5,1.235,2.235,1.867a1.183,1.183,0,0,1,.016,2.027q-3.372,2.834-6.765,5.641a1.165,1.165,0,0,1-1.345.229,1.2,1.2,0,0,1-.675-1.186c-.015-1.024-.025-1.024-1.085-1.024-1.8,0-3.593-.012-5.389.009-.4,0-.558-.084-.528-.512.041-.6.021-1.213.027-1.819,2.546,0,5.093.011,7.639-.023a1.537,1.537,0,0,1,1.72.975c1.259-1.044,2.467-2.052,3.683-3.048.238-.195.213-.321-.01-.5-1.213-1-2.418-2.006-3.66-3.04a1.445,1.445,0,0,1-1.442.971c-2.643-.023-5.287-.015-7.93-.019" transform="translate(-221.458 -125.337)" fill="#010102"/>
    <path id="Trazado_180585" data-name="Trazado 180585" d="M16.32,165.037c0,.749.27,1.7-.09,2.187-.341.46-1.357.124-2.074.136q-2.148.034-4.3,0c-.4-.007-.585.095-.518.515a3.585,3.585,0,0,1,0,.364,1.216,1.216,0,0,1-2.123,1.024c-1.449-1.218-2.906-2.426-4.36-3.637-.764-.637-1.535-1.266-2.292-1.911a1.18,1.18,0,0,1,0-2.024c2.231-1.871,4.472-3.729,6.706-5.6a1.192,1.192,0,0,1,1.4-.264,1.248,1.248,0,0,1,.668,1.265c0,.942.011.942.947.942,1.845,0,3.69.012,5.535-.01.411,0,.547.105.52.52-.04.6-.023,1.212-.031,1.818-2.546,0-5.093-.016-7.638.016a1.533,1.533,0,0,1-1.717-.992c-1.273,1.063-2.5,2.086-3.724,3.1-.228.189-.126.312.047.456,1.211,1,2.418,2.009,3.689,3.067.291-.884.941-1,1.7-.99,2.546.023,5.092.011,7.639.012" transform="translate(0 -125.361)" fill="#010102"/>
    <path id="Trazado_180586" data-name="Trazado 180586" d="M148.373,14c-.748-.009-1.732.267-2.18-.1-.465-.385-.106-1.407-.142-2.149-.016-.339,0-.679,0-1.019-.007-.434.126-.963-.075-1.273s-.763-.065-1.163-.113a1.158,1.158,0,0,1-1-.73,1.209,1.209,0,0,1,.3-1.333q2.219-2.65,4.429-5.308c.4-.484.795-.98,1.212-1.452a1.155,1.155,0,0,1,1.928,0c1.907,2.263,3.794,4.542,5.687,6.817a1.153,1.153,0,0,1,.224,1.343,1.213,1.213,0,0,1-1.188.673c-1.021.017-1.021.026-1.021,1.015,0,1.068-.013,2.136.007,3.2.006.342-.08.469-.44.451-.63-.031-1.261-.014-1.892-.018-.012-1.772,0-3.545-.046-5.317a1.544,1.544,0,0,1,.952-1.735c-1.022-1.237-2.014-2.43-3-3.632-.188-.23-.311-.234-.5,0-.981,1.2-1.973,2.4-2.984,3.619.52.288.929.615.925,1.239q-.02,2.914-.033,5.827" transform="translate(-115.71 0)" fill="#010102"/>
    <path id="Trazado_180587" data-name="Trazado 180587" d="M91.826,62.583c.006-3.838.007-7.675.023-11.513a1.383,1.383,0,0,0-.973-1.357c1.029-1.241,2.034-2.449,3.034-3.662.162-.2.284-.309.5-.044q1.432,1.746,2.889,3.471c.145.173.14.279-.073.374-.64.284-.723.832-.723,1.453,0,3.764-.01,7.529-.018,11.293l-4.66-.016" transform="translate(-73.169 -36.917)" fill="#fff"/>
    <path id="Trazado_180588" data-name="Trazado 180588" d="M235.488,62.568c-.008-3.74-.027-7.48-.013-11.22a1.484,1.484,0,0,0-.988-1.653c1.051-1.266,2.073-2.486,3.079-3.718.276-.338.394-.076.543.1.978,1.175,1.955,2.351,3.008,3.618-1.028.3-1,1.1-.995,1.925.022,3.643.019,7.286.025,10.93l-4.66.016" transform="translate(-188.797 -36.886)" fill="#fff"/>
    <path id="Trazado_180589" data-name="Trazado 180589" d="M29.168,180.279c-2.546,0-5.093.011-7.639-.012-.763-.007-1.413.106-1.7.99-1.271-1.058-2.479-2.064-3.689-3.067-.173-.144-.275-.267-.047-.456,1.227-1.018,2.45-2.042,3.724-3.1a1.533,1.533,0,0,0,1.717.992c2.546-.032,5.092-.014,7.638-.016v4.674" transform="translate(-12.848 -140.602)" fill="#ffca00"/>
    <path id="Trazado_180590" data-name="Trazado 180590" d="M275.513,175.67c2.643,0,5.287,0,7.93.019a1.445,1.445,0,0,0,1.442-.971c1.242,1.033,2.448,2.042,3.66,3.04.223.183.247.309.01.5-1.217,1-2.424,2-3.683,3.048a1.537,1.537,0,0,0-1.72-.975c-2.546.034-5.092.019-7.639.023V175.67" transform="translate(-221.829 -140.674)" fill="#2d54fe"/>
    <path id="Trazado_180591" data-name="Trazado 180591" d="M163.948,27q.016-2.914.033-5.827c0-.624-.4-.95-.925-1.239,1.01-1.223,2-2.416,2.984-3.619.19-.233.313-.229.5,0,.981,1.2,1.973,2.395,3,3.632a1.544,1.544,0,0,0-.952,1.735c.045,1.772.034,3.545.046,5.317h-4.682" transform="translate(-131.285 -12.995)" fill="#636363"/>
    <path id="Trazado_180592" data-name="Trazado 180592" d="M158.034,85.07c0,1.116,0,1.116-1.147,1.116-1.187,0-1.187,0-1.187-1.222,0-1.112,0-1.112,1.147-1.112,1.186,0,1.186,0,1.186,1.218" transform="translate(-125.362 -67.513)" fill="#010102"/>
    <path id="Trazado_180593" data-name="Trazado 180593" d="M192.815,83.852c1.136,0,1.136,0,1.136,1.124,0,1.21,0,1.21-1.2,1.21-1.136,0-1.136,0-1.136-1.127,0-1.207,0-1.207,1.2-1.207" transform="translate(-154.28 -67.513)" fill="#010102"/>
    <path id="Trazado_180594" data-name="Trazado 180594" d="M86.2,144.82c0,1.224,0,1.224-1.256,1.224-1.077,0-1.077,0-1.077-1.113,0-1.221,0-1.221,1.257-1.221,1.077,0,1.077,0,1.077,1.109" transform="translate(-67.527 -115.709)" fill="#010102"/>
    <path id="Trazado_180595" data-name="Trazado 180595" d="M265.78,144.9c0,1.142,0,1.142-1.121,1.142-1.213,0-1.213,0-1.213-1.2,0-1.138,0-1.138,1.121-1.138,1.213,0,1.213,0,1.213,1.192" transform="translate(-212.114 -115.71)" fill="#010102"/>
    <path id="Trazado_180596" data-name="Trazado 180596" d="M113.564,122.266c.114.1.211.166.3.249.278.271.55.549.828.82a1.2,1.2,0,0,0,1.531.214,10.8,10.8,0,0,1,2.212-.917,1.311,1.311,0,0,0,1.055-1.439c-.009-1.415.015-1.415,1.446-1.415.9,0,1.8.01,2.7-.005.338-.006.592.031.516.456a2.113,2.113,0,0,0,1.98,2.756,3.017,3.017,0,0,1,.737.306c1.46.7,1.5.724,2.615-.465.454-.483.722-.505,1.173-.006.747.829,1.556,1.6,2.365,2.373.3.284.294.447.006.745-1.328,1.377-1.314,1.385-.566,3.084.185.421.348.853.5,1.289.33.971.559,1.147,1.573,1.156,1.252.011,1.252.011,1.252,1.253,0,.947-.019,1.895.009,2.841.012.422-.069.651-.549.579a4.448,4.448,0,0,0-.655-.005c-1.169,0-1.37.169-1.764,1.3a16.579,16.579,0,0,1-.73,1.741c-.454.944-.42,1.244.32,1.994.871.882.871.882-.014,1.767-.687.686-1.385,1.363-2.059,2.062-.245.254-.443.365-.68.023-.908-1.31-1.994-1.428-3.283-.544a4.669,4.669,0,0,1-1.151.439c-.958.325-1.133.563-1.14,1.587-.009,1.263-.009,1.263-1.243,1.263-.971,0-1.943-.019-2.914.009-.394.011-.541-.124-.474-.5.28-1.541-.4-2.371-1.9-2.672a4.637,4.637,0,0,1-1.255-.566,1.327,1.327,0,0,0-1.769.261c-1,1-1.01.987-2,0-.671-.669-1.334-1.345-2.017-2-.221-.212-.279-.375,0-.562,1.4-.945,1.437-2.086.541-3.41a4.405,4.405,0,0,1-.4-1.089c-.306-.921-.6-1.132-1.6-1.139-1.275-.008-1.275-.008-1.275-1.29,0-.947.016-1.895-.008-2.841-.01-.389.072-.606.509-.537a1.861,1.861,0,0,0,.291,0c1.7,0,1.7,0,2.276-1.608a15.16,15.16,0,0,1,.638-1.465,1.328,1.328,0,0,0-.312-1.935c-.9-.91-.9-.909,0-1.811q1-1,2.008-2.01c.116-.116.242-.223.379-.348m8.233,3.346a8.162,8.162,0,1,0,8.138,8.092,8.164,8.164,0,0,0-8.138-8.092" transform="translate(-86.772 -96.435)" fill="#636363"/>
    <path id="Trazado_180597" data-name="Trazado 180597" d="M17.842,327.951c-1.748,0-3.5-.014-5.244.009-.452.006-.639-.085-.622-.589.038-1.189.03-2.38,0-3.569-.01-.423.132-.526.537-.525q5.317.022,10.635,0c.441,0,.515.168.508.552-.02,1.19-.029,2.38,0,3.569.013.461-.135.569-.575.563-1.748-.024-3.5-.01-5.244-.01" transform="translate(-9.641 -260.286)" fill="#ffca00"/>
    <path id="Trazado_180598" data-name="Trazado 180598" d="M155.449,327.933c-1.747,0-3.495-.014-5.242.01-.437.006-.587-.1-.574-.559.034-1.212.025-2.427,0-3.64-.007-.38.1-.495.488-.493q5.351.021,10.7,0c.455,0,.5.185.5.559-.018,1.189-.027,2.379,0,3.567.012.446-.109.577-.564.57-1.771-.027-3.543-.011-5.314-.011" transform="translate(-120.476 -260.264)" fill="#fe502d"/>
    <path id="Trazado_180599" data-name="Trazado 180599" d="M293.182,327.955c-1.749,0-3.5-.019-5.246.012-.491.009-.608-.149-.6-.613.031-1.189.023-2.38,0-3.57-.006-.37.086-.5.482-.5q5.356.022,10.712,0c.394,0,.49.129.483.5-.02,1.214-.034,2.43.005,3.643.016.495-.193.541-.6.537-1.749-.017-3.5-.007-5.246-.007" transform="translate(-231.352 -260.291)" fill="#2d54fe"/>
    <path id="Trazado_180600" data-name="Trazado 180600" d="M145.95,149.742a8.161,8.161,0,1,1-8.18,8.194,8.175,8.175,0,0,1,8.18-8.194m5.8,8.192a5.825,5.825,0,1,0-5.873,5.8,5.832,5.832,0,0,0,5.873-5.8" transform="translate(-110.925 -120.565)" fill="#010102"/>
  </g>
</svg>
