<svg xmlns="http://www.w3.org/2000/svg" xmlns:xlink="http://www.w3.org/1999/xlink" width="400" height="370" viewBox="0 0 400 370">
  <defs>
    <clipPath id="clip-path">
      <rect id="Rect치ngulo_36930" data-name="Rect치ngulo 36930" width="120.01" height="120" fill="none"/>
    </clipPath>
  </defs>
  <g id="Grupo_118343" data-name="Grupo 118343" transform="translate(-390 -2152)">
    <rect id="Rect치ngulo_36862" data-name="Rect치ngulo 36862" width="400" height="370" transform="translate(390 2152)" fill="#ffca00"/>
    <path id="Trazado_180475" data-name="Trazado 180475" d="M62.006,16.2H55.373V23H51.26V5.938H62.674V9.113h-7.3v3.926h6.633Zm1.453.34a7.484,7.484,0,0,1,.738-3.381,5.28,5.28,0,0,1,2.121-2.279,6.388,6.388,0,0,1,3.246-.8,5.83,5.83,0,0,1,4.488,1.764,6.768,6.768,0,0,1,1.641,4.8v.141a6.566,6.566,0,0,1-1.646,4.705,5.846,5.846,0,0,1-4.459,1.74,5.912,5.912,0,0,1-4.348-1.623,6.348,6.348,0,0,1-1.77-4.4Zm3.949.246a4.718,4.718,0,0,0,.551,2.578,1.835,1.835,0,0,0,1.629.82q2.109,0,2.156-3.246v-.4q0-3.41-2.18-3.41-1.98,0-2.145,2.941Zm17.7-2.895L83.8,13.8a2.336,2.336,0,0,0-2.391,1.172V23H77.463V10.32h3.7l.129,1.629a3.058,3.058,0,0,1,2.777-1.863,3.851,3.851,0,0,1,1.1.141Zm6.609-6.727V10.32H93.8v2.742H91.713v5.8a1.481,1.481,0,0,0,.258,1,1.383,1.383,0,0,0,1.02.281,5.793,5.793,0,0,0,.984-.07v2.824a7.288,7.288,0,0,1-2.227.34,4.137,4.137,0,0,1-3.012-.961,3.939,3.939,0,0,1-.973-2.918V13.063H86.146V10.32h1.617V7.168ZM102.494,23a4.459,4.459,0,0,1-.375-1.137,3.672,3.672,0,0,1-3.047,1.371,4.5,4.5,0,0,1-3.047-1.084,3.45,3.45,0,0,1-1.254-2.725,3.546,3.546,0,0,1,1.523-3.117,7.761,7.761,0,0,1,4.43-1.055h1.219v-.671q0-1.755-1.512-1.755a1.236,1.236,0,0,0-1.406,1.39H95.076a3.54,3.54,0,0,1,1.564-2.985,6.575,6.575,0,0,1,3.99-1.147,5.764,5.764,0,0,1,3.832,1.184,4.115,4.115,0,0,1,1.441,3.246v5.613a5.748,5.748,0,0,0,.539,2.672V23Zm-2.473-2.578a2.2,2.2,0,0,0,1.225-.316,1.983,1.983,0,0,0,.7-.715V17.363h-1.148q-2.062,0-2.062,1.852a1.131,1.131,0,0,0,.363.873A1.315,1.315,0,0,0,100.021,20.422ZM112.256,23h-3.961V5h3.961Zm8.566.234a6.518,6.518,0,0,1-4.723-1.74,6.009,6.009,0,0,1-1.8-4.529v-.328a7.787,7.787,0,0,1,.721-3.434,5.274,5.274,0,0,1,2.1-2.3,6.35,6.35,0,0,1,3.281-.814,5.489,5.489,0,0,1,4.219,1.658,6.516,6.516,0,0,1,1.547,4.623V17.9h-7.852a2.846,2.846,0,0,0,.926,1.676,2.755,2.755,0,0,0,1.852.609,3.549,3.549,0,0,0,2.93-1.312l1.8,2.133a5.045,5.045,0,0,1-2.092,1.623A7.069,7.069,0,0,1,120.822,23.234Zm-.445-10.1q-1.734,0-2.062,2.3H122.3v-.3a1.956,1.956,0,0,0-.48-1.471A1.912,1.912,0,0,0,120.377,13.133Zm12.035,6.82h5.777V23H127.42V20.8l5.625-7.43h-5.379V10.32h10.395v2.133ZM147.248,23a4.459,4.459,0,0,1-.375-1.137,3.672,3.672,0,0,1-3.047,1.371,4.5,4.5,0,0,1-3.047-1.084,3.45,3.45,0,0,1-1.254-2.725,3.546,3.546,0,0,1,1.523-3.117,7.761,7.761,0,0,1,4.43-1.055H146.7v-.671q0-1.755-1.512-1.755a1.236,1.236,0,0,0-1.406,1.39H139.83a3.54,3.54,0,0,1,1.564-2.985,6.575,6.575,0,0,1,3.99-1.147,5.764,5.764,0,0,1,3.832,1.184,4.115,4.115,0,0,1,1.441,3.246v5.613A5.748,5.748,0,0,0,151.2,22.8V23Zm-2.473-2.578A2.2,2.2,0,0,0,146,20.105a1.983,1.983,0,0,0,.7-.715V17.363h-1.148q-2.062,0-2.062,1.852a1.131,1.131,0,0,0,.363.873A1.315,1.315,0,0,0,144.775,20.422Zm14.707-.984a.912.912,0,0,0-.527-.809,8.021,8.021,0,0,0-2-.633,9.138,9.138,0,0,1-2.437-.861,4.083,4.083,0,0,1-1.465-1.295,3.092,3.092,0,0,1-.5-1.746,3.5,3.5,0,0,1,1.441-2.877,5.938,5.938,0,0,1,3.773-1.131,6.579,6.579,0,0,1,4.031,1.137,3.555,3.555,0,0,1,1.523,2.988h-3.961q0-1.523-1.605-1.523a1.591,1.591,0,0,0-1.043.346,1.07,1.07,0,0,0-.422.861.982.982,0,0,0,.516.855,4.872,4.872,0,0,0,1.646.539,14.228,14.228,0,0,1,1.986.5q2.859.984,2.859,3.527a3.321,3.321,0,0,1-1.541,2.824,6.758,6.758,0,0,1-3.99,1.09,6.9,6.9,0,0,1-2.906-.586,4.86,4.86,0,0,1-1.992-1.594,3.609,3.609,0,0,1-.715-2.121h3.691a1.526,1.526,0,0,0,.586,1.283,2.41,2.41,0,0,0,1.441.4,1.9,1.9,0,0,0,1.213-.328A1.05,1.05,0,0,0,159.482,19.438Z" transform="translate(483 2389)" fill="#12263f"/>
    <g id="Grupo_118320" data-name="Grupo 118320" transform="translate(529.995 2257)">
      <g id="Grupo_118319" data-name="Grupo 118319" clip-path="url(#clip-path)">
        <path id="Trazado_180431" data-name="Trazado 180431" d="M104.751,119.976c-.6-.5-1.369-.417-2.058-.593-6.433-1.643-11.219-5.591-15.135-10.761a43.21,43.21,0,0,1-5.728-10.409c-.283-.721-.508-.842-1.214-.5-8.849,4.252-18.263,5.333-27.93,4.815a74.067,74.067,0,0,1-24.073-5.37c-1.389-.564-1.654-1.01-1.491-2.491a1.944,1.944,0,0,1,2.707-.817,70.272,70.272,0,0,0,17.816,4.675,62.632,62.632,0,0,0,23.491-1.072A39.7,39.7,0,0,0,91.169,85.575c.568-.624.6-.97-.009-1.586a22.027,22.027,0,0,0-10.254-6.032,25.071,25.071,0,0,0-6.615-.686c-2.148.016-4.3.029-6.445-.01a1.71,1.71,0,0,1-1.828-1.727,1.6,1.6,0,0,1,1.647-1.747c4.326.055,8.669-.368,12.969.483C91.92,76.5,100.6,87.014,100.551,98.418c-.005,1.312-.6,2.072-1.658,2.116-1.125.047-1.8-.7-1.863-2.065-.011-.234-.006-.469-.017-.7A21.471,21.471,0,0,0,94.423,88.5c-.28-.523-.459-.829-1.031-.2a39.131,39.131,0,0,1-8.24,6.892.709.709,0,0,0-.341,1.034c2.234,5.7,5.217,10.907,9.887,14.992a19.666,19.666,0,0,0,13.878,5.255c2.264-.063,4.532-.055,6.8,0,.831.02,1.112-.132,1.111-1.057q-.046-35.978-.005-71.957c0-.847-.149-1.128-1.068-1.076a45.19,45.19,0,0,0-18.55,4.763A29.12,29.12,0,0,0,83.7,60.026c-.515,1.028-.677,1.743.49,2.484a1.626,1.626,0,0,1,.463,2.529,1.792,1.792,0,0,1-2.69.14c-.876-.652-1.717-1.364-2.647-1.928-9.766-5.925-20.137-6.789-30.967-3.612a32.231,32.231,0,0,0-6.826,3.017,1.715,1.715,0,0,1-2.45-.55,1.773,1.773,0,0,1,.73-2.5,9.587,9.587,0,0,1,.914-.521.812.812,0,0,0,.5-.715c.46-4.15.924-8.3,1.424-12.446a1.464,1.464,0,0,0-.589-1.4c-4.61-4.1-9.224-8.2-13.792-12.349-.7-.632-.961-.492-1.479.17a128.656,128.656,0,0,0-23.1,46.1c-.509,1.883.378,3.051,2.333,3.064,2.422.016,4.844.007,7.266.007a1.708,1.708,0,0,1,1.685,1.036,1.652,1.652,0,0,1-.354,1.939c-.129.14-.259.278-.415.445a60.709,60.709,0,0,0,8.352,5.446A2.06,2.06,0,0,1,23.8,92.86c-1.049,1.242-1.622,1.361-3.014.581A62.61,62.61,0,0,1,9.46,85.59a2,2,0,0,0-1.574-.566c-.622.043-1.249.012-1.874.009C1.752,85.017-.856,81.644.257,77.551a131.749,131.749,0,0,1,12.327-30.2A119.842,119.842,0,0,1,36.843,16.463a4.387,4.387,0,0,0,.849-1.245A30.3,30.3,0,0,1,57.173.107,2.274,2.274,0,0,1,59.6.781q8.4,8.425,16.814,16.829c1.249,1.252,1.178,2.218-.244,3.288q-7.389,5.563-14.8,11.1c-1.228.919-2.055.808-3.016-.368-.815-1-1.428-2.388-2.475-2.9-1.07-.526-2.267.734-3.479,1a21.161,21.161,0,0,1-3.552.694c-.7.034-.934.327-1.006.981q-.825,7.448-1.693,14.891-.527,4.595-1.06,9.188c-.053.461-.095.924-.156,1.523,12.116-4.189,23.806-3.591,35.15,2.469a30.516,30.516,0,0,1,10.254-12.5,43.272,43.272,0,0,1,18.373-7.4,58.492,58.492,0,0,1,8.622-.779,3.132,3.132,0,0,1,2.653,1.008q0,39.615.023,79.229c0,.8-.156.97-.96.961-4.766-.048-9.532-.024-14.3-.024M43.741,28.552c0-.077.034-.175,0-.228-1.712-2.592-3.444-5.172-5.138-7.776-.419-.644-.659-.217-.956.059-2.57,2.39-4.952,4.96-7.3,7.569-.488.544-.308.8.135,1.184,1.179,1.018,2.309,2.094,3.5,3.1,2.011,1.706,3.825,3.64,5.981,5.177a39.429,39.429,0,0,0,3.176,3.037C43.579,37,43.979,33.6,44.393,30.2c.083-.681.048-1.29-.652-1.651m16.2-9.161a1.741,1.741,0,0,1,1.653,2.451,10.066,10.066,0,0,1-1.938,3.314c-1.03,1.241-1.029,1.242.057,2.527a1.3,1.3,0,0,1,.145.184c.287.5.573.448,1.011.117Q66.513,23.7,72.2,19.48c.537-.4.484-.625.053-1.053Q65.108,11.32,58,4.18a.941.941,0,0,0-1.106-.328,27.2,27.2,0,0,0-15.9,12.662.949.949,0,0,0,.019,1.164c1.986,2.942,3.945,5.9,5.912,8.857.2.3.38.562.826.5,4.543-.6,8.651-1.887,10.635-6.61a1.614,1.614,0,0,1,1.558-1.037" transform="translate(0 0)" fill="#030303"/>
        <path id="Trazado_180432" data-name="Trazado 180432" d="M31.567,162.49a2.06,2.06,0,0,0-1.244-2.476,60.665,60.665,0,0,1-8.352-5.446c.155-.167.286-.3.415-.445a1.652,1.652,0,0,0,.353-1.939,1.708,1.708,0,0,0-1.685-1.036c-2.422,0-4.844.008-7.266-.007-1.955-.013-2.842-1.181-2.333-3.063a128.656,128.656,0,0,1,23.1-46.1c.518-.662.783-.8,1.479-.17,4.568,4.148,9.182,8.246,13.791,12.349a1.462,1.462,0,0,1,.589,1.4c-.5,4.146-.964,8.3-1.424,12.447a.811.811,0,0,1-.5.715,9.654,9.654,0,0,0-.914.521,1.773,1.773,0,0,0-.73,2.5,1.714,1.714,0,0,0,2.449.55,32.243,32.243,0,0,1,6.826-3.017c10.829-3.177,21.2-2.313,30.967,3.612.93.565,1.771,1.276,2.647,1.929a1.791,1.791,0,0,0,2.69-.14,1.625,1.625,0,0,0-.462-2.528c-1.167-.742-1.006-1.457-.49-2.485a29.118,29.118,0,0,1,13.156-12.884,45.186,45.186,0,0,1,18.55-4.763c.919-.051,1.069.229,1.068,1.076q-.035,35.978.005,71.957c0,.924-.28,1.076-1.111,1.056-2.264-.054-4.533-.062-6.8,0a19.664,19.664,0,0,1-13.877-5.255c-4.67-4.085-7.653-9.292-9.887-14.992a.709.709,0,0,1,.341-1.034,39.115,39.115,0,0,0,8.24-6.892c.572-.628.751-.322,1.031.2a21.477,21.477,0,0,1,2.591,9.268c.011.234.006.469.017.7.062,1.364.738,2.113,1.863,2.066,1.057-.044,1.653-.8,1.658-2.117.047-11.4-8.631-21.915-19.917-24.148-4.3-.851-8.643-.429-12.969-.483a1.6,1.6,0,0,0-1.647,1.747,1.71,1.71,0,0,0,1.828,1.727c2.148.039,4.3.026,6.445.01a25.046,25.046,0,0,1,6.615.686,22.025,22.025,0,0,1,10.253,6.032c.608.617.577.963.009,1.587A39.7,39.7,0,0,1,78.9,167.081a62.63,62.63,0,0,1-23.491,1.072A70.276,70.276,0,0,1,37.6,163.478a1.943,1.943,0,0,0-2.706.817c-1.117-.585-2.4-.862-3.324-1.805" transform="translate(-7.77 -69.631)" fill="#fdd9a9"/>
        <path id="Trazado_180433" data-name="Trazado 180433" d="M149.368,27.693a1.614,1.614,0,0,0-1.558,1.037c-1.985,4.723-6.092,6.008-10.635,6.61-.446.059-.628-.206-.826-.5-1.966-2.955-3.925-5.916-5.912-8.857a.949.949,0,0,1-.019-1.164,27.2,27.2,0,0,1,15.9-12.662.941.941,0,0,1,1.106.328q7.117,7.135,14.258,14.247c.431.429.485.655-.053,1.053Q155.94,32,150.3,36.285c-.437.331-.724.383-1.011-.117a1.3,1.3,0,0,0-.145-.184c-1.086-1.285-1.088-1.286-.057-2.527a10.064,10.064,0,0,0,1.938-3.314,1.741,1.741,0,0,0-1.653-2.451" transform="translate(-89.43 -8.302)" fill="#fdd9a9"/>
        <path id="Trazado_180434" data-name="Trazado 180434" d="M105.857,81.941c-2.157-1.537-3.97-3.471-5.981-5.177-1.188-1.008-2.318-2.083-3.5-3.1-.443-.383-.624-.64-.135-1.184,2.344-2.609,4.725-5.179,7.3-7.569.3-.276.537-.7.956-.059,1.694,2.6,3.426,5.183,5.138,7.776.035.053,0,.151,0,.227a1.643,1.643,0,0,1-1.113.25,1.794,1.794,0,0,0-1.866,1.8c-.251,2.348-.53,4.693-.8,7.039" transform="translate(-65.892 -44.304)" fill="#fe502d"/>
        <path id="Trazado_180435" data-name="Trazado 180435" d="M127.569,100.223c.268-2.346.547-4.691.8-7.039a1.794,1.794,0,0,1,1.866-1.8,1.643,1.643,0,0,0,1.113-.25c.7.361.734.971.651,1.652-.414,3.4-.814,6.8-1.252,10.472a39.435,39.435,0,0,1-3.177-3.037" transform="translate(-87.604 -62.585)" fill="#fe502d"/>
      </g>
    </g>
  </g>
</svg>
