<svg id="Grupo_118458" data-name="Grupo 118458" xmlns="http://www.w3.org/2000/svg" xmlns:xlink="http://www.w3.org/1999/xlink" width="52.031" height="70" viewBox="0 0 52.031 70">
  <defs>
    <clipPath id="clip-path">
      <rect id="Rectángulo_36989" data-name="Rectángulo 36989" width="52.031" height="70" fill="#ffca00"/>
    </clipPath>
  </defs>
  <g id="Grupo_118458-2" data-name="Grupo 118458" clip-path="url(#clip-path)">
    <path id="Trazado_180699" data-name="Trazado 180699" d="M12.265,5.475a1.434,1.434,0,0,1,.812-2.023,25.891,25.891,0,0,1,9.4-3.21c.313-.043.677.037.937-.241H28.2c.945.3,1.943.283,2.9.506,10.129,2.354,16.872,8.47,19.865,18.4A25.684,25.684,0,0,1,41.545,46.79a7.173,7.173,0,0,0-3,3.681c-.128.447-.079.667.361.9a4.033,4.033,0,0,1,1.444,5.861.637.637,0,0,0-.037.875,4.026,4.026,0,0,1-1.542,5.974.7.7,0,0,0-.455.769,9.063,9.063,0,0,1-.043,1.636,4.065,4.065,0,0,1-4.079,3.5q-8.165.02-16.331,0a4.091,4.091,0,0,1-4.147-4.162.449.449,0,0,1,0-.068,1.8,1.8,0,0,0-.994-2.049,3.907,3.907,0,0,1-1.011-5.586.634.634,0,0,0,0-.873,4.012,4.012,0,0,1,1.408-5.864c.472-.259.5-.5.365-.96a6.148,6.148,0,0,0-2.432-3.2A25.49,25.49,0,0,1,3.1,38.176c-4.267-8.428-4.116-16.829.4-25.136a1.419,1.419,0,0,1,2.022-.817c.835.736.89,1.22.266,2.324A23.232,23.232,0,0,0,7.838,40.43a26.955,26.955,0,0,0,5,4.724,8.256,8.256,0,0,1,3.424,5.164c.091.491.281.6.7.538a.473.473,0,0,1,.068,0q8.985,0,17.97.007c.457,0,.7-.04.793-.607a7.469,7.469,0,0,1,2.122-3.97,16.9,16.9,0,0,1,2.035-1.715A23.238,23.238,0,0,0,14.53,5.775c-1.038.591-1.537.525-2.265-.3M26.017,61.792q5.331,0,10.663,0c1,0,1.622-.519,1.636-1.345.014-.847-.625-1.384-1.661-1.387-1.413,0-2.825,0-4.238,0-.99,0-1.612-.538-1.612-1.367s.622-1.362,1.612-1.365c1.435,0,2.871,0,4.306,0,.981,0,1.606-.557,1.592-1.388a1.4,1.4,0,0,0-1.568-1.342q-10.731,0-21.462,0a1.393,1.393,0,0,0-1.568,1.342c-.014.83.613,1.384,1.591,1.389,1.344.006,2.689,0,4.033,0,.159,0,.319,0,.478,0a1.376,1.376,0,0,1,1.408,1.365,1.357,1.357,0,0,1-1.409,1.361c-1.549.019-3.1-.006-4.648.012a1.356,1.356,0,0,0-1.379,1.784,1.408,1.408,0,0,0,1.494.948q5.366-.011,10.731,0m.068,2.735H17.68c-1.295,0-1.295,0-1.231,1.317a1.363,1.363,0,0,0,1.435,1.41q8.132.015,16.263,0a1.36,1.36,0,0,0,1.435-1.41c.011-.227-.023-.459.008-.683.071-.5-.1-.653-.622-.648-2.961.028-5.922.014-8.883.014" transform="translate(0 -0.001)" fill="#020202"/>
    <path id="Trazado_180700" data-name="Trazado 180700" d="M24.723,17.73c.728.825,1.227.891,2.265.3a23.238,23.238,0,0,1,25.419,38.8,16.9,16.9,0,0,0-2.035,1.714,7.469,7.469,0,0,0-2.123,3.97c-.094.567-.336.607-.793.606q-8.985-.016-17.97-.007a.472.472,0,0,0-.068,0c-.42.062-.61-.048-.7-.538a8.256,8.256,0,0,0-3.424-5.164,26.955,26.955,0,0,1-5-4.724A23.232,23.232,0,0,1,18.241,26.8c.624-1.1.569-1.588-.266-2.324l2.106-2.671c.809.516,1.431.512,1.956-.014s.533-1.144.016-1.956l2.671-2.106m13.9,6.455a9.888,9.888,0,0,0-8.79,5.121,4.209,4.209,0,0,0,7.248,4.28,1.558,1.558,0,0,1,1.549-.9,1.371,1.371,0,0,1,1.21.966,1.427,1.427,0,0,1-.386,1.564c-1.143,1.143-2.328,2.244-3.4,3.454a6.243,6.243,0,0,0-1.67,3.586c-.077.792-.122,1.589-.132,2.385a4.23,4.23,0,1,0,8.451.126,1.93,1.93,0,0,1,.6-1.458c.78-.765,1.561-1.531,2.321-2.316a9.937,9.937,0,0,0-6.994-16.81M38.458,50.5a4.224,4.224,0,1,0,4.25,4.233,4.221,4.221,0,0,0-4.25-4.233" transform="translate(-12.458 -12.256)" fill="#ffca00"/>
    <path id="Trazado_180701" data-name="Trazado 180701" d="M42.116,39.9c.518.812.513,1.427-.016,1.956s-1.147.53-1.956.014c-.489-.812-.47-1.46.056-1.962.506-.483,1.124-.485,1.915-.008" transform="translate(-32.521 -32.318)" fill="#030302"/>
    <path id="Trazado_180702" data-name="Trazado 180702" d="M87.354,301.518q-5.366,0-10.731,0a1.408,1.408,0,0,1-1.494-.948,1.355,1.355,0,0,1,1.379-1.784c1.549-.018,3.1.007,4.648-.012a1.357,1.357,0,0,0,1.409-1.361,1.377,1.377,0,0,0-1.408-1.365c-.159-.007-.319,0-.478,0-1.344,0-2.689,0-4.033,0-.978,0-1.605-.559-1.591-1.388a1.393,1.393,0,0,1,1.568-1.342q10.731,0,21.462,0a1.4,1.4,0,0,1,1.568,1.342c.014.831-.612,1.383-1.592,1.388-1.435.006-2.871,0-4.306,0-.991,0-1.612.536-1.613,1.365s.622,1.363,1.612,1.367c1.413.005,2.825,0,4.238,0,1.036,0,1.676.54,1.661,1.387-.014.826-.635,1.344-1.636,1.345q-5.331,0-10.663,0m1.363-4.108a1.364,1.364,0,1,0-1.391,1.371,1.377,1.377,0,0,0,1.391-1.371" transform="translate(-61.337 -239.727)" fill="#f1edee"/>
    <path id="Trazado_180703" data-name="Trazado 180703" d="M99.575,353.122c2.961,0,5.922.015,8.883-.014.527-.005.693.149.622.648-.032.223,0,.455-.008.683a1.36,1.36,0,0,1-1.435,1.41q-8.132.015-16.263,0a1.363,1.363,0,0,1-1.435-1.41c-.064-1.317-.064-1.317,1.231-1.317h8.405" transform="translate(-73.49 -288.595)" fill="#858fae"/>
    <path id="Trazado_180704" data-name="Trazado 180704" d="M101.31,65.292A9.936,9.936,0,0,1,108.3,82.1c-.76.785-1.541,1.551-2.321,2.316a1.93,1.93,0,0,0-.6,1.458,4.23,4.23,0,1,1-8.451-.126c.009-.8.055-1.593.132-2.385a6.242,6.242,0,0,1,1.67-3.586c1.075-1.21,2.26-2.311,3.4-3.454a1.427,1.427,0,0,0,.386-1.564,1.371,1.371,0,0,0-1.21-.966,1.559,1.559,0,0,0-1.549.9,4.209,4.209,0,0,1-7.248-4.28,9.888,9.888,0,0,1,8.789-5.121M99.664,85.137c0,.2,0,.41,0,.615a1.546,1.546,0,0,0,1.507,1.74,1.51,1.51,0,0,0,1.484-1.69,4.37,4.37,0,0,1,1.378-3.3c.853-.854,1.742-1.676,2.539-2.579a7.168,7.168,0,1,0-11.526-8.441,1.539,1.539,0,0,0,.328,2.275,1.506,1.506,0,0,0,2.185-.676,4.054,4.054,0,0,1,4.045-2,3.923,3.923,0,0,1,3.494,2.75,4.076,4.076,0,0,1-1.1,4.5c-.869.869-1.728,1.75-2.617,2.6a4.981,4.981,0,0,0-1.722,4.2" transform="translate(-75.146 -53.363)" fill="#030302"/>
    <path id="Trazado_180705" data-name="Trazado 180705" d="M123.446,209.331a4.224,4.224,0,1,1-4.216,4.2,4.217,4.217,0,0,1,4.216-4.2m0,2.74a1.485,1.485,0,0,0-1.479,1.475,1.5,1.5,0,1,0,2.991-.033,1.486,1.486,0,0,0-1.512-1.442" transform="translate(-97.446 -171.086)" fill="#030302"/>
    <path id="Trazado_180706" data-name="Trazado 180706" d="M137.663,309.654a1.364,1.364,0,1,1-1.337-1.357,1.377,1.377,0,0,1,1.337,1.357" transform="translate(-110.283 -251.971)" fill="#030302"/>
    <path id="Trazado_180707" data-name="Trazado 180707" d="M112,97.516a4.981,4.981,0,0,1,1.722-4.2c.889-.849,1.748-1.73,2.617-2.6a4.076,4.076,0,0,0,1.1-4.5,3.923,3.923,0,0,0-3.494-2.75,4.054,4.054,0,0,0-4.045,2,1.506,1.506,0,0,1-2.185.676,1.539,1.539,0,0,1-.328-2.275,7.168,7.168,0,1,1,11.525,8.441c-.8.9-1.686,1.725-2.539,2.579a4.37,4.37,0,0,0-1.378,3.3,1.51,1.51,0,0,1-1.484,1.69A1.546,1.546,0,0,1,112,98.13c0-.2,0-.41,0-.615" transform="translate(-87.483 -65.742)" fill="#fefefe"/>
    <path id="Trazado_180708" data-name="Trazado 180708" d="M135.692,224.33a1.486,1.486,0,0,1,1.512,1.442,1.5,1.5,0,1,1-2.991.033,1.485,1.485,0,0,1,1.479-1.475" transform="translate(-109.692 -183.344)" fill="#fefefe"/>
  </g>
</svg>
