<svg xmlns="http://www.w3.org/2000/svg" xmlns:xlink="http://www.w3.org/1999/xlink" width="400" height="370" viewBox="0 0 400 370">
  <defs>
    <clipPath id="clip-path">
      <rect id="Rect치ngulo_36932" data-name="Rect치ngulo 36932" width="120" height="106.206" fill="none"/>
    </clipPath>
  </defs>
  <g id="Grupo_118345" data-name="Grupo 118345" transform="translate(-390 -2540)">
    <rect id="Rect치ngulo_36865" data-name="Rect치ngulo 36865" width="400" height="370" transform="translate(390 2540)" fill="#ffca00"/>
    <path id="Trazado_180477" data-name="Trazado 180477" d="M61.391,19.813H55.754L54.77,23H50.375L56.633,5.938H60.5L66.8,23H62.387Zm-4.652-3.176h3.668l-1.84-5.918Zm14.3-6.316.129,1.488a4.36,4.36,0,0,1,3.621-1.723A3.21,3.21,0,0,1,78.031,12a4.22,4.22,0,0,1,3.727-1.91q3.855,0,3.961,4.664V23H81.758V15a2.417,2.417,0,0,0-.328-1.418,1.4,1.4,0,0,0-1.2-.445,1.871,1.871,0,0,0-1.746,1.043l.012.164V23H74.539V15.02a2.541,2.541,0,0,0-.316-1.441,1.393,1.393,0,0,0-1.207-.445,1.894,1.894,0,0,0-1.734,1.043V23H67.332V10.32ZM94.109,23.234a6.518,6.518,0,0,1-4.723-1.74,6.009,6.009,0,0,1-1.8-4.529v-.328A7.787,7.787,0,0,1,88.3,13.2a5.274,5.274,0,0,1,2.1-2.3,6.35,6.35,0,0,1,3.281-.814,5.489,5.489,0,0,1,4.219,1.658,6.516,6.516,0,0,1,1.547,4.623V17.9H91.6a2.846,2.846,0,0,0,.926,1.676,2.755,2.755,0,0,0,1.852.609,3.549,3.549,0,0,0,2.93-1.312l1.8,2.133a5.045,5.045,0,0,1-2.092,1.623A7.069,7.069,0,0,1,94.109,23.234Zm-.445-10.1q-1.734,0-2.062,2.3h3.984v-.3a1.956,1.956,0,0,0-.48-1.471A1.912,1.912,0,0,0,93.664,13.133Zm11-2.812.129,1.488a4.3,4.3,0,0,1,3.621-1.723,3.618,3.618,0,0,1,2.959,1.184,5.635,5.635,0,0,1,1.014,3.563V23H108.43V15a2.14,2.14,0,0,0-.387-1.412,1.789,1.789,0,0,0-1.406-.451,1.883,1.883,0,0,0-1.723.914V23h-3.949V10.32ZM121.719,23a4.459,4.459,0,0,1-.375-1.137,3.672,3.672,0,0,1-3.047,1.371,4.5,4.5,0,0,1-3.047-1.084A3.45,3.45,0,0,1,114,19.426a3.546,3.546,0,0,1,1.523-3.117,7.761,7.761,0,0,1,4.43-1.055h1.219v-.671q0-1.755-1.512-1.755a1.236,1.236,0,0,0-1.406,1.39H114.3a3.54,3.54,0,0,1,1.564-2.985,6.575,6.575,0,0,1,3.99-1.147,5.764,5.764,0,0,1,3.832,1.184,4.115,4.115,0,0,1,1.441,3.246v5.613a5.748,5.748,0,0,0,.539,2.672V23Zm-2.473-2.578a2.2,2.2,0,0,0,1.225-.316,1.983,1.983,0,0,0,.7-.715V17.363H120.02q-2.062,0-2.062,1.852a1.131,1.131,0,0,0,.363.873A1.315,1.315,0,0,0,119.246,20.422Zm12.727-.469h5.777V23H126.98V20.8l5.625-7.43h-5.379V10.32h10.395v2.133ZM146.809,23a4.459,4.459,0,0,1-.375-1.137,3.672,3.672,0,0,1-3.047,1.371,4.5,4.5,0,0,1-3.047-1.084,3.45,3.45,0,0,1-1.254-2.725,3.546,3.546,0,0,1,1.523-3.117,7.761,7.761,0,0,1,4.43-1.055h1.219v-.671q0-1.755-1.512-1.755a1.236,1.236,0,0,0-1.406,1.39h-3.949a3.54,3.54,0,0,1,1.564-2.985,6.575,6.575,0,0,1,3.99-1.147,5.764,5.764,0,0,1,3.832,1.184,4.115,4.115,0,0,1,1.441,3.246v5.613a5.748,5.748,0,0,0,.539,2.672V23Zm-2.473-2.578a2.2,2.2,0,0,0,1.225-.316,1.983,1.983,0,0,0,.7-.715V17.363h-1.148q-2.062,0-2.062,1.852a1.131,1.131,0,0,0,.363.873A1.315,1.315,0,0,0,144.336,20.422Zm14.707-.984a.912.912,0,0,0-.527-.809,8.021,8.021,0,0,0-2-.633,9.138,9.138,0,0,1-2.437-.861,4.083,4.083,0,0,1-1.465-1.295,3.092,3.092,0,0,1-.5-1.746,3.5,3.5,0,0,1,1.441-2.877,5.938,5.938,0,0,1,3.773-1.131,6.579,6.579,0,0,1,4.031,1.137,3.555,3.555,0,0,1,1.523,2.988h-3.961q0-1.523-1.605-1.523a1.591,1.591,0,0,0-1.043.346,1.07,1.07,0,0,0-.422.861.982.982,0,0,0,.516.855,4.872,4.872,0,0,0,1.646.539,14.228,14.228,0,0,1,1.986.5q2.859.984,2.859,3.527a3.321,3.321,0,0,1-1.541,2.824,6.758,6.758,0,0,1-3.99,1.09,6.9,6.9,0,0,1-2.906-.586,4.86,4.86,0,0,1-1.992-1.594,3.609,3.609,0,0,1-.715-2.121H155.4a1.526,1.526,0,0,0,.586,1.283,2.41,2.41,0,0,0,1.441.4,1.9,1.9,0,0,0,1.213-.328A1.05,1.05,0,0,0,159.043,19.438Z" transform="translate(483 2770.052)" fill="#12263f"/>
    <g id="Grupo_118325" data-name="Grupo 118325" transform="translate(529.995 2651.949)">
      <g id="Grupo_118324" data-name="Grupo 118324" clip-path="url(#clip-path)">
        <path id="Trazado_180451" data-name="Trazado 180451" d="M120,104.673a3.411,3.411,0,0,1-3.263,1.533q-56.773-.038-113.546-.02c-.2,0-.391.006-.586,0C.306,106.1-.66,104.418.479,102.4q4.825-8.549,9.7-17.073L57.458,2.107q.144-.254.293-.506C59-.519,60.979-.54,62.206,1.573c1.291,2.224,2.554,4.463,3.825,6.7q26.5,46.639,53,93.278c.325.571.644,1.145.967,1.717ZM11.516,92.319c2.322,0,4.389-.005,6.456,0a2.515,2.515,0,0,1,2.58,1.452,2.292,2.292,0,0,1-2.313,3.163c-2.812.039-5.624.006-8.436.016-.4,0-.857-.154-1.137.356-.762,1.387-1.549,2.76-2.375,4.224H113.7L59.99,7.006,11.516,92.319" transform="translate(0 0)" fill="#020202"/>
        <path id="Trazado_180452" data-name="Trazado 180452" d="M26.643,109.167,75.118,23.853l53.706,94.526H21.418c.825-1.463,1.613-2.836,2.375-4.223.28-.51.734-.354,1.137-.356,2.812-.011,5.625.022,8.436-.017a2.292,2.292,0,0,0,2.313-3.163,2.515,2.515,0,0,0-2.58-1.451c-2.067-.007-4.134,0-6.456,0m41.54-36.949c0,3.881-.009,6.926,0,9.97.006,1.325-.022,2.658.1,3.974a5.008,5.008,0,0,0,4.271,4.466,21.114,21.114,0,0,0,3.388.116q6.108,0,6.1-6.122.007-11.3,0-22.6c0-.7-.04-1.4-.107-2.1a6.909,6.909,0,0,0-6.836-6.126,6.834,6.834,0,0,0-6.8,6.152c-.323,4.363-.028,8.739-.122,12.271m6.979,36.935a6.893,6.893,0,0,0,6.862-6.963,6.906,6.906,0,0,0-13.811.088,6.887,6.887,0,0,0,6.949,6.875m-34.777,4.633a2.3,2.3,0,1,0-2.172-2.437,2.311,2.311,0,0,0,2.172,2.437" transform="translate(-15.128 -16.847)" fill="#fe502d"/>
        <path id="Trazado_180453" data-name="Trazado 180453" d="M180.565,144.224c.094-3.533-.2-7.909.122-12.271a6.833,6.833,0,0,1,6.8-6.152,6.909,6.909,0,0,1,6.836,6.126c.067.7.106,1.4.107,2.1q.011,11.3,0,22.6,0,6.133-6.1,6.122a21.047,21.047,0,0,1-3.389-.116,5.007,5.007,0,0,1-4.271-4.466c-.125-1.316-.1-2.649-.1-3.975-.013-3.044,0-6.089,0-9.97m4.613.72c0,3.979.015,7.959-.012,11.938-.006.887.285,1.316,1.218,1.253a11.613,11.613,0,0,1,1.988,0c1.152.12,1.475-.367,1.469-1.482-.038-7.724-.022-15.448-.016-23.173a4.307,4.307,0,0,0-.194-1.5,2.26,2.26,0,0,0-4.126-.327,3.634,3.634,0,0,0-.332,1.818q.014,5.735,0,11.469" transform="translate(-127.51 -88.854)" fill="#050503"/>
        <path id="Trazado_180454" data-name="Trazado 180454" d="M187.7,281.061a6.887,6.887,0,0,1-6.949-6.875,6.906,6.906,0,0,1,13.811-.088,6.893,6.893,0,0,1-6.862,6.963m2.253-6.84a2.3,2.3,0,1,0-2.374,2.24,2.38,2.38,0,0,0,2.374-2.24" transform="translate(-127.663 -188.756)" fill="#030302"/>
        <path id="Trazado_180455" data-name="Trazado 180455" d="M80.772,319.015a2.3,2.3,0,1,1,2.4-2.212,2.315,2.315,0,0,1-2.4,2.212" transform="translate(-55.514 -222.077)" fill="#050503"/>
        <path id="Trazado_180456" data-name="Trazado 180456" d="M196.326,156.154q0-5.735,0-11.469a3.63,3.63,0,0,1,.332-1.818,2.26,2.26,0,0,1,4.126.327,4.307,4.307,0,0,1,.194,1.5c0,7.725-.022,15.449.016,23.173.006,1.115-.318,1.6-1.469,1.482a11.611,11.611,0,0,0-1.988,0c-.933.064-1.224-.365-1.218-1.253.027-3.979.012-7.958.012-11.938" transform="translate(-138.657 -100.064)" fill="#fff"/>
        <path id="Trazado_180457" data-name="Trazado 180457" d="M201.029,285.37a2.3,2.3,0,1,1-2.28-2.34,2.368,2.368,0,0,1,2.28,2.34" transform="translate(-138.742 -199.905)" fill="#fff"/>
      </g>
    </g>
  </g>
</svg>
