<svg id="Grupo_118335" data-name="Grupo 118335" xmlns="http://www.w3.org/2000/svg" xmlns:xlink="http://www.w3.org/1999/xlink" width="70.053" height="70" viewBox="0 0 70.053 70">
  <defs>
    <clipPath id="clip-path">
      <rect id="Rectángulo_36942" data-name="Rectángulo 36942" width="70.053" height="70" fill="none"/>
    </clipPath>
  </defs>
  <g id="Grupo_118334" data-name="Grupo 118334" clip-path="url(#clip-path)">
    <path id="Trazado_180535" data-name="Trazado 180535" d="M55.846,31.614a.948.948,0,0,0,.857,1.057.835.835,0,0,1,.328.123c1.108.8,2.115.509,3.2-.147,1.18-.716,1.22-.651,2.214.343,1.53,1.53,3.052,3.068,4.6,4.582.282.276.383.5.14.83a2.683,2.683,0,0,0-.205.368c-1.1,2.127-1.091,2.125-.126,4.291a.71.71,0,0,0,.512.417c.741.22,1.47.482,2.214.692a.542.542,0,0,1,.481.621q-.029,3.739,0,7.479c0,.356-.067.581-.45.641a3.18,3.18,0,0,0-.47.144c-2.268.729-2.258.733-3.1,2.963a.7.7,0,0,0,.1.649c.339.669.671,1.343,1.039,2a.576.576,0,0,1-.1.839q-2.672,2.616-5.293,5.284c-.235.238-.425.335-.714.119a3.028,3.028,0,0,0-.432-.235c-2.116-1.095-2.114-1.09-4.289-.124a.708.708,0,0,0-.418.511c-.216.718-.494,1.419-.673,2.146-.115.466-.344.553-.783.549q-3.634-.033-7.268,0c-.417,0-.662-.091-.725-.524a2.6,2.6,0,0,0-.129-.4c-.725-2.272-.729-2.263-2.962-3.106a.708.708,0,0,0-.651.1c-.67.338-1.341.676-2,1.042a.581.581,0,0,1-.84-.107q-2.616-2.672-5.285-5.292c-.241-.237-.327-.429-.119-.716a3.309,3.309,0,0,0,.237-.431c1.1-2.126,1.093-2.124.121-4.291a.714.714,0,0,0-.515-.414c-.741-.223-1.471-.481-2.214-.7a.545.545,0,0,1-.476-.624q.031-3.739,0-7.479a.545.545,0,0,1,.461-.634c.743-.213,1.474-.468,2.211-.7.176-.056.377-.063.463-.271a12.648,12.648,0,0,0,.908-2.277c.116-.578-.476-1.068-.69-1.647a2.915,2.915,0,0,0-.762.867,19.122,19.122,0,0,1-9.879,6.541c-.446.127-.647.269-.622.786.053,1.1.01,2.21.017,3.315,0,.578-.417,1.137-.342,1.611s.771.76,1.036,1.272a3.613,3.613,0,0,1,.434,1.687c0,3.01.021,6.021-.008,9.031a5.64,5.64,0,0,1-11.279-.038c-.023-2.963,0-5.927-.008-8.89a3.335,3.335,0,0,1,1.233-2.724c.261-.214.336-.373.171-.689a2.992,2.992,0,0,1-.275-1.439c.008-1.105-.016-2.211.013-3.316.009-.36-.131-.478-.443-.572C6.755,44.471,2.066,39.511.395,31.842c-1.966-9.021,3.62-18.7,12.368-21.687a19.309,19.309,0,0,1,7.058-1.1c.427.017.558-.072.551-.522-.029-1.669-.019-3.339-.01-5.009A3.371,3.371,0,0,1,23.861,0Q45.206,0,66.551,0A3.357,3.357,0,0,1,70.04,3.462q.014,12.347,0,24.694a3.368,3.368,0,0,1-3.492,3.456c-3.551.011-7.1,0-10.7,0M45.273,2.26H24.181c-1.212,0-1.562.343-1.562,1.537q0,11.991,0,23.981c0,1.245.336,1.576,1.594,1.576H66.186c1.26,0,1.6-.333,1.6-1.574q0-11.955,0-23.911c0-1.291-.324-1.611-1.631-1.611H45.273M20.36,22.445c0-1.951-.031-3.9.018-5.852.016-.637-.18-.777-.779-.792A12.428,12.428,0,1,0,30.974,32.245c.2-.581.053-.648-.487-.641-2.139.027-4.278.015-6.417.01a3.416,3.416,0,0,1-3.709-3.739c0-1.81,0-3.619,0-5.429M64.579,38.492c-.019-.25-.2-.351-.324-.48q-1.092-1.1-2.193-2.2c-1.055-1.056-1.086-1.108-2.338-.367a1.8,1.8,0,0,1-2.286.009,4.16,4.16,0,0,0-1.086-.494c-.7-.267-1.587-.334-2.051-.817a5.052,5.052,0,0,1-.744-2.094.506.506,0,0,0-.584-.444q-2.117.027-4.234,0c-.332,0-.508.078-.6.426-.151.59-.379,1.16-.542,1.747a.823.823,0,0,1-.638.643,6.521,6.521,0,0,0-1.913.685,3.007,3.007,0,0,1-3.927-.124c-.3-.232-.526-.157-.782.114-.613.65-1.262,1.265-1.891,1.9-.445.45-1.12.852-1.251,1.384-.143.581.452,1.185.777,1.745a1.2,1.2,0,0,1,.006,1.411,4.611,4.611,0,0,0-.736,1.588,2.971,2.971,0,0,1-2.844,2.7c-.42.051-.507.287-.5.68.025,1.246.055,2.5-.009,3.739-.036.692.177,1.042.858,1.134a2.366,2.366,0,0,1,2.337,2.211,1.688,1.688,0,0,0,.312.779,2.891,2.891,0,0,1-.095,3.852c-.28.359-.144.611.154.893.749.713,1.469,1.458,2.2,2.189,1.027,1.027,1.028,1.027,2.292.376.271-.14.552-.266.811-.425a.7.7,0,0,1,.779,0,7.06,7.06,0,0,0,1.9.888,3.011,3.011,0,0,1,2.689,2.863c.056.44.317.488.693.481,1.058-.021,2.117-.007,3.176-.007,1.407,0,1.46.014,1.81-1.332.246-.947.656-1.581,1.7-1.716a2.633,2.633,0,0,0,1.175-.45,2.891,2.891,0,0,1,3.857.11c.317.25.559.175.84-.119.844-.885,1.689-1.773,2.6-2.587.552-.493.692-.92.229-1.527a2.256,2.256,0,0,1-.093-3.087,2.193,2.193,0,0,0,.287-.64c.266-.724.338-1.642.835-2.124a5.292,5.292,0,0,1,2.158-.768.471.471,0,0,0,.393-.552c-.017-.893,0-1.788-.007-2.681,0-.657.2-1.445-.091-1.934s-1.174-.465-1.788-.69a2.373,2.373,0,0,0-.335-.108.712.712,0,0,1-.586-.6,9.447,9.447,0,0,0-1.1-2.809,1.68,1.68,0,0,1,.031-2.1,10.347,10.347,0,0,0,.666-1.28m-45.327,6.67A16.97,16.97,0,0,0,35.438,33.087c.441-1.474.441-1.474-1.12-1.474a1,1,0,0,1-.211,0c-.512-.113-.658.158-.785.61A14.659,14.659,0,1,1,18.744,13.551c.527-.012,1.272.263,1.527-.1.267-.383.054-1.085.1-1.645.033-.428-.162-.5-.53-.511a16.94,16.94,0,1,0-.586,33.869M22.6,60.015c0-1.458,0-2.916,0-4.374,0-1.031-.383-1.422-1.391-1.427q-1.976-.01-3.951,0c-1.011,0-1.393.394-1.395,1.422q-.006,4.268,0,8.537a3.373,3.373,0,1,0,6.736.005c.008-1.387,0-2.775,0-4.163M17.018,49.186h-.037c0,.516-.015,1.033,0,1.548a1.115,1.115,0,0,0,1.192,1.189q1.055.031,2.111,0a1.11,1.11,0,0,0,1.187-1.193c.021-1.008-.02-2.018.018-3.026.017-.455-.2-.436-.509-.386a17.982,17.982,0,0,1-2.246.106c-.578.023-1.381-.381-1.655-.012-.29.392-.065,1.166-.065,1.773m20.31-14.255c.751-.756,1.543-1.477,2.241-2.279.482-.554.9-.688,1.5-.229a3.234,3.234,0,0,0,3.959.264c.468-.278.81-.477.816-1.073-2.461,0-4.922.006-7.383-.007-.351,0-.414.161-.471.454-.179.935-.413,1.858-.665,2.87" transform="translate(0 0)" fill="#020202"/>
    <path id="Trazado_180536" data-name="Trazado 180536" d="M142.57,11.983h20.88c1.306,0,1.631.32,1.631,1.611q0,11.955,0,23.911c0,1.241-.338,1.573-1.6,1.574H121.511c-1.258,0-1.594-.332-1.594-1.576q0-11.99,0-23.981c0-1.194.349-1.537,1.562-1.537H142.57m14.606,2.262a5.6,5.6,0,0,0-5.464,6.914.6.6,0,0,1-.344.822c-1.349.763-2.7,1.533-4.016,2.343a.714.714,0,0,1-.97-.085A4.286,4.286,0,0,0,141.256,24a.742.742,0,0,1-1.026-.062c-1.261-.943-2.524-1.886-3.823-2.774-.664-.454-1.221-.864-.735-1.767a1.024,1.024,0,0,0,.043-.418,4.511,4.511,0,0,0-8.426-2.459,4.435,4.435,0,0,0,.876,5.532.712.712,0,0,1,.215.95q-1.278,3.241-2.508,6.5a.746.746,0,0,1-.717.586,3.365,3.365,0,0,0-2.913,4.007,3.378,3.378,0,0,0,6.275.981,3.279,3.279,0,0,0-.439-3.862.617.617,0,0,1-.176-.736c.893-2.271,1.758-4.553,2.626-6.834.1-.268.218-.411.553-.388a3.892,3.892,0,0,0,2.586-.757c.347-.251.552-.17.849.05,1.378,1.023,2.748,2.059,4.171,3.016a1.1,1.1,0,0,1,.534,1.415,4.357,4.357,0,0,0,1.871,4.541,4.507,4.507,0,0,0,4.987.058,4.415,4.415,0,0,0,1.977-4.5.6.6,0,0,1,.351-.777c1.329-.751,2.655-1.509,3.951-2.315a.771.771,0,0,1,1.122.11,5.529,5.529,0,0,0,6.727.548,5.641,5.641,0,0,0-3.03-10.4m.072,15.8H153.23c-1.722,0-1.7,0-1.711,1.693,0,.465.128.579.583.576,3.007-.02,6.015-.011,9.023-.011,1.749,0,1.735,0,1.71-1.764-.006-.4-.117-.509-.511-.5-1.692.021-3.383.009-5.075.009m-4.585,4.516c-1.132,0-1.132,0-1.132,1.127s0,1.132,1.127,1.132,1.132,0,1.132-1.127,0-1.132-1.128-1.132m4.517,0c-1.132,0-1.132,0-1.132,1.127s0,1.132,1.127,1.132,1.132,0,1.132-1.127,0-1.132-1.128-1.132m4.481,2.259c1.163,0,1.163,0,1.163-1.166,0-1.093,0-1.093-1.1-1.093-1.163,0-1.163,0-1.163,1.166,0,1.093,0,1.093,1.1,1.093" transform="translate(-97.298 -9.722)" fill="#d3d3d3"/>
    <path id="Trazado_180537" data-name="Trazado 180537" d="M49.663,90.4c0,1.81,0,3.619,0,5.429a3.416,3.416,0,0,0,3.709,3.739c2.139.005,4.278.017,6.417-.01.54-.007.683.061.488.641A12.421,12.421,0,1,1,48.9,83.758c.6.015.795.155.779.792-.049,1.95-.018,3.9-.018,5.852M39.549,96.184a2.78,2.78,0,0,1-.492,0c-.639-.117-.774.2-.667.743.023.114.019.234.035.35a10.183,10.183,0,0,0,9.027,9.019c1.082.145,1.082.145,1.082-.914,0-.258-.02-.518,0-.774.035-.367-.059-.512-.477-.545a7.871,7.871,0,0,1-7.371-6.913c-.15-.962-.15-.962-1.142-.962" transform="translate(-29.303 -67.957)" fill="#91d3f0"/>
    <path id="Trazado_180538" data-name="Trazado 180538" d="M210.355,174.457a10.362,10.362,0,0,1-.666,1.28,1.679,1.679,0,0,0-.031,2.1,9.452,9.452,0,0,1,1.1,2.809.713.713,0,0,0,.586.6,2.351,2.351,0,0,1,.335.108c.614.224,1.49.189,1.788.69s.088,1.278.091,1.934c.005.894-.01,1.788.007,2.681a.472.472,0,0,1-.393.552,5.286,5.286,0,0,0-2.158.768c-.5.482-.569,1.4-.835,2.124a2.2,2.2,0,0,1-.287.64,2.255,2.255,0,0,0,.093,3.087c.463.607.323,1.033-.229,1.527-.911.814-1.756,1.7-2.6,2.587-.28.294-.522.369-.839.119a2.891,2.891,0,0,0-3.857-.11,2.631,2.631,0,0,1-1.175.449c-1.042.135-1.453.769-1.7,1.716-.35,1.346-.4,1.333-1.81,1.333-1.059,0-2.117-.014-3.176.007-.376.008-.638-.041-.693-.481a3.012,3.012,0,0,0-2.689-2.863,7.055,7.055,0,0,1-1.9-.888.7.7,0,0,0-.779,0c-.26.159-.54.285-.811.425-1.265.651-1.265.651-2.292-.376-.732-.732-1.452-1.476-2.2-2.189-.3-.283-.434-.535-.154-.893a2.891,2.891,0,0,0,.095-3.852,1.687,1.687,0,0,1-.312-.779,2.366,2.366,0,0,0-2.337-2.211c-.681-.092-.893-.442-.858-1.134.064-1.243.034-2.492.009-3.739-.008-.393.079-.628.5-.68a2.971,2.971,0,0,0,2.844-2.7,4.612,4.612,0,0,1,.736-1.588,1.2,1.2,0,0,0-.006-1.411c-.325-.56-.92-1.164-.777-1.745.131-.532.807-.934,1.251-1.384.628-.636,1.278-1.251,1.891-1.9.256-.271.485-.346.782-.114a3.008,3.008,0,0,0,3.927.125,6.513,6.513,0,0,1,1.913-.685.822.822,0,0,0,.638-.643c.163-.588.391-1.158.542-1.748.089-.348.266-.43.6-.426q2.117.023,4.234,0a.506.506,0,0,1,.584.444,5.051,5.051,0,0,0,.744,2.094c.464.482,1.354.55,2.051.817a4.166,4.166,0,0,1,1.086.494,1.8,1.8,0,0,0,2.285-.009c1.252-.741,1.283-.689,2.338.367q1.1,1.1,2.193,2.2c.129.13.306.23.324.48m-1.315,10.06A12.417,12.417,0,1,0,196.6,196.933a12.435,12.435,0,0,0,12.438-12.416" transform="translate(-145.776 -135.964)" fill="#ffca00"/>
    <path id="Trazado_180539" data-name="Trazado 180539" d="M29.107,93.711a16.94,16.94,0,1,1,.586-33.869c.369.011.564.083.53.511-.043.559.17,1.262-.1,1.644-.255.366-1,.09-1.527.1A14.68,14.68,0,1,0,43.176,80.77c.127-.452.273-.723.785-.61a1,1,0,0,0,.211,0c1.561,0,1.561,0,1.12,1.474A16.97,16.97,0,0,1,29.107,93.711" transform="translate(-9.855 -48.548)" fill="#e2e4e7"/>
    <path id="Trazado_180540" data-name="Trazado 180540" d="M90.817,293.209c0,1.387.006,2.775,0,4.163a3.373,3.373,0,1,1-6.736-.005q-.012-4.269,0-8.537c0-1.028.384-1.417,1.395-1.422q1.976-.009,3.952,0c1.007,0,1.387.4,1.39,1.427.005,1.458,0,2.916,0,4.374" transform="translate(-68.217 -233.194)" fill="#fe502d"/>
    <path id="Trazado_180541" data-name="Trazado 180541" d="M89.865,252.476c0-.607-.225-1.381.065-1.773.274-.37,1.077.035,1.655.011a17.98,17.98,0,0,0,2.246-.106c.305-.051.526-.07.509.386-.038,1.007,0,2.017-.018,3.026a1.11,1.11,0,0,1-1.187,1.193q-1.055.031-2.111,0a1.116,1.116,0,0,1-1.192-1.189c-.018-.515,0-1.032,0-1.548h.037" transform="translate(-72.847 -203.289)" fill="#e2e4e7"/>
    <path id="Trazado_180542" data-name="Trazado 180542" d="M166.862,23.967a5.641,5.641,0,0,1,3.03,10.4,5.529,5.529,0,0,1-6.728-.548.771.771,0,0,0-1.122-.11c-1.3.805-2.622,1.563-3.951,2.315a.6.6,0,0,0-.351.777,4.415,4.415,0,0,1-1.977,4.5,4.507,4.507,0,0,1-4.987-.058,4.357,4.357,0,0,1-1.871-4.541,1.1,1.1,0,0,0-.534-1.415c-1.423-.957-2.793-1.993-4.171-3.016-.3-.22-.5-.3-.849-.05a3.892,3.892,0,0,1-2.586.757c-.335-.023-.451.12-.553.388-.867,2.281-1.733,4.563-2.626,6.834a.617.617,0,0,0,.176.736A3.279,3.279,0,0,1,138.2,44.8a3.378,3.378,0,0,1-6.275-.981,3.365,3.365,0,0,1,2.913-4.007.746.746,0,0,0,.717-.586q1.231-3.26,2.508-6.5a.712.712,0,0,0-.215-.95,4.435,4.435,0,0,1-.876-5.532A4.511,4.511,0,0,1,145.4,28.7a1.024,1.024,0,0,1-.043.418c-.486.9.071,1.313.735,1.766,1.3.888,2.562,1.831,3.823,2.774a.742.742,0,0,0,1.026.062,4.286,4.286,0,0,1,5.126.243.714.714,0,0,0,.97.085c1.321-.81,2.667-1.58,4.016-2.343a.605.605,0,0,0,.344-.822,5.6,5.6,0,0,1,5.464-6.914m3.381,5.626a3.38,3.38,0,1,0-3.4,3.394,3.4,3.4,0,0,0,3.4-3.394M140.9,30.729a2.251,2.251,0,1,0-2.256-2.227,2.269,2.269,0,0,0,2.256,2.227m12.31,9.03a2.251,2.251,0,1,0-2.145-2.336,2.272,2.272,0,0,0,2.145,2.336m-16.844,3.4a1.118,1.118,0,1,0-1.126,1.11,1.128,1.128,0,0,0,1.126-1.11" transform="translate(-106.983 -19.445)" fill="#020202"/>
    <path id="Trazado_180543" data-name="Trazado 180543" d="M293.2,107.711c1.692,0,3.384.012,5.075-.009.395,0,.505.1.511.5.026,1.764.04,1.764-1.709,1.764-3.008,0-6.015-.01-9.023.011-.456,0-.585-.111-.583-.576.008-1.693-.011-1.693,1.711-1.693H293.2" transform="translate(-233.247 -87.388)" fill="#020202"/>
    <path id="Trazado_180544" data-name="Trazado 180544" d="M288.665,131.693c1.128,0,1.128,0,1.128,1.132s0,1.127-1.132,1.127-1.128,0-1.128-1.132,0-1.127,1.132-1.127" transform="translate(-233.299 -106.853)" fill="#020202"/>
    <path id="Trazado_180545" data-name="Trazado 180545" d="M312.612,131.693c1.128,0,1.128,0,1.128,1.132s0,1.127-1.132,1.127-1.128,0-1.128-1.132,0-1.127,1.132-1.127" transform="translate(-252.729 -106.853)" fill="#020202"/>
    <path id="Trazado_180546" data-name="Trazado 180546" d="M336.522,133.952c-1.1,0-1.1,0-1.1-1.093,0-1.166,0-1.166,1.163-1.166,1.1,0,1.1,0,1.1,1.093,0,1.166,0,1.166-1.163,1.166" transform="translate(-272.159 -106.853)" fill="#020202"/>
    <path id="Trazado_180547" data-name="Trazado 180547" d="M49.191,149.528c.992,0,.992,0,1.142.962A7.871,7.871,0,0,0,57.7,157.4c.418.033.512.177.477.545-.025.256,0,.516,0,.774,0,1.06,0,1.06-1.082.914a10.183,10.183,0,0,1-9.027-9.019c-.016-.116-.012-.235-.035-.35-.107-.546.028-.86.667-.743a2.78,2.78,0,0,0,.492,0" transform="translate(-38.946 -121.301)" fill="#020202"/>
    <path id="Trazado_180548" data-name="Trazado 180548" d="M228.58,203.978a12.417,12.417,0,1,1-12.432-12.421,12.44,12.44,0,0,1,12.432,12.421M206,203.935a10.162,10.162,0,1,0,10.219-10.12A10.181,10.181,0,0,0,206,203.935" transform="translate(-165.316 -155.426)" fill="#020202"/>
    <path id="Trazado_180549" data-name="Trazado 180549" d="M306.308,39.328a3.38,3.38,0,1,1-3.358-3.365,3.4,3.4,0,0,1,3.358,3.365" transform="translate(-243.049 -29.18)" fill="#ffca00"/>
    <path id="Trazado_180550" data-name="Trazado 180550" d="M170.1,40.462a2.251,2.251,0,1,1,2.244-2.24,2.269,2.269,0,0,1-2.244,2.24" transform="translate(-136.187 -29.178)" fill="#fe502d"/>
    <path id="Trazado_180551" data-name="Trazado 180551" d="M235.842,88.344a2.251,2.251,0,1,1,2.352-2.127,2.27,2.27,0,0,1-2.352,2.127" transform="translate(-189.616 -68.029)" fill="#2d54fe"/>
    <path id="Trazado_180552" data-name="Trazado 180552" d="M146.155,120.908a1.118,1.118,0,1,1-1.11-1.126,1.13,1.13,0,0,1,1.11,1.126" transform="translate(-116.774 -97.189)" fill="#2d54fe"/>
    <path id="Trazado_180553" data-name="Trazado 180553" d="M269.438,263.99a.873.873,0,0,0,0-.141c-.105-.639.032-.922.806-1.033a5.5,5.5,0,0,0,4.81-5.093c.044-.429.2-.488.549-.462a4.412,4.412,0,0,0,.984,0c.684-.106.811.184.732.805a7.925,7.925,0,0,1-6.743,7.005c-1.137.188-1.137.188-1.137-1.079" transform="translate(-218.591 -208.718)" fill="#020202"/>
  </g>
</svg>
